<svg xmlns="http://www.w3.org/2000/svg" width="218.34" fill="#e1e1e1"  height="309.45" viewBox="0 0 218.34 309.45">
  <path id="ar_riyad" d="M456.827,487.03l-10.13,2.63-16.39,2.39-58.85,5.04-8.85-.7-3.24-.72-5.22-2.39-8.51-5.59h0L332.1,475.6l-3.91-6.36-2.75-2.96-.22-1.6,1.23-6.11,3.34-6.09.08-2.96-1.06-1.73-3.6-3.6-3.07-4.93-5.76-5.01h0l-4.34-7.06-4.77-6.36-.58-1.47,1.76-8.48-.54-6.95,2.33-3.42.68-2.34-1.79-13.1.96-6.16-.31-1.57-6.45-1.41-5.65,1.47-3.7-1.28-1.26-2.3.28-5.34.86-2.93-1.84-1.88-3.09-.85-14.1-.63-3.01-1.63-5.15-11.26-.91-5.64-2.1-4.72-1.13-4.86-4.16-3.3-.36-3.13.44-3.64h0l-.04-9.03,1.41-4.88-.94-3.6,2.95-4.25.4-3.14h0l3.04-5.08,2.17-1.58,1.5.12,5.17,2.55,3.87.81,5.73.5,5.67-.89,5.69.87,2.43-1.79.85-2.18-1.91-3.83.15-2.3,5.42-6.69,3.27-2.52,12.88-3.15,2.84-2.81,3.09-1.74,2.28-4.47,2.02-1.97,3.13-.82,8.3,1.06,7.2-.68,5.53.22.84-3.9-.31-3.16-2.52-4.86,1.08-2.91-.14-.86-6.69-10.16-3.6-3.57-.49-1.52.84-5.74-.43-5.12,4.01-1.1,4.5-5.87,2.46-2.11,4.18-1.84.62-1.48-.15-2.5-1.34-2.5-3.6-2.99-2.35-.93h0l-.68-1.88.06-1.59.99-3.1,2.42-3.32,3.15-1.64h0l1.94,2.12,1.51.52,1.8-.86,1.3-2.23h0l3.32,2.32,2.12,2.21,1.4,5.11,1.24,1.53,10.41,6.08,5.75,1.06,3.46,4.22,4.06,3.38,2.34.63,5.64.11,3.01.81,9.86,6.94,2.49,1.19,2.36.05,4.41-1.01,1.55.22,6.45,6.08,1.47,2.52,8.88,3.16,3.86,2.08,1.09,2.56.43,4.96.38,22.63-.63,15.07.35,7.41.68,3.7,1.12,1.79,2.28,1.8,9.44,6.3,9.19,9.16,1.68,2.06,2.95,5.78,1.36,6.89-.02,7.75Z" transform="translate(-258.007 -187.64)"/>
</svg>
