<svg xmlns="http://www.w3.org/2000/svg" width="287.61" fill="#e1e1e1"  height="190.58" viewBox="0 0 287.61 190.58">
  <path id="al_hudud_ash_shamaliyah" d="M403.9,130.68l-12.46,4.39-8.25,8.72-12.66,23.68-9.15,12.15-1.29,4.67.39,1.52,1.47,1.83h0l-1.3,2.23-1.8.86-1.51-.52-1.94-2.12h0l-1.03-1.87-6.08-5.52-1.62-.95-3.28-1.26-9.98-1.29-2.44-1.44-2.02-2.48-2.78-7.7-5.28-9.66-1.08-1.62-1.58-1.23-1.57.21-5.05,3.38-2.52.84-6-3.12-6.49.31-.96-.31-1.42-1.46-.88-6.22-.67-.8-2.68.47-4.62,2.48-3.99.21-2.52-1.46-4.2-5.16-2.37-1.99-14.47-3.51-4.45.36-4.76,1.35-12.17-3.53-20.96,4.87-2.37-.37-4.38-1.9h0l5.62-5.69.89-6.06.39-9.36,1.4-2.47,6.16-4.72,27.27-16.85,5.26-4.73-.1-1.57-7.78-6.26-3.13-6.39-2.09-2.5-3.6-1.59-5.45.04-3.23-.65-7.57-6.08-2.7-1.26-7.01.88-17.95-.62-3.7-1.12-3.98-3.44-1.78-.77-4.38-.08-19.01-3.45-8.05.14-7.25,1.36-13.58,1.49-3.42-.04-2.31-.62-2.19-1.9-3.89-6.96-4.7-3.69-.58-6.72,2.84-8.34,1.27-6.06h0l35.03-10.31,10.52-9.17L165.5.15l1.16,1.54,2.33,1.41,18.56,5.42,6.07,2.84,3.42,2.31,88.69,62.66,66.05,45.65,7,1.62Z" transform="translate(-116.287 -0.15)"/>
</svg>
