<svg xmlns="http://www.w3.org/2000/svg" width="199.86" fill="#e1e1e1"  height="137.53" viewBox="0 0 199.86 137.53">
  <path id="ha_il" data-name="ha&apos;il" d="M183.657,221.36l1.99-2.39,2.34-7.76,3.13-3.74h0l4.44-4.13.29-2.41h0l-.36-.76h0l-2.95-1.84h0l-.82-.36h0l-3.73-2.16-1.4-3.91h0l-.14-.92h0l-.39-1.63h0l-2.24-9.37-1.05-2.51h0l-1.4-1.64-2.37-.99h0l-.77-.46-1.33-2.43-.75-.31h0l-2.31-.67h0l-1.3-1.59h0l-2.94-2.27-4.95-1.3h0l-1.54-.24h0l-4.08-.72h0l-2.36-.52-1.13-1.33h0l3.69-4.2,6.27-3.54,9.93-4.38,4.29-.69,13.07-7.6,12.9-5.53,3.04.66h0l4.38,1.9,2.37.37,20.96-4.87,12.17,3.53,4.76-1.35,4.45-.36,14.47,3.51,2.37,1.99,4.2,5.16,2.52,1.46,3.99-.21,4.62-2.48,2.68-.47.67.8.88,6.22,1.42,1.46.96.31,6.49-.31,6,3.12,2.52-.84,5.05-3.38,1.57-.21,1.58,1.23,1.08,1.62,5.28,9.66,2.78,7.7,2.02,2.48,2.44,1.44,9.98,1.29,3.28,1.26,1.62.95,6.08,5.52,1.03,1.87h0l-3.15,1.64-2.42,3.32-.99,3.1-.06,1.59.68,1.88h0l-5.05,5.84-7.47-.54-5.99-4.12-4.44-4.49-2.37-.86-4.15,1.34-14.5,7.43-2.72,2.76-2.76,5.79L288.7,218l-11.89,9.24-4.75,4.83-.87,4.3-3.32.78-1.6-.52-.77.41-1.89,4.8.82,6.33-.47.77-2.43-.25-3.95-1.42-.86.19-1.26,1.51-.32,2.44,2.4,4.78-.05.82-.81.65-5.95.77-6,3.57-4.95.74-1.2,1.37h0l-11.8-2.31-6.69.15-3.27,1.25-3.87,4.64-2.41,1.18-8.06.39-9.37,3.24-1.55-.03-1.56-.7-1.3-1.49-.63-1.61.51-10.14-2.07-9.81,1.9-10.9.12-4.16-.37-.79-.73-.24-3.27.83-.76-.24-1.18-1.5v-1.62l1.62-2.26.74-2.41-.24-2.66Z" transform="translate(-155.537 -135.12)"/>
</svg>
