<svg xmlns="http://www.w3.org/2000/svg" width="243.82" fill="#e1e1e1"  height="142.62" viewBox="0 0 243.82 142.62">
  <path id="al_jawf" d="M13.437,126.05l.66-2.82.74-.76-.18-.82,1.04-.61-.48-1.92.81-.46-.24-.86.61-1.36,38.21,6.79,14.65-12.07,8.85-14.78,25.76-5.16,5.78-13.18,11.32-6.78L86.707,31.54l33.69-9.9h0l-1.27,6.06-2.84,8.34.58,6.72,4.7,3.69,3.89,6.96,2.19,1.9,2.31.62,3.42.04,13.58-1.49,7.25-1.36,8.05-.14,19.01,3.45,4.38.08,1.78.77,3.98,3.44,3.7,1.12,17.95.62,7.01-.88,2.7,1.26,7.57,6.08,3.23.65,5.45-.04,3.6,1.59,2.09,2.5,3.13,6.39,7.78,6.26.1,1.57-5.26,4.73-27.27,16.85-6.16,4.72-1.4,2.47-.39,9.36-.89,6.06-5.62,5.69h0l-3.04-.66-12.9,5.53-13.07,7.6-4.29.69-9.93,4.38-6.27,3.54-3.69,4.2h0l-1.41-1.21-1.63-.49-3.39,1h0l-3.56,1.88-1.73.08h0l-1.3-1.08-.78-2.47-.75-.21h0l-1.64.32h0l-.77-.47h0l-1.54-1.26h0l-.8.04-2.4,1.75h0l-10.13-1.18h0l-3.32-1.1h0l-2.42-1.21-3.47-3.55h0l-.75-1.63h0l-.57-2.65h0l-.31-4.39.45-7.19h0l-.46-1.64h0l-1.57-.94-.77.41h0l-2.87,2.88h0l-1.58.72h0l-1.26,1.47h0l-2.58,6.06h0l-1.57.57h0l-8.55-.71-4.62-1.8-5.16-.72h0l-4.47.84h0l-4.39,1.03-3.28,1.37h0l-1.81.33-1.72-.64h0l-6.23-8.13h0l-1.17-1.64h0l-1.99-2.37-2.51-1.93h0l-5.08-1.54h0l-2.61-.51h0l-3.38.17h0l-3.31.69h0l-2.35-.22h0L32,132.82h0l-3.27.83h0l-2.3,2.26-1.93.12h0l-5.24-.69h0l-2.49-.78-1.64.61-3.23-.16h0l.39-2.96.64-1.27-.41-1.66.82-1.35Z" transform="translate(-11.897 -21.64)"/>
</svg>
