<svg xmlns="http://www.w3.org/2000/svg" width="107.99" fill="#e1e1e1"  height="129.02" viewBox="0 0 107.99 129.02">
  <path id="asir" d="M303.247,558.19l-1.98-3.01-2.95-.6-.68-.57-2.65-4.63-3.6-1.82.14-4.42-1-1.12-2.21.88-2.87,2.16-1.21,2.1-1.66,6.75-.57.66-1.4.14-1.52-.63-3.25-3.16-1.59-3.73-1.28-1.24-8.28-.4-.73-.64-.85-2.89-1.08-1.35-2.16-.23-2.94.45-.74-.47-.28-1.5.83-7.27-1.27-1.03-4.46.47h0l1.5-6.41-2.97-9.14-2.11-1.2-6.71-.21-1.43-.49-1.03-1.47-.61-2.97.49-10,1.97,1.88.75-.06,3.87-2.82,2.24-.38,4.74.44,1.52-.75.76-1.42,1.27-4.6-2.19-4.44,1.31-6.92-.21-1.51-1.85-1.89-2.29-.13-1.5.74h0l4.26-8.69-.23-3.55.84-1.79,5.82-3.97,1.04-1.45-.11-1.59-2.05-1.97-.23-.79,2.15-6.42h0l4.67,9.08,1.4,1.02,2.28.24,2.31-1.13,10.11-9.25,6.41-3.06,4.26-3.8,4.55-.28,3.16-1.52,2.26-.24,5.21,1.3,5.72-3.77,4.02-1.46h0l5.76,5.01,3.07,4.93,3.6,3.6,1.06,1.73-.08,2.96-3.34,6.09-1.23,6.11.22,1.6,2.75,2.96,3.91,6.36,13.54,12.09h0l-.04,6.08-1.12,1.39-3.85,1.94-.69,1.59,1.76,8.57-.17,2.12-.97,2.22-1.22,1.41-2.38,1.42-6.32,2.02-.95,1.05-1.06,3.02-1.08,1.48-8.21,7.56-3.08,3.43-.88,1.69-.08,1.66,1.38,6.12-.77,8.37-.67,1.47,1.3,5.93-1.15,3.24h0l-.11,1.8-2.37-2.3-5.29-3.37-2.46-.34Z" transform="translate(-237.647 -434.25)"/>
</svg>
