<svg xmlns="http://www.w3.org/2000/svg" width="118.32" fill="#e1e1e1"  height="103.66" viewBox="0 0 118.32 103.66">
  <path id="al_qussim" d="M238.577,264.11l1.2-1.37,4.95-.74,6-3.57,5.95-.77.81-.65.05-.82-2.4-4.78.32-2.44,1.26-1.51.86-.19,3.95,1.42,2.43.25.47-.77-.82-6.33,1.89-4.8.77-.41,1.6.52,3.32-.78.87-4.3,4.75-4.83L288.7,218l11.31-5.23,2.76-5.79,2.72-2.76,14.5-7.43,4.15-1.34,2.37.86,4.44,4.49,5.99,4.12,7.47.54,5.05-5.84h0l2.35.93,3.6,2.99,1.34,2.5.15,2.5-.62,1.48-4.18,1.84-2.46,2.11-4.5,5.87-4.01,1.1.43,5.12-.84,5.74.49,1.52,3.6,3.57,6.69,10.16.14.86-1.08,2.91,2.52,4.86.31,3.16-.84,3.9-5.53-.22-7.2.68-8.3-1.06-3.13.82-2.02,1.97-2.28,4.47L321,271.14l-2.84,2.81-12.88,3.15-3.27,2.52-5.42,6.69-.15,2.3,1.91,3.83-.85,2.18-2.43,1.79-5.69-.87-5.67.89-5.73-.5-3.87-.81-5.17-2.55-1.5-.12-2.17,1.58-3.04,5.08h0l-4.08-3.38L255,284.93l-1.4-1.13-5.31-1.39-1.74-2.01.58-11.32-.28-1.98-1.35-1.16Z" transform="translate(-238.577 -195.45)"/>
</svg>
