<svg xmlns="http://www.w3.org/2000/svg" width="141.59" fill="#e1e1e1" height="92.66" viewBox="0 0 141.59 92.66">
  <path id="najran" d="M399.937,569.4l-17.23-2.36-6.25-.42-6.25-4.03h-19.73l-1.39.98-1.95.27-2.64-1.39-2.7.12-8.79,1.12-.82,1.52-1.08-1.34-2.95.53-1.37,1.92-2.61-.72-1.6.43-1.97-.29-.68-.89-2.02.36-2.59-2.7.07-1.04h0l1.15-3.24-1.3-5.93.67-1.47.77-8.37-1.38-6.12.08-1.66.88-1.69,3.08-3.43,8.21-7.56,1.08-1.48,1.06-3.02.95-1.05,6.32-2.02,2.38-1.42,1.22-1.41.97-2.22.17-2.12-1.76-8.57.69-1.59,3.85-1.94,1.12-1.39.04-6.08h0l8.51,5.59,5.22,2.39,3.24.72,8.85.7,58.85-5.04,16.39-2.39,10.13-2.63h0l-7.99,63.49-2.59,24.45h0l-7.48,4.72-7.03-.36-8.18-11.04-10.7,1.53Z" transform="translate(-315.237 -487.03)"/>
</svg>
