<svg xmlns="http://www.w3.org/2000/svg" width="195.56" fill="#e1e1e1"  height="170.93" viewBox="0 0 195.56 170.93">
  <path id="tabuk" d="M89.2,284.95l1.2.84v.66l-1.49-.68Zm-7.94-17.27.92.6.42-.21.96,2.68h-.7l.08-1.17-2.04-1.11Zm4.56-1.3.65.16.38,1.27.55-.18-.26.83-.21-.47-1.25.04.41-1.09-.67-.43.4-.13Zm-.81-1.47.9.87-1.33-.1Zm-3.62-2.17.56.93-.85.56-.43-.67.72-.82Zm2.01-.4.94,2.34-1.03-.85Zm.41-.85.41.44-.26.62-.63-.79.48-.27Zm-14.24-2.19,1.39,1.61-1.55.1-.63-1.01.79-.7Zm2.62-1.99.67.53-.74.07-1.33-1.36-.02-1.67.47,1.79,1.05-.63-.1,1.27Zm-65.1-86.2.88.19.6,1.53-1.02.43-.73-1.53-.45.03-.06.82-.6-.11.24-.9,1.14-.46Zm-5.35-2.13.48.71-1.23.49-.45-.32.02.38,1.1.84,1.93-.34-.1.81,1.17,1.07-2.38.35-1.67-1.25-.33-2.16,1.46-.58Zm47.94-37.38,5.08,1.55h0l2.51,1.93,1.99,2.37h0l1.17,1.64h0l6.23,8.13h0l1.72.64,1.81-.32h0l3.28-1.38,4.39-1.03h0l4.46-.83h0l5.16.72,4.62,1.8,8.55.72h0l1.57-.57h0l2.58-6.05h0l1.26-1.48h0l1.58-.72h0l2.87-2.88h0l.77-.41,1.57.95h0l.46,1.64h0l-.45,7.19.31,4.39h0l.57,2.64h0l.75,1.64h0l3.48,3.55,2.42,1.21h0l3.31,1.1h0l10.14,1.18h0l2.4-1.75.79-.04h0l1.54,1.26h0l.78.47h0l1.64-.31h0l.75.21.79,2.47,1.29,1.08h0l1.73-.09,3.56-1.88h0l3.39-.99,1.64.49,1.4,1.22h0l1.13,1.32,2.36.52h0l4.08.72h0l1.54.24h0l4.95,1.31,2.94,2.27h0l1.3,1.6h0l2.31.67h0l.75.31,1.33,2.42.78.46h0l2.36.99,1.41,1.64h0l1.04,2.51,2.24,9.37h0l.39,1.63h0l.14.92h0l1.4,3.91,3.73,2.15h0l.81.36h0l2.96,1.84h0l.35.76h0l-.29,2.41-4.44,4.13h0l-3.13,3.74-2.33,7.77-1.99,2.39h0l-.56-1.01h0l-1.22-1.43h0l-.77-.43h0l-1.53.08h0l-10.45,2.03h0l-6.57.52h0l-2.26-.4-2.42-1.83h0l-1.52-1.23h0l-2.27-1.43-2.36-.58h0l-2.35-.83h0l-.96-3.08-1.28-1.17h0l-.75.04-.42.73.31,1.51h0l.52,1.5-.8.64-6.15-2.51-1.65.33-1.68,1.29h0l-1.54,1.37h0l-1.57,1.19-.75.01h0l-.74-.34-.19-.75.43-2.4h0l-.15-.75h0l-2.27-1.42h0l-1.47-1.04-.15-.79h0l.2-1.59h0l-1-1.24-5.38-.23h0l-1.52-.26h0l-.81-.56h0l-1.09-1.55h0l-2.45-4.27h0l-.56-1.68h0l-.8-3.16h0l-1.11-1.52h0l-.77-.31h0l-1.55.46h0l-5.85,3.33-1.73.42-2.42-.31h0l-2.35-1.74h0l-3.96-1.66h0l-1.55.39h0l-.76.34h0l-1.64,1.06h0l-3.22,1.5h0l-1.59.57h0l-1.67.81h0l-1.62.43h0l-3.12.69h0l-1,1.47.09.75.81.48h0l3.12-.68h0l1.54.18h0l1.43,1.38h0l.99,4.2h0l-.81,8.93.69,2.63,1,1.58h0l1.6,1.31h0l4.78,1.35h0l1.54.95h0l.36,1.18h0l-.26,1.76-3.15,5.54h0l-.16,2.33h0l.67,1.68h0l1.69,3.17.81,3.12h0l.28,1.56,1.95-1.78h0l1.53-.17,4.01,2.52h0l2.23,1.16h0l.73.62.54,2.27h0l.67,1.64,2.17,1.85h0l3.72,3.33,1.8,3.88h0l1.79,6.32h0l.74.31h0l3.17.13h0l1.12,1.4h0l-.25,2.3h0l-.1.74h0l-.84,4.77h0l.22,10.27h0l.12,3.18h0l-.22,1.56-.92,1.54-1.61.83-2.58.03h0l-2.31-.45-1.55.41h0l-.55.71h0l-1.17,1.81h0l-.79.71h0l-2.36.91h0l-5.65.48-.95,1.47-.55,3.24h0l-1.62-2.9.14-.69-.84.33-.56-1.64-2.78-1.51.33-.45-.77-1.66.84.07-.05-1.24-.92-.35.42.41-.78.58-1.33-1.78.74-.6,1.35.3-.89.44,1.2.37.35-1.18,1.15-.94-.69-1.49,1.33-3.11-1.45-2.83.79-1.46-.59-2.62-4.67-5.22-1.37-3.49.09-1.57-2.7-2.19.04-1.78-.93-.25-.22-2.07-1.07-1.57-2.11-.91-2.23-3.18-.39.01.53,1.51-.37.18-.61-.06-.53-.89-.9-.06-1.1-.86.18-1.06-.49.39-.45-.52-.58-1.92-.96-.3,1.62-2.56.64-2.31-.24-1.94-1.79-1.12-2.77-.16-.28-.17-2.35-1.96-1.09-3.69-3.07-4.99-2.17-5.7-2.64-4.47-2.02-2.17-1.02-1.98-1.75-.97-1.79-4.21-.16-1.73-3.01-3.32-1.93-1.1-.29-.81-3.08-3.08-.43-2.1,1.01-1.06-.31-1.15-2.3-3.78-2.56-1.31-2.59-2.96-.18-1.36-1.79-2.4-.4-3.1-1.48-1.89-.38-1.99-1.02-1.86-.85-.86-1.85-.56-.19-2.51-2.49-2-.65-1.62-3.32-1.72-.19-.58,2.18-.65-.07-.59-2-.36-.68-.59-1.3.06-1.7-1.66-.56.22-.9-.6v.26l.51.81-1.1-.65-2.4,1.32-2.25-.17-.53.41-.23-.96,1.02-.56-1.66.11-.58,1.35-.27-.42.64-1.12-.56.08-.54.73-1.02-.16.44,1.27-.96.02.44-1.68-1.35-.19.32-.33-.44-.83-.25.49-.72-.3-1.13,1.56.59,1.1-.68.14-.71,1.44-.78-1.45.2-1.28-.53-.22-.75.5.01-.79,1.96-2.53.97.36-.42-1.04.6-.43.76-2.54-.34-.08,3.31-8.17,1.15-1.73-.27-3.51-.77-1.93,1.92-5.76.03-2.95h0l3.23.16,1.64-.61,2.49.78h0l5.25.69h0l1.92-.12,2.31-2.25h0l3.26-.84h0l6.03-1.09h0l2.35.22h0l3.31-.69h0l3.38-.17h0l2.61.51Z" transform="translate(-0.277 -131.09)"/>
</svg>
