<svg xmlns="http://www.w3.org/2000/svg" width="369.74" fill="#e1e1e1"  height="448.55" viewBox="0 0 369.74 448.55">
  <path id="ash_sharqiyah" d="M545.087,262.6l1.22.53.35,2.07-.6-1.32-1.01-.6.04-.68Zm-8.35-39.01.87.69-.05,1.6-1.18-1.16-1.01-.12.21-.65,1.16-.36Zm-18.37-29.14,1.75,1.05,4.11,1.08-1.87.05-.52-.26-2.37.75-.45-.6.45-.25-.11-.49-1.17-.55-2.13,2.34.34.57-.4-.13-.22-.78.55-1.55.7-.87,1.34-.36ZM537.937,228l.38.99.46-1.63.45.11-.06,2.39.79.44,1.19-1.76-.36-.33.38-1.81.25.39.12,1.06.38-.61.05,1.18-.98.58.08,1.05-.63.11,1.65,1.52.52,1.62-.54,4.1.45.68-.36.03-.1,1.48-1,1.13.19-.78-.87-1.22-.16,2.24.42.52-.83,2.12.19,1.3-.75.42-2.62-5.96-.76-.54-.52.32-1.15,2.79.89,1.29-.52.67.04,3.02.61.16.8-.92.81.74,1.37.1.5.75-.15.79.63.57-.69.16-.37,1.04,1.28,2.91,1.81,2.68,1.09.66.7,2.02.75.4-.23.88-.41.18-.4-1.47-1.42-.33-1-1.47-.55.17-.47-.58.68,1.74,1.09.76.05.56.51-.72.22.28.24,1.8,1.28,1.16.67,1.46,1.26.44.07,1.1,2.04,2.54.4.04-.05-1.1-.68-.91.66-.53.62,1.64,3.23,2.49,1.33,4.04-.34,2.41,1.25,2.03-.41,1.78.83,2.56-.27.88.89.45-.5-.65.32-.82,2.52,3.53,1.05,3.3.95.04.54.69,1.49,6.53.64-1.84,1.58-.3-.25.48,1.08,2.13,3.69,4.38,4.58.8,2.45-.96,1.63-1.8,1.16.39,1-.33-.1.51.6.44.76-.35-.66,1.28.13,2.42,1.45-.87.37-1.39,1.6-1.3-.09-.95.89.53.53-.43.41,1.64,1.03-.58.76.76-.62.64-1.21.07-.54.95-.44-.16-.42,1.48-3.07,2.44-.6,3.09-.56.13.13,1.7,2.24.42.9-1.18,2.03-.18,1.67.66,1.51,2.12,1.63-.07.75,1.18-.51,4.23,34.3,41.63,23.79,4.76,59.71,13.76,7.05-7.46,15.68,25.98L706.9,469.96l-103.4,36.4-39.96,7.94-57.87,6.31-32.09,15.68-20.91,25.6L447.8,574.1l-1.53.93h0l2.59-24.45,7.99-63.49h0l19.5-152.83.02-7.75-1.36-6.9-2.96-5.78-1.67-2.06-9.19-9.15-9.44-6.3-2.29-1.8-1.12-1.79-.68-3.7-.34-7.4.63-15.07-.38-22.62-.43-4.96-1.09-2.56-3.86-2.08-8.88-3.17-1.46-2.52-6.45-6.08-1.55-.22-4.41,1.01-2.35-.04-2.5-1.19-9.86-6.94-3.01-.81-5.64-.11-2.35-.63-4.06-3.38-3.46-4.22-5.74-1.06-10.41-6.08-1.23-1.53-1.41-5.11-2.12-2.21-3.32-2.32h0l-1.47-1.82-.38-1.53,1.28-4.67,9.15-12.15,12.66-23.67,8.26-8.72,12.45-4.39h0l5.1.13,2.64-1.27,4.09-3.16,31.35,4.11.87.67,3.36,5.38.61,2.55.22,4.61,3.53,4.7-.17.7,24.98-.43,1.18,1.14,1.28.47-.04,2.25.84.66-.18.34.85.15-1.01,3.01.97,1.98,1.47,1.03,1.7,2.23-.69.53-.18,2.67.39,1,2.05,2.38,3.89,1.05-.77.92-.84-.08.08,1.05,1.59,1.81,1,.1.05,1.35,2.03,1.26-.36,2.1.46.44-.08.47-.9.6v-.89l-.55-.04.29-2-.72,1.02-.29-1.41-1.3,4.4.64.08.45-1.25.35,2.38.64-.95.42.68-.34,1.18,1.07-.31-.32.58-.52.11-.05.82-.32.69,1.12.54.75-1.32.63.19-.57,1.04.11,1.29.81-.41-.1-1.04,1.56-.79.94.37,1.08,1.57,2.59,1.16,3.66-.06,1.69.83.61,1.33,1.12.63.2,1.82-.56-.15.25-.69-.36-.54-.71,1.15-.54-.61-.71.71-.75-.72-.74.47-.31-.45-.69.92-.82-.34-.33.73.41-.21,1.54.94.56.71,1.01-.24-.03-1.05,1.36.77-.61.76-.73.07.32.92-.67,1.23,1.72-1.09,1.62.54-.01,3.71.67,1.13.54.02.42-.06.53-.23,1.14.57-.48,1.89-.65-.23-.44.41.51.01-.2.56.76-.31.53,1.03.67-1.73.5.35-.15,1.06,1.2-.66,1.46.51-.89-1.68,1.27-1.31-1.73-1.58-.68.08.65-1.04-.21-.53.74-.47.46,1.97,1.11.06.23,1.5-.74.31.97.96.9-.7.59-2.69.97-1.31-.99,2.95-.44,1.56-.63.96.55,1.96,1.17,1.16,2.4-1.43,1.07.41-.03.09-.49-.01-.09.04-.27.47-.27-.47-2.28,1.16.96,1.23,1.49-.36-.16.73-.56.02.02,1.19.71.03.24.85.13.2,2.3,1.81.37.11,1.21.73,1.13.37.79.61,2.98.3,2.07,2.21,4.49,5.29.49.45.41.4-.59.09-1.3-1.73-1.68-.43-.98.68-1.23-1.95-.06-.88-.47,2.24.15.95.81.2-.35,1.09.31,2.66.93,2.33,1.41,1.84.1-1.15.31-.31Z" transform="translate(-360.127 -126.48)"/>
</svg>
