<svg xmlns="http://www.w3.org/2000/svg" width="172.68" fill="#e1e1e1" height="214.99" viewBox="0 0 172.68 214.99">
  <path id="makkah" d="M143.707,343.8h0l.12-.02Zm114.74-19.79-.44,3.64.36,3.13,4.15,3.3,1.13,4.86,2.11,4.72.91,5.64,5.15,11.26,3.01,1.63,14.1.63,3.09.85,1.84,1.88-.85,2.93-.29,5.33,1.26,2.31,3.7,1.28,5.65-1.47,6.45,1.41.31,1.57-.96,6.17,1.79,13.1-.68,2.34-2.33,3.43.55,6.94-1.76,8.48.58,1.47,4.77,6.36,4.34,7.06h0l-4.02,1.47-5.71,3.77-5.22-1.3-2.26.25-3.16,1.52-4.55.28-4.26,3.81-6.41,3.06-10.11,9.24-2.31,1.14-2.29-.24-1.4-1.02-4.67-9.07h0l-1.98-1.93-1.48-.22-5.42,2.76-4.16-.2-4.61,1.77-1.91-1.46-1.28-3.77-1.22-1.45-1.43-.61-2.26.32-1.36,1.41-.7,2.12,1.11,4.54-.12,2.36-2.69,4.63-1.37,3.56-7.73,1.86-4,4.1.17,1.42.67.7,3.66,1.09.97,1.53-.31,5.28.91,3.89-.27,4.44,1.3,1.54,3.69,2.13,2.06,3.06,1.59,1.05h2.59l2.21-1.08,2.58-8.98,2.4-4.46,1.52-.59,4.61-.04.79-.5h0l1.51-.74,2.29.13,1.85,1.88.21,1.52-1.31,6.92,2.19,4.44-1.27,4.6-.76,1.42-1.52.75-4.74-.43-2.24.37-3.88,2.82-.75.06-1.97-1.87-.49,10,.61,2.97,1.02,1.48,1.44.48,6.71.21,2.11,1.21,2.98,9.14-1.5,6.41h0l-1.01,1.94-3.55,2.05-1.97,3.15h0l-.4-1.87-.27-.33-.95-1.23.03-.49-.32-.57-.37-.37-.51.76-.36-.35.36-1.15-.46-.24-.48-.65.15-.87-.73-.87-.54-2.04.05-.8-.17-1.41-.82-.8.15-1.21-1.41-1.06-.63-1.3-2.26-.09-1.06-.83-.19-1.62-1.74-2.17,1.24-4.89-1.56-.4-1.15-.92-1.2-2.73,1.29-3-.2-1.69-3.05-1.3-1.11-2.63.38-1.51-.45-1.44-.82-.58-.56-1.36-1.58-.81.3-.43-.48-2.03.5-2.77-1.22-1.31-2.27-.56-2.79-2.11-.28-1.02,1.04.93.34-2.1-1.13-3.14-1.43-1.64-2.06.57-1.01-.32.18.78,1.11.52-.3.28-1.35-.84-.43-1.5-1.42-.71-.3-2-1.3-.58.42-1.26-.41-1.12-5.69-3.91-2.98-.95-1.24-2.03-.65-.05.14-1.25-2.29.07-1.45-1.52-.51-1.48-1.65-.59-1.89.26.06.51-.75.13-2.1-1.56-1.14.2,1.53.77.28.74-2.67-1.27-5.15-3.89-1.76-1.95.58-.54-1.07-.75.18-1.07-.96.31-.7-.68-1.01-1.32.23-.37,1,.68-.4-1.17-.99.09-1.48-1.98-1.64-3.02.52-.77-.17-.74-1.45-.9-.15.64.6.97-.58-.22-.8-2.17.89.43.34-.2-.53-.43.29-.25-.67-.12-.55.19-2.05-1.72.25-1.31-.84-.77-1.29-.07-1.24-1.94.16-1.2-1.32-2.35-1.66-1-.89-4.24-.83-.7-1.27-2.5.11-.78.87-.39,1.29-.9.7-1.87-1.22-1.02.13-.82-.26-.74.9-.1-.92-1.34.25-.39h-.59l-.24.29-.78-.67-.93-6.07-1.43-3.12-3.24-4.23-.38-1.86.39-.47-.51-1.44.59-.78,1.37-.28-1.02,1.88.52.64.46-.88.79.17.2-2.75,1.22.1-.24-.86.56-2.21-.34-.69-.56,2.85-.58-.26.8-1.95-.32-1.47,2.25-4.19-.02-1.7.44-.72.84-.18.32-1.38-1.17-.01-.15.92-.33-.19-.72-.57.48-2.14-.1-3.6-1.88-3.15-.39-1.76-1.17-1.43.89-.9-.93-.07-.43.31-4.27-7.13,1.3.49,1.37,2.24-.19.47,1.19.21.51-.72-1.58-2.25-.05-1.49h-2.29l.32-.53-.89.1-.26.35-1.44-2.19.74-1.65-.73-3.8-.25-.76-.68.68-1.68-2.45-.09-1.34-.33-.39-.23-.15-.98-2.23-.07-2.6h0l5.12-.4,3.08-.92.82.34,2.13,3.42,2.42,1.85,3.42,4.08,1.68,1.3,1.55.23,4.88-1.11,1.58.37.43,3.86.7.58,10.44-3.25,4.76-.31,1.07,1.39.28,3.25-2.65,6.93.06.86.59.74,3.98,1.18,2.09,1.91.45,2.31-.83,3.87.65,1.58,4.76.56,2.33-1.12,4.63-4.1,6.79,2.21,1.62-.02,4.47-6.66,9.34-7.12,5.12-5.32,2.45-1.77,5.67-2.31.56-.76-.4-1.57-5.35-2.94-.76-.66-.2-1.49,3.59-2.87,11.75-5.83,1.06-1.53.69-2.21-.16-3.22-1.11-2.52.58-2.32,3.24-1.03,5.03.65Z" transform="translate(-143.707 -323.36)"/>
</svg>
