<svg xmlns="http://www.w3.org/2000/svg" width="183.48" fill="#e1e1e1"  height="185.62" viewBox="0 0 183.48 185.62">
  <path id="al_madinah" d="M130.847,324.65l-.9-.61-.33.61-.7-.29-.33-.44-1.1-1,.38-.9-1,.41-1.03-1.53-1.82-1.19.16-.31-.62-.34-1.13.46-3.64-2.84.62-.51-.59-.29.58-1.68-1.39.76.45.38-.44,1.27-1.68-.19-2.75-2.06-1.19-2.11-.79.16-.38-.71-.69-.14-.09-.83-1.55.6-1.04-.36-.08.81.54.16-.37.91-1.51.05-.66-.98-1.17.09-1.82-2.71-1.49-1.07.31-1.82.67.46.26-1.12-1.18-1.47-.42-1.45-1.04-.88h0l.55-3.24.95-1.47,5.65-.48h0l2.36-.91h0l.79-.71h0l1.17-1.81h0l.55-.71h0l1.55-.41,2.31.45h0l2.58-.03,1.61-.83.92-1.54.22-1.56h0l-.11-3.18h0l-.22-10.27h0l.84-4.77h0l.1-.74h0l.25-2.3h0l-1.12-1.4h0l-3.17-.13h0l-.74-.31h0l-1.79-6.32h0l-1.8-3.88-3.72-3.33h0l-2.17-1.85-.67-1.64h0l-.54-2.27-.73-.61h0l-2.23-1.15h0l-4.01-2.52-1.53.17h0l-1.95,1.78-.28-1.56h0l-.81-3.12-1.69-3.17h0l-.67-1.68h0l.16-2.33h0l3.15-5.54.26-1.76h0l-.36-1.18h0l-1.54-.95h0l-4.78-1.35h0l-1.6-1.31h0l-1-1.58-.69-2.63.81-8.93h0l-.99-4.2h0l-1.43-1.38h0l-1.54-.18h0l-3.12.69h0l-.81-.48-.09-.75,1-1.47h0l3.12-.69h0l1.62-.43h0l1.67-.81h0l1.59-.57h0l3.22-1.5h0l1.64-1.06h0l.76-.34h0l1.55-.39h0l3.96,1.66h0l2.36,1.74h0l2.42.31,1.73-.42,5.85-3.33h0l1.55-.46h0l.78.31h0l1.11,1.52h0l.8,3.16h0l.56,1.68h0l2.45,4.27h0l1.09,1.55h0l.81.56h0l1.52.26h0l5.38.24,1,1.24h0l-.2,1.59h0l.15.79,1.47,1.04h0l2.27,1.42h0l.15.75h0l-.43,2.4.19.75.74.34h0l.75-.01,1.57-1.19h0l1.54-1.37h0l1.69-1.29,1.65-.33,6.16,2.51.8-.64-.52-1.5h0l-.31-1.5.42-.73.75-.04h0l1.28,1.18.96,3.08h0l2.36.83h0l2.36.58,2.27,1.43h0l1.52,1.23h0l2.42,1.83,2.26.41h0l6.57-.52h0l10.45-2.02h0l1.53-.07h0l.77.43h0l1.22,1.43h0l.56,1.01h0l.68,1.56.24,2.66-.75,2.42-1.62,2.25v1.63l1.18,1.5.77.24,3.27-.84.73.25.36.79-.11,4.16-1.9,10.91,2.08,9.8-.52,10.14.63,1.61,1.3,1.49,1.56.71,1.55.03,9.37-3.24,8.06-.39,2.41-1.18,3.87-4.64,3.27-1.25,6.68-.15,11.8,2.31h0l6.92,1.83,1.35,1.16.28,1.98-.57,11.32,1.74,2.02,5.3,1.39,1.41,1.13,3.15,10.79,4.08,3.38h0l-.4,3.14-2.95,4.25.94,3.6-1.41,4.88.04,9.03h0l-5.05-.85-3.23,1.03-.58,2.32,1.11,2.52.16,3.23-.69,2.21-1.06,1.53-11.75,5.84-3.59,2.87.2,1.49.76.66,5.35,2.94.4,1.57-.56.76-5.67,2.31-2.45,1.77-5.12,5.33-9.34,7.12-4.47,6.66-1.62.02-6.79-2.21-4.63,4.1-2.33,1.12-4.76-.56-.65-1.58.83-3.86-.45-2.31-2.09-1.91-3.98-1.18-.59-.74-.06-.86,2.65-6.92-.28-3.25-1.07-1.39-4.76.31-10.44,3.25-.7-.58-.43-3.86-1.58-.37-4.88,1.11-1.55-.23-1.67-1.3-3.42-4.08-2.42-1.84-2.12-3.42-.82-.34-3.08.92-5.12.4h0l-.21.03h0l-.12.02h0l-.64-3.24-1.32-1.32.21-1.05-.97.4-.65-.35-.13.75.84.4-.37.4-.86-.5.1-1.51-.57-1.35.13-.52-.78-.4-.7-.82-.95-2.79-.01-1.63-1.02-1.12-.92-.09-.87-1.56-2.41-1.65-.58-1.03-.44-.28Z" transform="translate(-78.777 -192.83)"/>
</svg>
