<svg xmlns="http://www.w3.org/2000/svg" width="42.87" fill="#e1e1e1"  height="51.01" viewBox="0 0 42.87 51.01">
  <path id="al_bahah" d="M260.017,447.12l-2.15,6.42.23.79,2.05,1.97.11,1.59-1.04,1.45-5.82,3.97-.84,1.79.23,3.55-4.26,8.69h0l-.79.51-4.62.04-1.52.58-2.4,4.46-2.58,8.99-2.21,1.08h-2.58l-1.59-1.05-2.06-3.06-3.68-2.13-1.3-1.54.26-4.43-.91-3.89.31-5.29-.97-1.52-3.65-1.1-.67-.7-.18-1.41,4.01-4.1,7.73-1.86,1.37-3.56,2.69-4.63.12-2.35-1.11-4.55.7-2.11,1.36-1.42,2.26-.31,1.43.61,1.21,1.45,1.28,3.78,1.92,1.46,4.61-1.77,4.17.2,5.41-2.75,1.49.22Z" transform="translate(-217.387 -441.99)"/>
</svg>
