<svg xmlns="http://www.w3.org/2000/svg" width="61" fill="#e1e1e1"  height="69.53" viewBox="0 0 61 69.53">
  <path id="jizan" d="M260.537,593.84l.42.19.18-.09.34.26-.65,1.12-.68-.76.39-.72Zm-.48-3.22.36.53-.42,1.5-.08-.96-.49.77-.56-1.17.35-.56.84-.11Zm-6.48-.49,1.42,1.06-.8-.19Zm-3.48-2.47,1.93.5,1.13,1.63-3.2-1.03-.65-.76.79-.34Zm9.66-3.75.49.34-1.62.14,1.13-.48Zm-9.18-1.81,3.17,1.84,1.47,3.11,2.35.67,1.59-.36.99,1.34,1.6-.47-.28-.9-.44-.07.28.62-.84.04-.43-.61.52-.58.1-1.28.59.1.18-.63.86.1.21,1.43.76,1.02.42-.08.59,1,.91-.21.03.51.47-.06-.08.94-.62.65.44,2.97-.93.11-1.24-1.42-1.81-.37,1.24-.6-.09-1.26-1.8-.44-3.04.93-1.97-1.64-1.14-.32-1.19-1.03-.96-1.9-1.33-.03.46-1.25-1-.81-.04-1.06Zm-6.47-.16,2.05,3.05-1.59-.6.21-.33-.75-.69.08-1.43Zm11.93-2.08,1.14.78-.56.94.58.92,1.38.42-.13.87-1.3-.32-.74.59,2.19,1.66.74,1.04-.28.45-.76-1.15-3.02-1-1.83-2.61.01-1.08,1.64-.2.94-1.31Zm-8.03-.22,1.51,1.1-.69,1.16-1,.31-.94-1.16,1.12-1.41Zm3.62-.86,1.13.65-.47.57-.44-.06-.22-1.16Zm5.16.24.42,1.41-2.06-2.08,1.64.67Zm-5.78-47.93,4.46-.47,1.26,1.03-.82,7.27.28,1.5.74.47,2.95-.45,2.15.23,1.08,1.35.85,2.89.73.64,8.28.4,1.28,1.24,1.59,3.73,3.25,3.17,1.52.63,1.41-.14.56-.66,1.67-6.75,1.21-2.1,2.87-2.16,2.21-.88,1,1.12-.13,4.42,3.6,1.82,2.64,4.64.69.57,2.95.6,1.98,3.01h0l.97,1.39-1.92,2.92.09,2.37,1.55.9v.65l.81.35.26.69-4.49,1.41.42,1.87-1.52,1.37.05,1.45-.62.32-.06.88.09.35.98-.4,1.63.48.82,1.64-.55.91-2.27-.26.26,2.81-1.5.7-.04.6,1.45,1.89,1.55.34.33.83,1.01.48-.22,1.26.48.86-1.43.11-.32.81.49,2.6-.84.15-2.07-1.11-.66.18.44.9-1.03,2.74.05,1.06-4.42,1.16-1.67,1.19.42,2.71-1.71.38-4.82-.49-.34-.69.6-1.77-1.21-1.16-.84-2.21.56-3.56-.33-.29-.47-.6v-.93l.01-.57-2.51-3.11-1.41-.69-.64.25-.39-1.35-.51-.19-.69-.31,1.07-.96-.53-1.39.31-1.85-1.37-1.12-2.17-.67-1.33-1.88.23-1.83-.46-.18-1.12-.67-.26.3,1.13,1.95-.66.66.05,1.98-.3.95-.18-3.73-.98-3.19-.53-4.16-.56-.31.66-2.11-.29-1.63-1.44-.38-1.57-2.47-1.97-1.51-.98.05-.2-1.49-.79-.94-7.32-5.21-.65-1.03-1.45-.33-1.24-1.02-1.05-.03.19-.8-3.78-3.48.69-.01-1.01-.91.26-1.07-.59.79-.49-.33-.12-.55.59-.18-.22-1.01-1.39-.54-.76-1.79h0l1.97-3.15,3.55-2.05.98-2.11Z" transform="translate(-244.027 -530.62)"/>
</svg>
