<svg xmlns="http://www.w3.org/2000/svg" width="56.298" height="43.78" viewBox="0 0 56.298 43.78">
  <g id="Icon-area-1" transform="translate(0)">
    <g id="Group_25725" data-name="Group 25725" transform="translate(49.207 26.175)">
      <g id="Group_25724" data-name="Group 25724" transform="translate(0 0)">
        <path id="Path_51771" data-name="Path 51771" d="M274.447,155.483H273.9v-8.306l1.226-2.789v-2.3h.548V144.5l-1.226,2.789Z" transform="translate(-273.899 -142.092)" fill="#11044c"/>
      </g>
    </g>
    <g id="Group_25727" data-name="Group 25727" transform="translate(0.633 40.684)">
      <g id="Group_25726" data-name="Group 25726">
        <rect id="Rectangle_7953" data-name="Rectangle 7953" width="2.285" height="1.528" fill="#11044c"/>
      </g>
    </g>
    <g id="Group_25729" data-name="Group 25729" transform="translate(0.633 40.684)">
      <g id="Group_25728" data-name="Group 25728">
        <rect id="Rectangle_7954" data-name="Rectangle 7954" width="0.536" height="1.528" fill="#11044c"/>
      </g>
    </g>
    <g id="Group_25731" data-name="Group 25731" transform="translate(2.382 40.684)">
      <g id="Group_25730" data-name="Group 25730">
        <rect id="Rectangle_7955" data-name="Rectangle 7955" width="0.535" height="1.528" fill="#11044c"/>
      </g>
    </g>
    <g id="Group_25733" data-name="Group 25733" transform="translate(46.02 0)">
      <g id="Group_25732" data-name="Group 25732" transform="translate(0)">
        <rect id="Rectangle_7956" data-name="Rectangle 7956" width="3.007" height="43.78" fill="#11044c"/>
      </g>
    </g>
    <g id="Group_25735" data-name="Group 25735" transform="translate(46.759 0)">
      <g id="Group_25734" data-name="Group 25734" transform="translate(0)">
        <rect id="Rectangle_7957" data-name="Rectangle 7957" width="1.528" height="43.78" fill="#11044c"/>
      </g>
    </g>
    <g id="Group_25737" data-name="Group 25737" transform="translate(7.271 0)">
      <g id="Group_25736" data-name="Group 25736" transform="translate(0)">
        <rect id="Rectangle_7958" data-name="Rectangle 7958" width="3.007" height="43.78" fill="#11044c"/>
      </g>
    </g>
    <g id="Group_25739" data-name="Group 25739" transform="translate(8.01 0)">
      <g id="Group_25738" data-name="Group 25738">
        <rect id="Rectangle_7959" data-name="Rectangle 7959" width="1.528" height="43.78" fill="#11044c"/>
      </g>
    </g>
    <g id="Group_25741" data-name="Group 25741" transform="translate(0 38.875)">
      <g id="Group_25740" data-name="Group 25740" transform="translate(0 0)">
        <path id="Path_51772" data-name="Path 51772" d="M165.9,171.84l-7.271,3.561v1.345H165.9Z" transform="translate(-158.627 -171.84)" fill="#11044c"/>
      </g>
    </g>
    <g id="Group_25743" data-name="Group 25743" transform="translate(1.169 40.225)">
      <g id="Group_25742" data-name="Group 25742" transform="translate(0 0)">
        <path id="Path_51773" data-name="Path 51773" d="M166.085,175l-4.72,2.311v.873h4.72Z" transform="translate(-161.365 -175.003)" fill="#11044c"/>
      </g>
    </g>
    <g id="Group_25745" data-name="Group 25745" transform="translate(6.717 38.875)">
      <g id="Group_25744" data-name="Group 25744" transform="translate(0 0)">
        <path id="Path_51774" data-name="Path 51774" d="M174.917,176.746h-.554v-4.634l.554-.271Z" transform="translate(-174.363 -171.84)" fill="#11044c"/>
      </g>
    </g>
    <g id="Group_25747" data-name="Group 25747" transform="translate(53.38 40.684)">
      <g id="Group_25746" data-name="Group 25746" transform="translate(0)">
        <rect id="Rectangle_7960" data-name="Rectangle 7960" width="2.285" height="1.528" fill="#11044c"/>
      </g>
    </g>
    <g id="Group_25749" data-name="Group 25749" transform="translate(55.129 40.684)">
      <g id="Group_25748" data-name="Group 25748">
        <rect id="Rectangle_7961" data-name="Rectangle 7961" width="0.536" height="1.528" fill="#11044c"/>
      </g>
    </g>
    <g id="Group_25751" data-name="Group 25751" transform="translate(53.38 40.684)">
      <g id="Group_25750" data-name="Group 25750" transform="translate(0)">
        <rect id="Rectangle_7962" data-name="Rectangle 7962" width="0.535" height="1.528" fill="#11044c"/>
      </g>
    </g>
    <g id="Group_25753" data-name="Group 25753" transform="translate(49.026 38.875)">
      <g id="Group_25752" data-name="Group 25752" transform="translate(0 0)">
        <path id="Path_51775" data-name="Path 51775" d="M273.475,171.84l7.271,3.561v1.345h-7.271Z" transform="translate(-273.475 -171.84)" fill="#11044c"/>
      </g>
    </g>
    <g id="Group_25755" data-name="Group 25755" transform="translate(50.409 40.225)">
      <g id="Group_25754" data-name="Group 25754" transform="translate(0 0)">
        <path id="Path_51776" data-name="Path 51776" d="M276.712,175l4.72,2.311v.873h-4.72Z" transform="translate(-276.712 -175.003)" fill="#11044c"/>
      </g>
    </g>
    <g id="Group_25757" data-name="Group 25757" transform="translate(49.026 38.875)">
      <g id="Group_25756" data-name="Group 25756" transform="translate(0 0)">
        <path id="Path_51777" data-name="Path 51777" d="M273.475,176.746h.554v-4.634l-.554-.271Z" transform="translate(-273.475 -171.84)" fill="#11044c"/>
      </g>
    </g>
    <g id="Group_25759" data-name="Group 25759" transform="translate(49.027 19.134)">
      <g id="Group_25758" data-name="Group 25758" transform="translate(0)">
        <path id="Path_51778" data-name="Path 51778" d="M276.026,133.508h-2.551V125.6h2.551a.494.494,0,0,1,.495.494v6.923A.5.5,0,0,1,276.026,133.508Z" transform="translate(-273.475 -125.596)" fill="#11044c"/>
      </g>
    </g>
    <g id="Group_25761" data-name="Group 25761" transform="translate(52.073 21.042)">
      <g id="Group_25760" data-name="Group 25760" transform="translate(0 0)">
        <rect id="Rectangle_7963" data-name="Rectangle 7963" width="0.165" height="1.221" fill="#11044c"/>
      </g>
    </g>
    <g id="Group_25763" data-name="Group 25763" transform="translate(52.238 21.148)">
      <g id="Group_25762" data-name="Group 25762">
        <path id="Path_51779" data-name="Path 51779" d="M281.2,131.325H281v-1.009h.2a.288.288,0,0,1,.288.288v.434A.288.288,0,0,1,281.2,131.325Z" transform="translate(-280.998 -130.316)" fill="#11044c"/>
      </g>
    </g>
    <g id="Group_25780" data-name="Group 25780" transform="translate(49.385 20.657)">
      <g id="Group_25765" data-name="Group 25765" transform="translate(0 0)">
        <g id="Group_25764" data-name="Group 25764">
          <rect id="Rectangle_7964" data-name="Rectangle 7964" width="2.329" height="0.325" fill="#11044c"/>
        </g>
      </g>
      <g id="Group_25767" data-name="Group 25767" transform="translate(0 0.559)">
        <g id="Group_25766" data-name="Group 25766">
          <rect id="Rectangle_7965" data-name="Rectangle 7965" width="2.329" height="0.325" fill="#11044c"/>
        </g>
      </g>
      <g id="Group_25769" data-name="Group 25769" transform="translate(0 1.118)">
        <g id="Group_25768" data-name="Group 25768">
          <rect id="Rectangle_7966" data-name="Rectangle 7966" width="2.329" height="0.325" fill="#11044c"/>
        </g>
      </g>
      <g id="Group_25771" data-name="Group 25771" transform="translate(0 1.678)">
        <g id="Group_25770" data-name="Group 25770">
          <rect id="Rectangle_7967" data-name="Rectangle 7967" width="2.329" height="0.325" fill="#11044c"/>
        </g>
      </g>
      <g id="Group_25773" data-name="Group 25773" transform="translate(0 0)">
        <g id="Group_25772" data-name="Group 25772">
          <rect id="Rectangle_7968" data-name="Rectangle 7968" width="2.329" height="0.098" fill="#11044c"/>
        </g>
      </g>
      <g id="Group_25775" data-name="Group 25775" transform="translate(0 0.559)">
        <g id="Group_25774" data-name="Group 25774">
          <rect id="Rectangle_7969" data-name="Rectangle 7969" width="2.329" height="0.098" fill="#11044c"/>
        </g>
      </g>
      <g id="Group_25777" data-name="Group 25777" transform="translate(0 1.118)">
        <g id="Group_25776" data-name="Group 25776">
          <rect id="Rectangle_7970" data-name="Rectangle 7970" width="2.329" height="0.098" fill="#11044c"/>
        </g>
      </g>
      <g id="Group_25779" data-name="Group 25779" transform="translate(0 1.678)">
        <g id="Group_25778" data-name="Group 25778">
          <rect id="Rectangle_7971" data-name="Rectangle 7971" width="2.329" height="0.098" fill="#11044c"/>
        </g>
      </g>
    </g>
    <g id="Group_25782" data-name="Group 25782" transform="translate(49.026 19.133)">
      <g id="Group_25781" data-name="Group 25781" transform="translate(0 0)">
        <rect id="Rectangle_7972" data-name="Rectangle 7972" width="0.237" height="7.912" fill="#11044c"/>
      </g>
    </g>
    <g id="Group_25784" data-name="Group 25784" transform="translate(10.278 42.475)">
      <g id="Group_25783" data-name="Group 25783" transform="translate(0 0)">
        <rect id="Rectangle_7973" data-name="Rectangle 7973" width="35.742" height="1.305" fill="#11044c"/>
      </g>
    </g>
    <g id="Group_25786" data-name="Group 25786" transform="translate(10.278 42.475)">
      <g id="Group_25785" data-name="Group 25785" transform="translate(0 0)">
        <rect id="Rectangle_7974" data-name="Rectangle 7974" width="35.742" height="0.653" fill="#11044c"/>
      </g>
    </g>
    <g id="Group_25878" data-name="Group 25878" transform="translate(41.796 5.539)">
      <g id="Group_25861" data-name="Group 25861" transform="translate(2.799)">
        <g id="Group_25860" data-name="Group 25860">
          <rect id="Rectangle_7977" data-name="Rectangle 7977" width="1.424" height="10.258" fill="#11044c"/>
        </g>
      </g>
      <g id="Group_25863" data-name="Group 25863" transform="translate(2.591 7.906)">
        <g id="Group_25862" data-name="Group 25862">
          <rect id="Rectangle_7978" data-name="Rectangle 7978" width="0.435" height="2.493" rx="0.151" fill="#11044c"/>
        </g>
      </g>
      <g id="Group_25865" data-name="Group 25865" transform="translate(2.334 8.047)">
        <g id="Group_25864" data-name="Group 25864">
          <rect id="Rectangle_7979" data-name="Rectangle 7979" width="0.949" height="2.211" rx="0.475" fill="#11044c"/>
        </g>
      </g>
      <g id="Group_25867" data-name="Group 25867" transform="translate(3.284 8.047)">
        <g id="Group_25866" data-name="Group 25866">
          <rect id="Rectangle_7980" data-name="Rectangle 7980" width="0.227" height="2.173" fill="#11044c"/>
        </g>
      </g>
      <g id="Group_25869" data-name="Group 25869" transform="translate(2.799 0.862)">
        <g id="Group_25868" data-name="Group 25868">
          <rect id="Rectangle_7981" data-name="Rectangle 7981" width="0.598" height="6.27" fill="#11044c"/>
        </g>
      </g>
      <g id="Group_25871" data-name="Group 25871" transform="translate(3.205 0.862)">
        <g id="Group_25870" data-name="Group 25870">
          <rect id="Rectangle_7982" data-name="Rectangle 7982" width="0.193" height="6.27" fill="#11044c"/>
        </g>
      </g>
      <g id="Group_25873" data-name="Group 25873" transform="translate(2.334 9.076)">
        <g id="Group_25872" data-name="Group 25872">
          <rect id="Rectangle_7983" data-name="Rectangle 7983" width="0.949" height="0.154" fill="#11044c"/>
        </g>
      </g>
      <g id="Group_25875" data-name="Group 25875" transform="translate(0 8.451)">
        <g id="Group_25874" data-name="Group 25874">
          <path id="Path_51811" data-name="Path 51811" d="M258.312,115.764h-1.774v-2.215h2.334V115.2A.561.561,0,0,1,258.312,115.764Z" transform="translate(-256.538 -113.549)" fill="#11044c"/>
        </g>
      </g>
      <g id="Group_25877" data-name="Group 25877" transform="translate(2.067 8.451)">
        <g id="Group_25876" data-name="Group 25876">
          <rect id="Rectangle_7984" data-name="Rectangle 7984" width="0.267" height="1.564" fill="#11044c"/>
        </g>
      </g>
    </g>
    <g id="Group_25897" data-name="Group 25897" transform="translate(10.278 5.539)">
      <g id="Group_25880" data-name="Group 25880">
        <g id="Group_25879" data-name="Group 25879">
          <rect id="Rectangle_7985" data-name="Rectangle 7985" width="1.424" height="10.258" fill="#11044c"/>
        </g>
      </g>
      <g id="Group_25882" data-name="Group 25882" transform="translate(1.197 7.906)">
        <g id="Group_25881" data-name="Group 25881">
          <path id="Rectangle_7986" data-name="Rectangle 7986" d="M.151,0H.285a.15.15,0,0,1,.15.15V2.342a.151.151,0,0,1-.151.151H.151A.151.151,0,0,1,0,2.342V.151A.151.151,0,0,1,.151,0Z" fill="#11044c"/>
        </g>
      </g>
      <g id="Group_25884" data-name="Group 25884" transform="translate(0.94 8.047)">
        <g id="Group_25883" data-name="Group 25883">
          <rect id="Rectangle_7987" data-name="Rectangle 7987" width="0.949" height="2.211" rx="0.475" fill="#11044c"/>
        </g>
      </g>
      <g id="Group_25886" data-name="Group 25886" transform="translate(0.712 8.047)">
        <g id="Group_25885" data-name="Group 25885">
          <rect id="Rectangle_7988" data-name="Rectangle 7988" width="0.227" height="2.173" fill="#11044c"/>
        </g>
      </g>
      <g id="Group_25888" data-name="Group 25888" transform="translate(0.826 0.862)">
        <g id="Group_25887" data-name="Group 25887">
          <rect id="Rectangle_7989" data-name="Rectangle 7989" width="0.598" height="6.27" fill="#11044c"/>
        </g>
      </g>
      <g id="Group_25890" data-name="Group 25890" transform="translate(0.826 0.862)">
        <g id="Group_25889" data-name="Group 25889">
          <rect id="Rectangle_7990" data-name="Rectangle 7990" width="0.193" height="6.27" fill="#11044c"/>
        </g>
      </g>
      <g id="Group_25892" data-name="Group 25892" transform="translate(0.94 9.076)">
        <g id="Group_25891" data-name="Group 25891">
          <rect id="Rectangle_7991" data-name="Rectangle 7991" width="0.949" height="0.154" fill="#11044c"/>
        </g>
      </g>
      <g id="Group_25894" data-name="Group 25894" transform="translate(1.889 8.451)">
        <g id="Group_25893" data-name="Group 25893">
          <path id="Path_51812" data-name="Path 51812" d="M187.689,115.764h1.774v-2.215h-2.334V115.2A.561.561,0,0,0,187.689,115.764Z" transform="translate(-187.129 -113.549)" fill="#11044c"/>
        </g>
      </g>
      <g id="Group_25896" data-name="Group 25896" transform="translate(1.889 8.451)">
        <g id="Group_25895" data-name="Group 25895">
          <rect id="Rectangle_7992" data-name="Rectangle 7992" width="0.267" height="1.564" fill="#11044c"/>
        </g>
      </g>
    </g>
    <g id="Group_25899" data-name="Group 25899" transform="translate(32.787 39.244)">
      <g id="Group_25898" data-name="Group 25898" transform="translate(0)">
        <rect id="Rectangle_7993" data-name="Rectangle 7993" width="5.903" height="0.676" fill="#11044c"/>
      </g>
    </g>
    <g id="Group_25968" data-name="Group 25968" transform="translate(32.846 37.915)">
      <g id="Group_25916" data-name="Group 25916" transform="translate(3.695 0)">
        <g id="Group_25901" data-name="Group 25901" transform="translate(0.244 0.669)">
          <g id="Group_25900" data-name="Group 25900" transform="translate(0 0)">
            <rect id="Rectangle_7994" data-name="Rectangle 7994" width="2.736" height="0.512" transform="translate(0 2.663) rotate(-76.726)" fill="#11044c"/>
          </g>
        </g>
        <g id="Group_25903" data-name="Group 25903" transform="translate(0.244 0.929)">
          <g id="Group_25902" data-name="Group 25902">
            <path id="Path_51813" data-name="Path 51813" d="M244.8,174.171l1.093-2.4-.595,2.521Z" transform="translate(-244.8 -171.767)" fill="#11044c"/>
          </g>
        </g>
        <g id="Group_25905" data-name="Group 25905" transform="translate(0.463 1.116)">
          <g id="Group_25904" data-name="Group 25904">
            <path id="Path_51814" data-name="Path 51814" d="M245.879,172.21h0a.128.128,0,0,0-.154.095l-.409,1.734a.127.127,0,0,0,.095.153h0a.127.127,0,0,0,.154-.095l.409-1.734A.128.128,0,0,0,245.879,172.21Z" transform="translate(-245.313 -172.207)" fill="#11044c"/>
          </g>
        </g>
        <g id="Group_25907" data-name="Group 25907" transform="translate(0.244 3.158)">
          <g id="Group_25906" data-name="Group 25906">
            <path id="Path_51815" data-name="Path 51815" d="M245.33,177.145l-.032.137-.047-.011-.008-.026-.143-.109-.18,0-.065.045-.056-.013.032-.137a.419.419,0,0,1,.5.117Z" transform="translate(-244.799 -176.99)" fill="#11044c"/>
          </g>
        </g>
        <g id="Group_25909" data-name="Group 25909" transform="translate(0.816 0.669)">
          <g id="Group_25908" data-name="Group 25908">
            <path id="Path_51816" data-name="Path 51816" d="M246.632,171.538a.473.473,0,0,1-.451-.1.451.451,0,0,1-.043-.043l.057-.24.5.118Z" transform="translate(-246.138 -171.159)" fill="#11044c"/>
          </g>
        </g>
        <g id="Group_25911" data-name="Group 25911" transform="translate(0.724)">
          <g id="Group_25910" data-name="Group 25910">
            <path id="Path_51817" data-name="Path 51817" d="M246.086,170.425a.475.475,0,0,1,.388-.826l-.27.309.094.275.285.056.27-.309a.475.475,0,0,1-.767.5Z" transform="translate(-245.924 -169.592)" fill="#11044c"/>
          </g>
        </g>
        <g id="Group_25913" data-name="Group 25913" transform="translate(0 3.278)">
          <g id="Group_25912" data-name="Group 25912">
            <path id="Path_51818" data-name="Path 51818" d="M245.058,177.788a.421.421,0,1,0-.506.313A.421.421,0,0,0,245.058,177.788Zm-.119-.09-.059.17-.148.1-.18,0-.143-.109-.052-.172.059-.17.148-.1.179,0,.143.109Z" transform="translate(-244.227 -177.27)" fill="#11044c"/>
          </g>
        </g>
        <g id="Group_25915" data-name="Group 25915" transform="translate(0.085 3.331)">
          <g id="Group_25914" data-name="Group 25914">
            <path id="Path_51819" data-name="Path 51819" d="M244.666,178.173a.422.422,0,0,1-.239-.156l.09-.11.007.022.143.109.18,0,.148-.1.059-.17L245,177.6l-.143-.109h0l.075-.093.04,0a.421.421,0,0,1-.307.774Z" transform="translate(-244.427 -177.396)" fill="#11044c"/>
          </g>
        </g>
      </g>
      <g id="Group_25933" data-name="Group 25933" transform="translate(0 0.357)">
        <g id="Group_25918" data-name="Group 25918" transform="translate(0.271 0.58)">
          <g id="Group_25917" data-name="Group 25917" transform="translate(0 0)">
            <rect id="Rectangle_7995" data-name="Rectangle 7995" width="0.474" height="2.531" transform="translate(0 0.167) rotate(-20.627)" fill="#11044c"/>
          </g>
        </g>
        <g id="Group_25920" data-name="Group 25920" transform="translate(0.271 0.58)">
          <g id="Group_25919" data-name="Group 25919">
            <path id="Path_51820" data-name="Path 51820" d="M236.649,171.785l.4,2.41-.844-2.243Z" transform="translate(-236.205 -171.785)" fill="#11044c"/>
          </g>
        </g>
        <g id="Group_25922" data-name="Group 25922" transform="translate(0.512 0.912)">
          <g id="Group_25921" data-name="Group 25921">
            <path id="Path_51821" data-name="Path 51821" d="M237.512,174.336h0a.118.118,0,0,0,.069-.152L237,172.641a.119.119,0,0,0-.152-.069h0a.118.118,0,0,0-.069.152l.581,1.542A.118.118,0,0,0,237.512,174.336Z" transform="translate(-236.772 -172.565)" fill="#11044c"/>
          </g>
        </g>
        <g id="Group_25924" data-name="Group 25924" transform="translate(0.27 0.58)">
          <g id="Group_25923" data-name="Group 25923">
            <path id="Path_51822" data-name="Path 51822" d="M236.251,172.074l-.046-.122.042-.015.019.015.166.01.14-.09.026-.068.05-.019.046.122a.388.388,0,0,1-.444.167Z" transform="translate(-236.205 -171.785)" fill="#11044c"/>
          </g>
        </g>
        <g id="Group_25926" data-name="Group 25926" transform="translate(1.075 2.721)">
          <g id="Group_25925" data-name="Group 25925">
            <path id="Path_51823" data-name="Path 51823" d="M238.089,176.963a.439.439,0,0,1,.4-.159.464.464,0,0,1,.055.011l.08.214-.444.167Z" transform="translate(-238.089 -176.801)" fill="#11044c"/>
          </g>
        </g>
        <g id="Group_25928" data-name="Group 25928" transform="translate(1.016 2.827)">
          <g id="Group_25927" data-name="Group 25927">
            <path id="Path_51824" data-name="Path 51824" d="M238.447,177.054a.439.439,0,0,1,.129.834l.048-.377-.214-.163-.248.1-.048.376a.439.439,0,0,1,.333-.775Z" transform="translate(-237.952 -177.051)" fill="#11044c"/>
          </g>
        </g>
        <g id="Group_25930" data-name="Group 25930">
          <g id="Group_25929" data-name="Group 25929">
            <path id="Path_51825" data-name="Path 51825" d="M235.6,170.954a.389.389,0,1,0,.227-.5A.389.389,0,0,0,235.6,170.954Zm.138.008-.042-.161.061-.155.14-.09.166.01.128.105.042.161-.061.155-.14.09-.166-.01Z" transform="translate(-235.571 -170.428)" fill="#11044c"/>
          </g>
        </g>
        <g id="Group_25932" data-name="Group 25932" transform="translate(0 0)">
          <g id="Group_25931" data-name="Group 25931">
            <path id="Path_51826" data-name="Path 51826" d="M235.824,170.453a.388.388,0,0,1,.264,0l-.012.131-.017-.014-.166-.01-.14.09-.061.155.042.161.128.105.166.01h0l-.01.11-.032.018a.389.389,0,0,1-.164-.753Z" transform="translate(-235.571 -170.428)" fill="#11044c"/>
          </g>
        </g>
      </g>
      <g id="Group_25950" data-name="Group 25950" transform="translate(1.856 0.476)">
        <g id="Group_25935" data-name="Group 25935" transform="translate(0.187 0.513)">
          <g id="Group_25934" data-name="Group 25934" transform="translate(0 0)">
            <rect id="Rectangle_7996" data-name="Rectangle 7996" width="2.097" height="0.393" transform="matrix(0.23, -0.973, 0.973, 0.23, 0, 2.041)" fill="#11044c"/>
          </g>
        </g>
        <g id="Group_25937" data-name="Group 25937" transform="translate(0.187 0.712)">
          <g id="Group_25936" data-name="Group 25936">
            <path id="Path_51827" data-name="Path 51827" d="M240.357,174.215l.838-1.842-.456,1.932Z" transform="translate(-240.357 -172.373)" fill="#11044c"/>
          </g>
        </g>
        <g id="Group_25939" data-name="Group 25939" transform="translate(0.355 0.855)">
          <g id="Group_25938" data-name="Group 25938">
            <path id="Path_51828" data-name="Path 51828" d="M241.185,172.712h0a.1.1,0,0,0-.117.073l-.314,1.329a.1.1,0,0,0,.073.118h0a.1.1,0,0,0,.118-.073l.313-1.329A.1.1,0,0,0,241.185,172.712Z" transform="translate(-240.751 -172.71)" fill="#11044c"/>
          </g>
        </g>
        <g id="Group_25941" data-name="Group 25941" transform="translate(0.187 2.42)">
          <g id="Group_25940" data-name="Group 25940">
            <path id="Path_51829" data-name="Path 51829" d="M240.764,176.495l-.025.1-.036-.008-.006-.02-.11-.083-.138,0-.05.035-.043-.01.025-.1a.322.322,0,0,1,.383.09Z" transform="translate(-240.357 -176.376)" fill="#11044c"/>
          </g>
        </g>
        <g id="Group_25943" data-name="Group 25943" transform="translate(0.625 0.513)">
          <g id="Group_25942" data-name="Group 25942">
            <path id="Path_51830" data-name="Path 51830" d="M241.762,172.2a.363.363,0,0,1-.346-.074.294.294,0,0,1-.032-.033l.043-.184.383.09Z" transform="translate(-241.384 -171.907)" fill="#11044c"/>
          </g>
        </g>
        <g id="Group_25945" data-name="Group 25945" transform="translate(0.555)">
          <g id="Group_25944" data-name="Group 25944">
            <path id="Path_51831" data-name="Path 51831" d="M241.344,171.344a.364.364,0,0,1,.3-.633l-.207.237.072.211.219.043.207-.237a.364.364,0,0,1-.587.379Z" transform="translate(-241.219 -170.706)" fill="#11044c"/>
          </g>
        </g>
        <g id="Group_25947" data-name="Group 25947" transform="translate(0 2.512)">
          <g id="Group_25946" data-name="Group 25946">
            <path id="Path_51832" data-name="Path 51832" d="M240.555,176.987a.323.323,0,1,0-.388.239A.323.323,0,0,0,240.555,176.987Zm-.091-.069-.046.13-.113.079-.138,0-.109-.083-.04-.132.045-.13.114-.079.137,0,.11.084Z" transform="translate(-239.919 -176.591)" fill="#11044c"/>
          </g>
        </g>
        <g id="Group_25949" data-name="Group 25949" transform="translate(0.065 2.553)">
          <g id="Group_25948" data-name="Group 25948">
            <path id="Path_51833" data-name="Path 51833" d="M240.255,177.282a.32.32,0,0,1-.183-.12l.069-.085.005.018.109.083.138,0,.113-.079.046-.13-.04-.132-.11-.084h0l.058-.071.03,0a.322.322,0,0,1-.235.593Z" transform="translate(-240.072 -176.687)" fill="#11044c"/>
          </g>
        </g>
      </g>
      <g id="Group_25967" data-name="Group 25967" transform="translate(0.948 0.914)">
        <g id="Group_25952" data-name="Group 25952" transform="translate(0.146 0.401)">
          <g id="Group_25951" data-name="Group 25951" transform="translate(0 0)">
            <rect id="Rectangle_7997" data-name="Rectangle 7997" width="1.639" height="0.307" transform="matrix(0.23, -0.973, 0.973, 0.23, 0, 1.595)" fill="#11044c"/>
          </g>
        </g>
        <g id="Group_25954" data-name="Group 25954" transform="translate(0.146 0.556)">
          <g id="Group_25953" data-name="Group 25953">
            <path id="Path_51834" data-name="Path 51834" d="M238.134,174.476l.655-1.44-.356,1.51Z" transform="translate(-238.134 -173.036)" fill="#11044c"/>
          </g>
        </g>
        <g id="Group_25956" data-name="Group 25956" transform="translate(0.277 0.669)">
          <g id="Group_25955" data-name="Group 25955">
            <path id="Path_51835" data-name="Path 51835" d="M238.78,173.3h0a.076.076,0,0,0-.092.057l-.245,1.039a.076.076,0,0,0,.057.092h0a.076.076,0,0,0,.092-.057l.245-1.039A.077.077,0,0,0,238.78,173.3Z" transform="translate(-238.441 -173.299)" fill="#11044c"/>
          </g>
        </g>
        <g id="Group_25958" data-name="Group 25958" transform="translate(0.146 1.892)">
          <g id="Group_25957" data-name="Group 25957">
            <path id="Path_51836" data-name="Path 51836" d="M238.451,176.257l-.02.082-.028-.007,0-.015-.086-.065-.108,0-.039.027-.034-.008.02-.082a.25.25,0,0,1,.161-.016A.253.253,0,0,1,238.451,176.257Z" transform="translate(-238.133 -176.164)" fill="#11044c"/>
          </g>
        </g>
        <g id="Group_25960" data-name="Group 25960" transform="translate(0.489 0.401)">
          <g id="Group_25959" data-name="Group 25959">
            <path id="Path_51837" data-name="Path 51837" d="M239.231,172.9a.278.278,0,0,1-.3-.083l.034-.144.3.07Z" transform="translate(-238.936 -172.672)" fill="#11044c"/>
          </g>
        </g>
        <g id="Group_25962" data-name="Group 25962" transform="translate(0.434)">
          <g id="Group_25961" data-name="Group 25961">
            <path id="Path_51838" data-name="Path 51838" d="M238.9,172.231a.284.284,0,0,1,.232-.5l-.162.185.056.165.171.034.162-.185a.285.285,0,0,1-.459.3Z" transform="translate(-238.807 -171.733)" fill="#11044c"/>
          </g>
        </g>
        <g id="Group_25964" data-name="Group 25964" transform="translate(0 1.963)">
          <g id="Group_25963" data-name="Group 25963">
            <path id="Path_51839" data-name="Path 51839" d="M238.288,176.642a.252.252,0,1,0-.3.187A.252.252,0,0,0,238.288,176.642Zm-.071-.054-.036.1-.088.061-.108,0-.086-.065-.031-.1.035-.1.088-.061.108,0,.086.065Z" transform="translate(-237.791 -176.332)" fill="#11044c"/>
          </g>
        </g>
        <g id="Group_25966" data-name="Group 25966" transform="translate(0.051 1.996)">
          <g id="Group_25965" data-name="Group 25965">
            <path id="Path_51840" data-name="Path 51840" d="M238.053,176.873a.253.253,0,0,1-.143-.093l.054-.066,0,.013.086.065.108,0,.088-.061.036-.1-.031-.1-.086-.065h0l.045-.055h.023a.252.252,0,0,1-.184.464Z" transform="translate(-237.91 -176.408)" fill="#11044c"/>
          </g>
        </g>
      </g>
    </g>
    <g id="Group_25970" data-name="Group 25970" transform="translate(32.787 39.887)">
      <g id="Group_25969" data-name="Group 25969" transform="translate(0 0)">
        <rect id="Rectangle_7998" data-name="Rectangle 7998" width="5.903" height="2.263" fill="#11044c"/>
      </g>
    </g>
  </g>
</svg>
