<svg xmlns="http://www.w3.org/2000/svg" width="356" height="327" viewBox="0 0 356 327"><g transform="translate(-1983 -3171)"><g transform="translate(2066.356 3171)"><g transform="translate(0 0)" style="isolation:isolate"><path d="M245.554,208.121a4.25,4.25,0,0,0-5.8-1.511A95.943,95.943,0,0,1,107.5,77.385a16.911,16.911,0,1,0-6.989-4.947v.041A104.474,104.474,0,0,0,244.043,213.968,4.3,4.3,0,0,0,245.554,208.121ZM113.43,53.224a8.38,8.38,0,1,1-5.317,14.84h-.041l-.041-.041a8.565,8.565,0,0,1-2.983-6.419A8.368,8.368,0,0,1,113.43,53.224Z" transform="translate(-87.1 -19.129)" fill="#90218a"/><path d="M175.042,65.354v-.041a17.577,17.577,0,0,0,.7-4.909,16.7,16.7,0,1,0-16.721,16.683A16.48,16.48,0,0,0,170.669,72.3a68.315,68.315,0,0,1-42.557,121.784,69.88,69.88,0,0,1-7.2-.367,4.09,4.09,0,0,0-.858,8.136,75.1,75.1,0,0,0,8.053.409A76.482,76.482,0,0,0,175.042,65.354Zm-8.5-.9a1.787,1.787,0,0,0-.2.371,8.629,8.629,0,0,1-7.319,4.088,8.5,8.5,0,1,1,7.521-4.459Z" transform="translate(-23.619 -21.283)" fill="#11044c"/><path d="M250.01,199.306A104.422,104.422,0,0,0,101.9,56.63a4.244,4.244,0,1,0,4.988,6.869,95.017,95.017,0,0,1,56.457-18.355,96.064,96.064,0,0,1,95.948,95.948A94.969,94.969,0,0,1,243.635,193.5a17.071,17.071,0,0,0-7.768-1.919,16.883,16.883,0,1,0,16.883,16.88,16.164,16.164,0,0,0-2.739-9.114Zm-14.143,17.538a8.381,8.381,0,1,1,8.38-8.383A8.39,8.39,0,0,1,235.867,216.844Z" transform="translate(-58.852 -36.64)" fill="#29abe2"/><path d="M208.026,93.816h-.247c-2.942.288-68.067,7.2-79.392,10.508-8.5,2.537-11.325,10.426-12.224,14.39a1.917,1.917,0,0,0,1.884,2.331h1.919a10.649,10.649,0,0,0-.041,1.143c0,8.994,5.764,16.313,12.877,16.313h5.726c1.469,3.268,5.517,10.669,11.813,10.669h11.61l-6.172,1.105-11.363,20.2a16.572,16.572,0,0,0-16.313,3.351,67.541,67.541,0,0,1-24-51.836,68.427,68.427,0,0,1,68.352-68.355c1.473,0,2.942.044,4.374.124a4.077,4.077,0,1,0,.532-8.136c-1.637-.12-3.271-.162-4.906-.162A76.626,76.626,0,0,0,95.93,121.986a75.829,75.829,0,0,0,27.47,58.705,16.238,16.238,0,0,0-.979,5.64,16.679,16.679,0,1,0,33.357,0,16.328,16.328,0,0,0-3.227-9.811l15.328-27.35h11.775A14.349,14.349,0,0,0,190.162,138.5h14.387c7.116,0,12.877-7.319,12.877-16.313V121.9s0-.326-.038-.9a16.014,16.014,0,0,0-.656-4.092c-.124-.529-.326-1.1-.532-1.716a16.887,16.887,0,0,0-2.983-5.07,2.39,2.39,0,0,0-.288-.367,19.064,19.064,0,0,1,5.6,11.284h8.095a1.965,1.965,0,0,0,1.922-2.331C223.886,94.921,209.417,93.857,208.026,93.816ZM139.1,194.834a8.5,8.5,0,0,1-8.5-8.5,8.683,8.683,0,0,1,1.023-4.089.132.132,0,0,0,.041-.082c.041-.041.082-.079.082-.12h.038V182a3.16,3.16,0,0,1,.371-.532.312.312,0,0,1,.082-.165,8.507,8.507,0,1,1,6.866,13.532Zm-6.3-59.4c-4.168,0-7.765-3.556-9.156-8.544a3.407,3.407,0,0,1,3.271-4.332H185.5a1.449,1.449,0,0,0,1.349-.82,32.707,32.707,0,0,1,6.746-8.339,14.426,14.426,0,0,0-.941,2.328,13,13,0,0,0-.532,1.8c0,.038-.041.079-.041.124-.165.694-.244,1.349-.367,2.084v.206a19.971,19.971,0,0,0-.124,2.245c0,.573.041,1.146.082,1.678a4.408,4.408,0,0,0,.123,1.061c.041.326.082.656.12.982a1.814,1.814,0,0,1,.086.409c.12.573.285,1.105.447,1.637a12.634,12.634,0,0,0,.614,1.754q.371.86.735,1.6a.04.04,0,0,1,.041.041,13.507,13.507,0,0,0,.941,1.514c.247.367.491.694.735,1.02.206.247.371.45.573.656a9.275,9.275,0,0,0,.9.9Zm74.283-23.711c9.2,8.75,1.96,17.209,1.39,17.865A15.552,15.552,0,0,0,207.086,111.725Zm7.274,9.852a13.218,13.218,0,0,1-5.149,11.078c1.349-1.267,4.171-4.5,4.332-10.669.244-7.768-5.928-12.142-6.663-12.674A13.051,13.051,0,0,1,214.36,121.577Z" transform="translate(-67.966 -17.534)" fill="#11044c"/></g><path d="M196.282,60.727h-.247c-2.942.288-68.067,7.2-79.392,10.508-8.5,2.537-11.325,10.426-12.224,14.39a1.917,1.917,0,0,0,1.884,2.331h1.919a10.645,10.645,0,0,0-.041,1.143c0,8.994,5.764,16.313,12.877,16.313h5.726c1.469,3.268,5.517,10.669,11.813,10.669h11.61l-6.172,1.105-11.363,20.2a16.572,16.572,0,0,0-16.313,3.351c-15.249-12.959-22.2-7.683-4.7,6.869a16.238,16.238,0,0,0-.979,5.64,16.679,16.679,0,1,0,33.357,0,16.328,16.328,0,0,0-3.227-9.811l15.328-27.35h11.775a14.349,14.349,0,0,0,10.508-10.669H192.8c7.116,0,12.877-7.319,12.877-16.313v-.285s0-.326-.038-.9a16.014,16.014,0,0,0-.656-4.092c-.124-.529-.326-1.1-.532-1.716a16.887,16.887,0,0,0-2.983-5.07,2.389,2.389,0,0,0-.288-.367,19.064,19.064,0,0,1,5.6,11.284h8.095a1.965,1.965,0,0,0,1.922-2.331C212.142,61.832,197.672,60.768,196.282,60.727ZM127.354,161.745a8.5,8.5,0,0,1-8.5-8.5,8.683,8.683,0,0,1,1.023-4.089.132.132,0,0,0,.041-.082c.041-.041.082-.079.082-.12h.038v-.041a3.163,3.163,0,0,1,.371-.532.312.312,0,0,1,.082-.165,8.507,8.507,0,1,1,6.866,13.532Zm-6.3-59.4c-4.168,0-7.765-3.556-9.156-8.544a3.407,3.407,0,0,1,3.271-4.332h58.582a1.449,1.449,0,0,0,1.349-.82,32.707,32.707,0,0,1,6.746-8.339,14.424,14.424,0,0,0-.941,2.328,13,13,0,0,0-.532,1.8c0,.038-.041.079-.041.124-.165.694-.244,1.349-.367,2.084v.206a19.971,19.971,0,0,0-.124,2.245c0,.573.041,1.146.082,1.678a4.409,4.409,0,0,0,.123,1.061c.041.326.082.656.12.982a1.814,1.814,0,0,1,.086.409c.12.573.285,1.105.447,1.637a12.635,12.635,0,0,0,.614,1.754q.371.86.735,1.6a.04.04,0,0,1,.041.041,13.508,13.508,0,0,0,.941,1.514c.247.367.491.694.735,1.02.206.247.371.45.573.656a9.275,9.275,0,0,0,.9.9Zm74.283-23.711c9.2,8.75,1.96,17.209,1.39,17.865A15.552,15.552,0,0,0,195.341,78.636Zm7.274,9.852a13.218,13.218,0,0,1-5.149,11.078c1.349-1.267,4.171-4.5,4.332-10.669.244-7.768-5.928-12.142-6.663-12.674A13.051,13.051,0,0,1,202.615,88.488Z" transform="translate(-56.221 15.555)" fill="#ccc" opacity="0.42" style="mix-blend-mode:soft-light;isolation:isolate"/></g><text transform="translate(2065 3442)" fill="#11044c" font-size="62" font-family="Muli-Bold, Muli" font-weight="700"><tspan x="0" y="0">Mesbar </tspan></text><text transform="translate(1983 3490)" fill="#11044c" font-size="30" font-family="Muli-Regular, Muli"><tspan x="0" y="0">Computer vision solutions</tspan></text></g></svg>