<svg xmlns="http://www.w3.org/2000/svg" width="107.7" height="107.7" viewBox="0 0 107.7 107.7"><g transform="translate(-2049.387 -5055.411)"><g transform="translate(-4157 3342.905)" style="isolation:isolate"><g transform="translate(6206.387 1712.506)" style="mix-blend-mode:overlay;isolation:isolate"><g transform="translate(89.592)" fill="#11044c"><path d="M 17.60885810852051 17.60885810852051 L 14.66441917419434 17.60885810852051 L 14.66441917419434 3.944439172744751 L 14.66441917419434 3.444439172744751 L 14.16441917419434 3.444439172744751 L 0.4999990463256836 3.444439172744751 L 0.4999990463256836 0.4999990463256836 L 17.42973899841309 0.4999990463256836 L 17.42973899841309 0.6794390678405762 L 17.60885810852051 0.6794390678405762 L 17.60885810852051 17.60885810852051 Z" stroke="none"/><path d="M 17.10885810852051 17.10885810852051 L 17.10885810852051 1.179439067840576 L 16.92973899841309 1.179439067840576 L 16.92973899841309 0.9999990463256836 L 0.9999990463256836 0.9999990463256836 L 0.9999990463256836 2.944439172744751 L 14.16441917419434 2.944439172744751 L 15.16441917419434 2.944439172744751 L 15.16441917419434 3.944439172744751 L 15.16441917419434 17.10885810852051 L 17.10885810852051 17.10885810852051 M 18.10885810852051 18.10885810852051 L 14.16441917419434 18.10885810852051 L 14.16441917419434 3.944439172744751 L -9.457397709411453e-07 3.944439172744751 L -9.457397709411453e-07 -9.457397709411453e-07 L 17.92973899841309 -9.457397709411453e-07 L 17.92973899841309 0.179439052939415 L 18.10885810852051 0.179439052939415 L 18.10885810852051 18.10885810852051 Z" stroke="none" fill="#11044c"/></g><g transform="translate(89.592 89.591)" fill="#11044c"><path d="M 17.42974472045898 17.60885810852051 L 0.5000038146972656 17.60885810852051 L 0.5000038146972656 14.66441917419434 L 14.16442394256592 14.66441917419434 L 14.66442394256592 14.66441917419434 L 14.66442394256592 14.16441917419434 L 14.66442394256592 0.4999990463256836 L 17.60886383056641 0.4999990463256836 L 17.60886383056641 17.42940902709961 L 17.42974472045898 17.42940902709961 L 17.42974472045898 17.60885810852051 Z" stroke="none"/><path d="M 15.16442394256592 1 L 15.16442394256592 14.16441917419434 L 15.16442394256592 15.16441917419434 L 14.16442394256592 15.16441917419434 L 1.000003814697266 15.16441917419434 L 1.000003814697266 17.10886001586914 L 16.92974472045898 17.10886001586914 L 16.92974472045898 16.92940902709961 L 17.10886383056641 16.92940902709961 L 17.10886383056641 1 L 15.16442394256592 1 M 14.16442394256592 0 L 18.10886383056641 0 L 18.10886383056641 17.92940902709961 L 17.92974472045898 17.92940902709961 L 17.92974472045898 18.10885810852051 L 3.814697265625e-06 18.10885810852051 L 3.814697265625e-06 14.16441917419434 L 14.16442394256592 14.16441917419434 L 14.16442394256592 0 Z" stroke="none" fill="#11044c"/></g><g transform="translate(18.109 18.109) rotate(180)" fill="#11044c"><path d="M 17.42980003356934 17.60885810852051 L 0.4999995827674866 17.60885810852051 L 0.4999995827674866 14.66441917419434 L 14.16446971893311 14.66441917419434 L 14.66446971893311 14.66441917419434 L 14.66446971893311 14.16441917419434 L 14.66446971893311 0.4999990463256836 L 17.60891914367676 0.4999990463256836 L 17.60891914367676 17.42941856384277 L 17.42980003356934 17.42941856384277 L 17.42980003356934 17.60885810852051 Z" stroke="none"/><path d="M 15.16446971893311 1 L 15.16446971893311 14.16441917419434 L 15.16446971893311 15.16441917419434 L 14.16446971893311 15.16441917419434 L 1 15.16441917419434 L 1 17.10886001586914 L 16.92980003356934 17.10886001586914 L 16.92980003356934 16.92941856384277 L 17.10891914367676 16.92941856384277 L 17.10891914367676 1 L 15.16446971893311 1 M 14.16446971893311 0 L 18.10891914367676 0 L 18.10891914367676 17.92941856384277 L 17.92980003356934 17.92941856384277 L 17.92980003356934 18.10885810852051 L 0 18.10885810852051 L 0 14.16441917419434 L 14.16446971893311 14.16441917419434 L 14.16446971893311 0 Z" stroke="none" fill="#11044c"/></g><g transform="translate(18.109 107.7) rotate(180)" fill="#11044c"><path d="M 17.60892486572266 17.60885810852051 L 14.66447448730469 17.60885810852051 L 14.66447448730469 3.944439172744751 L 14.66447448730469 3.444439172744751 L 14.16447448730469 3.444439172744751 L 0.5000043511390686 3.444439172744751 L 0.5000043511390686 0.4999990463256836 L 17.4298038482666 0.4999990463256836 L 17.4298038482666 0.6794390678405762 L 17.60892486572266 0.6794390678405762 L 17.60892486572266 17.60885810852051 Z" stroke="none"/><path d="M 17.10892486572266 17.10885810852051 L 17.10892486572266 1.179439067840576 L 16.9298038482666 1.179439067840576 L 16.9298038482666 0.9999990463256836 L 1.000004291534424 0.9999990463256836 L 1.000004291534424 2.944439172744751 L 14.16447448730469 2.944439172744751 L 15.16447448730469 2.944439172744751 L 15.16447448730469 3.944439172744751 L 15.16447448730469 17.10885810852051 L 17.10892486572266 17.10885810852051 M 18.10892486572266 18.10885810852051 L 14.16447448730469 18.10885810852051 L 14.16447448730469 3.944439172744751 L 4.340210125519661e-06 3.944439172744751 L 4.340210125519661e-06 -9.457397709411453e-07 L 17.9298038482666 -9.457397709411453e-07 L 17.9298038482666 0.179439052939415 L 18.10892486572266 0.179439052939415 L 18.10892486572266 18.10885810852051 Z" stroke="none" fill="#11044c"/></g></g></g><g transform="translate(2080.436 5092.684)"><path d="M159.9,167.048a.756.756,0,0,1-.756-.755V127.365a.755.755,0,0,1,1-.713l10.179,3.556a.756.756,0,0,1,.506.714v31.815a.755.755,0,0,1-.506.714l-10.179,3.556A.756.756,0,0,1,159.9,167.048Zm.755-38.619v36.8l8.668-3.028V131.457Z" transform="translate(-129.147 -123.501)" fill="#29abe2"/><path d="M173.064,163.593a.755.755,0,0,1-.755-.755V128.446h-2.854a.755.755,0,0,1,0-1.511h3.609a.755.755,0,0,1,.755.755v35.147A.755.755,0,0,1,173.064,163.593Z" transform="translate(-132.136 -123.603)" fill="#29abe2"/><path d="M165.325,153.063a1.183,1.183,0,1,1-1.183-1.183A1.183,1.183,0,0,1,165.325,153.063Z" transform="translate(-130.341 -131.402)" fill="#29abe2"/><path d="M132.1,167.048a.761.761,0,0,1-.25-.042l-10.178-3.556a.755.755,0,0,1-.507-.714V130.921a.755.755,0,0,1,.507-.714l10.178-3.556a.755.755,0,0,1,1,.713v38.927a.756.756,0,0,1-.755.755Zm-9.424-4.848,8.668,3.028v-36.8l-8.668,3.028Z" transform="translate(-117.273 -123.501)" fill="#29abe2"/><path d="M151.061,128.446h-10.09a.755.755,0,0,1,0-1.511h10.09a.755.755,0,1,1,0,1.511Z" transform="translate(-123.231 -123.603)" fill="#29abe2"/><path d="M121.916,163.593a.755.755,0,0,1-.755-.755V127.69a.755.755,0,0,1,.755-.755h3.609a.755.755,0,1,1,0,1.511h-2.854v34.392A.755.755,0,0,1,121.916,163.593Z" transform="translate(-117.273 -123.603)" fill="#29abe2"/><path d="M160.321,162.078a.755.755,0,0,1-.755-.755V123.6H117.016v37.724a.755.755,0,1,1-1.511,0v-38.48a.755.755,0,0,1,.755-.755h44.06a.756.756,0,0,1,.756.755v38.48A.756.756,0,0,1,160.321,162.078Z" transform="translate(-115.505 -122.087)" fill="#29abe2"/><path d="M130.908,153.063a1.183,1.183,0,1,0,1.183-1.183A1.183,1.183,0,0,0,130.908,153.063Z" transform="translate(-120.321 -131.402)" fill="#29abe2"/></g></g></svg>