<svg xmlns="http://www.w3.org/2000/svg" width="107.7" height="107.7" viewBox="0 0 107.7 107.7"><g transform="translate(-2312.387 -5055.411)"><g transform="translate(-3894 3342.905)" style="isolation:isolate"><g transform="translate(6206.387 1712.506)" style="mix-blend-mode:overlay;isolation:isolate"><g transform="translate(89.592)" fill="#11044c"><path d="M 17.60885810852051 17.60885810852051 L 14.66441917419434 17.60885810852051 L 14.66441917419434 3.944439172744751 L 14.66441917419434 3.444439172744751 L 14.16441917419434 3.444439172744751 L 0.4999990463256836 3.444439172744751 L 0.4999990463256836 0.4999990463256836 L 17.42973899841309 0.4999990463256836 L 17.42973899841309 0.6794390678405762 L 17.60885810852051 0.6794390678405762 L 17.60885810852051 17.60885810852051 Z" stroke="none"/><path d="M 17.10885810852051 17.10885810852051 L 17.10885810852051 1.179439067840576 L 16.92973899841309 1.179439067840576 L 16.92973899841309 0.9999990463256836 L 0.9999990463256836 0.9999990463256836 L 0.9999990463256836 2.944439172744751 L 14.16441917419434 2.944439172744751 L 15.16441917419434 2.944439172744751 L 15.16441917419434 3.944439172744751 L 15.16441917419434 17.10885810852051 L 17.10885810852051 17.10885810852051 M 18.10885810852051 18.10885810852051 L 14.16441917419434 18.10885810852051 L 14.16441917419434 3.944439172744751 L -9.457397709411453e-07 3.944439172744751 L -9.457397709411453e-07 -9.457397709411453e-07 L 17.92973899841309 -9.457397709411453e-07 L 17.92973899841309 0.179439052939415 L 18.10885810852051 0.179439052939415 L 18.10885810852051 18.10885810852051 Z" stroke="none" fill="#11044c"/></g><g transform="translate(89.592 89.591)" fill="#11044c"><path d="M 17.42974472045898 17.60885810852051 L 0.5000038146972656 17.60885810852051 L 0.5000038146972656 14.66441917419434 L 14.16442394256592 14.66441917419434 L 14.66442394256592 14.66441917419434 L 14.66442394256592 14.16441917419434 L 14.66442394256592 0.4999990463256836 L 17.60886383056641 0.4999990463256836 L 17.60886383056641 17.42940902709961 L 17.42974472045898 17.42940902709961 L 17.42974472045898 17.60885810852051 Z" stroke="none"/><path d="M 15.16442394256592 1 L 15.16442394256592 14.16441917419434 L 15.16442394256592 15.16441917419434 L 14.16442394256592 15.16441917419434 L 1.000003814697266 15.16441917419434 L 1.000003814697266 17.10886001586914 L 16.92974472045898 17.10886001586914 L 16.92974472045898 16.92940902709961 L 17.10886383056641 16.92940902709961 L 17.10886383056641 1 L 15.16442394256592 1 M 14.16442394256592 0 L 18.10886383056641 0 L 18.10886383056641 17.92940902709961 L 17.92974472045898 17.92940902709961 L 17.92974472045898 18.10885810852051 L 3.814697265625e-06 18.10885810852051 L 3.814697265625e-06 14.16441917419434 L 14.16442394256592 14.16441917419434 L 14.16442394256592 0 Z" stroke="none" fill="#11044c"/></g><g transform="translate(18.109 18.109) rotate(180)" fill="#11044c"><path d="M 17.42980003356934 17.60885810852051 L 0.4999995827674866 17.60885810852051 L 0.4999995827674866 14.66441917419434 L 14.16446971893311 14.66441917419434 L 14.66446971893311 14.66441917419434 L 14.66446971893311 14.16441917419434 L 14.66446971893311 0.4999990463256836 L 17.60891914367676 0.4999990463256836 L 17.60891914367676 17.42941856384277 L 17.42980003356934 17.42941856384277 L 17.42980003356934 17.60885810852051 Z" stroke="none"/><path d="M 15.16446971893311 1 L 15.16446971893311 14.16441917419434 L 15.16446971893311 15.16441917419434 L 14.16446971893311 15.16441917419434 L 1 15.16441917419434 L 1 17.10886001586914 L 16.92980003356934 17.10886001586914 L 16.92980003356934 16.92941856384277 L 17.10891914367676 16.92941856384277 L 17.10891914367676 1 L 15.16446971893311 1 M 14.16446971893311 0 L 18.10891914367676 0 L 18.10891914367676 17.92941856384277 L 17.92980003356934 17.92941856384277 L 17.92980003356934 18.10885810852051 L 0 18.10885810852051 L 0 14.16441917419434 L 14.16446971893311 14.16441917419434 L 14.16446971893311 0 Z" stroke="none" fill="#11044c"/></g><g transform="translate(18.109 107.7) rotate(180)" fill="#11044c"><path d="M 17.60892486572266 17.60885810852051 L 14.66447448730469 17.60885810852051 L 14.66447448730469 3.944439172744751 L 14.66447448730469 3.444439172744751 L 14.16447448730469 3.444439172744751 L 0.5000043511390686 3.444439172744751 L 0.5000043511390686 0.4999990463256836 L 17.4298038482666 0.4999990463256836 L 17.4298038482666 0.6794390678405762 L 17.60892486572266 0.6794390678405762 L 17.60892486572266 17.60885810852051 Z" stroke="none"/><path d="M 17.10892486572266 17.10885810852051 L 17.10892486572266 1.179439067840576 L 16.9298038482666 1.179439067840576 L 16.9298038482666 0.9999990463256836 L 1.000004291534424 0.9999990463256836 L 1.000004291534424 2.944439172744751 L 14.16447448730469 2.944439172744751 L 15.16447448730469 2.944439172744751 L 15.16447448730469 3.944439172744751 L 15.16447448730469 17.10885810852051 L 17.10892486572266 17.10885810852051 M 18.10892486572266 18.10885810852051 L 14.16447448730469 18.10885810852051 L 14.16447448730469 3.944439172744751 L 4.340210125519661e-06 3.944439172744751 L 4.340210125519661e-06 -9.457397709411453e-07 L 17.9298038482666 -9.457397709411453e-07 L 17.9298038482666 0.179439052939415 L 18.10892486572266 0.179439052939415 L 18.10892486572266 18.10885810852051 Z" stroke="none" fill="#11044c"/></g></g></g><g transform="translate(2334.402 5088.626)"><g transform="translate(39.7 0.208)"><path d="M492.717,100.957a5.45,5.45,0,0,1-6.909,0,4.788,4.788,0,0,0-3.028,4.451v2.138a1.726,1.726,0,0,0,1.726,1.726h9.514a1.725,1.725,0,0,0,1.726-1.726v-2.138A4.788,4.788,0,0,0,492.717,100.957Z" transform="translate(-482.78 -92.061)" fill="none" stroke="#29abe2" stroke-width="1"/><path d="M496.043,79.8q-.111-.163-.234-.317a4.717,4.717,0,0,0-.542-.569q-.147-.13-.3-.248a4.678,4.678,0,0,0-1.031-.584c-.123-.05-.249-.1-.377-.135a4.681,4.681,0,0,0-4.682,7.8q.159.156.331.3a4.729,4.729,0,0,0,.452.321,4.664,4.664,0,0,0,2.506.73,4.741,4.741,0,0,0,.475-.024,4.643,4.643,0,0,0,2.029-.706c.031-.02.064-.036.094-.056q.185-.124.358-.265t.33-.3a4.7,4.7,0,0,0,.581-.7q.129-.188.239-.388a4.681,4.681,0,0,0,.011-4.481Q496.169,79.991,496.043,79.8Z" transform="translate(-485.677 -77.741)" fill="none" stroke="#29abe2" stroke-width="1"/></g><g transform="translate(12.094)"><path d="M492.717,100.957a5.45,5.45,0,0,1-6.909,0,4.788,4.788,0,0,0-3.028,4.451v2.138a1.726,1.726,0,0,0,1.726,1.726h9.514a1.725,1.725,0,0,0,1.726-1.726v-2.138A4.788,4.788,0,0,0,492.717,100.957Z" transform="translate(-482.78 -92.061)" fill="none" stroke="#29abe2" stroke-width="1"/><path d="M496.043,79.8q-.111-.163-.234-.317a4.717,4.717,0,0,0-.542-.569q-.147-.13-.3-.248a4.678,4.678,0,0,0-1.031-.584c-.123-.05-.249-.1-.377-.135a4.681,4.681,0,0,0-4.682,7.8q.159.156.331.3a4.729,4.729,0,0,0,.452.321,4.664,4.664,0,0,0,2.506.73,4.741,4.741,0,0,0,.475-.024,4.643,4.643,0,0,0,2.029-.706c.031-.02.064-.036.094-.056q.185-.124.358-.265t.33-.3a4.7,4.7,0,0,0,.581-.7q.129-.188.239-.388a4.681,4.681,0,0,0,.011-4.481Q496.169,79.991,496.043,79.8Z" transform="translate(-485.677 -77.741)" fill="none" stroke="#29abe2" stroke-width="1"/></g><g transform="translate(0 17.313)"><rect width="63.875" height="1.148" transform="translate(0 0)" fill="none" stroke="#29abe2" stroke-width="1"/><path d="M0,0H57.372V22.646H0Z" transform="translate(3.098 1.148)" fill="none" stroke="#29abe2" stroke-width="1"/><rect width="57.372" height="7.804" transform="translate(3.098 11.438)" fill="none" stroke="#29abe2" stroke-width="1"/></g></g></g></svg>