<svg xmlns="http://www.w3.org/2000/svg" width="107.7" height="107.7" viewBox="0 0 107.7 107.7"><g transform="translate(-6206.387 -1712.506)" style="isolation:isolate"><g transform="translate(6226.52 1727.134)" style="mix-blend-mode:overlay;isolation:isolate"><path d="M257.218,252.116a6.987,6.987,0,0,0-.906-.463,6.813,6.813,0,0,0-.643-.236q-.323-.1-.659-.17a5.935,5.935,0,0,1-3.251.979c-.178,0-.356-.008-.532-.024a5.854,5.854,0,0,1-1.077-.2,5.939,5.939,0,0,1-1.647-.753,7,7,0,0,0-3.964,2.391,5.932,5.932,0,0,1-.616,7.551,8.087,8.087,0,0,1,5.63,7.7v6.563a3.533,3.533,0,0,1-3.062,3.5v3.286a2.368,2.368,0,0,0,1.874.928h.42a2.38,2.38,0,0,0,2.379-2.38v-9.375a.595.595,0,0,1,1.19,0v9.375a2.376,2.376,0,0,0,2.38,2.38h.412a2.376,2.376,0,0,0,2.379-2.38V267.117h.611a2.44,2.44,0,0,0,1.733-.718,2.425,2.425,0,0,0,.3-.363,2.442,2.442,0,0,0,.419-1.37V258.1A7,7,0,0,0,257.218,252.116Z" transform="translate(-193.994 -222.353)" fill="#29abe2"/><path d="M213.183,238.518v6.563a3.517,3.517,0,0,1-1.65,2.97v6.568a5.976,5.976,0,0,1,5.18-4.461v-5.232a.6.6,0,0,1,1.19,0v5.232a5.976,5.976,0,0,1,5.171,4.435v-6.547a3.517,3.517,0,0,1-1.642-2.965v-6.563a8.08,8.08,0,0,1,4.682-7.319,7,7,0,0,0-4.254-6.029q-.315-.132-.643-.236t-.659-.169a5.9,5.9,0,0,1-6.508,0,7,7,0,0,0-5.55,6.433A8.081,8.081,0,0,1,213.183,238.518Z" transform="translate(-184.011 -214.889)" fill="#29abe2"/><path d="M193.982,241.5a5.929,5.929,0,0,1-1.69,4.146,8.091,8.091,0,0,1,3.64,2.4,5.959,5.959,0,0,1,9.7,1.94c.013.029.022.06.033.09a2.479,2.479,0,0,0,1.617-2.3v-6.563a7,7,0,0,0-3.627-6.132l-.037-.023a6.933,6.933,0,0,0-1.04-.451,6.846,6.846,0,0,0-.874-.249,5.9,5.9,0,0,1-6.508,0,6.914,6.914,0,0,0-3.806,2.218A5.962,5.962,0,0,1,193.982,241.5Z" transform="translate(-179.189 -217.596)" fill="#29abe2"/><path d="M228.008,241.225v6.563a2.476,2.476,0,0,0,1.615,2.3c.009-.024.017-.048.027-.071a5.958,5.958,0,0,1,9.709-1.958,8.1,8.1,0,0,1,3.635-2.4,5.951,5.951,0,0,1,.906-9.062,6.986,6.986,0,0,0-3.813-2.219,5.9,5.9,0,0,1-6.508,0,7.592,7.592,0,0,0-1.945.721A7,7,0,0,0,228.008,241.225Z" transform="translate(-189.509 -217.596)" fill="#29abe2"/><path d="M185.435,275.451v-6.563a8.031,8.031,0,0,1,1.38-4.511,8.2,8.2,0,0,1,4.244-3.184,5.941,5.941,0,0,1-.61-7.554q-.21-.253-.442-.486a7.061,7.061,0,0,0-1.036-.855,6.975,6.975,0,0,0-2.491-1.05,5.937,5.937,0,0,1-2.717.954c-.177.016-.355.024-.534.024a5.951,5.951,0,0,1-3.257-.977A7,7,0,0,0,174.4,258.1v6.563a2.45,2.45,0,0,0,2.45,2.451h.6v13.666a2.38,2.38,0,0,0,2.379,2.38h.421a2.38,2.38,0,0,0,2.379-2.38v-9.375a.6.6,0,0,1,1.19,0v9.375a2.38,2.38,0,0,0,2.379,2.38h.413a2.329,2.329,0,0,0,1.873-.928v-3.288A3.533,3.533,0,0,1,185.435,275.451Z" transform="translate(-174.4 -222.353)" fill="#29abe2"/><path d="M202.544,286.2v-6.563a8.022,8.022,0,0,1,.916-3.721,8.174,8.174,0,0,1,4.709-3.973,5.969,5.969,0,0,1-1.684-4.119,6.93,6.93,0,0,0-.835-.616c-.128-.081-.254-.163-.387-.235a6.975,6.975,0,0,0-1.077-.467,7.053,7.053,0,0,0-.842-.236,5.886,5.886,0,0,1-5.457.549l-.062-.026a5.961,5.961,0,0,1-.988-.522l-.027.007a6.949,6.949,0,0,0-1.882.691,7.007,7.007,0,0,0-3.663,6.155v6.563a2.451,2.451,0,0,0,2.451,2.451h.6V295.8a2.381,2.381,0,0,0,1.9,2.332,2.4,2.4,0,0,0,.48.048h.42a2.379,2.379,0,0,0,2.38-2.38v-9.375a.595.595,0,1,1,1.189,0V295.8a2.38,2.38,0,0,0,2.38,2.38h.412a2.352,2.352,0,0,0,2.118-1.316v-7.173A3.534,3.534,0,0,1,202.544,286.2Z" transform="translate(-179.153 -226.586)" fill="#29abe2"/><path d="M243.627,279.684v-6.563a7.026,7.026,0,0,0-5.544-6.846l-.033-.009a5.959,5.959,0,0,1-.982.52l-.062.026a5.885,5.885,0,0,1-5.464-.544,7.545,7.545,0,0,0-1.921.707c-.133.072-.26.154-.387.235a6.991,6.991,0,0,0-.827.612,5.953,5.953,0,0,1-1.689,4.116,8.105,8.105,0,0,1,5.63,7.7V286.2a3.533,3.533,0,0,1-3.062,3.5v7.172a2.371,2.371,0,0,0,2.118,1.316h.42a2.374,2.374,0,0,0,1.683-.7,2.371,2.371,0,0,0,.7-1.683v-9.375a.6.6,0,0,1,.218-.458.617.617,0,0,1,.147-.09.586.586,0,0,1,.23-.047.6.6,0,0,1,.6.595V295.8a2.38,2.38,0,0,0,2.379,2.38h.412a2.38,2.38,0,0,0,2.38-2.38V282.135h.61A2.451,2.451,0,0,0,243.627,279.684Z" transform="translate(-189.145 -226.586)" fill="#29abe2"/><path d="M225.41,290.484a2.49,2.49,0,0,0,.476-.67,2.449,2.449,0,0,0,.241-1.063v-6.563a7.007,7.007,0,0,0-4.275-6.45q-.315-.133-.643-.236c-.12-.037-.245-.063-.368-.094-.1-.025-.192-.055-.291-.075a5.988,5.988,0,0,1-.8.444,5.91,5.91,0,0,1-5.708-.442c-.1.02-.19.049-.285.073a7,7,0,0,0-5.286,6.78v6.563a2.419,2.419,0,0,0,2.238,2.43c.071.006.14.022.213.022h.6v13.667a2.38,2.38,0,0,0,2.38,2.379h.42a2.38,2.38,0,0,0,2.38-2.379v-9.375a.595.595,0,1,1,1.19,0v9.375a2.38,2.38,0,0,0,1.9,2.331,2.4,2.4,0,0,0,.48.048h.412a2.377,2.377,0,0,0,2.38-2.379V291.2h.61c.07,0,.136-.015.2-.021a2.429,2.429,0,0,0,.75-.172A2.461,2.461,0,0,0,225.41,290.484Z" transform="translate(-184.003 -229.141)" fill="#29abe2"/><circle cx="4.889" cy="4.889" r="4.889" transform="translate(14.377 6.898)" fill="#29abe2"/><circle cx="4.889" cy="4.889" r="4.889" transform="translate(28.408 0)" fill="#29abe2"/><circle cx="4.889" cy="4.889" r="4.889" transform="translate(42.438 6.898)" fill="#29abe2"/><circle cx="4.889" cy="4.889" r="4.889" transform="translate(52.876 19.019)" fill="#29abe2"/><path d="M236.05,252.514a4.889,4.889,0,1,0,4.889,4.889A4.889,4.889,0,0,0,236.05,252.514Z" transform="translate(-190.398 -222.71)" fill="#29abe2"/><path d="M218.846,261.582a4.889,4.889,0,1,0,4.889,4.889A4.888,4.888,0,0,0,218.846,261.582Z" transform="translate(-185.549 -225.266)" fill="#29abe2"/><circle cx="4.889" cy="4.889" r="4.889" transform="translate(16.051 29.804)" fill="#29abe2"/><circle cx="4.889" cy="4.889" r="4.889" transform="translate(3.939 19.019)" fill="#29abe2"/></g><g transform="translate(6206.387 1712.506)" style="mix-blend-mode:overlay;isolation:isolate"><g transform="translate(89.592)" fill="#11044c"><path d="M 17.60885810852051 17.60885810852051 L 14.66441917419434 17.60885810852051 L 14.66441917419434 3.944439172744751 L 14.66441917419434 3.444439172744751 L 14.16441917419434 3.444439172744751 L 0.4999990463256836 3.444439172744751 L 0.4999990463256836 0.4999990463256836 L 17.42973899841309 0.4999990463256836 L 17.42973899841309 0.6794390678405762 L 17.60885810852051 0.6794390678405762 L 17.60885810852051 17.60885810852051 Z" stroke="none"/><path d="M 17.10885810852051 17.10885810852051 L 17.10885810852051 1.179439067840576 L 16.92973899841309 1.179439067840576 L 16.92973899841309 0.9999990463256836 L 0.9999990463256836 0.9999990463256836 L 0.9999990463256836 2.944439172744751 L 14.16441917419434 2.944439172744751 L 15.16441917419434 2.944439172744751 L 15.16441917419434 3.944439172744751 L 15.16441917419434 17.10885810852051 L 17.10885810852051 17.10885810852051 M 18.10885810852051 18.10885810852051 L 14.16441917419434 18.10885810852051 L 14.16441917419434 3.944439172744751 L -9.457397709411453e-07 3.944439172744751 L -9.457397709411453e-07 -9.457397709411453e-07 L 17.92973899841309 -9.457397709411453e-07 L 17.92973899841309 0.179439052939415 L 18.10885810852051 0.179439052939415 L 18.10885810852051 18.10885810852051 Z" stroke="none" fill="#11044c"/></g><g transform="translate(89.592 89.591)" fill="#11044c"><path d="M 17.42974472045898 17.60885810852051 L 0.5000038146972656 17.60885810852051 L 0.5000038146972656 14.66441917419434 L 14.16442394256592 14.66441917419434 L 14.66442394256592 14.66441917419434 L 14.66442394256592 14.16441917419434 L 14.66442394256592 0.4999990463256836 L 17.60886383056641 0.4999990463256836 L 17.60886383056641 17.42940902709961 L 17.42974472045898 17.42940902709961 L 17.42974472045898 17.60885810852051 Z" stroke="none"/><path d="M 15.16442394256592 1 L 15.16442394256592 14.16441917419434 L 15.16442394256592 15.16441917419434 L 14.16442394256592 15.16441917419434 L 1.000003814697266 15.16441917419434 L 1.000003814697266 17.10886001586914 L 16.92974472045898 17.10886001586914 L 16.92974472045898 16.92940902709961 L 17.10886383056641 16.92940902709961 L 17.10886383056641 1 L 15.16442394256592 1 M 14.16442394256592 0 L 18.10886383056641 0 L 18.10886383056641 17.92940902709961 L 17.92974472045898 17.92940902709961 L 17.92974472045898 18.10885810852051 L 3.814697265625e-06 18.10885810852051 L 3.814697265625e-06 14.16441917419434 L 14.16442394256592 14.16441917419434 L 14.16442394256592 0 Z" stroke="none" fill="#11044c"/></g><g transform="translate(18.109 18.109) rotate(180)" fill="#11044c"><path d="M 17.42980003356934 17.60885810852051 L 0.4999995827674866 17.60885810852051 L 0.4999995827674866 14.66441917419434 L 14.16446971893311 14.66441917419434 L 14.66446971893311 14.66441917419434 L 14.66446971893311 14.16441917419434 L 14.66446971893311 0.4999990463256836 L 17.60891914367676 0.4999990463256836 L 17.60891914367676 17.42941856384277 L 17.42980003356934 17.42941856384277 L 17.42980003356934 17.60885810852051 Z" stroke="none"/><path d="M 15.16446971893311 1 L 15.16446971893311 14.16441917419434 L 15.16446971893311 15.16441917419434 L 14.16446971893311 15.16441917419434 L 1 15.16441917419434 L 1 17.10886001586914 L 16.92980003356934 17.10886001586914 L 16.92980003356934 16.92941856384277 L 17.10891914367676 16.92941856384277 L 17.10891914367676 1 L 15.16446971893311 1 M 14.16446971893311 0 L 18.10891914367676 0 L 18.10891914367676 17.92941856384277 L 17.92980003356934 17.92941856384277 L 17.92980003356934 18.10885810852051 L 0 18.10885810852051 L 0 14.16441917419434 L 14.16446971893311 14.16441917419434 L 14.16446971893311 0 Z" stroke="none" fill="#11044c"/></g><g transform="translate(18.109 107.7) rotate(180)" fill="#11044c"><path d="M 17.60892486572266 17.60885810852051 L 14.66447448730469 17.60885810852051 L 14.66447448730469 3.944439172744751 L 14.66447448730469 3.444439172744751 L 14.16447448730469 3.444439172744751 L 0.5000043511390686 3.444439172744751 L 0.5000043511390686 0.4999990463256836 L 17.4298038482666 0.4999990463256836 L 17.4298038482666 0.6794390678405762 L 17.60892486572266 0.6794390678405762 L 17.60892486572266 17.60885810852051 Z" stroke="none"/><path d="M 17.10892486572266 17.10885810852051 L 17.10892486572266 1.179439067840576 L 16.9298038482666 1.179439067840576 L 16.9298038482666 0.9999990463256836 L 1.000004291534424 0.9999990463256836 L 1.000004291534424 2.944439172744751 L 14.16447448730469 2.944439172744751 L 15.16447448730469 2.944439172744751 L 15.16447448730469 3.944439172744751 L 15.16447448730469 17.10885810852051 L 17.10892486572266 17.10885810852051 M 18.10892486572266 18.10885810852051 L 14.16447448730469 18.10885810852051 L 14.16447448730469 3.944439172744751 L 4.340210125519661e-06 3.944439172744751 L 4.340210125519661e-06 -9.457397709411453e-07 L 17.9298038482666 -9.457397709411453e-07 L 17.9298038482666 0.179439052939415 L 18.10892486572266 0.179439052939415 L 18.10892486572266 18.10885810852051 Z" stroke="none" fill="#11044c"/></g></g></g></svg>