<svg xmlns="http://www.w3.org/2000/svg" xmlns:xlink="http://www.w3.org/1999/xlink" width="107.7" height="107.7" viewBox="0 0 107.7 107.7"><defs><clipPath id="a"><path d="M106.2,137.755a.441.441,0,0,0-.409.606,8.179,8.179,0,0,0,7.761,5.279,8.312,8.312,0,0,0,7.824-5.318.441.441,0,0,0-.41-.609Z" transform="translate(-105.761 -137.712)" fill="#fff"/></clipPath></defs><g transform="translate(-1786.387 -5052.411)"><g transform="translate(-4420 3339.905)" style="isolation:isolate"><g transform="translate(6206.387 1712.506)" style="mix-blend-mode:overlay;isolation:isolate"><g transform="translate(89.592)" fill="#11044c"><path d="M 17.60885810852051 17.60885810852051 L 14.66441917419434 17.60885810852051 L 14.66441917419434 3.944439172744751 L 14.66441917419434 3.444439172744751 L 14.16441917419434 3.444439172744751 L 0.4999990463256836 3.444439172744751 L 0.4999990463256836 0.4999990463256836 L 17.42973899841309 0.4999990463256836 L 17.42973899841309 0.6794390678405762 L 17.60885810852051 0.6794390678405762 L 17.60885810852051 17.60885810852051 Z" stroke="none"/><path d="M 17.10885810852051 17.10885810852051 L 17.10885810852051 1.179439067840576 L 16.92973899841309 1.179439067840576 L 16.92973899841309 0.9999990463256836 L 0.9999990463256836 0.9999990463256836 L 0.9999990463256836 2.944439172744751 L 14.16441917419434 2.944439172744751 L 15.16441917419434 2.944439172744751 L 15.16441917419434 3.944439172744751 L 15.16441917419434 17.10885810852051 L 17.10885810852051 17.10885810852051 M 18.10885810852051 18.10885810852051 L 14.16441917419434 18.10885810852051 L 14.16441917419434 3.944439172744751 L -9.457397709411453e-07 3.944439172744751 L -9.457397709411453e-07 -9.457397709411453e-07 L 17.92973899841309 -9.457397709411453e-07 L 17.92973899841309 0.179439052939415 L 18.10885810852051 0.179439052939415 L 18.10885810852051 18.10885810852051 Z" stroke="none" fill="#11044c"/></g><g transform="translate(89.592 89.591)" fill="#11044c"><path d="M 17.42974472045898 17.60885810852051 L 0.5000038146972656 17.60885810852051 L 0.5000038146972656 14.66441917419434 L 14.16442394256592 14.66441917419434 L 14.66442394256592 14.66441917419434 L 14.66442394256592 14.16441917419434 L 14.66442394256592 0.4999990463256836 L 17.60886383056641 0.4999990463256836 L 17.60886383056641 17.42940902709961 L 17.42974472045898 17.42940902709961 L 17.42974472045898 17.60885810852051 Z" stroke="none"/><path d="M 15.16442394256592 1 L 15.16442394256592 14.16441917419434 L 15.16442394256592 15.16441917419434 L 14.16442394256592 15.16441917419434 L 1.000003814697266 15.16441917419434 L 1.000003814697266 17.10886001586914 L 16.92974472045898 17.10886001586914 L 16.92974472045898 16.92940902709961 L 17.10886383056641 16.92940902709961 L 17.10886383056641 1 L 15.16442394256592 1 M 14.16442394256592 0 L 18.10886383056641 0 L 18.10886383056641 17.92940902709961 L 17.92974472045898 17.92940902709961 L 17.92974472045898 18.10885810852051 L 3.814697265625e-06 18.10885810852051 L 3.814697265625e-06 14.16441917419434 L 14.16442394256592 14.16441917419434 L 14.16442394256592 0 Z" stroke="none" fill="#11044c"/></g><g transform="translate(18.109 18.109) rotate(180)" fill="#11044c"><path d="M 17.42980003356934 17.60885810852051 L 0.4999995827674866 17.60885810852051 L 0.4999995827674866 14.66441917419434 L 14.16446971893311 14.66441917419434 L 14.66446971893311 14.66441917419434 L 14.66446971893311 14.16441917419434 L 14.66446971893311 0.4999990463256836 L 17.60891914367676 0.4999990463256836 L 17.60891914367676 17.42941856384277 L 17.42980003356934 17.42941856384277 L 17.42980003356934 17.60885810852051 Z" stroke="none"/><path d="M 15.16446971893311 1 L 15.16446971893311 14.16441917419434 L 15.16446971893311 15.16441917419434 L 14.16446971893311 15.16441917419434 L 1 15.16441917419434 L 1 17.10886001586914 L 16.92980003356934 17.10886001586914 L 16.92980003356934 16.92941856384277 L 17.10891914367676 16.92941856384277 L 17.10891914367676 1 L 15.16446971893311 1 M 14.16446971893311 0 L 18.10891914367676 0 L 18.10891914367676 17.92941856384277 L 17.92980003356934 17.92941856384277 L 17.92980003356934 18.10885810852051 L 0 18.10885810852051 L 0 14.16441917419434 L 14.16446971893311 14.16441917419434 L 14.16446971893311 0 Z" stroke="none" fill="#11044c"/></g><g transform="translate(18.109 107.7) rotate(180)" fill="#11044c"><path d="M 17.60892486572266 17.60885810852051 L 14.66447448730469 17.60885810852051 L 14.66447448730469 3.944439172744751 L 14.66447448730469 3.444439172744751 L 14.16447448730469 3.444439172744751 L 0.5000043511390686 3.444439172744751 L 0.5000043511390686 0.4999990463256836 L 17.4298038482666 0.4999990463256836 L 17.4298038482666 0.6794390678405762 L 17.60892486572266 0.6794390678405762 L 17.60892486572266 17.60885810852051 Z" stroke="none"/><path d="M 17.10892486572266 17.10885810852051 L 17.10892486572266 1.179439067840576 L 16.9298038482666 1.179439067840576 L 16.9298038482666 0.9999990463256836 L 1.000004291534424 0.9999990463256836 L 1.000004291534424 2.944439172744751 L 14.16447448730469 2.944439172744751 L 15.16447448730469 2.944439172744751 L 15.16447448730469 3.944439172744751 L 15.16447448730469 17.10885810852051 L 17.10892486572266 17.10885810852051 M 18.10892486572266 18.10885810852051 L 14.16447448730469 18.10885810852051 L 14.16447448730469 3.944439172744751 L 4.340210125519661e-06 3.944439172744751 L 4.340210125519661e-06 -9.457397709411453e-07 L 17.9298038482666 -9.457397709411453e-07 L 17.9298038482666 0.179439052939415 L 18.10892486572266 0.179439052939415 L 18.10892486572266 18.10885810852051 Z" stroke="none" fill="#11044c"/></g></g></g><g transform="translate(-4873 3464.714)" style="isolation:isolate"><g transform="translate(6675.988 1627.653)"><g transform="translate(0 0)"><ellipse cx="14.399" cy="14.399" rx="14.399" ry="14.399" transform="matrix(0.218, -0.976, 0.976, 0.218, 0, 28.106)" fill="#29abe2"/></g><g transform="translate(9.592 12.8)"><path d="M107.885,104.266h0a1.049,1.049,0,0,1-1.046-1.046v-2.51a1.049,1.049,0,0,1,1.046-1.046h0a1.049,1.049,0,0,1,1.046,1.046v2.51A1.049,1.049,0,0,1,107.885,104.266Z" transform="translate(-106.839 -99.664)" fill="#fff"/><path d="M170.552,104.266h0a1.049,1.049,0,0,1-1.046-1.046v-2.51a1.049,1.049,0,0,1,1.046-1.046h0a1.049,1.049,0,0,1,1.046,1.046v2.51A1.049,1.049,0,0,1,170.552,104.266Z" transform="translate(-156.396 -99.664)" fill="#fff"/></g><g transform="translate(9.366 20.759)"><path d="M106.2,137.755a.441.441,0,0,0-.409.606,8.179,8.179,0,0,0,7.761,5.279,8.312,8.312,0,0,0,7.824-5.318.441.441,0,0,0-.41-.609Z" transform="translate(-105.761 -137.712)" fill="#fff"/><g clip-path="url(#a)"><ellipse cx="5.544" cy="3.007" rx="5.544" ry="3.007" transform="translate(2.17 2.44)" fill="#fff"/></g></g></g><g transform="translate(6715.271 1627.725)"><g transform="translate(0 0)"><path d="M14.4,0A14.4,14.4,0,1,1,0,14.4,14.4,14.4,0,0,1,14.4,0Z" transform="translate(0 28.133) rotate(-77.653)" fill="#29abe2"/></g><g transform="translate(9.466 11.77)"><path d="M447.012,454.087l3.457,1.961-3.43,1.944" transform="translate(-447.012 -454.087)" fill="none" stroke="#fff" stroke-linecap="round" stroke-linejoin="round" stroke-width="1"/><path d="M507.662,457.992l-3.377-1.961,3.351-1.944" transform="translate(-492.303 -454.087)" fill="none" stroke="#fff" stroke-linecap="round" stroke-linejoin="round" stroke-width="1"/></g><path d="M459.054,492.55a5.45,5.45,0,0,1,5.183-3.818,5.353,5.353,0,0,1,5.137,3.788" transform="translate(-447.069 -469.714)" fill="none" stroke="#fff" stroke-linecap="round" stroke-miterlimit="10" stroke-width="1"/></g></g></g></svg>