<svg xmlns="http://www.w3.org/2000/svg" width="107.7" height="107.7" viewBox="0 0 107.7 107.7">
  <g id="Group_29214" data-name="Group 29214" transform="translate(-6206.387 -1712.506)" style="isolation: isolate">
    <g id="Group_23077" data-name="Group 23077" transform="translate(6206.387 1712.506)" style="mix-blend-mode: overlay;isolation: isolate">
      <g id="Group_23072" data-name="Group 23072">
        <g id="Group_238" data-name="Group 238">
          <g id="Union_1" data-name="Union 1" transform="translate(89.592)" fill="#11044c">
            <path d="M 17.60885810852051 17.60885810852051 L 14.66441917419434 17.60885810852051 L 14.66441917419434 3.944439172744751 L 14.66441917419434 3.444439172744751 L 14.16441917419434 3.444439172744751 L 0.4999990463256836 3.444439172744751 L 0.4999990463256836 0.4999990463256836 L 17.42973899841309 0.4999990463256836 L 17.42973899841309 0.6794390678405762 L 17.60885810852051 0.6794390678405762 L 17.60885810852051 17.60885810852051 Z" stroke="none"/>
            <path d="M 17.10885810852051 17.10885810852051 L 17.10885810852051 1.179439067840576 L 16.92973899841309 1.179439067840576 L 16.92973899841309 0.9999990463256836 L 0.9999990463256836 0.9999990463256836 L 0.9999990463256836 2.944439172744751 L 14.16441917419434 2.944439172744751 L 15.16441917419434 2.944439172744751 L 15.16441917419434 3.944439172744751 L 15.16441917419434 17.10885810852051 L 17.10885810852051 17.10885810852051 M 18.10885810852051 18.10885810852051 L 14.16441917419434 18.10885810852051 L 14.16441917419434 3.944439172744751 L -9.457397709411453e-07 3.944439172744751 L -9.457397709411453e-07 -9.457397709411453e-07 L 17.92973899841309 -9.457397709411453e-07 L 17.92973899841309 0.179439052939415 L 18.10885810852051 0.179439052939415 L 18.10885810852051 18.10885810852051 Z" stroke="none" fill="#11044c"/>
          </g>
          <g id="Union_3" data-name="Union 3" transform="translate(89.592 89.591)" fill="#11044c">
            <path d="M 17.42974472045898 17.60885810852051 L 0.5000038146972656 17.60885810852051 L 0.5000038146972656 14.66441917419434 L 14.16442394256592 14.66441917419434 L 14.66442394256592 14.66441917419434 L 14.66442394256592 14.16441917419434 L 14.66442394256592 0.4999990463256836 L 17.60886383056641 0.4999990463256836 L 17.60886383056641 17.42940902709961 L 17.42974472045898 17.42940902709961 L 17.42974472045898 17.60885810852051 Z" stroke="none"/>
            <path d="M 15.16442394256592 1 L 15.16442394256592 14.16441917419434 L 15.16442394256592 15.16441917419434 L 14.16442394256592 15.16441917419434 L 1.000003814697266 15.16441917419434 L 1.000003814697266 17.10886001586914 L 16.92974472045898 17.10886001586914 L 16.92974472045898 16.92940902709961 L 17.10886383056641 16.92940902709961 L 17.10886383056641 1 L 15.16442394256592 1 M 14.16442394256592 0 L 18.10886383056641 0 L 18.10886383056641 17.92940902709961 L 17.92974472045898 17.92940902709961 L 17.92974472045898 18.10885810852051 L 3.814697265625e-06 18.10885810852051 L 3.814697265625e-06 14.16441917419434 L 14.16442394256592 14.16441917419434 L 14.16442394256592 0 Z" stroke="none" fill="#11044c"/>
          </g>
          <g id="Union_2" data-name="Union 2" transform="translate(18.109 18.109) rotate(180)" fill="#11044c">
            <path d="M 17.42980003356934 17.60885810852051 L 0.4999995827674866 17.60885810852051 L 0.4999995827674866 14.66441917419434 L 14.16446971893311 14.66441917419434 L 14.66446971893311 14.66441917419434 L 14.66446971893311 14.16441917419434 L 14.66446971893311 0.4999990463256836 L 17.60891914367676 0.4999990463256836 L 17.60891914367676 17.42941856384277 L 17.42980003356934 17.42941856384277 L 17.42980003356934 17.60885810852051 Z" stroke="none"/>
            <path d="M 15.16446971893311 1 L 15.16446971893311 14.16441917419434 L 15.16446971893311 15.16441917419434 L 14.16446971893311 15.16441917419434 L 1 15.16441917419434 L 1 17.10886001586914 L 16.92980003356934 17.10886001586914 L 16.92980003356934 16.92941856384277 L 17.10891914367676 16.92941856384277 L 17.10891914367676 1 L 15.16446971893311 1 M 14.16446971893311 0 L 18.10891914367676 0 L 18.10891914367676 17.92941856384277 L 17.92980003356934 17.92941856384277 L 17.92980003356934 18.10885810852051 L 0 18.10885810852051 L 0 14.16441917419434 L 14.16446971893311 14.16441917419434 L 14.16446971893311 0 Z" stroke="none" fill="#11044c"/>
          </g>
          <g id="Union_4" data-name="Union 4" transform="translate(18.109 107.7) rotate(180)" fill="#11044c">
            <path d="M 17.60892486572266 17.60885810852051 L 14.66447448730469 17.60885810852051 L 14.66447448730469 3.944439172744751 L 14.66447448730469 3.444439172744751 L 14.16447448730469 3.444439172744751 L 0.5000043511390686 3.444439172744751 L 0.5000043511390686 0.4999990463256836 L 17.4298038482666 0.4999990463256836 L 17.4298038482666 0.6794390678405762 L 17.60892486572266 0.6794390678405762 L 17.60892486572266 17.60885810852051 Z" stroke="none"/>
            <path d="M 17.10892486572266 17.10885810852051 L 17.10892486572266 1.179439067840576 L 16.9298038482666 1.179439067840576 L 16.9298038482666 0.9999990463256836 L 1.000004291534424 0.9999990463256836 L 1.000004291534424 2.944439172744751 L 14.16447448730469 2.944439172744751 L 15.16447448730469 2.944439172744751 L 15.16447448730469 3.944439172744751 L 15.16447448730469 17.10885810852051 L 17.10892486572266 17.10885810852051 M 18.10892486572266 18.10885810852051 L 14.16447448730469 18.10885810852051 L 14.16447448730469 3.944439172744751 L 4.340210125519661e-06 3.944439172744751 L 4.340210125519661e-06 -9.457397709411453e-07 L 17.9298038482666 -9.457397709411453e-07 L 17.9298038482666 0.179439052939415 L 18.10892486572266 0.179439052939415 L 18.10892486572266 18.10885810852051 Z" stroke="none" fill="#11044c"/>
          </g>
        </g>
      </g>
    </g>
    <g id="Group_29130" data-name="Group 29130" transform="translate(6003.5 1599.403)">
      <g id="Group_25250" data-name="Group 25250" transform="translate(227.802 137.387)">
        <g id="Group_25228" data-name="Group 25228" transform="translate(16.593 35.564)">
          <path id="Path_53139" data-name="Path 53139" d="M243.2,187.889a.3.3,0,0,1-.158-.552L247,184.872a.3.3,0,0,1,.314.507l-3.966,2.466A.305.305,0,0,1,243.2,187.889Zm6.667-4.144a.3.3,0,0,1-.157-.552l3.966-2.465a.3.3,0,0,1,.314.506l-3.966,2.466A.3.3,0,0,1,249.862,183.745Zm6.667-4.144a.3.3,0,0,1-.157-.551l3.966-2.466a.3.3,0,0,1,.314.507l-3.966,2.465A.292.292,0,0,1,256.529,179.6Zm6.667-4.143a.3.3,0,0,1-.157-.552l3.966-2.465a.3.3,0,1,1,.314.506l-3.966,2.466A.3.3,0,0,1,263.2,175.458Zm6.667-4.144a.3.3,0,0,1-.157-.551l1.574-.978a.3.3,0,0,1,.314.506l-1.574.978A.292.292,0,0,1,269.864,171.313Z" transform="translate(-242.896 -169.739)" fill="#29abe2" stroke="#29abe2" stroke-width="1"/>
        </g>
        <g id="Group_25229" data-name="Group 25229" transform="translate(12.523 11.911)">
          <path id="Path_53140" data-name="Path 53140" d="M271.489,165.469a.291.291,0,0,1-.136-.034l-4.143-2.156a.3.3,0,0,1,.275-.529l4.143,2.156a.3.3,0,0,1-.139.563Zm-6.963-3.624a.294.294,0,0,1-.137-.033l-4.143-2.156a.3.3,0,0,1,.276-.529l4.142,2.156a.3.3,0,0,1-.137.562Zm-6.964-3.623a.3.3,0,0,1-.137-.034l-4.143-2.156a.3.3,0,0,1,.276-.529l4.142,2.156a.3.3,0,0,1-.137.563ZM250.6,154.6a.3.3,0,0,1-.137-.034l-4.142-2.156a.3.3,0,1,1,.275-.529l4.143,2.156a.3.3,0,0,1-.139.563Zm-6.964-3.624a.29.29,0,0,1-.136-.033l-4.143-2.157a.3.3,0,1,1,.275-.529l4.143,2.156a.3.3,0,0,1-.138.563Z" transform="translate(-239.193 -148.222)" fill="#29abe2" stroke="#29abe2" stroke-width="1"/>
        </g>
        <g id="Group_25233" data-name="Group 25233" transform="translate(0 36.618)">
          <g id="Group_25230" data-name="Group 25230" transform="translate(0.309 0.308)">
            <path id="Path_53141" data-name="Path 53141" d="M236.243,170.977a8.16,8.16,0,0,0-8.16,8.16c0,5.971,8.16,13.174,8.16,13.174s8.159-7.2,8.159-13.174A8.159,8.159,0,0,0,236.243,170.977Zm0,13.585a5.835,5.835,0,1,1,5.834-5.835A5.834,5.834,0,0,1,236.243,184.562Z" transform="translate(-228.083 -170.977)" fill="#29abe2" stroke="#29abe2" stroke-width="1"/>
          </g>
          <g id="Group_25231" data-name="Group 25231" transform="translate(0.309 0.308)">
            <path id="Path_53142" data-name="Path 53142" d="M236.243,172.892v-1.915a8.16,8.16,0,0,0-8.16,8.16c0,5.971,8.16,13.174,8.16,13.174v-7.749a5.835,5.835,0,1,1,0-11.67Z" transform="translate(-228.083 -170.977)" fill="#29abe2" stroke="#29abe2" stroke-width="1"/>
          </g>
          <g id="Group_25232" data-name="Group 25232">
            <path id="Path_53143" data-name="Path 53143" d="M236.271,192.75l-.2-.18c-.337-.3-8.264-7.363-8.264-13.4a8.468,8.468,0,0,1,16.937,0c0,6.042-7.927,13.107-8.265,13.4Zm0-21.436a7.86,7.86,0,0,0-7.852,7.851c0,5.244,6.6,11.6,7.852,12.757,1.253-1.161,7.851-7.516,7.851-12.757A7.86,7.86,0,0,0,236.271,171.314Zm0,13.584a6.143,6.143,0,1,1,6.143-6.143A6.15,6.15,0,0,1,236.271,184.9Zm0-11.67a5.527,5.527,0,1,0,5.526,5.527A5.533,5.533,0,0,0,236.271,173.228Z" transform="translate(-227.802 -170.697)" fill="#29abe2" stroke="#29abe2" stroke-width="1"/>
          </g>
        </g>
        <g id="Group_25241" data-name="Group 25241" transform="translate(45.321 15.853)">
          <g id="Group_25238" data-name="Group 25238" transform="translate(0.228 0.228)">
            <path id="Path_53147" data-name="Path 53147" d="M275.269,152.015a6.033,6.033,0,0,0-6.033,6.033c0,4.414,6.033,9.739,6.033,9.739s6.032-5.325,6.032-9.739A6.033,6.033,0,0,0,275.269,152.015Zm0,10.042a4.313,4.313,0,1,1,4.313-4.313A4.312,4.312,0,0,1,275.269,162.057Z" transform="translate(-269.236 -152.015)" fill="#29abe2" stroke="#29abe2" stroke-width="1"/>
          </g>
          <g id="Group_25239" data-name="Group 25239" transform="translate(0.228 0.228)">
            <path id="Path_53148" data-name="Path 53148" d="M275.269,153.431v-1.416a6.033,6.033,0,0,0-6.033,6.033c0,4.414,6.033,9.739,6.033,9.739v-5.728a4.314,4.314,0,1,1,0-8.627Z" transform="translate(-269.236 -152.015)" fill="#29abe2" stroke="#29abe2" stroke-width="1"/>
          </g>
          <g id="Group_25240" data-name="Group 25240">
            <path id="Path_53149" data-name="Path 53149" d="M275.288,168.111l-.151-.133c-.25-.22-6.109-5.444-6.109-9.909a6.26,6.26,0,1,1,12.52,0c0,4.465-5.859,9.689-6.109,9.909Zm0-15.846a5.81,5.81,0,0,0-5.8,5.8c0,3.874,4.876,8.571,5.8,9.43.928-.859,5.805-5.556,5.805-9.43A5.811,5.811,0,0,0,275.288,152.264Zm0,10.042a4.542,4.542,0,1,1,4.541-4.541A4.546,4.546,0,0,1,275.288,162.306Zm0-8.627a4.086,4.086,0,1,0,4.086,4.086A4.09,4.09,0,0,0,275.288,153.679Z" transform="translate(-269.029 -151.808)" fill="#29abe2" stroke="#29abe2" stroke-width="1"/>
          </g>
        </g>
        <g id="Group_25249" data-name="Group 25249" transform="translate(4.44)">
          <g id="Group_25246" data-name="Group 25246" transform="translate(0.146 0.147)">
            <path id="Path_53154" data-name="Path 53154" d="M235.857,137.521a3.882,3.882,0,0,0-3.883,3.882c0,2.842,3.883,6.268,3.883,6.268s3.882-3.426,3.882-6.268A3.882,3.882,0,0,0,235.857,137.521Zm0,6.463a2.776,2.776,0,1,1,2.776-2.776A2.777,2.777,0,0,1,235.857,143.984Z" transform="translate(-231.974 -137.521)" fill="#29abe2" stroke="#29abe2" stroke-width="1"/>
          </g>
          <g id="Group_25247" data-name="Group 25247" transform="translate(0.146 0.147)">
            <path id="Path_53155" data-name="Path 53155" d="M235.857,138.431v-.91a3.882,3.882,0,0,0-3.883,3.882c0,2.842,3.883,6.268,3.883,6.268v-3.687a2.776,2.776,0,1,1,0-5.553Z" transform="translate(-231.974 -137.521)" fill="#29abe2" stroke="#29abe2" stroke-width="1"/>
          </g>
          <g id="Group_25248" data-name="Group 25248">
            <path id="Path_53156" data-name="Path 53156" d="M235.87,147.88l-.1-.086c-.16-.142-3.931-3.5-3.931-6.378a4.028,4.028,0,1,1,8.057,0c0,2.875-3.771,6.236-3.931,6.378Zm0-10.2a3.74,3.74,0,0,0-3.735,3.735c0,2.494,3.138,5.517,3.735,6.069.6-.552,3.734-3.575,3.734-6.069A3.74,3.74,0,0,0,235.87,137.681Zm0,6.463a2.922,2.922,0,1,1,2.922-2.922A2.926,2.926,0,0,1,235.87,144.143Zm0-5.551a2.629,2.629,0,1,0,2.628,2.63A2.632,2.632,0,0,0,235.87,138.592Z" transform="translate(-231.841 -137.387)" fill="#29abe2" stroke="#29abe2" stroke-width="1"/>
          </g>
        </g>
      </g>
    </g>
  </g>
</svg>
