<svg xmlns="http://www.w3.org/2000/svg" width="107.7" height="107.7" viewBox="0 0 107.7 107.7"><g transform="translate(-2575.387 -5052.411)"><g transform="translate(-3631 3339.905)" style="isolation:isolate"><g transform="translate(6206.387 1712.506)" style="mix-blend-mode:overlay;isolation:isolate"><g transform="translate(89.592)" fill="#11044c"><path d="M 17.60885810852051 17.60885810852051 L 14.66441917419434 17.60885810852051 L 14.66441917419434 3.944439172744751 L 14.66441917419434 3.444439172744751 L 14.16441917419434 3.444439172744751 L 0.4999990463256836 3.444439172744751 L 0.4999990463256836 0.4999990463256836 L 17.42973899841309 0.4999990463256836 L 17.42973899841309 0.6794390678405762 L 17.60885810852051 0.6794390678405762 L 17.60885810852051 17.60885810852051 Z" stroke="none"/><path d="M 17.10885810852051 17.10885810852051 L 17.10885810852051 1.179439067840576 L 16.92973899841309 1.179439067840576 L 16.92973899841309 0.9999990463256836 L 0.9999990463256836 0.9999990463256836 L 0.9999990463256836 2.944439172744751 L 14.16441917419434 2.944439172744751 L 15.16441917419434 2.944439172744751 L 15.16441917419434 3.944439172744751 L 15.16441917419434 17.10885810852051 L 17.10885810852051 17.10885810852051 M 18.10885810852051 18.10885810852051 L 14.16441917419434 18.10885810852051 L 14.16441917419434 3.944439172744751 L -9.457397709411453e-07 3.944439172744751 L -9.457397709411453e-07 -9.457397709411453e-07 L 17.92973899841309 -9.457397709411453e-07 L 17.92973899841309 0.179439052939415 L 18.10885810852051 0.179439052939415 L 18.10885810852051 18.10885810852051 Z" stroke="none" fill="#11044c"/></g><g transform="translate(89.592 89.591)" fill="#11044c"><path d="M 17.42974472045898 17.60885810852051 L 0.5000038146972656 17.60885810852051 L 0.5000038146972656 14.66441917419434 L 14.16442394256592 14.66441917419434 L 14.66442394256592 14.66441917419434 L 14.66442394256592 14.16441917419434 L 14.66442394256592 0.4999990463256836 L 17.60886383056641 0.4999990463256836 L 17.60886383056641 17.42940902709961 L 17.42974472045898 17.42940902709961 L 17.42974472045898 17.60885810852051 Z" stroke="none"/><path d="M 15.16442394256592 1 L 15.16442394256592 14.16441917419434 L 15.16442394256592 15.16441917419434 L 14.16442394256592 15.16441917419434 L 1.000003814697266 15.16441917419434 L 1.000003814697266 17.10886001586914 L 16.92974472045898 17.10886001586914 L 16.92974472045898 16.92940902709961 L 17.10886383056641 16.92940902709961 L 17.10886383056641 1 L 15.16442394256592 1 M 14.16442394256592 0 L 18.10886383056641 0 L 18.10886383056641 17.92940902709961 L 17.92974472045898 17.92940902709961 L 17.92974472045898 18.10885810852051 L 3.814697265625e-06 18.10885810852051 L 3.814697265625e-06 14.16441917419434 L 14.16442394256592 14.16441917419434 L 14.16442394256592 0 Z" stroke="none" fill="#11044c"/></g><g transform="translate(18.109 18.109) rotate(180)" fill="#11044c"><path d="M 17.42980003356934 17.60885810852051 L 0.4999995827674866 17.60885810852051 L 0.4999995827674866 14.66441917419434 L 14.16446971893311 14.66441917419434 L 14.66446971893311 14.66441917419434 L 14.66446971893311 14.16441917419434 L 14.66446971893311 0.4999990463256836 L 17.60891914367676 0.4999990463256836 L 17.60891914367676 17.42941856384277 L 17.42980003356934 17.42941856384277 L 17.42980003356934 17.60885810852051 Z" stroke="none"/><path d="M 15.16446971893311 1 L 15.16446971893311 14.16441917419434 L 15.16446971893311 15.16441917419434 L 14.16446971893311 15.16441917419434 L 1 15.16441917419434 L 1 17.10886001586914 L 16.92980003356934 17.10886001586914 L 16.92980003356934 16.92941856384277 L 17.10891914367676 16.92941856384277 L 17.10891914367676 1 L 15.16446971893311 1 M 14.16446971893311 0 L 18.10891914367676 0 L 18.10891914367676 17.92941856384277 L 17.92980003356934 17.92941856384277 L 17.92980003356934 18.10885810852051 L 0 18.10885810852051 L 0 14.16441917419434 L 14.16446971893311 14.16441917419434 L 14.16446971893311 0 Z" stroke="none" fill="#11044c"/></g><g transform="translate(18.109 107.7) rotate(180)" fill="#11044c"><path d="M 17.60892486572266 17.60885810852051 L 14.66447448730469 17.60885810852051 L 14.66447448730469 3.944439172744751 L 14.66447448730469 3.444439172744751 L 14.16447448730469 3.444439172744751 L 0.5000043511390686 3.444439172744751 L 0.5000043511390686 0.4999990463256836 L 17.4298038482666 0.4999990463256836 L 17.4298038482666 0.6794390678405762 L 17.60892486572266 0.6794390678405762 L 17.60892486572266 17.60885810852051 Z" stroke="none"/><path d="M 17.10892486572266 17.10885810852051 L 17.10892486572266 1.179439067840576 L 16.9298038482666 1.179439067840576 L 16.9298038482666 0.9999990463256836 L 1.000004291534424 0.9999990463256836 L 1.000004291534424 2.944439172744751 L 14.16447448730469 2.944439172744751 L 15.16447448730469 2.944439172744751 L 15.16447448730469 3.944439172744751 L 15.16447448730469 17.10885810852051 L 17.10892486572266 17.10885810852051 M 18.10892486572266 18.10885810852051 L 14.16447448730469 18.10885810852051 L 14.16447448730469 3.944439172744751 L 4.340210125519661e-06 3.944439172744751 L 4.340210125519661e-06 -9.457397709411453e-07 L 17.9298038482666 -9.457397709411453e-07 L 17.9298038482666 0.179439052939415 L 18.10892486572266 0.179439052939415 L 18.10892486572266 18.10885810852051 Z" stroke="none" fill="#11044c"/></g></g></g><g transform="translate(2442.014 5004.993)"><g transform="translate(182.954 93.937)"><g transform="translate(2.235 26.601)"><path d="M220.456,175.719l.022.2.226.331s.48-.138.49-.152.179-.222.179-.222v-.235l-.738-.323Z" transform="translate(-220.456 -175.318)" fill="#29abe2"/></g><g transform="translate(1.101 27.109)"><path d="M219.86,176.52a1.737,1.737,0,0,1-.931.069.476.476,0,0,1-.272.388c-.25.1-.614.365-.75.406-.082.025-.094.177-.091.293a.168.168,0,0,0,.14.16,2.888,2.888,0,0,0,1.146.03c.108-.044.064-.164.235-.2.069-.015.234.034.3.023h.008a.433.433,0,0,0,.36-.427,3.212,3.212,0,0,0,0-.623.786.786,0,0,0-.074-.133Z" transform="translate(-217.816 -176.502)" fill="#29abe2"/></g><g transform="translate(4.559 26.601)"><path d="M226.783,175.719l-.022.2-.226.331s-.48-.138-.49-.152-.179-.222-.179-.222v-.235l.738-.323Z" transform="translate(-225.866 -175.318)" fill="#29abe2"/></g><g transform="translate(3.333 6.976)"><path d="M224.568,129.638l.133.343-.833.892-.856-.88.163-.3Z" transform="translate(-223.011 -129.638)" fill="#29abe2"/></g><g transform="translate(1.497 14.547)"><path d="M223.979,147.5v6.522a2.379,2.379,0,0,1-.014.26l-.559,5.076a.4.4,0,0,1-.4.356h-1.184a.4.4,0,0,1-.4-.416l.213-5.151-.23-4-.168,4-.362,5.124a.477.477,0,0,1-.476.444h-1.187a.477.477,0,0,1-.478-.477V147.26Z" transform="translate(-218.737 -147.26)" fill="#29abe2"/></g><g transform="translate(2.95 7.205)"><path d="M224.326,130.309l-.574-.105a2.126,2.126,0,0,0-.77,0l-.549.1-.314.64,1.247,1.058,1.2-1.04Z" transform="translate(-222.12 -130.17)" fill="#29abe2"/></g><g transform="translate(1.497 14.547)"><path d="M218.737,147.26v1.231a11.48,11.48,0,0,0,2.621.522,10,10,0,0,0,2.621-.345V147.5Z" transform="translate(-218.737 -147.26)" fill="#29abe2"/></g><g transform="translate(0)"><path d="M222.4,113.4l-1.175.447.388,3.463a1.315,1.315,0,0,1-.026.442l-.711,3.058-1.427,1.633-1.371-1.531-.955-2.08a.843.843,0,0,1-.073-.278l-.337-3.888-1.461.112v1.08l.286,3.537.836,3.507.244,5.863,2.8.414,2.764-.2.317-6.717.738-3.874a1.2,1.2,0,0,0,0-.443Z" transform="translate(-215.253 -113.399)" fill="#29abe2"/></g><g transform="translate(5.973)"><path d="M231.167,117.943l-.835-4.544-1.175.447.388,3.463a1.317,1.317,0,0,1-.026.442l-.159.68h0a5.481,5.481,0,0,1,.678,1.656,40.35,40.35,0,0,0-.526,4.376c.139.693.385,4.188.36,4.36a.532.532,0,0,0,.036.168l.2-.015.317-6.717.738-3.874A1.2,1.2,0,0,0,231.167,117.943Z" transform="translate(-229.157 -113.399)" fill="#29abe2"/></g><g transform="translate(0 1.266)"><path d="M217,125.958a34.089,34.089,0,0,0-.228-3.526A11.037,11.037,0,0,1,217,119.81l.014,0-.3-3.468-1.461.112v1.08l.286,3.537.836,3.507.244,5.863.128.019C216.77,130.033,216.977,126.237,217,125.958Z" transform="translate(-215.253 -116.345)" fill="#29abe2"/></g><g transform="translate(2.861 4.226)"><path d="M224.534,124.383c-.015-.414-.449-.778-.748-.979a1,1,0,0,0-.56-.168h0a1,1,0,0,0-.561.169c-.3.2-.732.565-.747.979a3.81,3.81,0,0,0,.175,1.213l.461.647a.493.493,0,0,0,.264.187l.11.032a1.069,1.069,0,0,0,.6,0l.113-.033a.493.493,0,0,0,.263-.187l.461-.647A3.809,3.809,0,0,0,224.534,124.383Z" transform="translate(-221.914 -123.235)" fill="#29abe2"/></g><g transform="translate(2.997 4.226)"><path d="M224.714,124.383c-.015-.414-.449-.777-.748-.979a1,1,0,0,0-.56-.168h0a1,1,0,0,0-.561.169,2.182,2.182,0,0,0-.613.591h.018a.66.66,0,0,0,.485.03,2.247,2.247,0,0,1,1.273-.016.454.454,0,0,1,.326.416l.022.422a.562.562,0,0,1-.169.474,1.054,1.054,0,0,0-.354.482c-.03.253.028.531-.13.659l.113-.033a.493.493,0,0,0,.263-.187l.461-.647A3.809,3.809,0,0,0,224.714,124.383Z" transform="translate(-222.23 -123.235)" fill="#29abe2"/></g><g transform="translate(2.856 4.139)"><path d="M224.526,124.214s.25-1.181-1.3-1.181-1.317,1.181-1.317,1.181a1.263,1.263,0,0,1,1.317-.839A1.226,1.226,0,0,1,224.526,124.214Z" transform="translate(-221.901 -123.033)" fill="#29abe2"/></g><g transform="translate(3.016 3.073)"><path d="M224.189,120.754a1.468,1.468,0,0,0-1.483,0c-.264.207-.433,1.711-.433,1.711l.021-.017a1.861,1.861,0,0,1,2.281.036l.035.03S224.452,120.961,224.189,120.754Z" transform="translate(-222.273 -120.553)" fill="#29abe2"/></g><g transform="translate(4.407 27.109)"><path d="M227.624,177.383c-.136-.042-.5-.309-.75-.406a.475.475,0,0,1-.272-.388,1.736,1.736,0,0,1-.931-.069l-.068-.018a.786.786,0,0,0-.074.133,3.212,3.212,0,0,0,0,.623.433.433,0,0,0,.36.427h.008c.063.011.228-.038.3-.023.171.038.126.158.235.2a2.889,2.889,0,0,0,1.146-.03.168.168,0,0,0,.14-.16C227.718,177.56,227.706,177.408,227.624,177.383Z" transform="translate(-225.512 -176.502)" fill="#29abe2"/></g><g transform="translate(4.175 12.217)"><g transform="translate(0 1.381)"><path d="M224.972,145.051v.491a5.207,5.207,0,0,0,1.163.131,4.668,4.668,0,0,0,1.276-.174l-.022-.449Z" transform="translate(-224.972 -145.051)" fill="#29abe2"/></g><g transform="translate(0.056 1.835)"><path d="M225.113,146.161s-.2,1.553,1.141,1.487c1.422-.07,1.056-1.541,1.056-1.541Z" transform="translate(-225.103 -146.107)" fill="#29abe2"/></g><g transform="translate(0 1.381)"><path d="M226.18,145.051h-1.208a4.3,4.3,0,0,0,2.417,0Z" transform="translate(-224.972 -145.051)" fill="#29abe2"/></g><g transform="translate(0.927)"><g transform="translate(0.166 0.456)"><g transform="translate(0 0)"><rect width="1.864" height="0.349" transform="matrix(0.23, -0.973, 0.973, 0.23, 0, 1.814)" fill="#29abe2"/></g></g><g transform="translate(0.166 0.632)"><path d="M227.517,144.945l.745-1.638-.405,1.718Z" transform="translate(-227.517 -143.308)" fill="#29abe2"/></g><g transform="translate(0.316 0.76)"><path d="M228.25,143.608h0a.087.087,0,0,0-.1.065l-.279,1.181a.087.087,0,0,0,.064.1h0a.087.087,0,0,0,.1-.064l.279-1.181A.087.087,0,0,0,228.25,143.608Z" transform="translate(-227.864 -143.605)" fill="#29abe2"/></g><g transform="translate(0.166 2.151)"><path d="M227.879,146.949l-.022.093-.032-.007-.005-.018-.1-.074-.122,0-.044.031-.038-.009.022-.093a.285.285,0,0,1,.34.08Z" transform="translate(-227.517 -146.843)" fill="#29abe2"/></g><g transform="translate(0.556 0.456)"><path d="M228.759,143.155a.323.323,0,0,1-.307-.066.271.271,0,0,1-.029-.029l.039-.164.34.08Z" transform="translate(-228.423 -142.896)" fill="#29abe2"/></g><g transform="translate(0.493)"><path d="M228.389,142.4a.323.323,0,0,1,.264-.563l-.184.211.064.188.194.038.184-.211a.324.324,0,0,1-.522.337Z" transform="translate(-228.278 -141.836)" fill="#29abe2"/></g><g transform="translate(0 2.233)"><path d="M227.7,147.386a.287.287,0,1,0-.345.213A.287.287,0,0,0,227.7,147.386Zm-.081-.061-.04.116-.1.07-.122,0-.1-.074-.035-.117.04-.116.1-.07.122,0,.1.074Z" transform="translate(-227.13 -147.033)" fill="#29abe2"/></g><g transform="translate(0.058 2.27)"><path d="M227.428,147.648a.285.285,0,0,1-.163-.106l.061-.075,0,.015.1.074.122,0,.1-.07.04-.116-.035-.117-.1-.074h0l.051-.063.027,0a.286.286,0,0,1-.209.527Z" transform="translate(-227.265 -147.119)" fill="#29abe2"/></g></g><g transform="translate(0.425 1.429)"><path d="M226.3,146.31c-.052.7.18.784.2.652s.016-.734.016-.734c-.012.609.1.95.22.932s-.01-.925-.01-.925c.034.662.146.819.256.808s.016-1.2.018-.814.007.69.2.723.11-1.623.092-1.727-.915-.058-1.063-.034-.057.167-.057.167a3.879,3.879,0,0,0-.205,1.146C226.047,146.75,226.3,146.31,226.3,146.31Z" transform="translate(-225.962 -145.161)" fill="#29abe2"/></g></g><g transform="translate(3.161 17.531)"><g transform="translate(1.021 0.171)"><path d="M224.987,154.6l.215,3.732-.213,5.151a.4.4,0,0,0,.277.4,2.65,2.65,0,0,1-.054-.283c-.039-.279.193-5.341.193-5.341Z" transform="translate(-224.987 -154.604)" fill="#29abe2"/></g><path d="M223.087,163.233l.362-5.124.164-3.9-.284,3.1s-.517,5.221-.574,5.663a4.283,4.283,0,0,1-.143.706A.477.477,0,0,0,223.087,163.233Z" transform="translate(-222.611 -154.207)" fill="#29abe2"/></g></g><g transform="translate(208.148 106.263)"><g transform="translate(0 0)"><path d="M274.45,155.569H273.9V147.21l1.234-2.807v-2.311h.551v2.427l-1.234,2.807Z" transform="translate(-273.899 -142.092)" fill="#29abe2"/></g></g><g transform="translate(159.264 120.865)"><rect width="2.299" height="1.538" fill="#29abe2"/></g><g transform="translate(159.264 120.865)"><rect width="0.539" height="1.538" fill="#29abe2"/></g><g transform="translate(161.025 120.865)"><rect width="0.539" height="1.538" fill="#29abe2"/></g><g transform="translate(204.94 79.921)"><g transform="translate(0)"><rect width="3.026" height="44.059" fill="#29abe2"/></g></g><g transform="translate(205.684 79.921)"><g transform="translate(0)"><rect width="1.538" height="44.059" fill="#29abe2"/></g></g><g transform="translate(165.945 79.921)"><g transform="translate(0)"><rect width="3.026" height="44.059" fill="#29abe2"/></g></g><g transform="translate(166.689 79.921)"><rect width="1.538" height="44.059" fill="#29abe2"/></g><g transform="translate(158.627 119.043)"><g transform="translate(0 0)"><path d="M165.945,171.84l-7.318,3.583v1.354h7.318Z" transform="translate(-158.627 -171.84)" fill="#29abe2"/></g></g><g transform="translate(159.803 120.402)"><g transform="translate(0 0)"><path d="M166.115,175l-4.75,2.326v.879h4.75Z" transform="translate(-161.365 -175.003)" fill="#29abe2"/></g></g><g transform="translate(165.387 119.043)"><g transform="translate(0 0)"><path d="M174.92,176.777h-.558v-4.664l.558-.273Z" transform="translate(-174.362 -171.84)" fill="#29abe2"/></g></g><g transform="translate(212.347 120.865)"><g transform="translate(0)"><rect width="2.299" height="1.538" fill="#29abe2"/></g></g><g transform="translate(214.108 120.865)"><rect width="0.539" height="1.538" fill="#29abe2"/></g><g transform="translate(212.347 120.865)"><g transform="translate(0)"><rect width="0.539" height="1.538" fill="#29abe2"/></g></g><g transform="translate(207.966 119.043)"><g transform="translate(0 0)"><path d="M273.475,171.84l7.317,3.583v1.354h-7.317Z" transform="translate(-273.475 -171.84)" fill="#29abe2"/></g></g><g transform="translate(209.357 120.402)"><g transform="translate(0 0)"><path d="M276.712,175l4.75,2.326v.879h-4.75Z" transform="translate(-276.712 -175.003)" fill="#29abe2"/></g></g><g transform="translate(207.966 119.043)"><g transform="translate(0 0)"><path d="M273.475,176.777h.557v-4.664l-.557-.273Z" transform="translate(-273.475 -171.84)" fill="#29abe2"/></g></g><g transform="translate(207.966 99.176)"><g transform="translate(0)"><path d="M276.043,133.559h-2.568V125.6h2.568a.5.5,0,0,1,.5.5v6.967A.5.5,0,0,1,276.043,133.559Z" transform="translate(-273.475 -125.596)" fill="#29abe2"/></g></g><g transform="translate(211.032 101.097)"><g transform="translate(0 0)"><rect width="0.166" height="1.229" fill="#29abe2"/></g></g><g transform="translate(211.198 101.204)"><path d="M281.2,131.332H281v-1.016h.2a.29.29,0,0,1,.29.29v.436A.29.29,0,0,1,281.2,131.332Z" transform="translate(-280.998 -130.316)" fill="#29abe2"/></g><g transform="translate(208.327 100.709)"><g transform="translate(0 0)"><rect width="2.344" height="0.327" fill="#29abe2"/></g><g transform="translate(0 0.563)"><rect width="2.344" height="0.327" fill="#29abe2"/></g><g transform="translate(0 1.125)"><rect width="2.344" height="0.327" fill="#29abe2"/></g><g transform="translate(0 1.688)"><rect width="2.344" height="0.327" fill="#29abe2"/></g><g transform="translate(0 0)"><rect width="2.344" height="0.099" fill="#29abe2"/></g><g transform="translate(0 0.563)"><rect width="2.344" height="0.099" fill="#29abe2"/></g><g transform="translate(0 1.125)"><rect width="2.344" height="0.099" fill="#29abe2"/></g><g transform="translate(0 1.688)"><rect width="2.344" height="0.099" fill="#29abe2"/></g></g><g transform="translate(207.966 99.176)"><g transform="translate(0 0)"><rect width="0.239" height="7.963" fill="#29abe2"/></g></g><g transform="translate(168.971 122.666)"><g transform="translate(0 0)"><rect width="35.97" height="1.314" fill="#29abe2"/></g></g><g transform="translate(168.971 122.666)"><g transform="translate(0 0)"><rect width="35.97" height="0.657" fill="#29abe2"/></g></g><g transform="translate(173.226 89.788)"><g transform="translate(23.657 0)"><path d="M1.307,0H2.5A1.308,1.308,0,0,1,3.806,1.308V6.2A1.307,1.307,0,0,1,2.5,7.5H1.307A1.307,1.307,0,0,1,0,6.2V1.307A1.307,1.307,0,0,1,1.307,0Z" fill="#29abe2"/></g><g transform="translate(0 0)"><path d="M1.308,0H2.5A1.308,1.308,0,0,1,3.806,1.308V6.2A1.307,1.307,0,0,1,2.5,7.5H1.307A1.307,1.307,0,0,1,0,6.2V1.308A1.308,1.308,0,0,1,1.308,0Z" fill="#29abe2"/></g></g><g transform="translate(179.627 79.278)"><g transform="translate(0)"><path d="M221.975,80.2l-.339-.289-.332-.2a48.476,48.476,0,0,0-12.93,0l-.332.2-.339.289-.2.348,7.331-.841,7.331.841Z" transform="translate(-207.509 -79.278)" fill="#29abe2"/></g></g><g transform="translate(177.025 79.711)"><path d="M221.034,83.795l-1.329-1.881L218.6,80.9l-.158-.052a29.956,29.956,0,0,0-7.058-.561,29.962,29.962,0,0,0-7.058.561l-.157.052-1.1,1.015-1.329,1.881-.284.866,9.933-.463,9.932.463Z" transform="translate(-201.453 -80.286)" fill="#29abe2"/></g><g transform="translate(177.025 81.498)"><path d="M202.765,85.031l-.208-.024-.82,1.161-.284.866,9.933-.463,9.932.463-.284-.866-.778-1.1-.25-.036A61.884,61.884,0,0,0,202.765,85.031Z" transform="translate(-201.453 -84.446)" fill="#29abe2"/></g><g transform="translate(173.362 79.711)"><path d="M220,87.507A18.587,18.587,0,0,1,217.043,85c-.607-.856-1.652-3.653-4.056-4.713a14.757,14.757,0,0,1,3.187,4.046l-9.652-.134-9.652.134a14.757,14.757,0,0,1,3.187-4.046c-2.4,1.06-3.448,3.857-4.056,4.713a18.588,18.588,0,0,1-2.956,2.508,28.6,28.6,0,0,0,.637,8.56l.046.155a.766.766,0,0,0,.734.547h24.12a.766.766,0,0,0,.734-.547l.046-.155A28.6,28.6,0,0,0,220,87.507Z" transform="translate(-192.926 -80.286)" fill="#29abe2"/></g><g transform="translate(177.025 83.623)"><g transform="translate(0 0)"><path d="M221.038,89.525l-9.652-.134-9.652.134s-.26.15-.281.329c0,0,2.367,3.882,9.933,3.882s9.932-3.882,9.932-3.882C221.3,89.675,221.038,89.525,221.038,89.525Z" transform="translate(-201.453 -89.391)" fill="#29abe2"/></g></g><g transform="translate(175.642 93.134)"><g transform="translate(0)"><path d="M200.448,112.1h0a.572.572,0,0,0-.572-.572h-1.491a.151.151,0,0,0-.148.181h0a1.208,1.208,0,0,0,1.183.963h.456A.572.572,0,0,0,200.448,112.1Z" transform="translate(-198.234 -111.53)" fill="#29abe2"/><g transform="translate(0.778 0.194)"><path d="M200.379,111.981h.385a.335.335,0,0,1,.335.336h0a.335.335,0,0,1-.335.335h-.385a.335.335,0,0,1-.335-.335h0A.335.335,0,0,1,200.379,111.981Z" transform="translate(-200.044 -111.981)" fill="#29abe2"/></g><g transform="translate(0.959 0.309)"><path d="M200.685,112.69h.253a.22.22,0,0,0,0-.441h-.253a.22.22,0,0,0,0,.441Z" transform="translate(-200.465 -112.249)" fill="#29abe2"/></g></g><g transform="translate(20.417)"><path d="M245.759,112.1h0a.572.572,0,0,1,.572-.572h1.492a.151.151,0,0,1,.147.181h0a1.208,1.208,0,0,1-1.182.963h-.457A.572.572,0,0,1,245.759,112.1Z" transform="translate(-245.759 -111.53)" fill="#29abe2"/><g transform="translate(0.381 0.194)"><path d="M247.367,111.981h-.385a.335.335,0,0,0-.335.336h0a.335.335,0,0,0,.335.335h.385a.335.335,0,0,0,.335-.335h0A.335.335,0,0,0,247.367,111.981Z" transform="translate(-246.647 -111.981)" fill="#29abe2"/></g><g transform="translate(0.562 0.309)"><path d="M247.541,112.69h-.253a.22.22,0,1,1,0-.441h.253a.22.22,0,1,1,0,.441Z" transform="translate(-247.068 -112.249)" fill="#29abe2"/></g></g></g><g transform="translate(179.322 93.535)"><g transform="translate(0 0)"><path d="M207.84,114.012l6.141.194q.454.014.909,0l6.14-.194a.7.7,0,0,0,.571-.329l.415-.666a.361.361,0,0,0-.306-.551H207.161a.361.361,0,0,0-.306.551l.415.666A.7.7,0,0,0,207.84,114.012Z" transform="translate(-206.8 -112.465)" fill="#29abe2"/></g></g><g transform="translate(173.374 89.097)"><g transform="translate(0)"><path d="M198.283,103.085c-.127.245-.237.458-.4.478a7.36,7.36,0,0,1-4.926-.794c0,.1.006.194.01.29a6.928,6.928,0,0,0,3.57.826,11.469,11.469,0,0,0,1.373-.085c.293-.035.436-.312.588-.6.254-.492.516-1,1.483-.761l1.655.408.057-.232-1.655-.408A1.353,1.353,0,0,0,198.283,103.085Z" transform="translate(-192.953 -102.135)" fill="#29abe2"/></g></g><g transform="translate(191.817 89.097)"><path d="M239.291,103.085c.127.245.236.458.4.478a7.313,7.313,0,0,0,4.915-.8c0,.1-.007.2-.011.3a6.9,6.9,0,0,1-3.559.819,11.476,11.476,0,0,1-1.374-.085c-.293-.035-.436-.312-.587-.6-.254-.492-.516-1-1.483-.761l-1.655.408-.057-.232,1.655-.408A1.354,1.354,0,0,1,239.291,103.085Z" transform="translate(-235.884 -102.135)" fill="#29abe2"/></g><g transform="translate(174.837 87.27)"><g transform="translate(0 0)"><path d="M197.845,97.909l1.475.3a.468.468,0,0,1,.3.215l.447.732a.469.469,0,0,0,.29.211l.445.107a.468.468,0,0,1,.356.406h0a.468.468,0,0,1-.5.515l-3.039-.258a1.366,1.366,0,0,1-1.209-1.029l-.036-.143a.468.468,0,0,1,.025-.3l0-.009A1.289,1.289,0,0,1,197.845,97.909Z" transform="translate(-196.359 -97.882)" fill="#29abe2"/><g transform="translate(0.625 0.39)"><path d="M199.184,99.4a.687.687,0,1,1-.755-.611A.687.687,0,0,1,199.184,99.4Z" transform="translate(-197.814 -98.789)" fill="#29abe2"/></g><g transform="translate(0.824 0.589)"><path d="M199.25,99.689a.488.488,0,1,1-.536-.434A.488.488,0,0,1,199.25,99.689Z" transform="translate(-198.278 -99.253)" fill="#29abe2"/></g><g transform="translate(2.234 0.939)"><path d="M202.517,100.5a.48.48,0,1,1-.528-.427A.479.479,0,0,1,202.517,100.5Z" transform="translate(-201.56 -100.068)" fill="#29abe2"/></g><g transform="translate(2.373 1.078)"><path d="M202.563,100.7a.341.341,0,1,1-.375-.3A.341.341,0,0,1,202.563,100.7Z" transform="translate(-201.884 -100.392)" fill="#29abe2"/></g><g transform="translate(0 0.081)"><path d="M200.657,100.506a.464.464,0,0,0,.421-.2,18.917,18.917,0,0,1-3.507-.336c-.766-.169-1.034-.548-.968-1.126.036-.31.489-.728.541-.773a1.286,1.286,0,0,0-.742.7l0,.009a.468.468,0,0,0-.025.3l.036.143a1.366,1.366,0,0,0,1.209,1.029Z" transform="translate(-196.359 -98.071)" fill="#29abe2"/></g></g><g transform="translate(19.437 0)"><path d="M244.923,97.909l-1.475.3a.468.468,0,0,0-.3.215l-.447.732a.467.467,0,0,1-.29.211l-.445.107a.468.468,0,0,0-.356.406h0a.468.468,0,0,0,.5.515l3.039-.258a1.366,1.366,0,0,0,1.209-1.029l.036-.143a.468.468,0,0,0-.025-.3l0-.009A1.289,1.289,0,0,0,244.923,97.909Z" transform="translate(-241.603 -97.882)" fill="#29abe2"/><g transform="translate(2.806 0.39)"><path d="M248.139,99.4a.687.687,0,1,0,.755-.611A.687.687,0,0,0,248.139,99.4Z" transform="translate(-248.135 -98.789)" fill="#29abe2"/></g><g transform="translate(3.005 0.589)"><path d="M248.6,99.689a.488.488,0,1,0,.536-.434A.488.488,0,0,0,248.6,99.689Z" transform="translate(-248.599 -99.253)" fill="#29abe2"/></g><g transform="translate(1.611 0.939)"><path d="M245.355,100.5a.48.48,0,1,0,.527-.427A.479.479,0,0,0,245.355,100.5Z" transform="translate(-245.353 -100.068)" fill="#29abe2"/></g><g transform="translate(1.75 1.078)"><path d="M245.678,100.7a.341.341,0,1,0,.375-.3A.341.341,0,0,0,245.678,100.7Z" transform="translate(-245.677 -100.392)" fill="#29abe2"/></g><g transform="translate(0.086 0.081)"><path d="M242.225,100.506a.465.465,0,0,1-.421-.2,18.914,18.914,0,0,0,3.507-.336c.766-.169,1.035-.548.968-1.126-.036-.31-.489-.728-.541-.773a1.285,1.285,0,0,1,.742.7l0,.009a.467.467,0,0,1,.024.3l-.036.143a1.366,1.366,0,0,1-1.209,1.029Z" transform="translate(-241.804 -98.071)" fill="#29abe2"/></g></g></g><g transform="translate(180.41 88.641)"><g transform="translate(0 0)"><path d="M212.557,101.255l-2.334-.18a.8.8,0,0,0-.863.99l.164.6a1.148,1.148,0,0,0,.973.826h0a43.208,43.208,0,0,0,10.767,0h0a1.148,1.148,0,0,0,.974-.826l.164-.6a.8.8,0,0,0-.863-.99l-2.334.18A43.22,43.22,0,0,1,212.557,101.255Z" transform="translate(-209.332 -101.073)" fill="#29abe2"/></g></g><g transform="translate(180.411 89.28)"><g transform="translate(0 0)"><path d="M222.412,102.561a42.255,42.255,0,0,1-13.063,0,.749.749,0,0,0,.01.354l.009.032a35.682,35.682,0,0,0,13.024,0l.009-.032A.755.755,0,0,0,222.412,102.561Z" transform="translate(-209.333 -102.561)" fill="#29abe2"/></g></g><g transform="translate(193.136 89.28)"><g transform="translate(0 0)"><path d="M239.031,102.615a2.922,2.922,0,0,1-.077.418c.124-.027.236-.056.334-.087l.009-.032a.756.756,0,0,0,.011-.354A2.081,2.081,0,0,1,239.031,102.615Z" transform="translate(-238.954 -102.561)" fill="#29abe2"/></g></g><g transform="translate(180.411 89.28)"><g transform="translate(0 0)"><path d="M209.626,102.615a2.847,2.847,0,0,0,.077.418c-.124-.027-.237-.056-.335-.087l-.009-.032a.749.749,0,0,1-.01-.354A2.067,2.067,0,0,0,209.626,102.615Z" transform="translate(-209.333 -102.561)" fill="#29abe2"/></g></g><g transform="translate(200.69 85.496)"><g transform="translate(2.817)"><rect width="1.433" height="10.323" fill="#29abe2"/></g><g transform="translate(2.608 7.956)"><rect width="0.438" height="2.509" rx="0.151" fill="#29abe2"/></g><g transform="translate(2.349 8.098)"><rect width="0.955" height="2.225" rx="0.478" fill="#29abe2"/></g><g transform="translate(3.305 8.098)"><rect width="0.229" height="2.187" fill="#29abe2"/></g><g transform="translate(2.817 0.867)"><rect width="0.602" height="6.31" fill="#29abe2"/></g><g transform="translate(3.225 0.867)"><rect width="0.194" height="6.31" fill="#29abe2"/></g><g transform="translate(2.349 9.134)"><rect width="0.955" height="0.155" fill="#29abe2"/></g><g transform="translate(0 8.505)"><path d="M258.323,115.778h-1.785v-2.229h2.349v1.665A.564.564,0,0,1,258.323,115.778Z" transform="translate(-256.538 -113.549)" fill="#29abe2"/></g><g transform="translate(2.08 8.505)"><rect width="0.269" height="1.574" fill="#29abe2"/></g></g><g transform="translate(168.971 85.496)"><rect width="1.433" height="10.323" fill="#29abe2"/><g transform="translate(1.204 7.956)"><path d="M.151,0H.287a.15.15,0,0,1,.15.15V2.358a.151.151,0,0,1-.151.151H.151A.151.151,0,0,1,0,2.358V.151A.151.151,0,0,1,.151,0Z" fill="#29abe2"/></g><g transform="translate(0.946 8.098)"><rect width="0.956" height="2.225" rx="0.478" fill="#29abe2"/></g><g transform="translate(0.717 8.098)"><rect width="0.229" height="2.187" fill="#29abe2"/></g><g transform="translate(0.831 0.867)"><rect width="0.602" height="6.31" fill="#29abe2"/></g><g transform="translate(0.831 0.867)"><rect width="0.194" height="6.31" fill="#29abe2"/></g><g transform="translate(0.946 9.134)"><rect width="0.956" height="0.155" fill="#29abe2"/></g><g transform="translate(1.901 8.505)"><path d="M187.693,115.778h1.785v-2.229h-2.349v1.665A.564.564,0,0,0,187.693,115.778Z" transform="translate(-187.129 -113.549)" fill="#29abe2"/></g><g transform="translate(1.901 8.505)"><rect width="0.269" height="1.574" fill="#29abe2"/></g></g><g transform="translate(191.624 119.415)"><g transform="translate(0)"><rect width="5.94" height="0.68" fill="#29abe2"/></g></g><g transform="translate(191.683 118.077)"><g transform="translate(3.719 0)"><g transform="translate(0.246 0.673)"><g transform="translate(0 0)"><rect width="2.754" height="0.516" transform="translate(0 2.68) rotate(-76.726)" fill="#29abe2"/></g></g><g transform="translate(0.246 0.934)"><path d="M244.8,174.186l1.1-2.419-.6,2.537Z" transform="translate(-244.8 -171.767)" fill="#29abe2"/></g><g transform="translate(0.466 1.123)"><path d="M245.883,172.21h0a.129.129,0,0,0-.155.1l-.412,1.745a.128.128,0,0,0,.1.154h0a.128.128,0,0,0,.155-.1l.412-1.745A.129.129,0,0,0,245.883,172.21Z" transform="translate(-245.313 -172.207)" fill="#29abe2"/></g><g transform="translate(0.246 3.178)"><path d="M245.333,177.146l-.032.137-.047-.011-.008-.026-.144-.11-.181,0-.066.046-.057-.013.033-.137a.421.421,0,0,1,.5.118Z" transform="translate(-244.799 -176.99)" fill="#29abe2"/></g><g transform="translate(0.821 0.673)"><path d="M246.635,171.541a.476.476,0,0,1-.454-.1.448.448,0,0,1-.043-.043l.057-.242.5.119Z" transform="translate(-246.138 -171.159)" fill="#29abe2"/></g><g transform="translate(0.729)"><path d="M246.087,170.43a.478.478,0,0,1,.39-.832l-.272.311.095.277.287.057.272-.311a.478.478,0,0,1-.772.5Z" transform="translate(-245.924 -169.592)" fill="#29abe2"/></g><g transform="translate(0 3.299)"><path d="M245.063,177.791a.423.423,0,1,0-.51.315A.423.423,0,0,0,245.063,177.791Zm-.119-.091-.06.171-.149.1-.181,0-.144-.11-.052-.173.06-.171.149-.1.18,0,.144.11Z" transform="translate(-244.227 -177.27)" fill="#29abe2"/></g><g transform="translate(0.086 3.353)"><path d="M244.668,178.178a.425.425,0,0,1-.241-.157l.091-.111.007.022.144.11.181,0,.149-.1.06-.171-.052-.173-.144-.11h0l.076-.093.04,0a.424.424,0,0,1-.308.779Z" transform="translate(-244.427 -177.396)" fill="#29abe2"/></g></g><g transform="translate(0 0.359)"><g transform="translate(0.272 0.583)"><g transform="translate(0 0)"><rect width="0.477" height="2.548" transform="translate(0 0.168) rotate(-20.627)" fill="#29abe2"/></g></g><g transform="translate(0.272 0.583)"><path d="M236.652,171.785l.4,2.425-.85-2.257Z" transform="translate(-236.205 -171.785)" fill="#29abe2"/></g><g transform="translate(0.516 0.918)"><path d="M237.517,174.347h0a.119.119,0,0,0,.07-.153L237,172.642a.12.12,0,0,0-.153-.07h0a.119.119,0,0,0-.069.153l.584,1.552A.119.119,0,0,0,237.517,174.347Z" transform="translate(-236.772 -172.565)" fill="#29abe2"/></g><g transform="translate(0.272 0.583)"><path d="M236.251,172.075l-.046-.122.042-.015.019.015.167.01.141-.09.027-.069.05-.019.046.122a.39.39,0,0,1-.447.168Z" transform="translate(-236.205 -171.785)" fill="#29abe2"/></g><g transform="translate(1.082 2.738)"><path d="M238.089,176.964a.441.441,0,0,1,.4-.16.46.46,0,0,1,.055.011l.081.215-.446.168Z" transform="translate(-238.089 -176.801)" fill="#29abe2"/></g><g transform="translate(1.023 2.845)"><path d="M238.45,177.054a.442.442,0,0,1,.13.839l.048-.379-.216-.164-.25.1-.048.379a.442.442,0,0,1,.336-.78Z" transform="translate(-237.952 -177.051)" fill="#29abe2"/></g><path d="M235.6,170.957a.392.392,0,1,0,.229-.5A.392.392,0,0,0,235.6,170.957Zm.139.008-.042-.162.061-.156.141-.09.167.01.129.106.043.162-.061.156-.141.09-.167-.01Z" transform="translate(-235.571 -170.427)" fill="#29abe2"/><g transform="translate(0 0)"><path d="M235.825,170.453a.39.39,0,0,1,.266,0l-.012.132-.017-.014-.167-.01-.141.09-.061.156.042.162.129.106.167.01h0l-.01.111-.032.018a.392.392,0,0,1-.165-.757Z" transform="translate(-235.571 -170.428)" fill="#29abe2"/></g></g><g transform="translate(1.868 0.479)"><g transform="translate(0.188 0.516)"><g transform="translate(0 0)"><rect width="2.11" height="0.395" transform="matrix(0.23, -0.973, 0.973, 0.23, 0, 2.054)" fill="#29abe2"/></g></g><g transform="translate(0.188 0.716)"><path d="M240.357,174.227l.843-1.854-.459,1.945Z" transform="translate(-240.357 -172.373)" fill="#29abe2"/></g><g transform="translate(0.357 0.861)"><path d="M241.187,172.712h0a.1.1,0,0,0-.118.073l-.316,1.338a.1.1,0,0,0,.073.119h0a.1.1,0,0,0,.119-.073l.315-1.337A.1.1,0,0,0,241.187,172.712Z" transform="translate(-240.751 -172.71)" fill="#29abe2"/></g><g transform="translate(0.188 2.436)"><path d="M240.767,176.5l-.025.105-.036-.008-.006-.02-.11-.084-.139,0-.05.035-.043-.01.025-.105a.324.324,0,0,1,.385.091Z" transform="translate(-240.357 -176.376)" fill="#29abe2"/></g><g transform="translate(0.629 0.516)"><path d="M241.765,172.2a.366.366,0,0,1-.348-.074.293.293,0,0,1-.033-.033l.043-.185.385.091Z" transform="translate(-241.384 -171.907)" fill="#29abe2"/></g><g transform="translate(0.559)"><path d="M241.345,171.348a.366.366,0,0,1,.3-.637l-.208.238.073.212.22.043.208-.238a.366.366,0,0,1-.591.381Z" transform="translate(-241.219 -170.706)" fill="#29abe2"/></g><g transform="translate(0 2.528)"><path d="M240.56,176.99a.325.325,0,1,0-.391.241A.325.325,0,0,0,240.56,176.99Zm-.092-.07-.046.131-.114.079-.139,0-.11-.084-.04-.133.046-.131.114-.079.138,0,.11.084Z" transform="translate(-239.919 -176.591)" fill="#29abe2"/></g><g transform="translate(0.066 2.569)"><path d="M240.256,177.286a.322.322,0,0,1-.184-.12l.07-.085.005.018.11.084.139,0,.114-.079.046-.131-.04-.133-.11-.084h0l.058-.071.031,0a.324.324,0,0,1-.236.6Z" transform="translate(-240.072 -176.687)" fill="#29abe2"/></g></g><g transform="translate(0.954 0.92)"><g transform="translate(0.147 0.403)"><g transform="translate(0 0)"><rect width="1.65" height="0.309" transform="matrix(0.23, -0.973, 0.973, 0.23, 0, 1.606)" fill="#29abe2"/></g></g><g transform="translate(0.147 0.56)"><path d="M238.133,174.485l.659-1.449-.359,1.52Z" transform="translate(-238.133 -173.036)" fill="#29abe2"/></g><g transform="translate(0.279 0.673)"><path d="M238.782,173.3h0a.077.077,0,0,0-.092.057l-.247,1.046a.077.077,0,0,0,.057.092h0a.077.077,0,0,0,.092-.057l.247-1.046A.077.077,0,0,0,238.782,173.3Z" transform="translate(-238.441 -173.299)" fill="#29abe2"/></g><g transform="translate(0.147 1.904)"><path d="M238.453,176.258l-.02.082-.028-.007,0-.015-.086-.065-.108,0-.04.027-.034-.008.02-.082a.252.252,0,0,1,.162-.016A.254.254,0,0,1,238.453,176.258Z" transform="translate(-238.133 -176.164)" fill="#29abe2"/></g><g transform="translate(0.492 0.404)"><path d="M239.233,172.9a.286.286,0,0,1-.272-.058.281.281,0,0,1-.025-.026l.034-.145.3.071Z" transform="translate(-238.936 -172.672)" fill="#29abe2"/></g><g transform="translate(0.436)"><path d="M238.9,172.235a.286.286,0,0,1,.234-.5l-.163.186.057.166.172.034.163-.186a.286.286,0,0,1-.462.3Z" transform="translate(-238.807 -171.733)" fill="#29abe2"/></g><g transform="translate(0 1.976)"><path d="M238.292,176.644a.254.254,0,1,0-.3.189A.254.254,0,0,0,238.292,176.644Zm-.071-.055-.036.1-.089.062-.108,0-.086-.066-.031-.1.036-.1.089-.062.108,0,.086.066Z" transform="translate(-237.791 -176.332)" fill="#29abe2"/></g><g transform="translate(0.051 2.009)"><path d="M238.054,176.876a.254.254,0,0,1-.144-.094l.055-.067,0,.013.086.066.108,0,.089-.062.036-.1-.031-.1-.086-.066h0l.046-.056h.024a.254.254,0,0,1-.185.467Z" transform="translate(-237.91 -176.408)" fill="#29abe2"/></g></g></g><g transform="translate(191.624 120.062)"><g transform="translate(0 0)"><rect width="5.94" height="2.277" fill="#29abe2"/></g></g><g transform="translate(179.32 93.535)"><g transform="translate(0 0)"><path d="M221.7,112.465H207.156a.361.361,0,0,0-.306.551l.2.322h0a.6.6,0,0,1,.593-.526h13.575a.594.594,0,0,1,.59.523h0l.2-.32A.361.361,0,0,0,221.7,112.465Z" transform="translate(-206.795 -112.465)" fill="#29abe2"/></g></g><g transform="translate(186.91 94.022)"><g transform="translate(0)"><path d="M236.569,115.771a.766.766,0,0,0,.734-.547l.046-.155s.136-.567.292-1.47a2.43,2.43,0,0,1-1.635,1.26c-2.145.384-11.5.5-11.5.5l-.049.413h12.108Z" transform="translate(-224.461 -113.599)" fill="#29abe2"/></g></g><g transform="translate(173.826 94.022)"><g transform="translate(0)"><path d="M195.077,115.771a.766.766,0,0,1-.734-.547l-.046-.155s-.135-.567-.292-1.47a2.431,2.431,0,0,0,1.635,1.26c2.145.384,11.5.5,11.5.5l.048.413H195.077Z" transform="translate(-194.006 -113.599)" fill="#29abe2"/></g></g></g></g></svg>