<svg xmlns="http://www.w3.org/2000/svg" width="107.7" height="107.7" viewBox="0 0 107.7 107.7"><g transform="translate(-2401.387 -5011.411)"><g transform="translate(-3805 3298.905)" style="isolation:isolate"><g transform="translate(6206.387 1712.506)" style="mix-blend-mode:overlay;isolation:isolate"><g transform="translate(89.592)" fill="#11044c"><path d="M 17.60885810852051 17.60885810852051 L 14.66441917419434 17.60885810852051 L 14.66441917419434 3.944439172744751 L 14.66441917419434 3.444439172744751 L 14.16441917419434 3.444439172744751 L 0.4999990463256836 3.444439172744751 L 0.4999990463256836 0.4999990463256836 L 17.42973899841309 0.4999990463256836 L 17.42973899841309 0.6794390678405762 L 17.60885810852051 0.6794390678405762 L 17.60885810852051 17.60885810852051 Z" stroke="none"/><path d="M 17.10885810852051 17.10885810852051 L 17.10885810852051 1.179439067840576 L 16.92973899841309 1.179439067840576 L 16.92973899841309 0.9999990463256836 L 0.9999990463256836 0.9999990463256836 L 0.9999990463256836 2.944439172744751 L 14.16441917419434 2.944439172744751 L 15.16441917419434 2.944439172744751 L 15.16441917419434 3.944439172744751 L 15.16441917419434 17.10885810852051 L 17.10885810852051 17.10885810852051 M 18.10885810852051 18.10885810852051 L 14.16441917419434 18.10885810852051 L 14.16441917419434 3.944439172744751 L -9.457397709411453e-07 3.944439172744751 L -9.457397709411453e-07 -9.457397709411453e-07 L 17.92973899841309 -9.457397709411453e-07 L 17.92973899841309 0.179439052939415 L 18.10885810852051 0.179439052939415 L 18.10885810852051 18.10885810852051 Z" stroke="none" fill="#11044c"/></g><g transform="translate(89.592 89.591)" fill="#11044c"><path d="M 17.42974472045898 17.60885810852051 L 0.5000038146972656 17.60885810852051 L 0.5000038146972656 14.66441917419434 L 14.16442394256592 14.66441917419434 L 14.66442394256592 14.66441917419434 L 14.66442394256592 14.16441917419434 L 14.66442394256592 0.4999990463256836 L 17.60886383056641 0.4999990463256836 L 17.60886383056641 17.42940902709961 L 17.42974472045898 17.42940902709961 L 17.42974472045898 17.60885810852051 Z" stroke="none"/><path d="M 15.16442394256592 1 L 15.16442394256592 14.16441917419434 L 15.16442394256592 15.16441917419434 L 14.16442394256592 15.16441917419434 L 1.000003814697266 15.16441917419434 L 1.000003814697266 17.10886001586914 L 16.92974472045898 17.10886001586914 L 16.92974472045898 16.92940902709961 L 17.10886383056641 16.92940902709961 L 17.10886383056641 1 L 15.16442394256592 1 M 14.16442394256592 0 L 18.10886383056641 0 L 18.10886383056641 17.92940902709961 L 17.92974472045898 17.92940902709961 L 17.92974472045898 18.10885810852051 L 3.814697265625e-06 18.10885810852051 L 3.814697265625e-06 14.16441917419434 L 14.16442394256592 14.16441917419434 L 14.16442394256592 0 Z" stroke="none" fill="#11044c"/></g><g transform="translate(18.109 18.109) rotate(180)" fill="#11044c"><path d="M 17.42980003356934 17.60885810852051 L 0.4999995827674866 17.60885810852051 L 0.4999995827674866 14.66441917419434 L 14.16446971893311 14.66441917419434 L 14.66446971893311 14.66441917419434 L 14.66446971893311 14.16441917419434 L 14.66446971893311 0.4999990463256836 L 17.60891914367676 0.4999990463256836 L 17.60891914367676 17.42941856384277 L 17.42980003356934 17.42941856384277 L 17.42980003356934 17.60885810852051 Z" stroke="none"/><path d="M 15.16446971893311 1 L 15.16446971893311 14.16441917419434 L 15.16446971893311 15.16441917419434 L 14.16446971893311 15.16441917419434 L 1 15.16441917419434 L 1 17.10886001586914 L 16.92980003356934 17.10886001586914 L 16.92980003356934 16.92941856384277 L 17.10891914367676 16.92941856384277 L 17.10891914367676 1 L 15.16446971893311 1 M 14.16446971893311 0 L 18.10891914367676 0 L 18.10891914367676 17.92941856384277 L 17.92980003356934 17.92941856384277 L 17.92980003356934 18.10885810852051 L 0 18.10885810852051 L 0 14.16441917419434 L 14.16446971893311 14.16441917419434 L 14.16446971893311 0 Z" stroke="none" fill="#11044c"/></g><g transform="translate(18.109 107.7) rotate(180)" fill="#11044c"><path d="M 17.60892486572266 17.60885810852051 L 14.66447448730469 17.60885810852051 L 14.66447448730469 3.944439172744751 L 14.66447448730469 3.444439172744751 L 14.16447448730469 3.444439172744751 L 0.5000043511390686 3.444439172744751 L 0.5000043511390686 0.4999990463256836 L 17.4298038482666 0.4999990463256836 L 17.4298038482666 0.6794390678405762 L 17.60892486572266 0.6794390678405762 L 17.60892486572266 17.60885810852051 Z" stroke="none"/><path d="M 17.10892486572266 17.10885810852051 L 17.10892486572266 1.179439067840576 L 16.9298038482666 1.179439067840576 L 16.9298038482666 0.9999990463256836 L 1.000004291534424 0.9999990463256836 L 1.000004291534424 2.944439172744751 L 14.16447448730469 2.944439172744751 L 15.16447448730469 2.944439172744751 L 15.16447448730469 3.944439172744751 L 15.16447448730469 17.10885810852051 L 17.10892486572266 17.10885810852051 M 18.10892486572266 18.10885810852051 L 14.16447448730469 18.10885810852051 L 14.16447448730469 3.944439172744751 L 4.340210125519661e-06 3.944439172744751 L 4.340210125519661e-06 -9.457397709411453e-07 L 17.9298038482666 -9.457397709411453e-07 L 17.9298038482666 0.179439052939415 L 18.10892486572266 0.179439052939415 L 18.10892486572266 18.10885810852051 Z" stroke="none" fill="#11044c"/></g></g></g><g transform="translate(1549 4957.613)"><g transform="translate(878.633 91.215)"><path d="M54.81,402.212c.554-.155-1.015-1.338-1.015-1.338a78.2,78.2,0,0,0-9.266-2.919c-1.123.385,1.168,2.688,1.906,3.1A44.466,44.466,0,0,0,54.81,402.212Z" transform="translate(-40.815 -381.481)" fill="#29abe2"/><path d="M94.04,378.515a1.62,1.62,0,0,0-1.168-.648c-.417-.042-.9-.063-1.449-.063-1.406,0-2.723.138-2.778.145a.414.414,0,0,0-.288.162.418.418,0,0,0-.082.32,5.339,5.339,0,0,1-.163,2.674c-.479-.78-1.513-2.445-2.638-4.121-3.246-4.833-4.063-5.026-4.455-5.118-1.363-.321-10.89-.746-13.728-.866l0-.058-.7.029-.7-.029,0,.058c-2.838.12-12.366.546-13.728.866-.393.092-1.21.285-4.456,5.118-1.125,1.676-2.16,3.341-2.638,4.121a5.353,5.353,0,0,1-.162-2.674.419.419,0,0,0-.37-.482c-.055-.007-1.372-.145-2.777-.145-.545,0-1.033.021-1.451.063a1.624,1.624,0,0,0-1.168.648,4.238,4.238,0,0,0-.407,2.884.418.418,0,0,0,.258.313l3.561,1.407a17.493,17.493,0,0,0-2.334,2.026c-.275.326-.787.931-.534,6.883.119,2.82.36,5.532.363,5.56l.065.73,1.318-.116c3.5.285,15.111,1.143,28.068,1.143a194.642,194.642,0,0,0,22.4-1.132l1.184.105.065-.73c0-.028.243-2.74.363-5.56.252-5.952-.259-6.557-.534-6.883a17.482,17.482,0,0,0-2.333-2.026l3.56-1.407a.416.416,0,0,0,.259-.313A4.24,4.24,0,0,0,94.04,378.515ZM52.5,373.291c1.1-.246,9-.643,14.083-.852,5.086.209,12.985.606,14.082.852.8.344,3.618,4.384,5.981,8.232-3.384-.122-13.23-.453-19.644-.468h-.839c-6.414.016-16.26.346-19.644.468C48.883,377.676,51.7,373.635,52.5,373.291Zm-12.99,7.73a3.175,3.175,0,0,1,.288-2,.77.77,0,0,1,.58-.317c.39-.04.849-.06,1.366-.06.89,0,1.762.06,2.261.1a4.776,4.776,0,0,0,.446,2.97c-.3.213-.695.5-1.127.815Zm51.678,4.438-10.526,4.049-.018.006a.259.259,0,0,0-.081.051c-.213.19-.409.38-.6.582a7.87,7.87,0,0,0-.555.637,2.422,2.422,0,0,0-.439.807.778.778,0,0,0-.02.3.558.558,0,0,0,.164.323.622.622,0,0,0,.134.1.632.632,0,0,0,.076.037l.052.019a1.355,1.355,0,0,0,.251.053,5.857,5.857,0,0,0,.848.023c.276-.008.549-.024.821-.046.545-.043,1.085-.1,1.624-.171q1.616-.2,3.215-.515c.532-.1,1.063-.218,1.59-.35.263-.068.524-.137.784-.218a5.325,5.325,0,0,0,.76-.288,5.446,5.446,0,0,1-.771.249c-.262.067-.527.126-.791.177-.53.106-1.063.192-1.6.271q-1.6.23-3.22.352c-.538.041-1.077.074-1.614.088-.268.006-.536.01-.8,0a5.308,5.308,0,0,1-.773-.059l-.084-.018-.038-.01-.023-.007c-.007,0-.029-.012-.042-.018l-.014-.008a.174.174,0,0,1-.027-.023c-.01-.013-.009-.016-.011-.036a.32.32,0,0,1,.016-.1,2.01,2.01,0,0,1,.374-.588,6.95,6.95,0,0,1,.54-.56c.175-.167.36-.328.544-.479l11.017-3.613c.283,1.523.122,6.228-.235,10.445-1.771.211-3.594.387-5.452.531H49.72c-3.9-.22-6.832-.445-8.27-.562-.355-4.21-.515-8.9-.231-10.414L52.235,390.1c.183.151.368.312.544.479a7.056,7.056,0,0,1,.54.56,1.992,1.992,0,0,1,.373.588.308.308,0,0,1,.016.1c0,.02,0,.023-.012.036a.138.138,0,0,1-.026.023l-.015.008-.041.018-.023.007-.039.01-.084.018A5.308,5.308,0,0,1,52.7,392c-.265.005-.534,0-.8,0-.536-.015-1.074-.047-1.613-.088-1.076-.083-2.151-.2-3.221-.352-.534-.079-1.068-.165-1.6-.271-.265-.052-.529-.11-.791-.177a5.4,5.4,0,0,1-.771-.249,5.36,5.36,0,0,0,.76.288c.259.081.521.151.784.218.526.132,1.057.246,1.589.35q1.6.311,3.216.515c.538.069,1.079.127,1.624.171.272.021.545.038.821.046a5.853,5.853,0,0,0,.848-.023,1.31,1.31,0,0,0,.25-.053l.054-.019a.666.666,0,0,0,.076-.037.644.644,0,0,0,.135-.1.56.56,0,0,0,.163-.323.791.791,0,0,0-.019-.3,2.413,2.413,0,0,0-.44-.807,7.628,7.628,0,0,0-.554-.637c-.194-.2-.389-.392-.6-.582a.25.25,0,0,0-.082-.051l-.017-.006-10.525-4.049c1.115-.977,3.042-2.357,3.843-2.912a.708.708,0,0,0,.167-.166c2.743-.1,13.818-.487,20.595-.487s17.852.387,20.595.487a.717.717,0,0,0,.166.166C88.147,383.1,90.075,384.482,91.19,385.459Zm2.467-4.438-3.815,1.506c-.432-.319-.827-.6-1.127-.815a4.776,4.776,0,0,0,.446-2.97c.5-.042,1.371-.1,2.262-.1.516,0,.976.021,1.365.06a.768.768,0,0,1,.58.315A3.194,3.194,0,0,1,93.657,381.021Z" transform="translate(-38.633 -370.94)" fill="#29abe2"/><path d="M117.565,397.955a78.218,78.218,0,0,0-9.268,2.919s-1.567,1.184-1.014,1.338a44.46,44.46,0,0,0,8.375-1.152C116.4,400.643,118.687,398.34,117.565,397.955Z" transform="translate(-65.377 -381.481)" fill="#29abe2"/><path d="M88.031,398.062c-.439.115-.913.246-1.407.422a5.753,5.753,0,0,0-.754.319,1.694,1.694,0,0,0-.38.256,2.729,2.729,0,0,0-.275.366,5.631,5.631,0,0,1-1.2,1.147,3.921,3.921,0,0,1-.724.416,1.646,1.646,0,0,1-.365.114l-.015,0H82.9l-.056,0-.112,0-.227.007c-.3.018-.593,0-.887,0s-.578-.007-.878-.019l-1.735-.058-3.081-.125-2.4-.112v-.059l-.618.03-.618-.03v.059l-2.4.112-3.081.125-1.737.058c-.3.012-.584.013-.878.019s-.581.02-.886,0l-.226-.007-.113,0-.057,0H62.9l-.014,0a1.665,1.665,0,0,1-.366-.114,3.957,3.957,0,0,1-.723-.416,5.614,5.614,0,0,1-1.2-1.147,2.911,2.911,0,0,0-.276-.366,1.691,1.691,0,0,0-.379-.256,5.716,5.716,0,0,0-.754-.319c-.5-.176-.969-.307-1.407-.422-.878-.228-1.616-.381-2.132-.487s-.814-.156-.814-.156.293.071.8.208,1.234.34,2.088.622c.427.143.888.3,1.356.506a5.663,5.663,0,0,1,.691.346,1.361,1.361,0,0,1,.289.22,3.3,3.3,0,0,1,.2.321,6.04,6.04,0,0,0,1.221,1.336,4.578,4.578,0,0,0,.793.526,2.227,2.227,0,0,0,.482.184l.033.008.008,0,.03,0,.014,0,.056,0,.113.013.225.021c.295.037.61.04.915.059s.619.032.912.041l1.745.056,3.088.077,2.364.043v.024l.63-.012h.021l.629.012v-.024l2.363-.043L79,401.9l1.744-.056c.293-.009.606-.027.912-.041s.62-.023.916-.059l.224-.021.112-.013.057,0,.013,0,.03,0,.008,0,.033-.008a2.233,2.233,0,0,0,.482-.184,4.561,4.561,0,0,0,.793-.526,6.055,6.055,0,0,0,1.221-1.336,3.082,3.082,0,0,1,.2-.321,1.4,1.4,0,0,1,.288-.22,5.663,5.663,0,0,1,.691-.346c.47-.2.929-.363,1.357-.506.856-.282,1.58-.483,2.088-.622s.8-.208.8-.208-.3.052-.815.156S88.909,397.834,88.031,398.062Z" transform="translate(-44.957 -381.273)" fill="#29abe2"/><path d="M43.326,417.2s-.72,3.263,0,4.18,7.736.868,8.72,0,.459-3.823.459-3.823C49.686,417.553,43.326,417.2,43.326,417.2Z" transform="translate(-40.339 -388.991)" fill="#29abe2"/><path d="M110.139,417.553s-.526,2.957.46,3.823,8.026.918,8.749,0,0-4.18,0-4.18S112.968,417.553,110.139,417.553Z" transform="translate(-66.483 -388.991)" fill="#29abe2"/></g><rect width="14" height="4" transform="translate(900 112.387)" fill="#29abe2"/><path d="M2.457,3.142V.684H0V0H3.111V.031h.031v3.11Z" transform="translate(912.878 105.535)" fill="#29abe2"/><path d="M2.457,0V2.457H0v.684H3.111V3.11h.031V0Z" transform="translate(912.878 121.077)" fill="#29abe2"/><path d="M2.457,0V2.457H0v.684H3.111V3.11h.031V0Z" transform="translate(900.477 108.676) rotate(180)" fill="#29abe2"/><path d="M2.457,3.142V.684H0V0H3.111V.031h.031v3.11Z" transform="translate(900.477 124.219) rotate(180)" fill="#29abe2"/></g></g></svg>