<svg xmlns="http://www.w3.org/2000/svg" width="350.051" height="350.051" viewBox="0 0 350.051 350.051">
  <g id="Branches_dark" transform="translate(-1752.183 12980.413)">
    <path id="Branches" d="M349.632,269.489H320.475V251.026a5.169,5.169,0,0,0-5.169-5.17h-3.693V191.592a5.169,5.169,0,0,0-5.169-5.17h-121.5V113.694h3.693a5.17,5.17,0,0,0,5.17-5.17V90.062h29.156a5.17,5.17,0,0,0,5.17-5.17V9.92a5.17,5.17,0,0,0-5.17-5.17H136.588a5.172,5.172,0,0,0-5.17,5.17V84.892a5.172,5.172,0,0,0,5.17,5.17h29.156v18.463a5.172,5.172,0,0,0,5.17,5.17h3.693v72.728H53.107a5.172,5.172,0,0,0-5.17,5.17v54.265H44.245a5.172,5.172,0,0,0-5.17,5.17v18.463H9.92a5.172,5.172,0,0,0-5.17,5.17v74.973A5.172,5.172,0,0,0,9.92,354.8H96.295a5.17,5.17,0,0,0,5.17-5.17V274.659a5.169,5.169,0,0,0-5.17-5.169H67.139V251.026a5.172,5.172,0,0,0-5.17-5.17H58.277v-49.1H174.606v49.1h-3.693a5.172,5.172,0,0,0-5.17,5.17v18.463H136.588a5.172,5.172,0,0,0-5.17,5.17v74.973a5.172,5.172,0,0,0,5.17,5.169h86.375a5.17,5.17,0,0,0,5.17-5.17V274.659a5.17,5.17,0,0,0-5.17-5.169H193.807V251.026a5.17,5.17,0,0,0-5.17-5.17h-3.693v-49.1H301.274v49.1h-3.693a5.17,5.17,0,0,0-5.17,5.17v18.463H263.256a5.17,5.17,0,0,0-5.169,5.17v74.973a5.17,5.17,0,0,0,5.17,5.17h86.375a5.17,5.17,0,0,0,5.17-5.17V274.659a5.17,5.17,0,0,0-5.17-5.169ZM141.757,15.089h76.036V79.723H141.757Zm41.711,74.973v13.293h-7.385V90.062Zm-92.343,254.4H15.089V279.828H91.125ZM49.415,269.489V256.2H56.8v13.293Zm168.379,74.973H141.757V279.828h76.036Zm-41.711-74.973V256.2h7.385v13.293ZM302.751,256.2h7.385v13.293h-7.385Zm41.711,88.266H268.426V279.828h76.036Z" transform="translate(1747.433 -12985.163)" fill="#f14336"/>
    <g id="Rectangle_28450" data-name="Rectangle 28450" transform="translate(1898 -12696)" fill="none" stroke="#f14336" stroke-width="8">
      <rect width="60" height="49" rx="4" stroke="none"/>
      <rect x="4" y="4" width="52" height="41" fill="none"/>
    </g>
    <g id="Rectangle_28453" data-name="Rectangle 28453" transform="translate(1898 -12963)" fill="none" stroke="#f14336" stroke-width="8">
      <rect width="60" height="49" rx="4" stroke="none"/>
      <rect x="4" y="4" width="52" height="41" fill="none"/>
    </g>
    <g id="Rectangle_28451" data-name="Rectangle 28451" transform="translate(2025 -12696)" fill="none" stroke="#f14336" stroke-width="8">
      <rect width="60" height="49" rx="4" stroke="none"/>
      <rect x="4" y="4" width="52" height="41" fill="none"/>
    </g>
    <g id="Rectangle_28452" data-name="Rectangle 28452" transform="translate(1771 -12696)" fill="none" stroke="#f14336" stroke-width="8">
      <rect width="60" height="49" rx="4" stroke="none"/>
      <rect x="4" y="4" width="52" height="41" fill="none"/>
    </g>
  </g>
</svg>
