<svg id="models" xmlns="http://www.w3.org/2000/svg" width="510.171" height="510.162" viewBox="0 0 510.171 510.162">
  <path id="Path_259864" data-name="Path 259864" d="M112.535,299.595a8.48,8.48,0,0,0-6.011,2.491L66.5,342.108H51.452a25.508,25.508,0,1,0,0,17.005h18.57a8.48,8.48,0,0,0,6.011-2.491L116.055,316.6H248.579V362.09L177.1,393.856a8.514,8.514,0,0,0-5.051,7.772v68.022a8.514,8.514,0,0,0,5.051,7.771l76.524,34.011a8.515,8.515,0,0,0,6.9,0l76.524-34.011a8.514,8.514,0,0,0,5.051-7.771V401.627a8.514,8.514,0,0,0-5.051-7.772L265.584,362.09V316.6h25.508v8.5a42.562,42.562,0,0,0,42.514,42.513,8.506,8.506,0,0,0,8.5-8.5V316.6h56l40.022,40.022a8.48,8.48,0,0,0,6.011,2.491h18.57a25.508,25.508,0,1,0,0-17.005h-15.05l-40.022-40.022a8.48,8.48,0,0,0-6.011-2.491H375.762a41.035,41.035,0,0,0,7.814-17.005h79.143a25.508,25.508,0,1,0,0-17.005h-79.2a42.293,42.293,0,0,0-6.079-14.8l64.212-64.212a8.48,8.48,0,0,0,2.491-6.011V155.049H503.66a8.506,8.506,0,0,0,8.5-8.5V61.519a8.48,8.48,0,0,0-2.491-6.011L458.655,4.491A8.48,8.48,0,0,0,452.644,2H367.616a8.506,8.506,0,0,0-8.5,8.5V146.546a8.506,8.506,0,0,0,8.5,8.5h59.519v21.988l-61.687,61.687a42.512,42.512,0,0,0-14.837-6.284c.221-8.8-2.823-19.327-14.905-31.273-8.146-8.044-18.417-12.465-28.654-12.091a42.417,42.417,0,0,0-14.174,2.8,42.472,42.472,0,0,0-27.294-18.859V155.049H325.1a8.506,8.506,0,0,0,8.5-8.5V61.519a8.48,8.48,0,0,0-2.491-6.011L280.1,4.491A8.48,8.48,0,0,0,274.087,2H189.06a8.506,8.506,0,0,0-8.5,8.5V146.546a8.506,8.506,0,0,0,8.5,8.5h59.519v17.958a42.5,42.5,0,0,0-27.294,18.859,42.417,42.417,0,0,0-14.174-2.8c-10.229-.238-20.509,4.047-28.646,12.091-12.091,11.946-15.135,22.473-14.914,31.273a42.444,42.444,0,0,0-14.837,6.284L87.027,177.037V155.049h59.519a8.506,8.506,0,0,0,8.5-8.5V61.519a8.48,8.48,0,0,0-2.491-6.011L101.541,4.491A8.48,8.48,0,0,0,95.53,2H10.5A8.506,8.506,0,0,0,2,10.5V146.546a8.506,8.506,0,0,0,8.5,8.5H70.022v25.508a8.48,8.48,0,0,0,2.491,6.011l64.212,64.212a42.293,42.293,0,0,0-6.079,14.8H51.452a25.508,25.508,0,1,0,0,17.005h79.143a41.085,41.085,0,0,0,7.814,17.005ZM27.508,359.114a8.5,8.5,0,1,1,8.5-8.5A8.517,8.517,0,0,1,27.508,359.114Zm161.551,55.6,59.519,26.452v49.418L189.06,464.131Zm76.524,75.861V441.165L325.1,414.713v49.418Zm47.088-88.947-55.591,24.709-55.591-24.709L248.579,380.7v20.925h17.005V380.7Zm173.982-59.519a8.5,8.5,0,1,1-8.5,8.5A8.517,8.517,0,0,1,486.654,342.108ZM461.146,31.028l21.988,21.988H461.146ZM376.119,19.005h68.022V61.519a8.506,8.506,0,0,0,8.5,8.5h42.514v68.022H376.119Zm-93.53,12.023,21.988,21.988H282.589ZM197.562,19.005h68.022V61.519a8.506,8.506,0,0,0,8.5,8.5H316.6v68.022H197.562Zm-93.53,12.023,21.988,21.988H104.033ZM19.005,19.005H87.027V61.519a8.506,8.506,0,0,0,8.5,8.5h42.514v68.022H19.005ZM486.654,265.584a8.5,8.5,0,1,1-8.5,8.5A8.517,8.517,0,0,1,486.654,265.584ZM171.527,248.562c.289.042,1.139.128,1.428.136a8.507,8.507,0,0,0,8.562-10.654c-1.692-6.42-2.389-13.621,8.894-24.777,4.83-4.779,10.45-7.261,16.283-7.193a25.386,25.386,0,0,1,13.638,4.362,8.51,8.51,0,0,0,12.8-4.234,25.305,25.305,0,0,1,47.9,0,8.51,8.51,0,0,0,12.8,4.234,25.433,25.433,0,0,1,13.638-4.362,23.578,23.578,0,0,1,16.291,7.193c11.283,11.156,10.586,18.357,8.894,24.777a8.471,8.471,0,0,0,1.6,7.482,8.568,8.568,0,0,0,6.964,3.172,2.342,2.342,0,0,0,.893-.119A25.515,25.515,0,0,1,367.5,276.612c-1.233,12.89-13.026,22.983-26.852,22.983h-7.04a8.506,8.506,0,0,0-8.5,8.5v41.06A25.557,25.557,0,0,1,308.1,325.1V308.1a8.506,8.506,0,0,0-8.5-8.5V286.11L314.109,271.6a8.48,8.48,0,0,0,2.491-6.011V240.076H299.595v21.988l-14.514,14.514a8.48,8.48,0,0,0-2.491,6.011v17.005H265.584V223.07H248.579v76.524H231.573V282.589a8.48,8.48,0,0,0-2.491-6.011l-14.514-14.514V240.076H197.562v25.508a8.48,8.48,0,0,0,2.491,6.011l14.514,14.514v13.485H173.517c-13.825,0-25.619-10.093-26.852-22.974a25.552,25.552,0,0,1,24.862-28.059ZM27.508,282.589a8.5,8.5,0,1,1,8.5-8.5A8.517,8.517,0,0,1,27.508,282.589Z" transform="translate(-2 -2)" fill="#6ce6f4"/>
  <path id="Path_259865" data-name="Path 259865" d="M45,52H62.005V69.005H45Z" transform="translate(320.617 373.135)" fill="#6ce6f4"/>
  <path id="Path_259866" data-name="Path 259866" d="M49,52H66.005V69.005H49Z" transform="translate(350.627 373.135)" fill="#6ce6f4"/>
  <path id="Path_259867" data-name="Path 259867" d="M49,56H66.005V73.005H49Z" transform="translate(350.627 403.146)" fill="#6ce6f4"/>
  <path id="Path_259868" data-name="Path 259868" d="M49,48H66.005V65.005H49Z" transform="translate(350.627 343.125)" fill="#6ce6f4"/>
  <path id="Path_259869" data-name="Path 259869" d="M17,52H34.005V69.005H17Z" transform="translate(110.541 373.135)" fill="#6ce6f4"/>
  <path id="Path_259870" data-name="Path 259870" d="M13,52H30.005V69.005H13Z" transform="translate(80.53 373.135)" fill="#6ce6f4"/>
  <path id="Path_259871" data-name="Path 259871" d="M13,56H30.005V73.005H13Z" transform="translate(80.53 403.146)" fill="#6ce6f4"/>
  <path id="Path_259872" data-name="Path 259872" d="M13,48H30.005V65.005H13Z" transform="translate(80.53 343.125)" fill="#6ce6f4"/>
</svg>
