<svg xmlns="http://www.w3.org/2000/svg" width="656.487" height="663.877" viewBox="0 0 656.487 663.877">
  <g id="regions" transform="translate(-166.851 -177.109)">
    <path id="Path_31541" data-name="Path 31541" d="M312.13,573.554c4.2-.314,7.269-1.133,10.066-.578,2.569.508,4.843,2.495,7.247,3.83-1.687,2.154-2.987,5.558-5.134,6.22-5.377,1.658-11.114,2.268-16.748,2.928-4.581.538-6.959-1.531-7.106-6.507-.088-2.934-.618-6.416-2.284-8.659-30.245-40.739-59.581-82.082-84.793-126.19-17.653-30.882-34.392-62.333-42.717-97.158-17.317-72.454,25.946-144.564,98.24-165.123,80.323-22.839,163.927,32.01,175.093,114.4,3.716,27.419-1.283,53.179-11.234,78.461C412.219,427.371,382.2,474.2,350.586,520.1c-10.886,15.8-22.476,31.13-33.732,46.684C315.5,568.648,314.216,570.559,312.13,573.554Zm-107.78-260.5c-.129,56.364,45.084,102.057,101.2,102.27,56.16.213,102.483-45.429,102.631-101.125.148-56.138-45.478-102.45-101.1-102.616C250.212,211.421,204.481,256.587,204.35,313.059Z" fill="#fff"/>
    <path id="Path_31542" data-name="Path 31542" d="M499.683,708.719c-13.691-19.021-26.607-36.541-39.074-54.377-28.682-41.036-55.537-83.2-75.715-129.189-10.869-24.767-19.789-49.954-19.312-77.883,1.09-63.512,48.594-121.115,110.9-133.087,77.174-14.828,147.5,31.3,164.732,108.01,6.815,30.344,1.312,59.256-9.907,87.565-18.095,45.659-43.371,87.372-70.81,127.814-15.434,22.753-31.93,44.79-47.963,67.138-2,2.789-4.592,5.073-2.615,9.382.464,1.01-3.147,5.562-5.058,5.682a71.248,71.248,0,0,1-18.361-1.266c-2.073-.418-3.5-4.016-5.229-6.161,2.126-1.517,4.1-3.948,6.414-4.337C491.069,707.441,494.7,708.335,499.683,708.719Zm106.867-261c.025-56.381-45.341-102.253-101.209-102.338-57.056-.087-102.612,45.807-102.618,103.38-.006,54.7,46.343,100.419,101.762,100.387,56.447-.033,102.043-45.348,102.066-101.429Z" transform="translate(179.138 121.081)" fill="#fff"/>
    <path id="Path_31543" data-name="Path 31543" d="M356.671,520.728c-12.67-3.8-23.845-6.891-34.778-10.679-1.774-.616-4-5.1-3.329-6.408,1.063-2.067,4.807-4.564,6.722-4.086,11,2.736,21.869,6.064,32.578,9.787,1.932.671,4.354,4.44,3.955,6.186C361.313,517.741,358.156,519.35,356.671,520.728Z" transform="translate(136.656 290.629)" fill="#fff"/>
    <path id="Path_31544" data-name="Path 31544" d="M358.4,508.754c13.014,2.62,24.438,4.668,35.687,7.427,1.913.47,3.08,3.982,4.59,6.089-2.32,1.607-4.913,4.872-6.918,4.545-11.43-1.867-22.78-4.356-33.993-7.264-1.825-.474-4.039-4.2-3.866-6.239C354.06,511.456,357.219,509.855,358.4,508.754Z" transform="translate(168.614 298.976)" fill="#fff"/>
    <path id="Path_31545" data-name="Path 31545" d="M290.608,393.354c-5.878.367-11.8,1.3-17.61.854-2.848-.222-5.493-3.027-8.23-4.662,2.335-2.046,4.533-5.646,7.034-5.868a255.722,255.722,0,0,1,31.749-.884c2.443.086,4.756,3.818,7.129,5.874-2.442,1.658-4.7,4.233-7.368,4.763-4.083.81-8.445.213-12.687.213Z" transform="translate(88.272 185.284)" fill="#fff"/>
    <path id="Path_31546" data-name="Path 31546" d="M264.6,461.038c.911,1.921,2.151,3.755,2.677,5.777,2.464,9.458,9.975,14.56,16.98,20.131,1.472,1.171,3.662,2.076,4.231,3.59.8,2.116,1.228,5.183.217,6.906-.785,1.337-4.775,2.411-6.045,1.591-10.34-6.665-20.517-13.772-25.124-25.925-2.114-5.577.6-10.31,5.031-10.036Z" transform="translate(81.089 255.96)" fill="#fff"/>
    <path id="Path_31547" data-name="Path 31547" d="M395.7,515.455c12.8,1.795,23.19,2.923,33.4,4.934,2.291.451,3.976,4,5.938,6.119-2.527,1.527-5.164,4.507-7.562,4.326-10.141-.761-20.219-2.392-30.3-3.856-3.9-.567-8.346-1.864-7.165-6.735C390.584,517.885,394.556,516.351,395.7,515.455Z" transform="translate(201.002 305.017)" fill="#fff"/>
    <path id="Path_31548" data-name="Path 31548" d="M289.838,486.242c1.308.513,2.651.96,3.923,1.554,9.2,4.3,18.351,8.675,27.573,12.909,3.582,1.645,6.853,4.2,4.446,7.914-1.206,1.856-6.347,2.892-8.762,1.928a311.016,311.016,0,0,1-28.868-13.474c-1.877-.983-3.236-4.343-3.438-6.726-.177-2.08,1.614-4.326,2.537-6.5Z" transform="translate(106.239 276.523)" fill="#fff"/>
    <path id="Path_31549" data-name="Path 31549" d="M305.746,385.346c12.6.222,29.431,13.645,31.4,24.318.4,2.152-1.1,6.05-2.776,6.8s-6.248-.852-6.826-2.424c-3.8-10.327-12.137-14.4-21.529-17.876-2.086-.772-3.944-4.375-4.246-6.874C301.606,387.913,304.9,386.122,305.746,385.346Z" transform="translate(121.624 187.725)" fill="#fff"/>
    <path id="Path_31550" data-name="Path 31550" d="M324.75,413.942c4.885-.03,7.718,4.364,4.969,8.093-7.136,9.675-14.873,18.927-22.8,27.971-1.065,1.217-5.488,1.206-6.771.032-1.265-1.158-1.578-5.3-.479-6.779,7.045-9.467,14.552-18.593,22.034-27.729C322.491,414.564,324.094,414.265,324.75,413.942Z" transform="translate(119.125 213.504)" fill="#fff"/>
    <path id="Path_31551" data-name="Path 31551" d="M308.285,446.585c-.736.82-1.843,2.71-3.485,3.769-9.14,5.891-18.292,11.791-27.745,17.151-1.823,1.034-5-.323-7.556-.576.666-2.662.443-6.583,2.141-7.777,9.083-6.383,18.545-12.253,28.085-17.954C304.128,438.564,308.6,441.023,308.285,446.585Z" transform="translate(92.535 237.12)" fill="#fff"/>
    <path id="Path_31552" data-name="Path 31552" d="M186.572,296.712c.131-56.472,45.862-101.638,102.734-101.471,55.618.165,101.245,46.478,101.1,102.616-.148,55.7-46.47,101.338-102.631,101.125C231.656,398.769,186.443,353.076,186.572,296.712Zm192.91,3.7c3.094-48.368-36.558-91.912-86.373-94.852-49.271-2.907-92.76,35.581-96.139,85.088-3.508,51.372,34.79,94.842,87.875,97.455,52.382,2.583,93.093-38.735,94.637-87.687Z" transform="translate(17.778 16.347)" fill="#fff"/>
    <path id="Path_31553" data-name="Path 31553" d="M589.062,431.4C589.039,487.486,543.443,532.8,487,532.829c-55.419.03-101.768-45.693-101.762-100.387.006-57.573,45.562-103.469,102.618-103.38C543.721,329.144,589.087,375.015,589.062,431.4Zm-10.281-.2c-.047-50.631-41.549-91.967-92.024-91.656-50.089.308-90.644,41.025-90.927,91.29-.283,50.285,41.361,91.789,92,91.686,49.67-.1,91-41.6,90.951-91.324Z" transform="translate(196.871 136.982)" fill="#fff"/>
    <circle id="Ellipse_4" data-name="Ellipse 4" cx="55.727" cy="55.727" r="55.727" transform="translate(628.294 512.196)" fill="#fff"/>
    <circle id="Ellipse_5" data-name="Ellipse 5" cx="55.727" cy="55.727" r="55.727" transform="translate(250.538 257.732)" fill="#fff"/>
  </g>
</svg>
