<svg xmlns="http://www.w3.org/2000/svg" width="14" height="14" viewBox="0 0 28.061 28.404">
  <g id="Group_3763" data-name="Group 3763" transform="translate(-1233.731 -70.787)">
    <path id="Path_7270" data-name="Path 7270" d="M1234.165,119.092h2.677a.434.434,0,0,1,.433.434v3.805h20.973v-3.805a.433.433,0,0,1,.432-.434h2.678a.434.434,0,0,1,.433.434v6.922a.434.434,0,0,1-.433.434h-27.194a.433.433,0,0,1-.434-.434v-6.922A.433.433,0,0,1,1234.165,119.092Z" transform="translate(0 -27.691)" fill="#fff"/>
    <g id="Group_3835" data-name="Group 3835" transform="translate(1237.027 70.788)">
      <path id="Rectangle_138" data-name="Rectangle 138" d="M1.187,0H8.222A1.187,1.187,0,0,1,9.409,1.187V2.11A1.186,1.186,0,0,1,8.224,3.3H1.186A1.186,1.186,0,0,1,0,2.109V1.187A1.187,1.187,0,0,1,1.187,0Z" transform="translate(6.03 0)" fill="#fff"/>
      <path id="Path_7271" data-name="Path 7271" d="M1246.453,82.652l4.863,5.7a1.286,1.286,0,0,0,1.745,0l4.863-5.7,4.863-5.7c.387-.454-.1-1.022-.873-1.022h-5.1V71.222a.435.435,0,0,0-.434-.434h-8.534a.434.434,0,0,0-.433.434V75.93h-4.953c-.775,0-1.26.568-.873,1.022Z" transform="translate(-1241.454 -66.672)" fill="#fff"/>
    </g>
  </g>
</svg>
