<svg xmlns="http://www.w3.org/2000/svg" width="11.332" height="18.855" viewBox="0 0 11.332 18.855">
  <g id="Group_7383" data-name="Group 7383" transform="translate(-164.504 -865.461)">
    <path id="Path_5942" data-name="Path 5942" d="M175.675,872.467a5.666,5.666,0,1,0-11.01,0,8.446,8.446,0,0,0,.619,2.2c.557,1.17,2.9,5.03,3.975,6.789-1.454.185-2.13.81-2.13,1.4,0,.7.952,1.456,3.041,1.456s3.041-.755,3.041-1.456c0-.59-.675-1.215-2.129-1.4,1.075-1.759,3.419-5.619,3.975-6.789A8.469,8.469,0,0,0,175.675,872.467Zm-3.341,10.393c-.059.166-.791.581-2.164.581-1.389,0-2.122-.426-2.166-.576.04-.145.637-.5,1.765-.574l.028.046a.437.437,0,0,0,.745,0l.028-.046C171.685,882.362,172.281,882.711,172.334,882.86Zm2.487-10.585c0,.011,0,.022-.006.034a7.809,7.809,0,0,1-.548,1.986c-.562,1.18-3.127,5.394-4.1,6.977-.97-1.583-3.535-5.8-4.1-6.977a7.81,7.81,0,0,1-.547-1.986c0-.012,0-.023-.007-.034a4.791,4.791,0,1,1,9.3,0Z" transform="translate(0 0)" fill="#fff"/>
    <path id="Path_5943" data-name="Path 5943" d="M172.436,870.083a3.041,3.041,0,1,0,3.041,3.04A3.044,3.044,0,0,0,172.436,870.083Zm0,5.206a2.165,2.165,0,1,1,2.166-2.165A2.168,2.168,0,0,1,172.436,875.289Z" transform="translate(-2.266 -2.142)" fill="#fff"/>
  </g>
</svg>
