<svg xmlns="http://www.w3.org/2000/svg" width="511.988" height="749" viewBox="0 0 511.988 749">
  <g id="Group_21409" data-name="Group 21409" transform="translate(-10069 -3046)">
    <g id="image" transform="translate(10069 3045.508)">
      <path id="Path_49187" data-name="Path 49187" d="M133.32,373.828a79.877,79.877,0,0,1-75.563-54.422l-.746-2.453a77.867,77.867,0,0,1-3.691-23.125V148.375L1.566,321.133a48.448,48.448,0,0,0,33.961,58.773L365.406,468.25a48.935,48.935,0,0,0,12.289,1.578c21.246,0,40.66-14.1,46.1-34.883l19.219-61.117Zm0,0" fill="#14356b"/>
      <path id="Path_49188" data-name="Path 49188" d="M191.988,149.828A42.668,42.668,0,1,0,149.32,107.16,42.708,42.708,0,0,0,191.988,149.828Zm0,0" fill="#14356b"/>
      <path id="Path_49189" data-name="Path 49189" d="M458.652.492h-320A53.41,53.41,0,0,0,85.32,53.828V288.492a53.41,53.41,0,0,0,53.332,53.336h320a53.411,53.411,0,0,0,53.336-53.336V53.828A53.411,53.411,0,0,0,458.652.492Zm-320,42.668h320A10.669,10.669,0,0,1,469.32,53.828V205.273l-67.391-78.637c-7.148-8.383-17.5-12.863-28.609-13.117a37.289,37.289,0,0,0-28.5,13.461l-79.234,95.1-25.813-25.75a37.446,37.446,0,0,0-52.906,0l-58.879,58.859V53.828A10.669,10.669,0,0,1,138.652,43.16Zm0,0" fill="#14356b"/>
    </g>
    <text id="no_image_available" data-name="no image 
available" transform="translate(10096 3648)" fill="#14356b" font-size="101" font-family="MyriadPro-Regular, Myriad Pro"><tspan x="0" y="0">NO IMAGE </tspan><tspan x="0" y="122">AVAILABLE</tspan></text>
  </g>
</svg>
