<svg xmlns="http://www.w3.org/2000/svg" width="1841.493" height="2086.446" viewBox="0 0 1841.493 2086.446">
  <g id="Group_21410" data-name="Group 21410" transform="translate(-927.467 -1126.16)">
    <g id="Group_21263" data-name="Group 21263">
      <circle id="Ellipse_135" data-name="Ellipse 135" cx="675" cy="675" r="675" transform="translate(1103.093 1325)" fill="#f4f4f7"/>
    </g>
    <g id="Group_21309" data-name="Group 21309">
      <g id="Group_21280" data-name="Group 21280">
        <g id="Group_21264" data-name="Group 21264">
          <path id="Path_49168" data-name="Path 49168" d="M1794.89,2308.319V2713.5a127.021,127.021,0,0,1-127.021,127.021H1054.48a94.426,94.426,0,0,0-94.426,94.426v261.361a16.294,16.294,0,0,1-16.293,16.294h0a16.294,16.294,0,0,1-16.294-16.294V2934.951a127.013,127.013,0,0,1,127.013-127.013h613.4a94.418,94.418,0,0,0,94.418-94.418v-405.2Z" fill="#14356b"/>
        </g>
        <g id="Group_21279" data-name="Group 21279">
          <g id="Group_21265" data-name="Group 21265">
            <path id="Path_49169" data-name="Path 49169" d="M1831.55,2395.774v64.933a28.072,28.072,0,0,1-28.071,28.071H1753.7a28,28,0,0,1-21.357-9.859v-.008a27.943,27.943,0,0,1-6.706-18.2v-64.933Z" fill="#162b60"/>
          </g>
          <g id="Group_21271" data-name="Group 21271">
            <g id="Group_21268" data-name="Group 21268">
              <g id="Group_21266" data-name="Group 21266">
                <path id="Path_49170" data-name="Path 49170" d="M1886.877,2244.411v129.705a36.273,36.273,0,0,1-36.277,36.268H1706.579a36.271,36.271,0,0,1-36.268-36.268V2244.411Z" fill="#264593"/>
              </g>
              <g id="Group_21267" data-name="Group 21267">
                <rect id="Rectangle_2224" data-name="Rectangle 2224" width="251.878" height="28.557" rx="4.762" transform="translate(1904.531 2244.411) rotate(180)" fill="#1c387c"/>
              </g>
            </g>
            <g id="Group_21269" data-name="Group 21269">
              <path id="Path_49171" data-name="Path 49171" d="M1746.092,2215.855h-36.909v-88.272a18.454,18.454,0,0,1,18.454-18.454h0a18.455,18.455,0,0,1,18.455,18.454Z" fill="#141e41"/>
            </g>
            <g id="Group_21270" data-name="Group 21270">
              <path id="Rectangle_2225" data-name="Rectangle 2225" d="M18.454,0h0A18.454,18.454,0,0,1,36.909,18.454v88.271a0,0,0,0,1,0,0H0a0,0,0,0,1,0,0V18.454A18.454,18.454,0,0,1,18.454,0Z" transform="translate(1811.092 2109.129)" fill="#141e41"/>
            </g>
          </g>
          <g id="Group_21272" data-name="Group 21272">
            <path id="Path_49172" data-name="Path 49172" d="M1886.877,2244.411v129.705a36.273,36.273,0,0,1-36.277,36.268H1706.579a36.271,36.271,0,0,1-36.268-36.268c155.51-10.8,169.794-129.705,169.794-129.705Z" fill="#1c387c"/>
          </g>
          <g id="Group_21273" data-name="Group 21273">
            <rect id="Rectangle_2226" data-name="Rectangle 2226" width="216.565" height="10.459" transform="translate(1670.311 2244.411)" fill="#162b60"/>
          </g>
          <g id="Group_21274" data-name="Group 21274">
            <path id="Path_49173" data-name="Path 49173" d="M1886.877,2299.233v74.883a36.273,36.273,0,0,1-36.277,36.268H1749.5C1851.595,2410.384,1886.877,2299.233,1886.877,2299.233Z" fill="#162b60"/>
          </g>
          <g id="Group_21275" data-name="Group 21275">
            <rect id="Rectangle_2227" data-name="Rectangle 2227" width="105.908" height="6.778" transform="translate(1725.638 2410.384)" fill="#141e41"/>
          </g>
          <g id="Group_21276" data-name="Group 21276">
            <rect id="Rectangle_2228" data-name="Rectangle 2228" width="36.909" height="12.922" transform="translate(1709.183 2202.933)" fill="#0f1222"/>
          </g>
          <g id="Group_21277" data-name="Group 21277">
            <rect id="Rectangle_2229" data-name="Rectangle 2229" width="36.909" height="12.922" transform="translate(1811.092 2202.933)" fill="#0f1222"/>
          </g>
          <g id="Group_21278" data-name="Group 21278">
            <path id="Path_49174" data-name="Path 49174" d="M1831.55,2410.384v50.323a28.072,28.072,0,0,1-28.071,28.071H1753.7a28,28,0,0,1-21.357-9.859v-.008c77.588,9.517,89.436-68.527,89.436-68.527Z" fill="#141e41"/>
          </g>
        </g>
      </g>
      <g id="Group_21293" data-name="Group 21293">
        <g id="Group_21281" data-name="Group 21281">
          <path id="Path_49175" data-name="Path 49175" d="M2768.96,1142.455h0a16.3,16.3,0,0,1-16.295,16.3H1889.32a94.43,94.43,0,0,0-94.43,94.43v428.19H1762.3V1253.18a127.015,127.015,0,0,1,127.02-127.02h863.345A16.3,16.3,0,0,1,2768.96,1142.455Z" fill="#14356b"/>
        </g>
        <g id="Group_21292" data-name="Group 21292">
          <g id="Group_21282" data-name="Group 21282">
            <path id="Path_49176" data-name="Path 49176" d="M1831.55,1644.7v-64.934a28.073,28.073,0,0,0-28.071-28.071H1753.7a28,28,0,0,0-21.357,9.86v.008a27.938,27.938,0,0,0-6.706,18.2V1644.7Z" fill="#162b60"/>
          </g>
          <g id="Group_21286" data-name="Group 21286">
            <g id="Group_21285" data-name="Group 21285">
              <g id="Group_21283" data-name="Group 21283">
                <path id="Path_49177" data-name="Path 49177" d="M1886.877,1796.067v-129.7a36.272,36.272,0,0,0-36.277-36.268H1706.579a36.27,36.27,0,0,0-36.268,36.268v129.7Z" fill="#264593"/>
              </g>
              <g id="Group_21284" data-name="Group 21284">
                <rect id="Rectangle_2230" data-name="Rectangle 2230" width="251.878" height="28.557" rx="4.762" transform="translate(1904.531 1824.624) rotate(180)" fill="#1c387c"/>
              </g>
            </g>
          </g>
          <g id="Group_21287" data-name="Group 21287">
            <path id="Path_49178" data-name="Path 49178" d="M1886.877,1796.067v-129.7a36.272,36.272,0,0,0-36.277-36.268H1706.579a36.27,36.27,0,0,0-36.268,36.268c155.51,10.8,169.794,129.7,169.794,129.7Z" fill="#1c387c"/>
          </g>
          <g id="Group_21288" data-name="Group 21288">
            <rect id="Rectangle_2231" data-name="Rectangle 2231" width="216.565" height="10.459" transform="translate(1670.311 1785.608)" fill="#162b60"/>
          </g>
          <g id="Group_21289" data-name="Group 21289">
            <path id="Path_49179" data-name="Path 49179" d="M1886.877,1741.246v-74.883a36.272,36.272,0,0,0-36.277-36.268H1749.5C1851.595,1630.095,1886.877,1741.246,1886.877,1741.246Z" fill="#162b60"/>
          </g>
          <g id="Group_21290" data-name="Group 21290">
            <rect id="Rectangle_2232" data-name="Rectangle 2232" width="105.908" height="6.778" transform="translate(1725.638 1623.317)" fill="#141e41"/>
          </g>
          <g id="Group_21291" data-name="Group 21291">
            <path id="Path_49180" data-name="Path 49180" d="M1831.55,1630.095v-50.324a28.073,28.073,0,0,0-28.071-28.071H1753.7a28,28,0,0,0-21.357,9.86v.008c77.588-9.518,89.436,68.527,89.436,68.527Z" fill="#141e41"/>
          </g>
        </g>
      </g>
      <g id="Group_21308" data-name="Group 21308">
        <g id="Group_21300" data-name="Group 21300">
          <g id="Group_21295" data-name="Group 21295">
            <g id="Group_21294" data-name="Group 21294">
              <path id="Path_49181" data-name="Path 49181" d="M1494.532,1937.878h-67.057a9.231,9.231,0,0,1,0-18.462h67.057a9.231,9.231,0,0,1,0,18.462Z" fill="#264593"/>
            </g>
          </g>
          <g id="Group_21297" data-name="Group 21297">
            <g id="Group_21296" data-name="Group 21296">
              <path id="Path_49182" data-name="Path 49182" d="M1579.641,1852.769a9.23,9.23,0,0,1-9.231-9.231v-67.057a9.231,9.231,0,0,1,18.462,0v67.057A9.231,9.231,0,0,1,1579.641,1852.769Z" fill="#264593"/>
            </g>
          </g>
          <g id="Group_21299" data-name="Group 21299">
            <g id="Group_21298" data-name="Group 21298">
              <path id="Path_49183" data-name="Path 49183" d="M1518.108,1876.345a9.2,9.2,0,0,1-6.527-2.7l-46.065-46.064a9.231,9.231,0,0,1,13.054-13.055l46.065,46.065a9.231,9.231,0,0,1-6.527,15.758Z" fill="#264593"/>
            </g>
          </g>
        </g>
        <g id="Group_21307" data-name="Group 21307">
          <g id="Group_21302" data-name="Group 21302">
            <g id="Group_21301" data-name="Group 21301">
              <path id="Path_49184" data-name="Path 49184" d="M2062.652,2145.555h67.057a9.231,9.231,0,0,1,0,18.462h-67.057a9.231,9.231,0,1,1,0-18.462Z" fill="#264593"/>
            </g>
          </g>
          <g id="Group_21304" data-name="Group 21304">
            <g id="Group_21303" data-name="Group 21303">
              <path id="Path_49185" data-name="Path 49185" d="M1977.543,2230.664a9.231,9.231,0,0,1,9.231,9.231v67.057a9.231,9.231,0,1,1-18.462,0V2239.9A9.231,9.231,0,0,1,1977.543,2230.664Z" fill="#264593"/>
            </g>
          </g>
          <g id="Group_21306" data-name="Group 21306">
            <g id="Group_21305" data-name="Group 21305">
              <path id="Path_49186" data-name="Path 49186" d="M2039.076,2207.088a9.2,9.2,0,0,1,6.527,2.7l46.065,46.065a9.231,9.231,0,0,1-13.054,13.054l-46.065-46.065a9.231,9.231,0,0,1,6.527-15.758Z" fill="#264593"/>
            </g>
          </g>
        </g>
      </g>
    </g>
  </g>
</svg>
