<svg id="Group_3830" data-name="Group 3830" xmlns="http://www.w3.org/2000/svg" width="37.537" height="37.537" viewBox="0 0 37.537 37.537">
  <path id="Path_7401" data-name="Path 7401" d="M312.37,387.475a18.769,18.769,0,1,0,18.768-18.768A18.768,18.768,0,0,0,312.37,387.475Zm33.263,0a14.494,14.494,0,1,1-14.494-14.494A14.494,14.494,0,0,1,345.633,387.475Z" transform="translate(-312.37 -368.707)" fill="#11044c"/>
  <path id="Path_7402" data-name="Path 7402" d="M348.615,383.544v11a.583.583,0,1,0,1.167,0v-11a.583.583,0,1,0-1.167,0Z" transform="translate(-330.512 -375.842)" fill="#11044c"/>
  <path id="Path_7403" data-name="Path 7403" d="M328.814,410.289c-.3.124-.519.27-.5.328s.285,0,.582-.121l10.152-4.23c.3-.123.519-.27.495-.327s-.284,0-.581.121Z" transform="translate(-320.352 -387.331)" fill="#11044c"/>
  <path id="Path_7404" data-name="Path 7404" d="M349.487,404.6a.853.853,0,1,0,0,1.706h7.21a.853.853,0,0,0,0-1.706Z" transform="translate(-330.521 -386.673)" fill="#11044c"/>
  <path id="Path_7405" data-name="Path 7405" d="M347.215,404.635a1.452,1.452,0,1,0,1.452-1.452A1.452,1.452,0,0,0,347.215,404.635Z" transform="translate(-329.811 -385.964)" fill="#11044c"/>
</svg>
