<svg xmlns="http://www.w3.org/2000/svg" width="83.827" height="67.297" viewBox="0 0 83.827 67.297">
  <defs>
    <style>
      .cls-1 {
        fill: none;
      }

      .cls-1, .cls-2, .cls-3 {
        stroke: #fff;
      }

      .cls-2 {
        fill: #fff;
      }

      .cls-3 {
        fill: #00adef;
      }
    </style>
  </defs>
  <g id="Group_29283" data-name="Group 29283" transform="translate(-369.983 -512.136)">
    <g id="Group_27018" data-name="Group 27018" transform="translate(370.483 512.636)">
      <g id="Group_26153" data-name="Group 26153">
        <g id="Group_26095" data-name="Group 26095" transform="translate(17.885 9.604)">
          <g id="Group_26093" data-name="Group 26093" transform="translate(0.68 0.68)">
            <path id="Path_54173" data-name="Path 54173" class="cls-1" d="M401.1,288.458a22.859,22.859,0,1,1-22.853,22.866A22.854,22.854,0,0,1,401.1,288.458Z" transform="translate(-378.243 -288.458)"/>
          </g>
          <g id="Group_26094" data-name="Group 26094">
            <path id="Path_54174" data-name="Path 54174" class="cls-2" d="M401.126,334.888a23.54,23.54,0,1,1,23.524-23.534A23.561,23.561,0,0,1,401.126,334.888Zm0-45.72a22.179,22.179,0,1,0,22.162,22.185A22.2,22.2,0,0,0,401.126,289.168Z" transform="translate(-377.593 -287.808)"/>
          </g>
        </g>
        <g id="Group_26098" data-name="Group 26098" transform="translate(22.481 14.204)">
          <g id="Group_26096" data-name="Group 26096" transform="translate(0.681 0.681)">
            <path id="Path_54175" data-name="Path 54175" class="cls-1" d="M400.892,292.855a18.259,18.259,0,1,1-18.256,18.264A18.258,18.258,0,0,1,400.892,292.855Z" transform="translate(-382.636 -292.855)"/>
          </g>
          <g id="Group_26097" data-name="Group 26097">
            <path id="Path_54176" data-name="Path 54176" class="cls-1" d="M400.922,330.083a18.94,18.94,0,1,1,18.925-18.934A18.957,18.957,0,0,1,400.922,330.083Zm0-36.518a17.579,17.579,0,1,0,17.563,17.584A17.6,17.6,0,0,0,400.922,293.565Z" transform="translate(-381.985 -292.204)"/>
          </g>
        </g>
        <g id="Group_26119" data-name="Group 26119" transform="translate(47.655 3.55)">
          <path id="Path_54195" data-name="Path 54195" class="cls-2" d="M406.72,290.508a.68.68,0,0,1-.68-.681V282.7a.68.68,0,0,1,.68-.68h15.111a.68.68,0,0,1,0,1.36H407.4v6.443A.681.681,0,0,1,406.72,290.508Z" transform="translate(-406.04 -282.023)"/>
        </g>
        <g id="Group_26120" data-name="Group 26120" transform="translate(18.701 3.55)">
          <path id="Path_54196" data-name="Path 54196" class="cls-2" d="M394.16,290.508a.68.68,0,0,1-.68-.681v-6.443H379.052a.68.68,0,0,1,0-1.36H394.16a.68.68,0,0,1,.68.68v7.123A.68.68,0,0,1,394.16,290.508Z" transform="translate(-378.372 -282.023)"/>
        </g>
        <g id="Group_26121" data-name="Group 26121" transform="translate(47.655 54.263)">
          <path id="Path_54197" data-name="Path 54197" class="cls-2" d="M421.831,338.967H406.72a.68.68,0,0,1-.68-.68v-7.121a.681.681,0,1,1,1.361,0v6.44h14.43a.681.681,0,0,1,0,1.361Z" transform="translate(-406.04 -330.484)"/>
        </g>
        <g id="Group_26122" data-name="Group 26122" transform="translate(18.701 54.263)">
          <path id="Path_54198" data-name="Path 54198" class="cls-2" d="M394.16,338.967H379.052a.681.681,0,0,1,0-1.361H393.48v-6.44a.68.68,0,1,1,1.36,0v7.121A.68.68,0,0,1,394.16,338.967Z" transform="translate(-378.372 -330.484)"/>
        </g>
        <g id="Group_26125" data-name="Group 26125" transform="translate(7.086 28.704)">
          <g id="Group_26123" data-name="Group 26123" transform="translate(0.681 0.68)">
            <line id="Line_27" data-name="Line 27" class="cls-3" x2="11.083"/>
          </g>
          <g id="Group_26124" data-name="Group 26124">
            <path id="Path_54199" data-name="Path 54199" class="cls-2" d="M379.038,307.42H367.954a.68.68,0,1,1,0-1.36h11.083a.68.68,0,1,1,0,1.36Z" transform="translate(-367.273 -306.06)"/>
          </g>
        </g>
        <g id="Group_26126" data-name="Group 26126" transform="translate(63.294 28.704)">
          <path id="Path_54200" data-name="Path 54200" class="cls-2" d="M432.738,307.42H421.666a.68.68,0,1,1,0-1.36h11.072a.68.68,0,1,1,0,1.36Z" transform="translate(-420.985 -306.06)"/>
        </g>
        <g id="Group_26127" data-name="Group 26127" transform="translate(9.25 40.852)">
          <path id="Path_54201" data-name="Path 54201" class="cls-2" d="M380.341,319.03H370.021a.681.681,0,0,1,0-1.361h10.319a.681.681,0,1,1,0,1.361Z" transform="translate(-369.341 -317.669)"/>
        </g>
        <g id="Group_26128" data-name="Group 26128" transform="translate(62.034 40.852)">
          <path id="Path_54202" data-name="Path 54202" class="cls-2" d="M430.79,319.03H420.462a.681.681,0,1,1,0-1.361H430.79a.681.681,0,0,1,0,1.361Z" transform="translate(-419.781 -317.669)"/>
        </g>
        <g id="Group_26131" data-name="Group 26131" transform="translate(62.765)">
          <g id="Group_26129" data-name="Group 26129" transform="translate(0.681 0.68)">
            <path id="Path_54203" data-name="Path 54203" class="cls-2" d="M424.677,279.281a3.55,3.55,0,1,1-3.547,3.55A3.55,3.55,0,0,1,424.677,279.281Z" transform="translate(-421.13 -279.281)"/>
          </g>
          <g id="Group_26130" data-name="Group 26130">
            <path id="Path_54204" data-name="Path 54204" class="cls-2" d="M424.707,287.093a4.231,4.231,0,1,1,4.231-4.232A4.236,4.236,0,0,1,424.707,287.093Zm0-7.1a2.869,2.869,0,1,0,2.87,2.868A2.87,2.87,0,0,0,424.707,279.992Z" transform="translate(-420.479 -278.631)"/>
          </g>
        </g>
        <g id="Group_26134" data-name="Group 26134" transform="translate(74.366 25.154)">
          <g id="Group_26132" data-name="Group 26132" transform="translate(0.681 0.68)">
            <path id="Path_54205" data-name="Path 54205" class="cls-2" d="M435.765,303.318a3.545,3.545,0,1,1-3.549,3.55A3.552,3.552,0,0,1,435.765,303.318Z" transform="translate(-432.216 -303.318)"/>
          </g>
          <g id="Group_26133" data-name="Group 26133">
            <path id="Path_54206" data-name="Path 54206" class="cls-2" d="M435.795,311.119a4.226,4.226,0,1,1,4.231-4.221A4.231,4.231,0,0,1,435.795,311.119Zm0-7.09a2.864,2.864,0,1,0,2.871,2.868A2.872,2.872,0,0,0,435.795,304.029Z" transform="translate(-431.565 -302.668)"/>
          </g>
        </g>
        <g id="Group_26137" data-name="Group 26137" transform="translate(72.362 37.302)">
          <g id="Group_26135" data-name="Group 26135" transform="translate(0.681 0.681)">
            <path id="Path_54207" data-name="Path 54207" class="cls-2" d="M433.851,314.927a3.551,3.551,0,1,1-3.55,3.55A3.55,3.55,0,0,1,433.851,314.927Z" transform="translate(-430.301 -314.927)"/>
          </g>
          <g id="Group_26136" data-name="Group 26136">
            <path id="Path_54208" data-name="Path 54208" class="cls-2" d="M433.881,322.739a4.231,4.231,0,1,1,4.231-4.232A4.236,4.236,0,0,1,433.881,322.739Zm0-7.1a2.87,2.87,0,1,0,2.869,2.869A2.873,2.873,0,0,0,433.881,315.637Z" transform="translate(-429.65 -314.276)"/>
          </g>
        </g>
        <g id="Group_26140" data-name="Group 26140" transform="translate(62.765 57.836)">
          <g id="Group_26138" data-name="Group 26138" transform="translate(0.681 0.68)">
            <path id="Path_54209" data-name="Path 54209" class="cls-2" d="M424.677,334.548a3.55,3.55,0,1,1-3.547,3.55A3.55,3.55,0,0,1,424.677,334.548Z" transform="translate(-421.13 -334.548)"/>
          </g>
          <g id="Group_26139" data-name="Group 26139">
            <path id="Path_54210" data-name="Path 54210" class="cls-2" d="M424.707,342.359a4.23,4.23,0,1,1,4.231-4.231A4.235,4.235,0,0,1,424.707,342.359Zm0-7.1a2.87,2.87,0,1,0,2.87,2.869A2.871,2.871,0,0,0,424.707,335.258Z" transform="translate(-420.479 -333.898)"/>
          </g>
        </g>
        <g id="Group_26143" data-name="Group 26143" transform="translate(11.601 57.836)">
          <g id="Group_26141" data-name="Group 26141" transform="translate(0.68 0.68)">
            <path id="Path_54211" data-name="Path 54211" class="cls-2" d="M375.788,334.548a3.55,3.55,0,1,1-3.55,3.55A3.551,3.551,0,0,1,375.788,334.548Z" transform="translate(-372.238 -334.548)"/>
          </g>
          <g id="Group_26142" data-name="Group 26142">
            <path id="Path_54212" data-name="Path 54212" class="cls-2" d="M375.818,342.359a4.23,4.23,0,1,1,4.231-4.231A4.235,4.235,0,0,1,375.818,342.359Zm0-7.1a2.87,2.87,0,1,0,2.869,2.869A2.872,2.872,0,0,0,375.818,335.258Z" transform="translate(-371.588 -333.898)"/>
          </g>
        </g>
        <g id="Group_26146" data-name="Group 26146" transform="translate(2.151 37.302)">
          <g id="Group_26144" data-name="Group 26144" transform="translate(0.68 0.681)">
            <path id="Path_54213" data-name="Path 54213" class="cls-2" d="M366.757,314.927a3.551,3.551,0,1,1-3.55,3.55A3.549,3.549,0,0,1,366.757,314.927Z" transform="translate(-363.207 -314.927)"/>
          </g>
          <g id="Group_26145" data-name="Group 26145">
            <path id="Path_54214" data-name="Path 54214" class="cls-2" d="M366.787,322.739a4.231,4.231,0,1,1,4.231-4.232A4.235,4.235,0,0,1,366.787,322.739Zm0-7.1a2.87,2.87,0,1,0,2.869,2.869A2.873,2.873,0,0,0,366.787,315.637Z" transform="translate(-362.557 -314.276)"/>
          </g>
        </g>
        <g id="Group_26149" data-name="Group 26149" transform="translate(0 25.154)">
          <g id="Group_26147" data-name="Group 26147" transform="translate(0.68 0.68)">
            <path id="Path_54215" data-name="Path 54215" class="cls-2" d="M364.7,303.318a3.545,3.545,0,1,1-3.548,3.55A3.548,3.548,0,0,1,364.7,303.318Z" transform="translate(-361.152 -303.318)"/>
          </g>
          <g id="Group_26148" data-name="Group 26148">
            <path id="Path_54216" data-name="Path 54216" class="cls-2" d="M364.73,311.119a4.226,4.226,0,1,1,4.219-4.221A4.229,4.229,0,0,1,364.73,311.119Zm0-7.09a2.864,2.864,0,1,0,2.858,2.868A2.87,2.87,0,0,0,364.73,304.029Z" transform="translate(-360.502 -302.668)"/>
          </g>
        </g>
        <g id="Group_26152" data-name="Group 26152" transform="translate(11.601)">
          <g id="Group_26150" data-name="Group 26150" transform="translate(0.68 0.68)">
            <path id="Path_54217" data-name="Path 54217" class="cls-2" d="M375.788,279.281a3.55,3.55,0,1,1-3.55,3.55A3.552,3.552,0,0,1,375.788,279.281Z" transform="translate(-372.238 -279.281)"/>
          </g>
          <g id="Group_26151" data-name="Group 26151">
            <path id="Path_54218" data-name="Path 54218" class="cls-2" d="M375.818,287.093a4.231,4.231,0,1,1,4.231-4.232A4.236,4.236,0,0,1,375.818,287.093Zm0-7.1a2.869,2.869,0,1,0,2.869,2.868A2.871,2.871,0,0,0,375.818,279.992Z" transform="translate(-371.588 -278.631)"/>
          </g>
        </g>
      </g>
    </g>
    <g id="Group_29213" data-name="Group 29213" transform="translate(403.811 534.202)">
      <path id="Path_7263" data-name="Path 7263" class="cls-1" d="M999.1,79.853c-.007-.056-.015-.112-.026-.167s-.019-.082-.03-.122l-.034-.134c-.009-.037-.018-.073-.029-.109-.016-.053-.036-.1-.056-.155l-.046-.124c-.008-.023-.016-.047-.026-.07-.03-.072-.066-.142-.1-.211l-.039-.08c-.006-.014-.013-.028-.02-.042-.045-.084-.1-.165-.149-.247-.009-.014-.019-.03-.029-.047-.071-.107-.135-.192-.2-.274l-.025-.034q-.107-.131-.234-.26l-.023-.025a3.787,3.787,0,0,0-2.662-1.117l-.044,0a3.818,3.818,0,0,0,0,7.636h.046a3.794,3.794,0,0,0,2.671-1.129c.1-.1.174-.185.243-.27l.029-.039c.064-.081.129-.165.188-.253.021-.035.031-.051.04-.066.052-.081.1-.163.149-.247.007-.013.013-.026.019-.039s.019-.041.029-.06l.016-.033c.033-.066.066-.131.094-.2.01-.022.017-.045.025-.067l.047-.127c.02-.051.039-.1.056-.155.011-.036.02-.072.028-.108l.036-.137c.01-.039.022-.078.03-.118.012-.056.019-.113.026-.169l.02-.133c0-.026.009-.051.012-.077.013-.129.019-.26.019-.39s-.006-.261-.019-.389c0-.026-.008-.051-.012-.077Z" transform="translate(-987.339 -72.814)"/>
      <path id="Path_7264" data-name="Path 7264" class="cls-2" d="M991.825,76.135c.038-.063.079-.13.135-.213a.345.345,0,0,0,.019-.033c.1-.19.257-.467.265-.481a8.5,8.5,0,0,0,.938-3.9c0-.147,0-.293-.009-.436,0-.063-.008-.125-.012-.187l-.008-.124c0-.04,0-.08-.008-.117s-.01-.1-.016-.153l-.012-.111c-.005-.053-.011-.106-.018-.159s-.013-.083-.02-.124l-.016-.106c-.009-.06-.018-.12-.029-.179s-.019-.1-.028-.142l-.026-.127c-.009-.044-.018-.088-.027-.131-.015-.063-.031-.125-.047-.187l-.027-.106c-.008-.033-.016-.065-.025-.1-.019-.068-.04-.134-.061-.2l-.025-.084c-.01-.033-.02-.066-.03-.1-.022-.067-.046-.131-.07-.2l-.031-.086c-.011-.031-.022-.061-.033-.089-.028-.072-.058-.143-.088-.215l-.034-.079c-.009-.022-.018-.045-.028-.066-.043-.095-.088-.188-.134-.281l-.032-.067c-.047-.092-.1-.183-.158-.292l-.024-.044c-.055-.1-.113-.19-.181-.3l-.018-.029c-.061-.094-.124-.186-.194-.284l-.018-.027c-.07-.1-.142-.19-.212-.277l-.017-.022c-.077-.1-.156-.188-.242-.285s-.169-.183-.257-.271l0,0a7.957,7.957,0,0,0-5.79-2.231,7.663,7.663,0,0,0-8.009,8.009,8.592,8.592,0,0,0,1.077,4.164l.12.221.014.025.2.309c.022.035.044.069.057.086l5.123,8.61h0l1.187,2a.354.354,0,0,0,.3.174h0a.354.354,0,0,0,.3-.177l1.158-1.993h0l5-8.6C991.75,76.258,991.786,76.2,991.825,76.135ZM989.66,71.6c0,.042-.011.084-.018.125l-.016.108c-.01.073-.02.145-.034.216-.011.054-.025.109-.041.163l-.029.116c-.013.051-.025.1-.041.152-.021.068-.046.133-.071.2l-.039.105c-.013.037-.026.074-.041.11-.034.082-.074.162-.114.242l-.035.072c-.013.027-.026.054-.04.081-.054.1-.115.2-.177.293-.022.039-.034.059-.047.078-.07.1-.146.2-.224.3-.014.019-.023.031-.032.042-.084.1-.177.206-.276.307a4.509,4.509,0,0,1-3.184,1.354l-.045,0a4.528,4.528,0,1,1,0-9.057l.047,0a4.5,4.5,0,0,1,3.169,1.34l.019.021c.1.1.19.2.269.3.011.013.02.026.029.039.082.1.158.2.228.308.012.017.024.038.036.058.074.115.134.212.189.313.015.028.027.055.04.083l.017.035c.053.1.1.189.132.276.016.037.029.075.043.113l.037.1c.026.065.05.131.071.2.016.049.028.1.041.153l.029.113c.016.055.03.11.042.167s.024.142.034.215l.016.107c.007.041.014.083.018.124a4.655,4.655,0,0,1,0,.922Z" transform="translate(-977.164 -63.499)"/>
    </g>
  </g>
</svg>
