<svg xmlns="http://www.w3.org/2000/svg" width="50.45" height="48.208" viewBox="0 0 50.45 48.208">
  <g id="Group_3885" data-name="Group 3885" transform="translate(0 0)">
    <path id="Path_7610" data-name="Path 7610" d="M159.978,171.376a.837.837,0,0,1-.837-.836V127.446a.836.836,0,0,1,1.112-.79l11.269,3.936a.837.837,0,0,1,.56.79V166.6a.836.836,0,0,1-.56.79l-11.269,3.937A.838.838,0,0,1,159.978,171.376Zm.836-42.752v40.737l9.6-3.352V131.976Z" transform="translate(-125.937 -123.168)" fill="#fff"/>
    <path id="Path_7611" data-name="Path 7611" d="M173.531,167.517a.836.836,0,0,1-.836-.836V128.608h-3.159a.836.836,0,1,1,0-1.673h4a.836.836,0,0,1,.836.836v38.91A.836.836,0,0,1,173.531,167.517Z" transform="translate(-128.222 -123.246)" fill="#fff"/>
    <path id="Path_7612" data-name="Path 7612" d="M165.578,153.19a1.31,1.31,0,1,1-1.31-1.31A1.31,1.31,0,0,1,165.578,153.19Z" transform="translate(-126.85 -129.21)" fill="#fff"/>
    <path id="Path_7613" data-name="Path 7613" d="M133.266,171.376a.842.842,0,0,1-.276-.046l-11.268-3.937a.836.836,0,0,1-.561-.79V131.382a.836.836,0,0,1,.561-.79l11.268-3.936a.836.836,0,0,1,1.112.79V170.54a.837.837,0,0,1-.836.836Zm-10.432-5.367,9.6,3.352V128.624l-9.6,3.352Z" transform="translate(-116.857 -123.168)" fill="#fff"/>
    <path id="Path_7614" data-name="Path 7614" d="M152.222,128.608h-11.17a.836.836,0,0,1,0-1.673h11.17a.836.836,0,0,1,0,1.673Z" transform="translate(-121.413 -123.246)" fill="#fff"/>
    <path id="Path_7615" data-name="Path 7615" d="M122,167.517a.836.836,0,0,1-.836-.836v-38.91a.836.836,0,0,1,.836-.836h4a.836.836,0,1,1,0,1.673h-3.159v38.073A.836.836,0,0,1,122,167.517Z" transform="translate(-116.857 -123.246)" fill="#fff"/>
    <path id="Path_7616" data-name="Path 7616" d="M165.118,166.358a.836.836,0,0,1-.836-.836V123.76h-47.1v41.762a.836.836,0,1,1-1.673,0v-42.6a.836.836,0,0,1,.836-.836h48.777a.837.837,0,0,1,.837.836v42.6A.837.837,0,0,1,165.118,166.358Z" transform="translate(-115.505 -122.087)" fill="#fff"/>
    <path id="Path_7617" data-name="Path 7617" d="M130.908,153.19a1.31,1.31,0,1,0,1.31-1.31A1.31,1.31,0,0,0,130.908,153.19Z" transform="translate(-119.187 -129.21)" fill="#fff"/>
  </g>
</svg>
