<svg id="Group_4025" data-name="Group 4025" xmlns="http://www.w3.org/2000/svg" width="53.257" height="70.699" viewBox="0 0 53.257 70.699">
  <path id="Path_7826" data-name="Path 7826" d="M523.6,100.959a22.385,22.385,0,0,1-28.38,0,19.667,19.667,0,0,0-12.44,18.284v8.783a7.088,7.088,0,0,0,7.088,7.088h39.081a7.088,7.088,0,0,0,7.088-7.088v-8.783A19.668,19.668,0,0,0,523.6,100.959Z" transform="translate(-482.78 -64.413)" fill="#fff"/>
  <path id="Path_7827" data-name="Path 7827" d="M522.664,86.216q-.454-.671-.96-1.3a19.412,19.412,0,0,0-2.226-2.336q-.6-.536-1.253-1.02a19.213,19.213,0,0,0-4.236-2.4q-.758-.309-1.55-.556a19.228,19.228,0,0,0-19.23,32.053q.652.64,1.362,1.22a19.374,19.374,0,0,0,1.857,1.319,19.157,19.157,0,0,0,10.293,3,19.5,19.5,0,0,0,1.95-.1A19.075,19.075,0,0,0,517,113.2c.126-.08.261-.148.385-.231q.76-.508,1.47-1.088c.471-.386.924-.793,1.355-1.22A19.293,19.293,0,0,0,522.6,107.8q.529-.772.981-1.595a19.226,19.226,0,0,0,.044-18.405Q523.183,86.984,522.664,86.216Z" transform="translate(-480.084 -77.741)" fill="#fff"/>
</svg>
