<svg id="Group_5935" data-name="Group 5935" xmlns="http://www.w3.org/2000/svg" width="38.41" height="37.871" viewBox="0 0 38.41 37.871">
  <path id="Path_7450" data-name="Path 7450" d="M135.559,255.042a.632.632,0,0,1-.184-1.236l12.861-3.911V222.318l-12.861-3.912a.632.632,0,0,1,.368-1.209l13.309,4.048a.631.631,0,0,1,.448.6v28.512a.632.632,0,0,1-.448.6l-13.309,4.048A.637.637,0,0,1,135.559,255.042Z" transform="translate(-123.611 -217.17)" fill="#90218a"/>
  <path id="Path_7451" data-name="Path 7451" d="M158.133,255.041H135.559a.632.632,0,0,1-.632-.632v-8.23a.632.632,0,0,1,1.264,0v7.6H157.5V218.433H136.191V226.3a.632.632,0,0,1-1.264,0v-8.5a.632.632,0,0,1,.632-.632h22.574a.632.632,0,0,1,.632.632V254.41A.632.632,0,0,1,158.133,255.041Z" transform="translate(-123.611 -217.17)" fill="#90218a"/>
  <path id="Path_7452" data-name="Path 7452" d="M153.258,250.8a.632.632,0,0,1-.632-.632V246.22a.632.632,0,1,1,1.263,0v3.945A.632.632,0,0,1,153.258,250.8Z" transform="translate(-131.138 -229.256)" fill="#90218a"/>
  <path id="Path_7453" data-name="Path 7453" d="M127.954,251.937a.631.631,0,0,1-.632-.632v-2.19h-7.96a.632.632,0,0,1,0-1.264h8.592a.632.632,0,0,1,.632.632V250l6.355-5.05-6.355-5.051v1.513a.632.632,0,0,1-.632.632h-8.592a.632.632,0,0,1,0-1.264h7.96v-2.19a.632.632,0,0,1,1.025-.495l8,6.359a.632.632,0,0,1,0,.989l-8,6.359A.629.629,0,0,1,127.954,251.937Z" transform="translate(-116.722 -226.01)" fill="#90218a"/>
  <path id="Path_7454" data-name="Path 7454" d="M123.533,250.284h-7.666a.632.632,0,0,1,0-1.264h7.666a.632.632,0,0,1,0,1.264Z" transform="translate(-115.236 -230.716)" fill="#90218a"/>
  <path id="Path_7455" data-name="Path 7455" d="M158.687,282.134H129.206a.632.632,0,1,1,0-1.263h29.481a.632.632,0,1,1,0,1.263Z" transform="translate(-120.909 -244.263)" fill="#90218a"/>
  <path id="Path_7456" data-name="Path 7456" d="M167.842,253.623a.632.632,0,0,1-.632-.632V227.3a.632.632,0,1,1,1.263,0v25.691A.632.632,0,0,1,167.842,253.623Z" transform="translate(-137.341 -221.21)" fill="#90218a"/>
</svg>
