<svg xmlns="http://www.w3.org/2000/svg" width="52.424" height="32.92" viewBox="0 0 52.424 32.92">
  <g id="Group_23097" data-name="Group 23097" transform="translate(-609.881 -936.907)" style="mix-blend-mode: overlay;isolation: isolate">
    <path id="Path_6336" data-name="Path 6336" d="M616.042,967.483l5.051-10.318,10.066.027,5.038,10.291a3.935,3.935,0,0,0,3.361,2.341,2.675,2.675,0,0,0,1.179-.269,2.943,2.943,0,0,0,1.546-2.115,4.34,4.34,0,0,0-.4-2.742l-12.461-25.45a4.3,4.3,0,0,0-1.969-2.015l-.1-.055a2.651,2.651,0,0,0-1.116-.269c-.038,0-.076,0-.124,0h-.076a2.682,2.682,0,0,0-1.153.271.8.8,0,0,0-.093.051,4.3,4.3,0,0,0-1.979,2.02L610.352,964.7a4.35,4.35,0,0,0-.4,2.742,2.946,2.946,0,0,0,1.544,2.115C613.069,970.322,615.106,969.392,616.042,967.483Zm-4.307-.4a2.559,2.559,0,0,1,.248-1.586l12.462-25.45a2.5,2.5,0,0,1,1.165-1.2l.055-.028.063-.035a.923.923,0,0,1,.344-.066h.1a.956.956,0,0,1,.326.06l.128.069a2.5,2.5,0,0,1,1.165,1.2l12.462,25.45a2.569,2.569,0,0,1,.248,1.586,1.17,1.17,0,0,1-.564.841c-.659.323-1.627-.245-2.113-1.237l-5.534-11.306-12.331-.032-5.551,11.338c-.488.992-1.454,1.56-2.113,1.237A1.17,1.17,0,0,1,611.734,967.082Z" fill="#fff"/>
    <path id="Path_6337" data-name="Path 6337" d="M622.2,940.743l-4.9,10.019,9.821.027Zm0,4.127,2,4.095-4-.011Z" transform="translate(3.922 2.03)" fill="#fff"/>
    <path id="Path_6338" data-name="Path 6338" d="M647.838,944.993h-.009a2.837,2.837,0,0,0-3.09,2.447,9.47,9.47,0,1,0,.518,17.026,3.329,3.329,0,0,0,2.528,1.083h.012a3.519,3.519,0,0,0,2.075-.644,2.343,2.343,0,0,0,1.014-1.869l.041-15.516a2.26,2.26,0,0,0-.687-1.6A3.4,3.4,0,0,0,647.838,944.993Zm1.233,18.039a.6.6,0,0,1-.274.411,1.7,1.7,0,0,1-1.008.292c-.69,0-1.22-.355-1.265-.671a.905.905,0,0,0-.529-.7.9.9,0,0,0-.37-.078.911.911,0,0,0-.5.153,7.656,7.656,0,1,1,.012-12.707.907.907,0,0,0,1.414-.749l0-1.47c0-.287.5-.7,1.277-.7h.006a1.636,1.636,0,0,1,1.118.392.48.48,0,0,1,.159.318Z" transform="translate(11.379 4.278)" fill="#fff"/>
    <path id="Path_6339" data-name="Path 6339" d="M639.542,948.535a5.671,5.671,0,1,0,5.671,5.67A5.676,5.676,0,0,0,639.542,948.535Zm0,9.526A3.856,3.856,0,1,1,643.4,954.2,3.86,3.86,0,0,1,639.542,958.061Z" transform="translate(12.693 6.152)" fill="#fff"/>
  </g>
</svg>
