<svg xmlns="http://www.w3.org/2000/svg" width="37.917" height="49.071" viewBox="0 0 37.917 49.071">
  <g id="Group_23079" data-name="Group 23079" transform="translate(-195.266 -844.939)" style="mix-blend-mode: overlay;isolation: isolate">
    <path id="Path_7328" data-name="Path 7328" d="M211.157,848.053c-7.193.7-13.98,3.958-14.281,11.82-.34,8.841,7.024,11.43,14.284,13.2l0,9.811c-3.582-1.565-3.7-5.746-3.7-5.746l-12.2,1.382c.94,8.562,8.327,11.724,15.895,12.221l0,3.273H213.7V844.939h-2.548Zm0,14.324c-.251-.1-.488-.208-.7-.319-3.167-1.631-2.731-4.941.7-6.13Z" transform="translate(0 0)" fill="#fff"/>
    <path id="Path_7329" data-name="Path 7329" d="M234.739,869.765c-3.641-3.222-8.6-4.652-12.788-5.719v-7.932a5.629,5.629,0,0,1,3,3.64L236.81,857.8c-1.342-5.465-7.117-9.1-14.86-9.778l0-3.081H219.9V894.01h2.06v-3.38c4.2-.412,7.915-1.483,9.91-2.681C238.192,884.15,240.723,875.058,234.739,869.765Zm-12.785,13.426,0-8.523c2.914,1.005,3.918,1.97,4.387,3.612C226.9,880.247,225.486,882.44,221.954,883.192Z" transform="translate(-4.952 0)" fill="#fff"/>
  </g>
</svg>
