<svg xmlns="http://www.w3.org/2000/svg" width="68.015" height="79.773" viewBox="0 0 68.015 79.773">
  <g id="Group_23076" data-name="Group 23076" transform="translate(-174.4 -211.013)" style="mix-blend-mode: overlay;isolation: isolate">
    <path id="Path_7064" data-name="Path 7064" d="M257.5,252.135a7.125,7.125,0,0,0-.925-.473,6.943,6.943,0,0,0-.656-.241q-.33-.1-.673-.173a6.062,6.062,0,0,1-3.32,1c-.182,0-.364-.008-.544-.025a5.984,5.984,0,0,1-1.1-.2,6.067,6.067,0,0,1-1.683-.769,7.147,7.147,0,0,0-4.048,2.442,6.058,6.058,0,0,1-.629,7.713,8.259,8.259,0,0,1,5.75,7.861v6.7a3.609,3.609,0,0,1-3.127,3.572V282.9a2.418,2.418,0,0,0,1.914.948h.429a2.43,2.43,0,0,0,2.43-2.431v-9.575a.608.608,0,0,1,1.215,0v9.575a2.427,2.427,0,0,0,2.431,2.431h.421a2.427,2.427,0,0,0,2.43-2.431V267.456h.624a2.493,2.493,0,0,0,1.77-.733,2.472,2.472,0,0,0,.306-.37,2.494,2.494,0,0,0,.428-1.4v-6.7A7.145,7.145,0,0,0,257.5,252.135Z" transform="translate(-18.529 -10.723)" fill="#fff"/>
    <path id="Path_7065" data-name="Path 7065" d="M213.283,238.811v6.7a3.592,3.592,0,0,1-1.686,3.034v6.708a6.1,6.1,0,0,1,5.291-4.556v-5.344a.608.608,0,0,1,1.215,0V250.7a6.1,6.1,0,0,1,5.282,4.529v-6.686a3.592,3.592,0,0,1-1.677-3.028v-6.7a8.253,8.253,0,0,1,4.782-7.475,7.148,7.148,0,0,0-4.345-6.158c-.214-.09-.433-.171-.657-.241s-.444-.126-.673-.173a6.028,6.028,0,0,1-6.647,0,7.147,7.147,0,0,0-5.668,6.57A8.254,8.254,0,0,1,213.283,238.811Z" transform="translate(-9.089 -3.665)" fill="#fff"/>
    <path id="Path_7066" data-name="Path 7066" d="M194.038,241.656a6.055,6.055,0,0,1-1.726,4.234,8.263,8.263,0,0,1,3.718,2.455,6.086,6.086,0,0,1,9.908,1.981c.013.03.022.062.034.092a2.532,2.532,0,0,0,1.652-2.345v-6.7a7.145,7.145,0,0,0-3.7-6.263l-.038-.023a7.089,7.089,0,0,0-1.062-.461,6.991,6.991,0,0,0-.893-.254,6.024,6.024,0,0,1-6.647,0,7.06,7.06,0,0,0-3.887,2.266A6.089,6.089,0,0,1,194.038,241.656Z" transform="translate(-4.529 -6.225)" fill="#fff"/>
    <path id="Path_7067" data-name="Path 7067" d="M228.008,241.371v6.7a2.529,2.529,0,0,0,1.65,2.344c.01-.024.017-.049.027-.073a6.085,6.085,0,0,1,9.916-2,8.268,8.268,0,0,1,3.713-2.454,6.078,6.078,0,0,1,.925-9.256,7.135,7.135,0,0,0-3.894-2.266,6.024,6.024,0,0,1-6.647,0,7.751,7.751,0,0,0-1.986.736A7.146,7.146,0,0,0,228.008,241.371Z" transform="translate(-14.288 -6.225)" fill="#fff"/>
    <path id="Path_7068" data-name="Path 7068" d="M185.67,275.968v-6.7a8.2,8.2,0,0,1,1.41-4.607,8.375,8.375,0,0,1,4.335-3.252,6.068,6.068,0,0,1-.623-7.715q-.215-.259-.452-.5a7.2,7.2,0,0,0-1.058-.874,7.123,7.123,0,0,0-2.544-1.072,6.063,6.063,0,0,1-2.775.975c-.181.016-.362.025-.545.025a6.077,6.077,0,0,1-3.326-1,7.145,7.145,0,0,0-5.69,7v6.7a2.5,2.5,0,0,0,2.5,2.5h.616v13.957a2.43,2.43,0,0,0,2.43,2.431h.43a2.43,2.43,0,0,0,2.43-2.431v-9.575a.608.608,0,0,1,1.215,0v9.575a2.43,2.43,0,0,0,2.43,2.431h.422a2.378,2.378,0,0,0,1.913-.948v-3.358A3.608,3.608,0,0,1,185.67,275.968Z" transform="translate(0 -10.723)" fill="#fff"/>
    <path id="Path_7069" data-name="Path 7069" d="M202.785,286.621v-6.7a8.194,8.194,0,0,1,.935-3.8,8.349,8.349,0,0,1,4.809-4.058,6.1,6.1,0,0,1-1.72-4.207,7.1,7.1,0,0,0-.852-.629c-.131-.082-.26-.166-.4-.24a7.743,7.743,0,0,0-1.96-.718,6.011,6.011,0,0,1-4.422.9,6.131,6.131,0,0,1-1.152-.337l-.064-.026a6.089,6.089,0,0,1-1.009-.533l-.027.007a7.1,7.1,0,0,0-1.922.706,7.157,7.157,0,0,0-3.741,6.287v6.7a2.5,2.5,0,0,0,2.5,2.5h.615v13.957a2.432,2.432,0,0,0,1.941,2.382,2.45,2.45,0,0,0,.49.049h.429a2.43,2.43,0,0,0,2.431-2.431v-9.575a.607.607,0,1,1,1.215,0v9.575a2.431,2.431,0,0,0,2.431,2.431h.421a2.4,2.4,0,0,0,2.163-1.344v-7.326A3.61,3.61,0,0,1,202.785,286.621Z" transform="translate(-4.495 -14.726)" fill="#fff"/>
    <path id="Path_7070" data-name="Path 7070" d="M243.988,279.97v-6.7a7.176,7.176,0,0,0-5.662-6.992l-.034-.009a6.08,6.08,0,0,1-1,.531l-.063.026a6.011,6.011,0,0,1-5.58-.556,7.71,7.71,0,0,0-1.962.722c-.136.074-.266.158-.4.24a7.141,7.141,0,0,0-.845.625,6.08,6.08,0,0,1-1.725,4.2,8.278,8.278,0,0,1,5.75,7.861v6.7a3.608,3.608,0,0,1-3.127,3.572v7.325a2.422,2.422,0,0,0,2.163,1.344h.429a2.425,2.425,0,0,0,1.719-.712,2.422,2.422,0,0,0,.712-1.719v-9.575a.61.61,0,0,1,.222-.468.629.629,0,0,1,.15-.092.6.6,0,0,1,.235-.048.612.612,0,0,1,.608.607v9.575a2.43,2.43,0,0,0,2.43,2.431h.421a2.431,2.431,0,0,0,2.431-2.431V282.474h.623A2.5,2.5,0,0,0,243.988,279.97Z" transform="translate(-13.944 -14.726)" fill="#fff"/>
    <path id="Path_7071" data-name="Path 7071" d="M225.772,290.807a2.469,2.469,0,0,0,.305-.37,2.474,2.474,0,0,0,.428-1.4v-6.7a7.157,7.157,0,0,0-4.366-6.588q-.321-.135-.657-.241c-.122-.038-.25-.065-.376-.1-.1-.026-.2-.056-.3-.077a6.132,6.132,0,0,1-.817.453,6.037,6.037,0,0,1-5.83-.451c-.1.021-.194.05-.291.075a7.146,7.146,0,0,0-5.4,6.925v6.7a2.471,2.471,0,0,0,2.286,2.481c.073.007.143.022.217.022h.615V305.5a2.43,2.43,0,0,0,2.431,2.43h.429a2.43,2.43,0,0,0,2.431-2.43v-9.575a.608.608,0,1,1,1.215,0V305.5a2.431,2.431,0,0,0,1.94,2.381,2.449,2.449,0,0,0,.49.049h.421a2.428,2.428,0,0,0,2.431-2.43V291.541H224c.072,0,.139-.015.209-.021a2.481,2.481,0,0,0,.766-.175A2.515,2.515,0,0,0,225.772,290.807Z" transform="translate(-9.081 -17.142)" fill="#fff"/>
    <circle id="Ellipse_14" data-name="Ellipse 14" cx="4.993" cy="4.993" r="4.993" transform="translate(189.084 218.059)" fill="#fff"/>
    <circle id="Ellipse_15" data-name="Ellipse 15" cx="4.993" cy="4.993" r="4.993" transform="translate(203.413 211.013)" fill="#fff"/>
    <circle id="Ellipse_16" data-name="Ellipse 16" cx="4.993" cy="4.993" r="4.993" transform="translate(217.743 218.058)" fill="#fff"/>
    <circle id="Ellipse_17" data-name="Ellipse 17" cx="4.993" cy="4.993" r="4.993" transform="translate(228.404 230.438)" fill="#fff"/>
    <path id="Path_7072" data-name="Path 7072" d="M236.155,252.514a4.993,4.993,0,1,0,4.994,4.994A4.993,4.993,0,0,0,236.155,252.514Z" transform="translate(-15.128 -11.061)" fill="#fff"/>
    <path id="Path_7073" data-name="Path 7073" d="M218.95,261.582a4.993,4.993,0,1,0,4.994,4.993A4.992,4.992,0,0,0,218.95,261.582Z" transform="translate(-10.543 -13.478)" fill="#fff"/>
    <circle id="Ellipse_18" data-name="Ellipse 18" cx="4.993" cy="4.993" r="4.993" transform="translate(190.793 241.453)" fill="#fff"/>
    <circle id="Ellipse_19" data-name="Ellipse 19" cx="4.993" cy="4.993" r="4.993" transform="translate(178.423 230.438)" fill="#fff"/>
  </g>
</svg>
