<svg xmlns="http://www.w3.org/2000/svg" width="67" height="42" viewBox="0 0 67 42">
  <g id="Icon_view" transform="translate(-0.086 0.391)" style="mix-blend-mode: overlay;isolation: isolate">
    <path id="Shape" d="M33.5,42C18.968,42,5.818,33.758,0,21,5.818,8.243,18.968,0,33.5,0S61.182,8.244,67,21C61.181,33.759,48.032,42,33.5,42Zm0-35c-8.209,0-14.887,6.281-14.887,14S25.291,35,33.5,35s14.887-6.28,14.887-14c0-.309-.01-.619-.03-.92a7.816,7.816,0,0,1-3.692.92,7.241,7.241,0,0,1-7.444-7,6.815,6.815,0,0,1,2.9-5.541A15.506,15.506,0,0,0,33.5,7Z" transform="translate(0.086 -0.391)" fill="#fff"/>
    <path id="Path" d="M14.935,7.467A7.467,7.467,0,1,1,7.467,0,7.467,7.467,0,0,1,14.935,7.467Z" transform="translate(27.469 14.543)" fill="#fff"/>
  </g>
</svg>
