<svg id="Group_7395" data-name="Group 7395" xmlns="http://www.w3.org/2000/svg" width="17" height="23" viewBox="0 0 25.49 35.665">
  <g id="Group_3215" data-name="Group 3215" transform="translate(0 0)">
    <g id="Group_3213" data-name="Group 3213">
      <path id="Path_6552" data-name="Path 6552" d="M560.406,587.02a3.627,3.627,0,0,1-3.1-1.732c-4.4-7.116-9.641-16.567-9.641-21.188a12.745,12.745,0,0,1,25.49,0c0,4.621-5.244,14.072-9.642,21.188A3.625,3.625,0,0,1,560.406,587.02Zm0-34.108A11.2,11.2,0,0,0,549.218,564.1c0,3.272,3.429,10.7,9.409,20.369a2.089,2.089,0,0,0,3.559,0c5.979-9.673,9.409-17.1,9.409-20.369A11.2,11.2,0,0,0,560.406,552.912Z" transform="translate(-547.661 -551.356)" fill="#fff"/>
    </g>
    <g id="Group_3214" data-name="Group 3214" transform="translate(6.066 5.253)">
      <path id="Path_6553" data-name="Path 6553" d="M564.175,573.23a6.678,6.678,0,1,1,6.679-6.678A6.686,6.686,0,0,1,564.175,573.23Zm0-11.8a5.122,5.122,0,1,0,5.122,5.121A5.128,5.128,0,0,0,564.175,561.431Z" transform="translate(-557.497 -559.874)" fill="#fff"/>
    </g>
  </g>
</svg>
