<svg xmlns="http://www.w3.org/2000/svg" width="65" height="88" viewBox="0 0 65.746 90.32">
  <g id="Group_6752" data-name="Group 6752" transform="translate(-171.072 -339.527)">
    <path id="Path_31778" data-name="Path 31778" d="M95.574,17.6,87.1,3.908H83.72l-1.9,8.894L87.1,26l8.946,10.879" transform="translate(89.777 372.153)" fill="none" stroke="#f4f4f4" stroke-width="1"/>
    <g id="Group_6748" data-name="Group 6748" transform="translate(171.289 340.232)">
      <g id="Group_6718" data-name="Group 6718" transform="translate(1.823 0)">
        <g id="Group_173" data-name="Group 173" transform="translate(0 0)">
          <g id="Group_169" data-name="Group 169" transform="translate(0 0)">
            <path id="Path_1315" data-name="Path 1315" d="M187.5,72.233c-1.854-22.059-24.106-22.446-24.106-22.446h-6.654s-22.252.387-24.106,22.446a36.417,36.417,0,0,0,.8,10.838,27.044,27.044,0,0,1,.539,3.465c.62,7.227,1.853,23,3.845,27.3,9.238,19.93,20.362,19.446,20.362,19.446h3.771s11.123.484,20.362-19.446c1.992-4.3,3.225-20.072,3.845-27.3a26.964,26.964,0,0,1,.539-3.465A36.418,36.418,0,0,0,187.5,72.233Z" transform="translate(-129.286 -49.787)" fill="none" stroke="#4fc98f" stroke-miterlimit="10" stroke-width="1"/>
            <g id="Group_167" data-name="Group 167" transform="translate(3.817 66.129)">
              <path id="Path_1316" data-name="Path 1316" d="M140.731,332.226s0,11.077-.483,13.979-5.225,8.8-5.225,8.8" transform="translate(-135.024 -332.226)" fill="none" stroke="#4fc98f" stroke-miterlimit="10" stroke-width="1"/>
              <path id="Path_1317" data-name="Path 1317" d="M340.934,332.226s0,11.077.483,13.979,5.225,8.8,5.225,8.8" transform="translate(-292.723 -332.226)" fill="none" stroke="#4fc98f" stroke-miterlimit="10" stroke-width="1"/>
            </g>
            <g id="Group_168" data-name="Group 168" transform="translate(0 36.287)">
              <path id="Path_1318" data-name="Path 1318" d="M123.489,206.223a3.555,3.555,0,0,0-2.186-1.432c-1.791-.3-3.486,2.391-2.035,8.873,1.414,6.314,1.361,10.424,6.1,10.543C124.5,218.288,123.888,210.915,123.489,206.223Z" transform="translate(-118.72 -204.769)" fill="none" stroke="#4fc98f" stroke-miterlimit="10" stroke-width="1"/>
              <path id="Path_1319" data-name="Path 1319" d="M357.3,204.791a3.555,3.555,0,0,0-2.186,1.432c-.4,4.691-1.014,12.065-1.875,17.984,4.736-.119,4.683-4.229,6.1-10.543C360.783,207.182,359.088,204.5,357.3,204.791Z" transform="translate(-298.326 -204.769)" fill="none" stroke="#4fc98f" stroke-miterlimit="10" stroke-width="1"/>
            </g>
          </g>
          <g id="Group_172" data-name="Group 172" transform="translate(0.25 0)">
            <line id="Line_1" data-name="Line 1" y2="20.443" transform="translate(30.527 68.47)" fill="none" stroke="#4fc98f" stroke-linecap="round" stroke-linejoin="round" stroke-width="1"/>
            <line id="Line_2" data-name="Line 2" y2="19.784" transform="translate(30.527 36.862)" fill="none" stroke="#4fc98f" stroke-linecap="round" stroke-linejoin="round" stroke-width="1"/>
            <line id="Line_3" data-name="Line 3" y2="10.221" transform="translate(30.527 0.094)" fill="none" stroke="#4fc98f" stroke-linecap="round" stroke-linejoin="round" stroke-width="1"/>
            <line id="Line_4" data-name="Line 4" x2="20.898" transform="translate(20.078 64.967)" fill="none" stroke="#4fc98f" stroke-linecap="round" stroke-linejoin="round" stroke-width="1"/>
            <g id="Group_170" data-name="Group 170">
              <path id="Path_1320" data-name="Path 1320" d="M188.537,211.644l-3.869,1.474H180.75l-3.727-1.91,3.628-2.13h4.063l.119.078v0Z" transform="translate(-163.622 -171.782)" fill="none" stroke="#4fc98f" stroke-linecap="round" stroke-linejoin="round" stroke-width="1"/>
              <path id="Path_1321" data-name="Path 1321" d="M165.619,220.033l2.274,4.886L147.1,235.9l10.732-14.39" transform="translate(-140.703 -180.172)" fill="none" stroke="#4fc98f" stroke-linecap="round" stroke-linejoin="round" stroke-width="1"/>
              <line id="Line_5" data-name="Line 5" x2="2.709" y2="6.482" transform="translate(14.321 30.815)" fill="none" stroke="#4fc98f" stroke-linecap="round" stroke-linejoin="round" stroke-width="1"/>
              <path id="Path_1322" data-name="Path 1322" d="M147.972,190.007l-8.883-1.685,9.8-6.926,10.159,1.064L162,186.234l-.242,9.094-3.822,8.417v2.128l4.257,2.153v5.007" transform="translate(-134.569 -150.582)" fill="none" stroke="#4fc98f" stroke-linecap="round" stroke-linejoin="round" stroke-width="1"/>
              <path id="Path_1323" data-name="Path 1323" d="M230.052,281.075H227.44l1.306-.919,4.015,2.709" transform="translate(-202.234 -226.218)" fill="none" stroke="#4fc98f" stroke-linecap="round" stroke-linejoin="round" stroke-width="1"/>
              <path id="Path_1324" data-name="Path 1324" d="M215.513,317.245l-2.9-.726-7.692,2.515,7.5,3.241s3.289.339,3.1.339" transform="translate(-184.986 -254.067)" fill="none" stroke="#4fc98f" stroke-linecap="round" stroke-linejoin="round" stroke-width="1"/>
              <path id="Path_1325" data-name="Path 1325" d="M188.584,276.85s-4.838,5.369-4.983,5.369-4.5,15.115-4.5,15.115l13.542-5.44" transform="translate(-165.216 -223.686)" fill="none" stroke="#4fc98f" stroke-linecap="round" stroke-linejoin="round" stroke-width="1"/>
              <line id="Line_6" data-name="Line 6" x2="2.902" y2="0.726" transform="translate(27.624 57.445)" fill="none" stroke="#4fc98f" stroke-linecap="round" stroke-linejoin="round" stroke-width="1"/>
              <path id="Path_1326" data-name="Path 1326" d="M181.5,100.793l-3.1-1.209,3.1-6.652L176.172,82.12l-11.8-13.865L175.447,95.81l.726-13.69s5.321-7.764,5.329-7.764-17.133-6.1-17.133-6.1L160.5,82.574" transform="translate(-150.967 -63.931)" fill="none" stroke="#4fc98f" stroke-linecap="round" stroke-linejoin="round" stroke-width="1"/>
              <path id="Path_1327" data-name="Path 1327" d="M146.053,141.583l4.837-12.172H135.384Z" transform="translate(-131.732 -110.768)" fill="none" stroke="#4fc98f" stroke-linecap="round" stroke-linejoin="round" stroke-width="1"/>
              <line id="Line_7" data-name="Line 7" x1="8.558" y2="7.373" transform="translate(21.969)" fill="none" stroke="#4fc98f" stroke-linecap="round" stroke-linejoin="round" stroke-width="1"/>
              <path id="Path_1328" data-name="Path 1328" d="M196.723,210.126a2.232,2.232,0,0,1-4.464,0,2.207,2.207,0,0,1,.261-1.048h3.863l.119.078v0A2.209,2.209,0,0,1,196.723,210.126Z" transform="translate(-175.291 -171.782)" fill="none" stroke="#4fc98f" stroke-linecap="round" stroke-linejoin="round" stroke-width="1"/>
              <path id="Path_1329" data-name="Path 1329" d="M167.373,369.691l-10.509-8.365c-.32.117,5.2-6.9,5.2-6.9l5.312,15.265,11.335-5.418L169.6,351.4" transform="translate(-148.173 -280.778)" fill="none" stroke="#4fc98f" stroke-linecap="round" stroke-linejoin="round" stroke-width="1"/>
              <line id="Line_8" data-name="Line 8" x2="1.566" y2="8.365" transform="translate(8.691 80.548)" fill="none" stroke="#4fc98f" stroke-linecap="round" stroke-linejoin="round" stroke-width="1"/>
              <line id="Line_9" data-name="Line 9" x1="4.677" y1="1.471" transform="translate(9.212 72.177)" fill="none" stroke="#4fc98f" stroke-linecap="round" stroke-linejoin="round" stroke-width="1"/>
              <path id="Path_1330" data-name="Path 1330" d="M119.787,213.662l1.5-.241,3.6,6.05-2.12,2.851,2.749,3.3" transform="translate(-119.787 -175.108)" fill="none" stroke="#4fc98f" stroke-linecap="round" stroke-linejoin="round" stroke-width="1"/>
              <line id="Line_10" data-name="Line 10" x1="0.803" y2="8.771" transform="translate(0.699 38.313)" fill="none" stroke="#4fc98f" stroke-linecap="round" stroke-linejoin="round" stroke-width="1"/>
              <path id="Path_1331" data-name="Path 1331" d="M126.368,251.437l-1.88,1.875s5.538,6.646,5.294,6.636l11.99,2.808,1.548,6.434,3.435-9.675" transform="translate(-123.387 -204.223)" fill="none" stroke="#4fc98f" stroke-linecap="round" stroke-linejoin="round" stroke-width="1"/>
            </g>
            <g id="Group_171" data-name="Group 171" transform="translate(30.535)">
              <path id="Path_1332" data-name="Path 1332" d="M274.2,211.644l3.869,1.474h3.918l3.727-1.91-3.628-2.13h-4.064l-.119.078v0Z" transform="translate(-268.583 -171.782)" fill="none" stroke="#4fc98f" stroke-linecap="round" stroke-linejoin="round" stroke-width="1"/>
              <path id="Path_1333" data-name="Path 1333" d="M266.766,220.033l-2.274,4.886L285.287,235.9l-10.732-14.39" transform="translate(-261.147 -180.172)" fill="none" stroke="#4fc98f" stroke-linecap="round" stroke-linejoin="round" stroke-width="1"/>
              <line id="Line_11" data-name="Line 11" x1="2.709" y2="6.482" transform="translate(13.505 30.815)" fill="none" stroke="#4fc98f" stroke-linecap="round" stroke-linejoin="round" stroke-width="1"/>
              <path id="Path_1334" data-name="Path 1334" d="M276.856,190.007l8.883-1.685-9.8-6.926-10.159,1.064-2.951,3.773.242,9.094,3.822,8.417v2.128l-4.257,2.153v5.007" transform="translate(-259.723 -150.582)" fill="none" stroke="#4fc98f" stroke-linecap="round" stroke-linejoin="round" stroke-width="1"/>
              <path id="Path_1335" data-name="Path 1335" d="M252.946,281.075h2.612l-1.306-.919-4.015,2.709" transform="translate(-250.229 -226.218)" fill="none" stroke="#4fc98f" stroke-linecap="round" stroke-linejoin="round" stroke-width="1"/>
              <path id="Path_1336" data-name="Path 1336" d="M250.21,317.245l2.9-.726,7.692,2.515-7.5,3.241s-3.29.339-3.1.339" transform="translate(-250.202 -254.067)" fill="none" stroke="#4fc98f" stroke-linecap="round" stroke-linejoin="round" stroke-width="1"/>
              <path id="Path_1337" data-name="Path 1337" d="M267.523,276.85s4.838,5.369,4.982,5.369,4.5,15.115,4.5,15.115l-13.542-5.44" transform="translate(-260.356 -223.686)" fill="none" stroke="#4fc98f" stroke-linecap="round" stroke-linejoin="round" stroke-width="1"/>
              <line id="Line_12" data-name="Line 12" x1="2.903" y2="0.726" transform="translate(0.008 57.445)" fill="none" stroke="#4fc98f" stroke-linecap="round" stroke-linejoin="round" stroke-width="1"/>
              <path id="Path_1338" data-name="Path 1338" d="M250.2,100.793l3.1-1.209-3.1-6.652,5.321-10.812,11.8-13.865L256.257,95.81l-.726-13.69s-5.321-7.764-5.329-7.764,17.133-6.1,17.133-6.1l3.87,14.319" transform="translate(-250.202 -63.931)" fill="none" stroke="#4fc98f" stroke-linecap="round" stroke-linejoin="round" stroke-width="1"/>
              <path id="Path_1339" data-name="Path 1339" d="M303.627,141.583l-4.837-12.172H314.3Z" transform="translate(-287.414 -110.768)" fill="none" stroke="#4fc98f" stroke-linecap="round" stroke-linejoin="round" stroke-width="1"/>
              <line id="Line_13" data-name="Line 13" x2="8.558" y2="7.373" transform="translate(0.008)" fill="none" stroke="#4fc98f" stroke-linecap="round" stroke-linejoin="round" stroke-width="1"/>
              <path id="Path_1340" data-name="Path 1340" d="M289.079,210.126a2.232,2.232,0,0,0,4.464,0,2.208,2.208,0,0,0-.261-1.048h-3.863l-.119.078v0A2.209,2.209,0,0,0,289.079,210.126Z" transform="translate(-279.976 -171.782)" fill="none" stroke="#4fc98f" stroke-linecap="round" stroke-linejoin="round" stroke-width="1"/>
              <path id="Path_1341" data-name="Path 1341" d="M261.537,369.691l10.509-8.365c.32.117-5.2-6.9-5.2-6.9l-5.312,15.265L250.2,364.273l9.1-12.877" transform="translate(-250.202 -280.778)" fill="none" stroke="#4fc98f" stroke-linecap="round" stroke-linejoin="round" stroke-width="1"/>
              <line id="Line_14" data-name="Line 14" x1="1.566" y2="8.365" transform="translate(20.277 80.548)" fill="none" stroke="#4fc98f" stroke-linecap="round" stroke-linejoin="round" stroke-width="1"/>
              <line id="Line_15" data-name="Line 15" y1="1.471" x2="4.677" transform="translate(16.646 72.177)" fill="none" stroke="#4fc98f" stroke-linecap="round" stroke-linejoin="round" stroke-width="1"/>
              <path id="Path_1342" data-name="Path 1342" d="M361.876,213.662l-1.5-.241-3.6,6.05,2.12,2.851-2.749,3.3" transform="translate(-331.341 -175.108)" fill="none" stroke="#4fc98f" stroke-linecap="round" stroke-linejoin="round" stroke-width="1"/>
              <line id="Line_16" data-name="Line 16" x2="0.803" y2="8.771" transform="translate(29.033 38.313)" fill="none" stroke="#4fc98f" stroke-linecap="round" stroke-linejoin="round" stroke-width="1"/>
              <path id="Path_1343" data-name="Path 1343" d="M301.2,251.437l1.88,1.875s-5.539,6.646-5.294,6.636l-11.99,2.808-1.548,6.434-3.435-9.675" transform="translate(-273.647 -204.223)" fill="none" stroke="#4fc98f" stroke-linecap="round" stroke-linejoin="round" stroke-width="1"/>
            </g>
            <line id="Line_17" data-name="Line 17" x2="6.692" transform="translate(27.181 44.747)" fill="none" stroke="#4fc98f" stroke-linecap="round" stroke-linejoin="round" stroke-width="1"/>
          </g>
        </g>
      </g>
      <g id="Group_6747" data-name="Group 6747" transform="translate(0 34.228)">
        <g id="Group_6746" data-name="Group 6746" transform="translate(0)">
          <g id="Group_6745" data-name="Group 6745" transform="translate(13.037 9.214)">
            <g id="Group_6730" data-name="Group 6730" transform="translate(0 0)">
              <g id="Group_6729" data-name="Group 6729">
                <path id="Path_31765" data-name="Path 31765" d="M134.945,170.481c5.009-1.342,11.134-2.694,16.143-4.036a14.317,14.317,0,0,1,3.337-.616,15.73,15.73,0,0,1,5.335,1.2,68.657,68.657,0,0,0,14.743,3.724s-.334,3.431-.6,5.081c-.72,4.449-1.366,10.81-.153,15.26,0,0-10.333,6.242-17.892,6.315-9.583.093-20.221-6.224-20.347-6.512-.087-.2.81-6.493.676-12.216A38.292,38.292,0,0,0,134.945,170.481Z" transform="translate(-134.945 -165.828)" fill="#f4f4f4"/>
              </g>
            </g>
            <g id="Group_6738" data-name="Group 6738" transform="translate(1.19 0.928)">
              <g id="Group_6737" data-name="Group 6737">
                <g id="Group_6731" data-name="Group 6731" transform="translate(0 4.266)">
                  <path id="Path_31766" data-name="Path 31766" d="M142.036,196.6a.086.086,0,0,1-.083-.065c-.054-.213-.087-.33-.087-.33a.086.086,0,0,1,.061-.106l.333-.089a.086.086,0,0,1,.044.166l-.249.066c.015.056.037.141.065.25a.086.086,0,0,1-.062.1Z" transform="translate(-141.862 -196.01)" fill="#bcbcbc"/>
                </g>
                <g id="Group_6732" data-name="Group 6732" transform="translate(0.991)">
                  <path id="Path_31767" data-name="Path 31767" d="M182.718,175.869h-.012q-.341-.049-.674-.1a.086.086,0,0,1,.027-.17q.333.052.673.1a.086.086,0,0,1-.012.171Zm-1.345-.21h-.015q-.339-.058-.672-.119a.086.086,0,1,1,.031-.169q.332.061.67.119a.086.086,0,0,1-.014.171Zm-33.663-.173a.086.086,0,0,1-.022-.169l.66-.171a.086.086,0,1,1,.043.167l-.659.171Zm32.323-.074-.017,0q-.336-.067-.668-.137a.086.086,0,0,1-.066-.1.087.087,0,0,1,.1-.066q.331.07.666.137a.086.086,0,0,1-.017.171Zm-31-.265a.086.086,0,0,1-.021-.169l.661-.166a.086.086,0,0,1,.042.167l-.661.166Zm29.671-.018-.019,0q-.334-.075-.664-.155a.086.086,0,0,1,.04-.167q.329.079.662.155a.086.086,0,0,1-.019.17Zm-28.348-.314a.086.086,0,0,1-.021-.17l.662-.163a.086.086,0,1,1,.041.167l-.662.163Zm27.025,0a.083.083,0,0,1-.021,0q-.331-.084-.66-.172a.086.086,0,0,1,.044-.166q.329.088.658.171a.086.086,0,0,1-.021.169Zm-25.7-.321a.086.086,0,0,1-.02-.17l.662-.161a.086.086,0,0,1,.041.167l-.662.161Zm24.386-.029a.089.089,0,0,1-.023,0q-.328-.091-.656-.187a.086.086,0,1,1,.048-.165q.327.1.654.186a.086.086,0,0,1-.023.169ZM153,174.167a.086.086,0,0,1-.02-.17l.662-.16a.086.086,0,0,1,.04.167l-.662.16Zm21.754-.086a.087.087,0,0,1-.025,0q-.325-.1-.652-.2a.086.086,0,1,1,.051-.164q.327.1.651.2a.086.086,0,0,1-.025.168Zm-20.429-.235a.086.086,0,0,1-.02-.17l.663-.16a.086.086,0,0,1,.04.167l-.662.16Zm19.128-.167a.085.085,0,0,1-.026,0l-.649-.207a.086.086,0,0,1,.053-.164l.648.207a.086.086,0,0,1-.026.168Zm-17.8-.154a.086.086,0,0,1-.02-.17l.663-.161a.086.086,0,1,1,.041.167l-.663.161Zm16.507-.264a.087.087,0,0,1-.027,0l-.647-.214a.086.086,0,1,1,.054-.163l.646.214a.086.086,0,0,1-.027.168Zm-15.181-.058a.086.086,0,0,1-.02-.17l.663-.163a.086.086,0,0,1,.041.167l-.663.163Zm1.324-.326a.086.086,0,0,1-.021-.17l.661-.165a.086.086,0,0,1,.042.167l-.661.165Zm12.565-.045a.083.083,0,0,1-.027,0l-.645-.218a.086.086,0,1,1,.055-.163l.645.218a.086.086,0,0,1-.027.167Zm-11.243-.287a.086.086,0,0,1-.021-.169l.66-.169a.086.086,0,0,1,.043.167l-.66.169Zm9.951-.151a.08.08,0,0,1-.026,0c-.22-.075-.432-.148-.644-.219a.086.086,0,1,1,.054-.163c.213.071.426.144.637.216a.09.09,0,0,1,.058.111A.084.084,0,0,1,169.569,172.394Zm-8.631-.189a.086.086,0,0,1-.022-.169l.659-.173a.086.086,0,1,1,.044.166l-.659.174Zm7.339-.24a.087.087,0,0,1-.025,0c-.234-.072-.446-.135-.651-.19a.086.086,0,1,1,.045-.166c.206.056.421.119.657.192a.086.086,0,0,1-.026.168Zm-6.022-.109a.086.086,0,0,1-.022-.169c.22-.058.441-.114.663-.167a.086.086,0,1,1,.04.168c-.22.052-.44.108-.659.165Zm4.707-.245-.019,0c-.228-.05-.451-.092-.664-.124a.086.086,0,0,1-.072-.1.087.087,0,0,1,.1-.072c.216.033.443.075.675.126a.086.086,0,0,1-.018.17Zm-3.38-.063a.086.086,0,0,1-.016-.171c.24-.045.462-.079.679-.1a.085.085,0,0,1,.1.075.086.086,0,0,1-.076.1c-.213.025-.431.058-.667.1Zm2.033-.137h-.006c-.224-.016-.443-.021-.659-.016l-.015-.086.008-.086c.234-.006.449,0,.679.016a.086.086,0,0,1-.006.172Z" transform="translate(-147.624 -171.221)" fill="#bcbcbc"/>
                </g>
                <g id="Group_6733" data-name="Group 6733" transform="translate(36.678 4.569)">
                  <path id="Path_31768" data-name="Path 31768" d="M355.386,198.328h-.009a.086.086,0,0,1-.077-.094l.026-.258-.259-.033a.086.086,0,0,1,.022-.171l.341.044a.086.086,0,0,1,.075.094l-.034.342A.086.086,0,0,1,355.386,198.328Z" transform="translate(-354.992 -197.771)" fill="#bcbcbc"/>
                </g>
                <g id="Group_6734" data-name="Group 6734" transform="translate(35.68 5.634)">
                  <path id="Path_31769" data-name="Path 31769" d="M349.682,221.146a.086.086,0,0,1-.084-.07c-.043-.218-.084-.446-.12-.677a.086.086,0,0,1,.072-.1.087.087,0,0,1,.1.072c.036.229.076.455.119.671a.086.086,0,0,1-.068.1Zm-.214-1.352a.086.086,0,0,1-.085-.076q-.041-.338-.073-.683a.086.086,0,1,1,.171-.016q.031.343.072.678a.086.086,0,0,1-.075.1Zm-.126-1.363a.086.086,0,0,1-.086-.081q-.022-.34-.036-.685a.087.087,0,0,1,.083-.09.089.089,0,0,1,.089.083q.014.343.035.681a.086.086,0,0,1-.08.091Zm-.055-1.367a.086.086,0,0,1-.086-.084q-.005-.31-.006-.621v-.065a.086.086,0,1,1,.172,0v.066c0,.206,0,.412.006.617a.086.086,0,0,1-.085.088Zm0-1.369h0a.086.086,0,0,1-.084-.088q.007-.342.019-.686a.082.082,0,0,1,.089-.083.086.086,0,0,1,.083.089q-.013.342-.019.683A.086.086,0,0,1,349.29,215.7Zm.05-1.368h0a.086.086,0,0,1-.081-.091q.018-.343.041-.684a.086.086,0,1,1,.172.011q-.023.34-.041.682A.086.086,0,0,1,349.34,214.328Zm.091-1.365h-.007a.086.086,0,0,1-.079-.093q.028-.343.059-.683a.087.087,0,0,1,.094-.078.086.086,0,0,1,.078.094q-.031.338-.059.68A.086.086,0,0,1,349.431,212.962Zm.126-1.362h-.009a.086.086,0,0,1-.077-.094q.036-.343.075-.681a.086.086,0,0,1,.171.02q-.039.337-.075.679A.086.086,0,0,1,349.557,211.6Zm.158-1.36H349.7a.086.086,0,0,1-.075-.1q.044-.344.09-.679a.086.086,0,1,1,.17.024q-.046.334-.09.677A.086.086,0,0,1,349.715,210.241Zm.186-1.356h-.013a.086.086,0,0,1-.073-.1q.051-.345.1-.677a.086.086,0,1,1,.17.027q-.052.331-.1.676A.086.086,0,0,1,349.9,208.885Zm.209-1.353H350.1a.086.086,0,0,1-.073-.1c.031-.209.062-.438.093-.677a.086.086,0,0,1,.171.022c-.031.24-.063.47-.093.68A.086.086,0,0,1,350.111,207.532Zm.178-1.358h-.01a.086.086,0,0,1-.075-.1c.027-.226.054-.455.079-.68a.086.086,0,0,1,.171.019c-.026.225-.052.454-.08.681A.086.086,0,0,1,350.289,206.175Zm.155-1.361h-.009a.086.086,0,0,1-.076-.095c.026-.243.051-.473.073-.68a.084.084,0,0,1,.094-.077.086.086,0,0,1,.077.095c-.022.208-.046.438-.073.681A.086.086,0,0,1,350.445,204.814Z" transform="translate(-349.196 -203.961)" fill="#bcbcbc"/>
                </g>
                <g id="Group_6735" data-name="Group 6735" transform="translate(36.018 23.315)">
                  <path id="Path_31770" data-name="Path 31770" d="M351.245,307.377a.086.086,0,0,1-.043-.161l.239-.14q-.036-.135-.07-.272a.086.086,0,0,1,.167-.041q.041.167.086.331a.086.086,0,0,1-.039.1s-.1.063-.3.175A.087.087,0,0,1,351.245,307.377Z" transform="translate(-351.159 -306.698)" fill="#bcbcbc"/>
                </g>
                <g id="Group_6736" data-name="Group 6736" transform="translate(0.241 5.314)">
                  <path id="Path_31771" data-name="Path 31771" d="M162.48,226.514a.086.086,0,1,1,0-.172h.2q.239,0,.483-.013a.08.08,0,0,1,.09.082.086.086,0,0,1-.082.09q-.246.011-.489.014Zm-.684-.011h0q-.341-.011-.683-.033a.086.086,0,0,1-.081-.091.085.085,0,0,1,.091-.081q.339.021.678.032a.086.086,0,0,1,0,.172Zm2.048-.049a.086.086,0,0,1-.008-.172c.22-.02.447-.045.676-.074a.086.086,0,1,1,.022.171c-.231.03-.46.055-.683.075Zm-3.408-.035h-.008q-.34-.031-.681-.072a.086.086,0,1,1,.02-.171q.338.04.676.071a.086.086,0,0,1-.008.172Zm4.764-.14a.086.086,0,0,1-.014-.171q.333-.055.67-.122a.086.086,0,0,1,.033.169q-.339.067-.675.123Zm-6.12-.02h-.012q-.339-.049-.677-.106a.086.086,0,1,1,.028-.17q.336.056.674.1a.086.086,0,0,1-.012.171Zm-1.349-.227-.016,0q-.338-.065-.673-.136a.086.086,0,0,1,.036-.168q.334.071.67.136a.086.086,0,0,1-.016.171Zm8.811-.017a.086.086,0,0,1-.019-.17q.331-.075.662-.159a.086.086,0,0,1,.042.167q-.334.085-.667.16Zm-10.149-.268-.02,0q-.334-.078-.666-.163a.086.086,0,0,1,.043-.167q.33.084.662.162a.086.086,0,0,1-.019.17Zm11.474-.068a.086.086,0,0,1-.023-.169q.328-.091.656-.19a.086.086,0,0,1,.05.165q-.329.1-.659.191A.082.082,0,0,1,167.866,225.678Zm-12.8-.27a.088.088,0,0,1-.023,0q-.332-.091-.659-.187a.086.086,0,0,1,.049-.165q.326.1.656.186a.086.086,0,0,1-.023.169Zm14.109-.125a.086.086,0,0,1-.026-.168q.325-.1.647-.215a.086.086,0,0,1,.056.163q-.323.111-.65.216A.082.082,0,0,1,169.177,225.283Zm-15.422-.26a.084.084,0,0,1-.026,0q-.329-.1-.652-.209a.086.086,0,1,1,.054-.163q.322.106.65.208a.086.086,0,0,1-.026.168Zm16.714-.183a.086.086,0,0,1-.029-.167q.322-.117.64-.237a.086.086,0,1,1,.061.161q-.319.121-.642.238A.087.087,0,0,1,170.469,224.84Zm-18.012-.245a.084.084,0,0,1-.028,0q-.326-.113-.646-.229a.086.086,0,1,1,.059-.162q.318.116.643.228a.086.086,0,0,1-.028.167Zm19.291-.241a.086.086,0,0,1-.032-.166q.32-.127.633-.256a.086.086,0,0,1,.066.159q-.314.129-.635.257A.085.085,0,0,1,171.747,224.355Zm-20.576-.226a.087.087,0,0,1-.031-.005q-.324-.123-.639-.248a.086.086,0,0,1,.063-.16q.313.125.636.247a.086.086,0,0,1-.03.166Zm21.84-.3a.086.086,0,0,1-.034-.165q.318-.136.626-.273a.086.086,0,0,1,.07.157q-.309.137-.628.274A.087.087,0,0,1,173.011,223.833Zm-23.112-.208a.084.084,0,0,1-.033-.007q-.322-.133-.632-.265a.086.086,0,1,1,.068-.158q.309.132.629.265a.086.086,0,0,1-.033.166Zm24.362-.346a.086.086,0,0,1-.036-.164q.316-.145.619-.288a.086.086,0,1,1,.073.156q-.3.144-.621.289A.085.085,0,0,1,174.261,223.279Zm-25.619-.193a.087.087,0,0,1-.035-.007q-.32-.142-.624-.283a.086.086,0,0,1,.072-.156q.3.14.622.282a.086.086,0,0,1-.035.165ZM175.5,222.7a.086.086,0,0,1-.038-.163q.316-.154.612-.3a.086.086,0,0,1,.077.154q-.3.149-.614.3A.084.084,0,0,1,175.5,222.7Zm-28.1-.182a.085.085,0,0,1-.037-.008q-.319-.153-.616-.3a.086.086,0,0,1,.076-.154q.3.147.614.3a.086.086,0,0,1-.037.164Zm29.322-.43a.086.086,0,0,1-.039-.163q.319-.164.606-.316a.086.086,0,0,1,.08.152q-.288.152-.608.316A.085.085,0,0,1,176.722,222.083Zm-30.548-.178a.084.084,0,0,1-.039-.01q-.322-.165-.607-.319a.086.086,0,1,1,.081-.152q.284.152.6.317a.086.086,0,0,1-.039.163Zm31.758-.461a.086.086,0,0,1-.041-.162c.222-.12.422-.231.6-.33a.086.086,0,0,1,.084.15c-.177.1-.378.21-.6.331A.085.085,0,0,1,177.932,221.444Zm-32.965-.186a.086.086,0,0,1-.042-.011c-.225-.126-.424-.241-.595-.343a.086.086,0,0,1,.088-.148c.17.1.368.216.591.341a.086.086,0,0,1-.042.161Zm-1.172-.709a.087.087,0,0,1-.049-.016c-.154-.107-.177-.14-.189-.167a.237.237,0,0,1-.013-.1c0-.074.009-.208.028-.421a.086.086,0,0,1,.171.015c-.018.208-.027.337-.027.406,0,.01,0,.019,0,.025a1.225,1.225,0,0,0,.128.1.086.086,0,0,1-.049.157Zm-.073-1.288h-.009a.086.086,0,0,1-.077-.094l.067-.681a.088.088,0,0,1,.094-.077.086.086,0,0,1,.077.094l-.067.681A.086.086,0,0,1,143.722,219.261Zm.133-1.361h-.008a.086.086,0,0,1-.078-.094c.02-.216.042-.444.063-.681a.086.086,0,1,1,.171.016q-.032.356-.063.681A.086.086,0,0,1,143.855,217.9Zm.122-1.362h-.007a.086.086,0,0,1-.078-.093q.028-.331.055-.681a.087.087,0,0,1,.093-.079.086.086,0,0,1,.079.092q-.027.35-.055.682A.086.086,0,0,1,143.977,216.538Zm.106-1.363h-.006a.086.086,0,0,1-.079-.092q.023-.335.046-.681a.085.085,0,0,1,.091-.08.086.086,0,0,1,.081.091q-.022.347-.046.683A.086.086,0,0,1,144.084,215.175Zm.087-1.364h0a.086.086,0,0,1-.081-.091q.019-.337.035-.682a.086.086,0,0,1,.172.008q-.016.345-.035.684A.086.086,0,0,1,144.17,213.811Zm.065-1.366h0a.086.086,0,0,1-.083-.09q.013-.339.023-.682a.09.09,0,0,1,.088-.084.086.086,0,0,1,.084.088q-.009.344-.023.684A.086.086,0,0,1,144.235,212.445Zm.038-1.366h0a.086.086,0,0,1-.085-.087q.006-.341.008-.682a.086.086,0,0,1,.172,0q0,.343-.008.684A.086.086,0,0,1,144.273,211.079Zm.007-1.366a.086.086,0,0,1-.086-.085q0-.342-.01-.682a.086.086,0,0,1,.084-.088.082.082,0,0,1,.088.084q.007.341.01.684a.086.086,0,0,1-.085.087Zm-.035-1.366a.086.086,0,0,1-.086-.082c-.012-.228-.026-.455-.043-.68a.086.086,0,0,1,.079-.092.085.085,0,0,1,.092.079q.026.34.044.684a.086.086,0,0,1-.082.09Zm-.1-1.363a.086.086,0,0,1-.086-.078q-.034-.343-.075-.677a.086.086,0,1,1,.171-.021q.041.336.076.681a.086.086,0,0,1-.077.094Zm-.165-1.357a.086.086,0,0,1-.085-.074q-.049-.345-.1-.674a.086.086,0,1,1,.17-.027q.053.33.1.677a.086.086,0,0,1-.073.1Zm-.217-1.35a.086.086,0,0,1-.085-.071c-.042-.233-.084-.457-.126-.67a.086.086,0,0,1,.169-.033q.063.321.126.673a.086.086,0,0,1-.069.1Zm-.264-1.341a.086.086,0,0,1-.084-.068c-.053-.246-.1-.469-.149-.666a.086.086,0,0,1,.167-.039c.046.2.1.422.15.669a.086.086,0,0,1-.066.1Z" transform="translate(-143.261 -202.097)" fill="#bcbcbc"/>
                </g>
              </g>
            </g>
            <g id="Group_6740" data-name="Group 6740" transform="translate(0.56 15.387)" opacity="0.06">
              <g id="Group_6739" data-name="Group 6739">
                <path id="Path_31772" data-name="Path 31772" d="M175.919,256.46a24.277,24.277,0,0,0,.526,8.662s-10.333,6.242-17.892,6.315c-9.583.093-20.221-6.224-20.347-6.512-.079-.181.662-4.446.7-9.685,0,0,13.045.986,19.344.925S175.919,256.46,175.919,256.46Z" transform="translate(-138.2 -255.24)" fill="#f4f4f4"/>
              </g>
            </g>
            <g id="Group_6741" data-name="Group 6741" transform="translate(16.248 2.175)">
              <path id="Path_31773" data-name="Path 31773" d="M236.508,179.587a7.21,7.21,0,0,0-3.522-1.114,6.941,6.941,0,0,0-3.63,1.012,16.492,16.492,0,0,1,3.684-.461A21.075,21.075,0,0,1,236.508,179.587Z" transform="translate(-229.357 -178.469)" fill="#bcbcbc"/>
            </g>
            <g id="Group_6742" data-name="Group 6742" transform="translate(7.562 23.42)">
              <path id="Path_31774" data-name="Path 31774" d="M178.889,301.921a25.78,25.78,0,0,0,12.648,3.49c7.644.115,12.044-3.067,12.044-3.067a74.635,74.635,0,0,1-11.932,1.2A83.742,83.742,0,0,1,178.889,301.921Z" transform="translate(-178.889 -301.921)" fill="#bcbcbc"/>
            </g>
            <g id="Group_6743" data-name="Group 6743" transform="translate(7.904 15.844)">
              <path id="Path_31775" data-name="Path 31775" d="M180.874,257.9l24.657.638a54.984,54.984,0,0,1-12.554,1.628A49.433,49.433,0,0,1,180.874,257.9Z" transform="translate(-180.874 -257.898)" fill="#bcbcbc"/>
            </g>
            <g id="Group_6744" data-name="Group 6744" transform="translate(7.519 8.072)">
              <path id="Path_31776" data-name="Path 31776" d="M178.637,215.26a35.847,35.847,0,0,1,12.636-2.527,33.348,33.348,0,0,1,12.059,2.6s-6.519-.648-11.989-.724C186.389,214.536,178.637,215.26,178.637,215.26Z" transform="translate(-178.637 -212.733)" fill="#bcbcbc"/>
            </g>
          </g>
          <g id="Group_6749" data-name="Group 6749" transform="translate(0 0)">
            <path id="Path_31777" data-name="Path 31777" d="M82.928,17.128l7.365-13.22,2.921.394,2.359,8.5L90.293,26,81.816,36.843" transform="translate(-30.571 -2.307)" fill="none" stroke="#f4f4f4" stroke-width="1"/>
            <g id="Group_6727" data-name="Group 6727" transform="translate(0 0)" opacity="0.1">
              <g id="Group_6726" data-name="Group 6726">
                <path id="Path_31764" data-name="Path 31764" d="M365.094,167.831a.9.9,0,0,0,.068-1.265,37.705,37.705,0,0,1-6.2-10.8c-1.45-4.1-3.094-8.745-2.867-13.321.07-1.409.544-3.017,1.665-3.305,1.229-.317,2.457,1.114,2.8,1.559,1.436,1.843,3.282,5.894,3.421,8.16a.991.991,0,0,0,1.047.839,28.948,28.948,0,0,0-1.277-4.892c-1.141-3.164-3.1-6.684-5.735-6.614-5.34.142-2.027,12.8.074,18.122A35.477,35.477,0,0,0,365.094,167.831Z" transform="translate(-355.136 -138.189)" fill="#2d3962"/>
              </g>
            </g>
          </g>
        </g>
      </g>
    </g>
  </g>
</svg>
