<svg xmlns="http://www.w3.org/2000/svg" width="52.801" height="49.994" viewBox="0 0 52.801 49.994">
  <path id="Path_50462" data-name="Path 50462" d="M624.664,223.424H580.239a4.188,4.188,0,0,0-4.187,4.188v41.618a4.187,4.187,0,0,0,4.187,4.187h44.425a4.188,4.188,0,0,0,4.189-4.187V227.612A4.189,4.189,0,0,0,624.664,223.424Zm-8.375,2.967v21.087H588.616V226.391Zm-30.225,40.658H578.5V259.48h7.569Zm0-15.094H578.5v-7.569h7.569Zm0-15.095H578.5v-7.569h7.569Zm2.552,33.591V249.365h27.672v21.087Zm37.771-3.4h-7.569V259.48h7.569Zm0-15.094h-7.569v-7.569h7.569Zm0-15.095h-7.569v-7.569h7.569Z" transform="translate(-576.052 -223.424)" fill="#fff" style="mix-blend-mode: overlay;isolation: isolate"/>
</svg>
