<svg xmlns="http://www.w3.org/2000/svg" width="91.209" height="45.65" viewBox="0 0 91.209 45.65">
  <path id="Path_50461" data-name="Path 50461" d="M507.558,559.073H505.93c-1.321-2.868-5.291-10.736-10.136-13.284a32.474,32.474,0,0,0-15.142-3.491c-5.941.129-13.79,1.824-17.3,4.819-2.761,2.357-6.341,8.811-7.507,11.956h-1.6c-.133.215-12.251,2.514-15.812,6.14-3.78,3.843-4.294,14.144-.7,14.144h11.41c-.02.23-.034.465-.034.7a7.881,7.881,0,1,0,15.761,0c0-.237-.013-.472-.032-.7h32.622c-.022.23-.037.465-.037.7a7.882,7.882,0,0,0,15.765,0c0-.237-.015-.472-.035-.7h10.915c3.6,0,3.084-10.3-.7-14.144C519.809,561.587,507.691,559.288,507.558,559.073Zm-30.19,0H463.107c1.288-2.508,3.328-5.862,4.553-6.907,1.336-1.139,5.3-2.434,9.708-2.979Zm10.6,0h-3.968v-10a25.221,25.221,0,0,1,8.7,2.6c1.734.911,4.032,4.213,5.791,7.408Z" transform="translate(-435.294 -542.291)" fill="#fff" style="mix-blend-mode: overlay;isolation: isolate"/>
</svg>
