<svg xmlns="http://www.w3.org/2000/svg" width="113.089" height="12.47" viewBox="0 0 113.089 12.47">
  <defs>
    <style>
      .cls-1 {
        fill: #29abe2;
      }
    </style>
  </defs>
  <g id="Group_131019" data-name="Group 131019" transform="translate(-3497.571 -981.891)">
    <g id="Group_131013" data-name="Group 131013" transform="translate(3520.571 981.891)">
      <g id="Group_29068" data-name="Group 29068" transform="translate(0 0)">
        <path id="Path_53889" data-name="Path 53889" class="cls-1" d="M48.218,399.56c.209-.059-.383-.505-.383-.505a29.515,29.515,0,0,0-3.5-1.1c-.423.145.441,1.014.719,1.171A16.782,16.782,0,0,0,48.218,399.56Z" transform="translate(-42.939 -391.738)"/>
        <path id="Path_53890" data-name="Path 53890" class="cls-1" d="M59.536,373.8a.61.61,0,0,0-.441-.244c-.157-.016-.341-.024-.547-.024-.53,0-1.027.052-1.048.055a.158.158,0,0,0-.14.182,2.015,2.015,0,0,1-.061,1.009c-.181-.294-.571-.922-1-1.555-1.225-1.823-1.533-1.9-1.681-1.931-.514-.121-4.108-.281-5.179-.327v-.022l-.265.011-.265-.011v.022c-1.071.045-4.665.206-5.179.327-.148.035-.457.108-1.681,1.931-.424.632-.815,1.26-1,1.555a2.019,2.019,0,0,1-.061-1.009.158.158,0,0,0-.14-.182c-.021,0-.518-.055-1.048-.055-.206,0-.39.008-.547.024a.612.612,0,0,0-.441.244,1.6,1.6,0,0,0-.154,1.088.158.158,0,0,0,.1.118l1.343.531a6.6,6.6,0,0,0-.88.764c-.1.123-.3.351-.2,2.6.045,1.064.136,2.087.137,2.1l.025.275.5-.044c1.32.107,5.7.431,10.589.431a73.451,73.451,0,0,0,8.45-.427l.447.04.025-.275c0-.011.092-1.034.137-2.1.1-2.245-.1-2.474-.2-2.6a6.6,6.6,0,0,0-.88-.764L59.592,375a.158.158,0,0,0,.1-.118A1.6,1.6,0,0,0,59.536,373.8Zm-15.67-1.971c.414-.093,3.394-.242,5.313-.321,1.919.079,4.9.229,5.313.321a15.15,15.15,0,0,1,2.256,3.106c-1.277-.046-4.991-.171-7.411-.177H49.02c-2.42.006-6.134.13-7.411.177A15.145,15.145,0,0,1,43.865,371.827Zm-4.9,2.916a1.2,1.2,0,0,1,.109-.755.29.29,0,0,1,.219-.12,5.146,5.146,0,0,1,.515-.023c.336,0,.665.023.853.038a1.8,1.8,0,0,0,.168,1.12c-.113.081-.262.187-.425.307Zm19.5,1.674-3.971,1.528-.007,0a.1.1,0,0,0-.031.019c-.08.072-.154.143-.228.22a3.011,3.011,0,0,0-.209.24.914.914,0,0,0-.166.3.293.293,0,0,0-.007.114.211.211,0,0,0,.062.122.233.233,0,0,0,.051.038l.029.014.02.007a.5.5,0,0,0,.095.02,2.193,2.193,0,0,0,.32.009c.1,0,.207-.009.31-.017.205-.016.409-.038.613-.064q.61-.077,1.213-.194c.2-.039.4-.082.6-.132.1-.026.2-.052.3-.082a2.033,2.033,0,0,0,.287-.109,2.083,2.083,0,0,1-.291.094c-.1.025-.2.047-.3.067-.2.04-.4.073-.6.1q-.605.087-1.215.133c-.2.016-.406.028-.609.033-.1,0-.2,0-.3,0a2.009,2.009,0,0,1-.292-.022l-.032-.007-.014,0-.009,0-.016-.007-.005,0-.01-.008c0-.005,0-.006,0-.014a.121.121,0,0,1,.006-.037.756.756,0,0,1,.141-.222,2.582,2.582,0,0,1,.2-.211c.066-.063.136-.124.205-.181l4.156-1.363a22.858,22.858,0,0,1-.089,3.941c-.668.079-1.356.146-2.057.2H42.816c-1.472-.083-2.578-.168-3.12-.212a22.734,22.734,0,0,1-.087-3.929l4.156,1.363c.069.057.139.118.205.181a2.628,2.628,0,0,1,.2.211.749.749,0,0,1,.141.222.116.116,0,0,1,.006.037c0,.007,0,.009,0,.014l-.01.008-.006,0-.015.007-.009,0-.015,0-.032.007a2.009,2.009,0,0,1-.292.022c-.1,0-.2,0-.3,0-.2-.006-.405-.018-.609-.033-.406-.031-.812-.075-1.215-.133-.2-.03-.4-.062-.6-.1q-.15-.029-.3-.067a2.066,2.066,0,0,1-.291-.094,2.047,2.047,0,0,0,.287.109c.1.031.2.057.3.082.2.05.4.093.6.132q.6.117,1.213.194c.2.026.407.048.613.064.1.008.205.014.31.017a2.191,2.191,0,0,0,.32-.009.481.481,0,0,0,.094-.02l.02-.007L44.4,379a.24.24,0,0,0,.051-.038.212.212,0,0,0,.061-.122.3.3,0,0,0-.007-.114.91.91,0,0,0-.166-.3,2.911,2.911,0,0,0-.209-.24c-.073-.076-.147-.148-.228-.22a.1.1,0,0,0-.031-.019l-.006,0L39.9,376.417c.421-.368,1.148-.889,1.45-1.1a.269.269,0,0,0,.063-.063c1.035-.038,5.213-.184,7.77-.184s6.735.146,7.77.184a.272.272,0,0,0,.063.063C57.313,375.528,58.04,376.049,58.46,376.417Zm.931-1.674-1.439.568c-.163-.121-.312-.227-.425-.307a1.8,1.8,0,0,0,.168-1.12c.188-.016.517-.038.853-.038a5.137,5.137,0,0,1,.515.023.289.289,0,0,1,.219.119A1.2,1.2,0,0,1,59.391,374.743Z" transform="translate(-38.633 -370.94)"/>
        <path id="Path_53891" data-name="Path 53891" class="cls-1" d="M111.089,397.953a29.521,29.521,0,0,0-3.5,1.1s-.591.446-.383.505a16.78,16.78,0,0,0,3.16-.435C110.648,398.967,111.512,398.1,111.089,397.953Z" transform="translate(-91.4 -391.738)"/>
        <path id="Path_53892" data-name="Path 53892" class="cls-1" d="M67.36,397.662c-.166.043-.344.092-.531.159a2.159,2.159,0,0,0-.285.12.64.64,0,0,0-.143.1,1.033,1.033,0,0,0-.1.138,2.117,2.117,0,0,1-.453.433,1.475,1.475,0,0,1-.273.157.62.62,0,0,1-.138.043h-.073l-.086,0c-.115.007-.224,0-.334,0s-.218,0-.331-.007l-.655-.022-1.162-.047-.9-.042v-.022l-.233.011-.233-.011v.022l-.9.042-1.162.047-.655.022c-.113,0-.22,0-.331.007s-.219.008-.334,0l-.085,0h-.074a.626.626,0,0,1-.138-.043,1.49,1.49,0,0,1-.273-.157,2.111,2.111,0,0,1-.452-.433,1.1,1.1,0,0,0-.1-.138.638.638,0,0,0-.143-.1,2.146,2.146,0,0,0-.285-.12c-.187-.067-.366-.116-.531-.159-.331-.086-.61-.144-.8-.184s-.307-.059-.307-.059.111.027.3.078.466.128.788.235c.161.054.335.115.512.191a2.18,2.18,0,0,1,.261.131.512.512,0,0,1,.109.083,1.262,1.262,0,0,1,.077.121,2.274,2.274,0,0,0,.461.5,1.723,1.723,0,0,0,.3.2.839.839,0,0,0,.182.069l.012,0h.02l.021,0,.043,0,.085.008c.111.014.23.015.345.022s.234.012.344.016l.658.021,1.165.029.892.016v.009l.238,0h.008l.237,0v-.009l.892-.016,1.166-.029.658-.021c.111,0,.229-.01.344-.016s.234-.008.346-.022l.085-.008.042,0,.021,0h.02l.012,0a.841.841,0,0,0,.182-.069,1.717,1.717,0,0,0,.3-.2,2.28,2.28,0,0,0,.461-.5,1.178,1.178,0,0,1,.077-.121.527.527,0,0,1,.109-.083,2.179,2.179,0,0,1,.261-.131c.177-.076.351-.137.512-.191.323-.107.6-.182.788-.235s.3-.078.3-.078-.112.019-.307.059S67.691,397.576,67.36,397.662Z" transform="translate(-51.111 -391.328)"/>
        <path id="Path_53893" data-name="Path 53893" class="cls-1" d="M43.127,417.2s-.272,1.231,0,1.577,2.918.327,3.29,0,.173-1.442.173-1.442C45.526,417.331,43.127,417.2,43.127,417.2Z" transform="translate(-42 -406.556)"/>
        <path id="Path_53894" data-name="Path 53894" class="cls-1" d="M110.052,417.331s-.2,1.116.174,1.442,3.028.347,3.3,0,0-1.577,0-1.577S111.119,417.331,110.052,417.331Z" transform="translate(-93.583 -406.556)"/>
      </g>
      <path id="Path_70622" data-name="Path 70622" class="cls-1" d="M0,0H6.771V1.693H0Z" transform="translate(6.895 8.018)"/>
    </g>
    <g id="Group_131018" data-name="Group 131018" transform="translate(3566.571 981.891)">
      <g id="Group_29068-2" data-name="Group 29068" transform="translate(0 0)">
        <path id="Path_53889-2" data-name="Path 53889" class="cls-1" d="M48.218,399.56c.209-.059-.383-.505-.383-.505a29.515,29.515,0,0,0-3.5-1.1c-.423.145.441,1.014.719,1.171A16.782,16.782,0,0,0,48.218,399.56Z" transform="translate(-42.939 -391.738)"/>
        <path id="Path_53890-2" data-name="Path 53890" class="cls-1" d="M59.536,373.8a.61.61,0,0,0-.441-.244c-.157-.016-.341-.024-.547-.024-.53,0-1.027.052-1.048.055a.158.158,0,0,0-.14.182,2.015,2.015,0,0,1-.061,1.009c-.181-.294-.571-.922-1-1.555-1.225-1.823-1.533-1.9-1.681-1.931-.514-.121-4.108-.281-5.179-.327v-.022l-.265.011-.265-.011v.022c-1.071.045-4.665.206-5.179.327-.148.035-.457.108-1.681,1.931-.424.632-.815,1.26-1,1.555a2.019,2.019,0,0,1-.061-1.009.158.158,0,0,0-.14-.182c-.021,0-.518-.055-1.048-.055-.206,0-.39.008-.547.024a.612.612,0,0,0-.441.244,1.6,1.6,0,0,0-.154,1.088.158.158,0,0,0,.1.118l1.343.531a6.6,6.6,0,0,0-.88.764c-.1.123-.3.351-.2,2.6.045,1.064.136,2.087.137,2.1l.025.275.5-.044c1.32.107,5.7.431,10.589.431a73.451,73.451,0,0,0,8.45-.427l.447.04.025-.275c0-.011.092-1.034.137-2.1.1-2.245-.1-2.474-.2-2.6a6.6,6.6,0,0,0-.88-.764L59.592,375a.158.158,0,0,0,.1-.118A1.6,1.6,0,0,0,59.536,373.8Zm-15.67-1.971c.414-.093,3.394-.242,5.313-.321,1.919.079,4.9.229,5.313.321a15.15,15.15,0,0,1,2.256,3.106c-1.277-.046-4.991-.171-7.411-.177H49.02c-2.42.006-6.134.13-7.411.177A15.145,15.145,0,0,1,43.865,371.827Zm-4.9,2.916a1.2,1.2,0,0,1,.109-.755.29.29,0,0,1,.219-.12,5.146,5.146,0,0,1,.515-.023c.336,0,.665.023.853.038a1.8,1.8,0,0,0,.168,1.12c-.113.081-.262.187-.425.307Zm19.5,1.674-3.971,1.528-.007,0a.1.1,0,0,0-.031.019c-.08.072-.154.143-.228.22a3.011,3.011,0,0,0-.209.24.914.914,0,0,0-.166.3.293.293,0,0,0-.007.114.211.211,0,0,0,.062.122.233.233,0,0,0,.051.038l.029.014.02.007a.5.5,0,0,0,.095.02,2.193,2.193,0,0,0,.32.009c.1,0,.207-.009.31-.017.205-.016.409-.038.613-.064q.61-.077,1.213-.194c.2-.039.4-.082.6-.132.1-.026.2-.052.3-.082a2.033,2.033,0,0,0,.287-.109,2.083,2.083,0,0,1-.291.094c-.1.025-.2.047-.3.067-.2.04-.4.073-.6.1q-.605.087-1.215.133c-.2.016-.406.028-.609.033-.1,0-.2,0-.3,0a2.009,2.009,0,0,1-.292-.022l-.032-.007-.014,0-.009,0-.016-.007-.005,0-.01-.008c0-.005,0-.006,0-.014a.121.121,0,0,1,.006-.037.756.756,0,0,1,.141-.222,2.582,2.582,0,0,1,.2-.211c.066-.063.136-.124.205-.181l4.156-1.363a22.858,22.858,0,0,1-.089,3.941c-.668.079-1.356.146-2.057.2H42.816c-1.472-.083-2.578-.168-3.12-.212a22.734,22.734,0,0,1-.087-3.929l4.156,1.363c.069.057.139.118.205.181a2.628,2.628,0,0,1,.2.211.749.749,0,0,1,.141.222.116.116,0,0,1,.006.037c0,.007,0,.009,0,.014l-.01.008-.006,0-.015.007-.009,0-.015,0-.032.007a2.009,2.009,0,0,1-.292.022c-.1,0-.2,0-.3,0-.2-.006-.405-.018-.609-.033-.406-.031-.812-.075-1.215-.133-.2-.03-.4-.062-.6-.1q-.15-.029-.3-.067a2.066,2.066,0,0,1-.291-.094,2.047,2.047,0,0,0,.287.109c.1.031.2.057.3.082.2.05.4.093.6.132q.6.117,1.213.194c.2.026.407.048.613.064.1.008.205.014.31.017a2.191,2.191,0,0,0,.32-.009.481.481,0,0,0,.094-.02l.02-.007L44.4,379a.24.24,0,0,0,.051-.038.212.212,0,0,0,.061-.122.3.3,0,0,0-.007-.114.91.91,0,0,0-.166-.3,2.911,2.911,0,0,0-.209-.24c-.073-.076-.147-.148-.228-.22a.1.1,0,0,0-.031-.019l-.006,0L39.9,376.417c.421-.368,1.148-.889,1.45-1.1a.269.269,0,0,0,.063-.063c1.035-.038,5.213-.184,7.77-.184s6.735.146,7.77.184a.272.272,0,0,0,.063.063C57.313,375.528,58.04,376.049,58.46,376.417Zm.931-1.674-1.439.568c-.163-.121-.312-.227-.425-.307a1.8,1.8,0,0,0,.168-1.12c.188-.016.517-.038.853-.038a5.137,5.137,0,0,1,.515.023.289.289,0,0,1,.219.119A1.2,1.2,0,0,1,59.391,374.743Z" transform="translate(-38.633 -370.94)"/>
        <path id="Path_53891-2" data-name="Path 53891" class="cls-1" d="M111.089,397.953a29.521,29.521,0,0,0-3.5,1.1s-.591.446-.383.505a16.78,16.78,0,0,0,3.16-.435C110.648,398.967,111.512,398.1,111.089,397.953Z" transform="translate(-91.4 -391.738)"/>
        <path id="Path_53892-2" data-name="Path 53892" class="cls-1" d="M67.36,397.662c-.166.043-.344.092-.531.159a2.159,2.159,0,0,0-.285.12.64.64,0,0,0-.143.1,1.033,1.033,0,0,0-.1.138,2.117,2.117,0,0,1-.453.433,1.475,1.475,0,0,1-.273.157.62.62,0,0,1-.138.043h-.073l-.086,0c-.115.007-.224,0-.334,0s-.218,0-.331-.007l-.655-.022-1.162-.047-.9-.042v-.022l-.233.011-.233-.011v.022l-.9.042-1.162.047-.655.022c-.113,0-.22,0-.331.007s-.219.008-.334,0l-.085,0h-.074a.626.626,0,0,1-.138-.043,1.49,1.49,0,0,1-.273-.157,2.111,2.111,0,0,1-.452-.433,1.1,1.1,0,0,0-.1-.138.638.638,0,0,0-.143-.1,2.146,2.146,0,0,0-.285-.12c-.187-.067-.366-.116-.531-.159-.331-.086-.61-.144-.8-.184s-.307-.059-.307-.059.111.027.3.078.466.128.788.235c.161.054.335.115.512.191a2.18,2.18,0,0,1,.261.131.512.512,0,0,1,.109.083,1.262,1.262,0,0,1,.077.121,2.274,2.274,0,0,0,.461.5,1.723,1.723,0,0,0,.3.2.839.839,0,0,0,.182.069l.012,0h.02l.021,0,.043,0,.085.008c.111.014.23.015.345.022s.234.012.344.016l.658.021,1.165.029.892.016v.009l.238,0h.008l.237,0v-.009l.892-.016,1.166-.029.658-.021c.111,0,.229-.01.344-.016s.234-.008.346-.022l.085-.008.042,0,.021,0h.02l.012,0a.841.841,0,0,0,.182-.069,1.717,1.717,0,0,0,.3-.2,2.28,2.28,0,0,0,.461-.5,1.178,1.178,0,0,1,.077-.121.527.527,0,0,1,.109-.083,2.179,2.179,0,0,1,.261-.131c.177-.076.351-.137.512-.191.323-.107.6-.182.788-.235s.3-.078.3-.078-.112.019-.307.059S67.691,397.576,67.36,397.662Z" transform="translate(-51.111 -391.328)"/>
        <path id="Path_53893-2" data-name="Path 53893" class="cls-1" d="M43.127,417.2s-.272,1.231,0,1.577,2.918.327,3.29,0,.173-1.442.173-1.442C45.526,417.331,43.127,417.2,43.127,417.2Z" transform="translate(-42 -406.556)"/>
        <path id="Path_53894-2" data-name="Path 53894" class="cls-1" d="M110.052,417.331s-.2,1.116.174,1.442,3.028.347,3.3,0,0-1.577,0-1.577S111.119,417.331,110.052,417.331Z" transform="translate(-93.583 -406.556)"/>
      </g>
      <path id="Path_70622-2" data-name="Path 70622" class="cls-1" d="M0,0H6.771V1.693H0Z" transform="translate(6.895 8.018)"/>
    </g>
    <g id="Group_131015" data-name="Group 131015" transform="translate(3543.571 981.891)">
      <g id="Group_29068-3" data-name="Group 29068" transform="translate(0 0)">
        <path id="Path_53889-3" data-name="Path 53889" class="cls-1" d="M48.218,399.56c.209-.059-.383-.505-.383-.505a29.515,29.515,0,0,0-3.5-1.1c-.423.145.441,1.014.719,1.171A16.782,16.782,0,0,0,48.218,399.56Z" transform="translate(-42.939 -391.738)"/>
        <path id="Path_53890-3" data-name="Path 53890" class="cls-1" d="M59.536,373.8a.61.61,0,0,0-.441-.244c-.157-.016-.341-.024-.547-.024-.53,0-1.027.052-1.048.055a.158.158,0,0,0-.14.182,2.015,2.015,0,0,1-.061,1.009c-.181-.294-.571-.922-1-1.555-1.225-1.823-1.533-1.9-1.681-1.931-.514-.121-4.108-.281-5.179-.327v-.022l-.265.011-.265-.011v.022c-1.071.045-4.665.206-5.179.327-.148.035-.457.108-1.681,1.931-.424.632-.815,1.26-1,1.555a2.019,2.019,0,0,1-.061-1.009.158.158,0,0,0-.14-.182c-.021,0-.518-.055-1.048-.055-.206,0-.39.008-.547.024a.612.612,0,0,0-.441.244,1.6,1.6,0,0,0-.154,1.088.158.158,0,0,0,.1.118l1.343.531a6.6,6.6,0,0,0-.88.764c-.1.123-.3.351-.2,2.6.045,1.064.136,2.087.137,2.1l.025.275.5-.044c1.32.107,5.7.431,10.589.431a73.451,73.451,0,0,0,8.45-.427l.447.04.025-.275c0-.011.092-1.034.137-2.1.1-2.245-.1-2.474-.2-2.6a6.6,6.6,0,0,0-.88-.764L59.592,375a.158.158,0,0,0,.1-.118A1.6,1.6,0,0,0,59.536,373.8Zm-15.67-1.971c.414-.093,3.394-.242,5.313-.321,1.919.079,4.9.229,5.313.321a15.15,15.15,0,0,1,2.256,3.106c-1.277-.046-4.991-.171-7.411-.177H49.02c-2.42.006-6.134.13-7.411.177A15.145,15.145,0,0,1,43.865,371.827Zm-4.9,2.916a1.2,1.2,0,0,1,.109-.755.29.29,0,0,1,.219-.12,5.146,5.146,0,0,1,.515-.023c.336,0,.665.023.853.038a1.8,1.8,0,0,0,.168,1.12c-.113.081-.262.187-.425.307Zm19.5,1.674-3.971,1.528-.007,0a.1.1,0,0,0-.031.019c-.08.072-.154.143-.228.22a3.011,3.011,0,0,0-.209.24.914.914,0,0,0-.166.3.293.293,0,0,0-.007.114.211.211,0,0,0,.062.122.233.233,0,0,0,.051.038l.029.014.02.007a.5.5,0,0,0,.095.02,2.193,2.193,0,0,0,.32.009c.1,0,.207-.009.31-.017.205-.016.409-.038.613-.064q.61-.077,1.213-.194c.2-.039.4-.082.6-.132.1-.026.2-.052.3-.082a2.033,2.033,0,0,0,.287-.109,2.083,2.083,0,0,1-.291.094c-.1.025-.2.047-.3.067-.2.04-.4.073-.6.1q-.605.087-1.215.133c-.2.016-.406.028-.609.033-.1,0-.2,0-.3,0a2.009,2.009,0,0,1-.292-.022l-.032-.007-.014,0-.009,0-.016-.007-.005,0-.01-.008c0-.005,0-.006,0-.014a.121.121,0,0,1,.006-.037.756.756,0,0,1,.141-.222,2.582,2.582,0,0,1,.2-.211c.066-.063.136-.124.205-.181l4.156-1.363a22.858,22.858,0,0,1-.089,3.941c-.668.079-1.356.146-2.057.2H42.816c-1.472-.083-2.578-.168-3.12-.212a22.734,22.734,0,0,1-.087-3.929l4.156,1.363c.069.057.139.118.205.181a2.628,2.628,0,0,1,.2.211.749.749,0,0,1,.141.222.116.116,0,0,1,.006.037c0,.007,0,.009,0,.014l-.01.008-.006,0-.015.007-.009,0-.015,0-.032.007a2.009,2.009,0,0,1-.292.022c-.1,0-.2,0-.3,0-.2-.006-.405-.018-.609-.033-.406-.031-.812-.075-1.215-.133-.2-.03-.4-.062-.6-.1q-.15-.029-.3-.067a2.066,2.066,0,0,1-.291-.094,2.047,2.047,0,0,0,.287.109c.1.031.2.057.3.082.2.05.4.093.6.132q.6.117,1.213.194c.2.026.407.048.613.064.1.008.205.014.31.017a2.191,2.191,0,0,0,.32-.009.481.481,0,0,0,.094-.02l.02-.007L44.4,379a.24.24,0,0,0,.051-.038.212.212,0,0,0,.061-.122.3.3,0,0,0-.007-.114.91.91,0,0,0-.166-.3,2.911,2.911,0,0,0-.209-.24c-.073-.076-.147-.148-.228-.22a.1.1,0,0,0-.031-.019l-.006,0L39.9,376.417c.421-.368,1.148-.889,1.45-1.1a.269.269,0,0,0,.063-.063c1.035-.038,5.213-.184,7.77-.184s6.735.146,7.77.184a.272.272,0,0,0,.063.063C57.313,375.528,58.04,376.049,58.46,376.417Zm.931-1.674-1.439.568c-.163-.121-.312-.227-.425-.307a1.8,1.8,0,0,0,.168-1.12c.188-.016.517-.038.853-.038a5.137,5.137,0,0,1,.515.023.289.289,0,0,1,.219.119A1.2,1.2,0,0,1,59.391,374.743Z" transform="translate(-38.633 -370.94)"/>
        <path id="Path_53891-3" data-name="Path 53891" class="cls-1" d="M111.089,397.953a29.521,29.521,0,0,0-3.5,1.1s-.591.446-.383.505a16.78,16.78,0,0,0,3.16-.435C110.648,398.967,111.512,398.1,111.089,397.953Z" transform="translate(-91.4 -391.738)"/>
        <path id="Path_53892-3" data-name="Path 53892" class="cls-1" d="M67.36,397.662c-.166.043-.344.092-.531.159a2.159,2.159,0,0,0-.285.12.64.64,0,0,0-.143.1,1.033,1.033,0,0,0-.1.138,2.117,2.117,0,0,1-.453.433,1.475,1.475,0,0,1-.273.157.62.62,0,0,1-.138.043h-.073l-.086,0c-.115.007-.224,0-.334,0s-.218,0-.331-.007l-.655-.022-1.162-.047-.9-.042v-.022l-.233.011-.233-.011v.022l-.9.042-1.162.047-.655.022c-.113,0-.22,0-.331.007s-.219.008-.334,0l-.085,0h-.074a.626.626,0,0,1-.138-.043,1.49,1.49,0,0,1-.273-.157,2.111,2.111,0,0,1-.452-.433,1.1,1.1,0,0,0-.1-.138.638.638,0,0,0-.143-.1,2.146,2.146,0,0,0-.285-.12c-.187-.067-.366-.116-.531-.159-.331-.086-.61-.144-.8-.184s-.307-.059-.307-.059.111.027.3.078.466.128.788.235c.161.054.335.115.512.191a2.18,2.18,0,0,1,.261.131.512.512,0,0,1,.109.083,1.262,1.262,0,0,1,.077.121,2.274,2.274,0,0,0,.461.5,1.723,1.723,0,0,0,.3.2.839.839,0,0,0,.182.069l.012,0h.02l.021,0,.043,0,.085.008c.111.014.23.015.345.022s.234.012.344.016l.658.021,1.165.029.892.016v.009l.238,0h.008l.237,0v-.009l.892-.016,1.166-.029.658-.021c.111,0,.229-.01.344-.016s.234-.008.346-.022l.085-.008.042,0,.021,0h.02l.012,0a.841.841,0,0,0,.182-.069,1.717,1.717,0,0,0,.3-.2,2.28,2.28,0,0,0,.461-.5,1.178,1.178,0,0,1,.077-.121.527.527,0,0,1,.109-.083,2.179,2.179,0,0,1,.261-.131c.177-.076.351-.137.512-.191.323-.107.6-.182.788-.235s.3-.078.3-.078-.112.019-.307.059S67.691,397.576,67.36,397.662Z" transform="translate(-51.111 -391.328)"/>
        <path id="Path_53893-3" data-name="Path 53893" class="cls-1" d="M43.127,417.2s-.272,1.231,0,1.577,2.918.327,3.29,0,.173-1.442.173-1.442C45.526,417.331,43.127,417.2,43.127,417.2Z" transform="translate(-42 -406.556)"/>
        <path id="Path_53894-3" data-name="Path 53894" class="cls-1" d="M110.052,417.331s-.2,1.116.174,1.442,3.028.347,3.3,0,0-1.577,0-1.577S111.119,417.331,110.052,417.331Z" transform="translate(-93.583 -406.556)"/>
      </g>
      <path id="Path_70622-3" data-name="Path 70622" class="cls-1" d="M0,0H6.771V1.693H0Z" transform="translate(6.895 8.018)"/>
    </g>
    <g id="Group_131017" data-name="Group 131017" transform="translate(3589.571 981.891)">
      <g id="Group_29068-4" data-name="Group 29068" transform="translate(0 0)">
        <path id="Path_53889-4" data-name="Path 53889" class="cls-1" d="M48.218,399.56c.209-.059-.383-.505-.383-.505a29.515,29.515,0,0,0-3.5-1.1c-.423.145.441,1.014.719,1.171A16.782,16.782,0,0,0,48.218,399.56Z" transform="translate(-42.939 -391.738)"/>
        <path id="Path_53890-4" data-name="Path 53890" class="cls-1" d="M59.536,373.8a.61.61,0,0,0-.441-.244c-.157-.016-.341-.024-.547-.024-.53,0-1.027.052-1.048.055a.158.158,0,0,0-.14.182,2.015,2.015,0,0,1-.061,1.009c-.181-.294-.571-.922-1-1.555-1.225-1.823-1.533-1.9-1.681-1.931-.514-.121-4.108-.281-5.179-.327v-.022l-.265.011-.265-.011v.022c-1.071.045-4.665.206-5.179.327-.148.035-.457.108-1.681,1.931-.424.632-.815,1.26-1,1.555a2.019,2.019,0,0,1-.061-1.009.158.158,0,0,0-.14-.182c-.021,0-.518-.055-1.048-.055-.206,0-.39.008-.547.024a.612.612,0,0,0-.441.244,1.6,1.6,0,0,0-.154,1.088.158.158,0,0,0,.1.118l1.343.531a6.6,6.6,0,0,0-.88.764c-.1.123-.3.351-.2,2.6.045,1.064.136,2.087.137,2.1l.025.275.5-.044c1.32.107,5.7.431,10.589.431a73.451,73.451,0,0,0,8.45-.427l.447.04.025-.275c0-.011.092-1.034.137-2.1.1-2.245-.1-2.474-.2-2.6a6.6,6.6,0,0,0-.88-.764L59.592,375a.158.158,0,0,0,.1-.118A1.6,1.6,0,0,0,59.536,373.8Zm-15.67-1.971c.414-.093,3.394-.242,5.313-.321,1.919.079,4.9.229,5.313.321a15.15,15.15,0,0,1,2.256,3.106c-1.277-.046-4.991-.171-7.411-.177H49.02c-2.42.006-6.134.13-7.411.177A15.145,15.145,0,0,1,43.865,371.827Zm-4.9,2.916a1.2,1.2,0,0,1,.109-.755.29.29,0,0,1,.219-.12,5.146,5.146,0,0,1,.515-.023c.336,0,.665.023.853.038a1.8,1.8,0,0,0,.168,1.12c-.113.081-.262.187-.425.307Zm19.5,1.674-3.971,1.528-.007,0a.1.1,0,0,0-.031.019c-.08.072-.154.143-.228.22a3.011,3.011,0,0,0-.209.24.914.914,0,0,0-.166.3.293.293,0,0,0-.007.114.211.211,0,0,0,.062.122.233.233,0,0,0,.051.038l.029.014.02.007a.5.5,0,0,0,.095.02,2.193,2.193,0,0,0,.32.009c.1,0,.207-.009.31-.017.205-.016.409-.038.613-.064q.61-.077,1.213-.194c.2-.039.4-.082.6-.132.1-.026.2-.052.3-.082a2.033,2.033,0,0,0,.287-.109,2.083,2.083,0,0,1-.291.094c-.1.025-.2.047-.3.067-.2.04-.4.073-.6.1q-.605.087-1.215.133c-.2.016-.406.028-.609.033-.1,0-.2,0-.3,0a2.009,2.009,0,0,1-.292-.022l-.032-.007-.014,0-.009,0-.016-.007-.005,0-.01-.008c0-.005,0-.006,0-.014a.121.121,0,0,1,.006-.037.756.756,0,0,1,.141-.222,2.582,2.582,0,0,1,.2-.211c.066-.063.136-.124.205-.181l4.156-1.363a22.858,22.858,0,0,1-.089,3.941c-.668.079-1.356.146-2.057.2H42.816c-1.472-.083-2.578-.168-3.12-.212a22.734,22.734,0,0,1-.087-3.929l4.156,1.363c.069.057.139.118.205.181a2.628,2.628,0,0,1,.2.211.749.749,0,0,1,.141.222.116.116,0,0,1,.006.037c0,.007,0,.009,0,.014l-.01.008-.006,0-.015.007-.009,0-.015,0-.032.007a2.009,2.009,0,0,1-.292.022c-.1,0-.2,0-.3,0-.2-.006-.405-.018-.609-.033-.406-.031-.812-.075-1.215-.133-.2-.03-.4-.062-.6-.1q-.15-.029-.3-.067a2.066,2.066,0,0,1-.291-.094,2.047,2.047,0,0,0,.287.109c.1.031.2.057.3.082.2.05.4.093.6.132q.6.117,1.213.194c.2.026.407.048.613.064.1.008.205.014.31.017a2.191,2.191,0,0,0,.32-.009.481.481,0,0,0,.094-.02l.02-.007L44.4,379a.24.24,0,0,0,.051-.038.212.212,0,0,0,.061-.122.3.3,0,0,0-.007-.114.91.91,0,0,0-.166-.3,2.911,2.911,0,0,0-.209-.24c-.073-.076-.147-.148-.228-.22a.1.1,0,0,0-.031-.019l-.006,0L39.9,376.417c.421-.368,1.148-.889,1.45-1.1a.269.269,0,0,0,.063-.063c1.035-.038,5.213-.184,7.77-.184s6.735.146,7.77.184a.272.272,0,0,0,.063.063C57.313,375.528,58.04,376.049,58.46,376.417Zm.931-1.674-1.439.568c-.163-.121-.312-.227-.425-.307a1.8,1.8,0,0,0,.168-1.12c.188-.016.517-.038.853-.038a5.137,5.137,0,0,1,.515.023.289.289,0,0,1,.219.119A1.2,1.2,0,0,1,59.391,374.743Z" transform="translate(-38.633 -370.94)"/>
        <path id="Path_53891-4" data-name="Path 53891" class="cls-1" d="M111.089,397.953a29.521,29.521,0,0,0-3.5,1.1s-.591.446-.383.505a16.78,16.78,0,0,0,3.16-.435C110.648,398.967,111.512,398.1,111.089,397.953Z" transform="translate(-91.4 -391.738)"/>
        <path id="Path_53892-4" data-name="Path 53892" class="cls-1" d="M67.36,397.662c-.166.043-.344.092-.531.159a2.159,2.159,0,0,0-.285.12.64.64,0,0,0-.143.1,1.033,1.033,0,0,0-.1.138,2.117,2.117,0,0,1-.453.433,1.475,1.475,0,0,1-.273.157.62.62,0,0,1-.138.043h-.073l-.086,0c-.115.007-.224,0-.334,0s-.218,0-.331-.007l-.655-.022-1.162-.047-.9-.042v-.022l-.233.011-.233-.011v.022l-.9.042-1.162.047-.655.022c-.113,0-.22,0-.331.007s-.219.008-.334,0l-.085,0h-.074a.626.626,0,0,1-.138-.043,1.49,1.49,0,0,1-.273-.157,2.111,2.111,0,0,1-.452-.433,1.1,1.1,0,0,0-.1-.138.638.638,0,0,0-.143-.1,2.146,2.146,0,0,0-.285-.12c-.187-.067-.366-.116-.531-.159-.331-.086-.61-.144-.8-.184s-.307-.059-.307-.059.111.027.3.078.466.128.788.235c.161.054.335.115.512.191a2.18,2.18,0,0,1,.261.131.512.512,0,0,1,.109.083,1.262,1.262,0,0,1,.077.121,2.274,2.274,0,0,0,.461.5,1.723,1.723,0,0,0,.3.2.839.839,0,0,0,.182.069l.012,0h.02l.021,0,.043,0,.085.008c.111.014.23.015.345.022s.234.012.344.016l.658.021,1.165.029.892.016v.009l.238,0h.008l.237,0v-.009l.892-.016,1.166-.029.658-.021c.111,0,.229-.01.344-.016s.234-.008.346-.022l.085-.008.042,0,.021,0h.02l.012,0a.841.841,0,0,0,.182-.069,1.717,1.717,0,0,0,.3-.2,2.28,2.28,0,0,0,.461-.5,1.178,1.178,0,0,1,.077-.121.527.527,0,0,1,.109-.083,2.179,2.179,0,0,1,.261-.131c.177-.076.351-.137.512-.191.323-.107.6-.182.788-.235s.3-.078.3-.078-.112.019-.307.059S67.691,397.576,67.36,397.662Z" transform="translate(-51.111 -391.328)"/>
        <path id="Path_53893-4" data-name="Path 53893" class="cls-1" d="M43.127,417.2s-.272,1.231,0,1.577,2.918.327,3.29,0,.173-1.442.173-1.442C45.526,417.331,43.127,417.2,43.127,417.2Z" transform="translate(-42 -406.556)"/>
        <path id="Path_53894-4" data-name="Path 53894" class="cls-1" d="M110.052,417.331s-.2,1.116.174,1.442,3.028.347,3.3,0,0-1.577,0-1.577S111.119,417.331,110.052,417.331Z" transform="translate(-93.583 -406.556)"/>
      </g>
      <path id="Path_70622-4" data-name="Path 70622" class="cls-1" d="M0,0H6.771V1.693H0Z" transform="translate(6.895 8.018)"/>
    </g>
    <g id="Group_131014" data-name="Group 131014" transform="translate(3497.571 981.891)">
      <g id="Group_29068-5" data-name="Group 29068" transform="translate(0 0)">
        <path id="Path_53889-5" data-name="Path 53889" class="cls-1" d="M48.218,399.56c.209-.059-.383-.505-.383-.505a29.515,29.515,0,0,0-3.5-1.1c-.423.145.441,1.014.719,1.171A16.782,16.782,0,0,0,48.218,399.56Z" transform="translate(-42.939 -391.738)"/>
        <path id="Path_53890-5" data-name="Path 53890" class="cls-1" d="M59.536,373.8a.61.61,0,0,0-.441-.244c-.157-.016-.341-.024-.547-.024-.53,0-1.027.052-1.048.055a.158.158,0,0,0-.14.182,2.015,2.015,0,0,1-.061,1.009c-.181-.294-.571-.922-1-1.555-1.225-1.823-1.533-1.9-1.681-1.931-.514-.121-4.108-.281-5.179-.327v-.022l-.265.011-.265-.011v.022c-1.071.045-4.665.206-5.179.327-.148.035-.457.108-1.681,1.931-.424.632-.815,1.26-1,1.555a2.019,2.019,0,0,1-.061-1.009.158.158,0,0,0-.14-.182c-.021,0-.518-.055-1.048-.055-.206,0-.39.008-.547.024a.612.612,0,0,0-.441.244,1.6,1.6,0,0,0-.154,1.088.158.158,0,0,0,.1.118l1.343.531a6.6,6.6,0,0,0-.88.764c-.1.123-.3.351-.2,2.6.045,1.064.136,2.087.137,2.1l.025.275.5-.044c1.32.107,5.7.431,10.589.431a73.451,73.451,0,0,0,8.45-.427l.447.04.025-.275c0-.011.092-1.034.137-2.1.1-2.245-.1-2.474-.2-2.6a6.6,6.6,0,0,0-.88-.764L59.592,375a.158.158,0,0,0,.1-.118A1.6,1.6,0,0,0,59.536,373.8Zm-15.67-1.971c.414-.093,3.394-.242,5.313-.321,1.919.079,4.9.229,5.313.321a15.15,15.15,0,0,1,2.256,3.106c-1.277-.046-4.991-.171-7.411-.177H49.02c-2.42.006-6.134.13-7.411.177A15.145,15.145,0,0,1,43.865,371.827Zm-4.9,2.916a1.2,1.2,0,0,1,.109-.755.29.29,0,0,1,.219-.12,5.146,5.146,0,0,1,.515-.023c.336,0,.665.023.853.038a1.8,1.8,0,0,0,.168,1.12c-.113.081-.262.187-.425.307Zm19.5,1.674-3.971,1.528-.007,0a.1.1,0,0,0-.031.019c-.08.072-.154.143-.228.22a3.011,3.011,0,0,0-.209.24.914.914,0,0,0-.166.3.293.293,0,0,0-.007.114.211.211,0,0,0,.062.122.233.233,0,0,0,.051.038l.029.014.02.007a.5.5,0,0,0,.095.02,2.193,2.193,0,0,0,.32.009c.1,0,.207-.009.31-.017.205-.016.409-.038.613-.064q.61-.077,1.213-.194c.2-.039.4-.082.6-.132.1-.026.2-.052.3-.082a2.033,2.033,0,0,0,.287-.109,2.083,2.083,0,0,1-.291.094c-.1.025-.2.047-.3.067-.2.04-.4.073-.6.1q-.605.087-1.215.133c-.2.016-.406.028-.609.033-.1,0-.2,0-.3,0a2.009,2.009,0,0,1-.292-.022l-.032-.007-.014,0-.009,0-.016-.007-.005,0-.01-.008c0-.005,0-.006,0-.014a.121.121,0,0,1,.006-.037.756.756,0,0,1,.141-.222,2.582,2.582,0,0,1,.2-.211c.066-.063.136-.124.205-.181l4.156-1.363a22.858,22.858,0,0,1-.089,3.941c-.668.079-1.356.146-2.057.2H42.816c-1.472-.083-2.578-.168-3.12-.212a22.734,22.734,0,0,1-.087-3.929l4.156,1.363c.069.057.139.118.205.181a2.628,2.628,0,0,1,.2.211.749.749,0,0,1,.141.222.116.116,0,0,1,.006.037c0,.007,0,.009,0,.014l-.01.008-.006,0-.015.007-.009,0-.015,0-.032.007a2.009,2.009,0,0,1-.292.022c-.1,0-.2,0-.3,0-.2-.006-.405-.018-.609-.033-.406-.031-.812-.075-1.215-.133-.2-.03-.4-.062-.6-.1q-.15-.029-.3-.067a2.066,2.066,0,0,1-.291-.094,2.047,2.047,0,0,0,.287.109c.1.031.2.057.3.082.2.05.4.093.6.132q.6.117,1.213.194c.2.026.407.048.613.064.1.008.205.014.31.017a2.191,2.191,0,0,0,.32-.009.481.481,0,0,0,.094-.02l.02-.007L44.4,379a.24.24,0,0,0,.051-.038.212.212,0,0,0,.061-.122.3.3,0,0,0-.007-.114.91.91,0,0,0-.166-.3,2.911,2.911,0,0,0-.209-.24c-.073-.076-.147-.148-.228-.22a.1.1,0,0,0-.031-.019l-.006,0L39.9,376.417c.421-.368,1.148-.889,1.45-1.1a.269.269,0,0,0,.063-.063c1.035-.038,5.213-.184,7.77-.184s6.735.146,7.77.184a.272.272,0,0,0,.063.063C57.313,375.528,58.04,376.049,58.46,376.417Zm.931-1.674-1.439.568c-.163-.121-.312-.227-.425-.307a1.8,1.8,0,0,0,.168-1.12c.188-.016.517-.038.853-.038a5.137,5.137,0,0,1,.515.023.289.289,0,0,1,.219.119A1.2,1.2,0,0,1,59.391,374.743Z" transform="translate(-38.633 -370.94)"/>
        <path id="Path_53891-5" data-name="Path 53891" class="cls-1" d="M111.089,397.953a29.521,29.521,0,0,0-3.5,1.1s-.591.446-.383.505a16.78,16.78,0,0,0,3.16-.435C110.648,398.967,111.512,398.1,111.089,397.953Z" transform="translate(-91.4 -391.738)"/>
        <path id="Path_53892-5" data-name="Path 53892" class="cls-1" d="M67.36,397.662c-.166.043-.344.092-.531.159a2.159,2.159,0,0,0-.285.12.64.64,0,0,0-.143.1,1.033,1.033,0,0,0-.1.138,2.117,2.117,0,0,1-.453.433,1.475,1.475,0,0,1-.273.157.62.62,0,0,1-.138.043h-.073l-.086,0c-.115.007-.224,0-.334,0s-.218,0-.331-.007l-.655-.022-1.162-.047-.9-.042v-.022l-.233.011-.233-.011v.022l-.9.042-1.162.047-.655.022c-.113,0-.22,0-.331.007s-.219.008-.334,0l-.085,0h-.074a.626.626,0,0,1-.138-.043,1.49,1.49,0,0,1-.273-.157,2.111,2.111,0,0,1-.452-.433,1.1,1.1,0,0,0-.1-.138.638.638,0,0,0-.143-.1,2.146,2.146,0,0,0-.285-.12c-.187-.067-.366-.116-.531-.159-.331-.086-.61-.144-.8-.184s-.307-.059-.307-.059.111.027.3.078.466.128.788.235c.161.054.335.115.512.191a2.18,2.18,0,0,1,.261.131.512.512,0,0,1,.109.083,1.262,1.262,0,0,1,.077.121,2.274,2.274,0,0,0,.461.5,1.723,1.723,0,0,0,.3.2.839.839,0,0,0,.182.069l.012,0h.02l.021,0,.043,0,.085.008c.111.014.23.015.345.022s.234.012.344.016l.658.021,1.165.029.892.016v.009l.238,0h.008l.237,0v-.009l.892-.016,1.166-.029.658-.021c.111,0,.229-.01.344-.016s.234-.008.346-.022l.085-.008.042,0,.021,0h.02l.012,0a.841.841,0,0,0,.182-.069,1.717,1.717,0,0,0,.3-.2,2.28,2.28,0,0,0,.461-.5,1.178,1.178,0,0,1,.077-.121.527.527,0,0,1,.109-.083,2.179,2.179,0,0,1,.261-.131c.177-.076.351-.137.512-.191.323-.107.6-.182.788-.235s.3-.078.3-.078-.112.019-.307.059S67.691,397.576,67.36,397.662Z" transform="translate(-51.111 -391.328)"/>
        <path id="Path_53893-5" data-name="Path 53893" class="cls-1" d="M43.127,417.2s-.272,1.231,0,1.577,2.918.327,3.29,0,.173-1.442.173-1.442C45.526,417.331,43.127,417.2,43.127,417.2Z" transform="translate(-42 -406.556)"/>
        <path id="Path_53894-5" data-name="Path 53894" class="cls-1" d="M110.052,417.331s-.2,1.116.174,1.442,3.028.347,3.3,0,0-1.577,0-1.577S111.119,417.331,110.052,417.331Z" transform="translate(-93.583 -406.556)"/>
      </g>
      <path id="Path_70622-5" data-name="Path 70622" class="cls-1" d="M0,0H6.771V1.693H0Z" transform="translate(6.895 8.018)"/>
    </g>
  </g>
</svg>
