<svg xmlns="http://www.w3.org/2000/svg" width="62.051" height="62.05" viewBox="0 0 62.051 62.05">
  <g id="Group_29113" data-name="Group 29113" transform="translate(-3447.387 -5645.411)">
    <g id="Group_29112" data-name="Group 29112" transform="translate(12 -2)">
      <g id="Group_29111" data-name="Group 29111" transform="translate(77 2)">
        <g id="Group_29108" data-name="Group 29108" transform="translate(122 62)">
          <g id="Group_29102" data-name="Group 29102" transform="translate(-3043 3940.905)" style="isolation: isolate">
            <g id="Group_23077" data-name="Group 23077" transform="translate(6279.387 1642.506)" style="mix-blend-mode: overlay;isolation: isolate">
              <g id="Group_23072" data-name="Group 23072">
                <g id="Group_238" data-name="Group 238">
                  <g id="Union_1" data-name="Union 1" transform="translate(51.617)" fill="#fff">
                    <path d="M 9.933235168457031 9.933235168457031 L 8.660675048828125 9.933235168457031 L 8.660675048828125 2.272545099258423 L 8.660675048828125 1.772545218467712 L 8.160675048828125 1.772545218467712 L 0.4999952018260956 1.772545218467712 L 0.4999952018260956 0.4999952018260956 L 9.830035209655762 0.4999952018260956 L 9.830035209655762 0.6033852100372314 L 9.933235168457031 0.6033852100372314 L 9.933235168457031 9.933235168457031 Z" stroke="none"/>
                    <path d="M 9.433235168457031 9.433235168457031 L 9.433235168457031 1.103385210037231 L 9.330035209655762 1.103385210037231 L 9.330035209655762 0.9999951720237732 L 0.9999951720237732 0.9999951720237732 L 0.9999951720237732 1.272545218467712 L 8.160675048828125 1.272545218467712 L 9.160675048828125 1.272545218467712 L 9.160675048828125 2.272545099258423 L 9.160675048828125 9.433235168457031 L 9.433235168457031 9.433235168457031 M 10.43323516845703 10.43323516845703 L 8.160675048828125 10.43323516845703 L 8.160675048828125 2.272545099258423 L -4.799957423529122e-06 2.272545099258423 L -4.799957423529122e-06 -4.799957423529122e-06 L 10.33003520965576 -4.799957423529122e-06 L 10.33003520965576 0.1033852025866508 L 10.43323516845703 0.1033852025866508 L 10.43323516845703 10.43323516845703 Z" stroke="none" fill="#fff"/>
                  </g>
                  <g id="Union_3" data-name="Union 3" transform="translate(51.617 51.617)" fill="#fff">
                    <path d="M 9.830038070678711 9.933235168457031 L 0.4999980628490448 9.933235168457031 L 0.4999980628490448 8.660675048828125 L 8.160688400268555 8.660675048828125 L 8.660688400268555 8.660675048828125 L 8.660688400268555 8.160675048828125 L 8.660688400268555 0.4999952018260956 L 9.93323802947998 0.4999952018260956 L 9.93323802947998 9.829845428466797 L 9.830038070678711 9.829845428466797 L 9.830038070678711 9.933235168457031 Z" stroke="none"/>
                    <path d="M 9.160688400268555 0.999995231628418 L 9.160688400268555 8.160675048828125 L 9.160688400268555 9.160675048828125 L 8.160688400268555 9.160675048828125 L 0.9999980926513672 9.160675048828125 L 0.9999980926513672 9.433235168457031 L 9.330038070678711 9.433235168457031 L 9.330038070678711 9.329845428466797 L 9.43323802947998 9.329845428466797 L 9.43323802947998 0.999995231628418 L 9.160688400268555 0.999995231628418 M 8.160688400268555 -4.76837158203125e-06 L 10.43323802947998 -4.76837158203125e-06 L 10.43323802947998 10.3298454284668 L 10.33003807067871 10.3298454284668 L 10.33003807067871 10.43323516845703 L -1.9073486328125e-06 10.43323516845703 L -1.9073486328125e-06 8.160675048828125 L 8.160688400268555 8.160675048828125 L 8.160688400268555 -4.76837158203125e-06 Z" stroke="none" fill="#fff"/>
                  </g>
                  <g id="Union_2" data-name="Union 2" transform="translate(10.433 10.433) rotate(180)" fill="#fff">
                    <path d="M 9.830072402954102 9.933235168457031 L 0.5000028610229492 9.933235168457031 L 0.5000028610229492 8.660685539245605 L 8.160713195800781 8.660685539245605 L 8.660713195800781 8.660685539245605 L 8.660713195800781 8.160685539245605 L 8.660713195800781 0.4999952018260956 L 9.933262825012207 0.4999952018260956 L 9.933262825012207 9.829845428466797 L 9.830072402954102 9.829845428466797 L 9.830072402954102 9.933235168457031 Z" stroke="none"/>
                    <path d="M 9.160713195800781 0.999995231628418 L 9.160713195800781 8.160685539245605 L 9.160713195800781 9.160685539245605 L 8.160713195800781 9.160685539245605 L 1.000002861022949 9.160685539245605 L 1.000002861022949 9.433235168457031 L 9.330072402954102 9.433235168457031 L 9.330072402954102 9.329845428466797 L 9.433262825012207 9.329845428466797 L 9.433262825012207 0.999995231628418 L 9.160713195800781 0.999995231628418 M 8.160713195800781 -4.76837158203125e-06 L 10.43326282501221 -4.76837158203125e-06 L 10.43326282501221 10.3298454284668 L 10.3300724029541 10.3298454284668 L 10.3300724029541 10.43323516845703 L 2.86102294921875e-06 10.43323516845703 L 2.86102294921875e-06 8.160685539245605 L 8.160713195800781 8.160685539245605 L 8.160713195800781 -4.76837158203125e-06 Z" stroke="none" fill="#fff"/>
                  </g>
                  <g id="Union_4" data-name="Union 4" transform="translate(10.433 62.05) rotate(180)" fill="#fff">
                    <path d="M 9.93327522277832 9.933235168457031 L 8.660715103149414 9.933235168457031 L 8.660715103149414 2.272545099258423 L 8.660715103149414 1.772545218467712 L 8.160715103149414 1.772545218467712 L 0.499995231628418 1.772545218467712 L 0.499995231628418 0.4999952018260956 L 9.830075263977051 0.4999952018260956 L 9.830075263977051 0.6033852100372314 L 9.93327522277832 0.6033852100372314 L 9.93327522277832 9.933235168457031 Z" stroke="none"/>
                    <path d="M 9.43327522277832 9.433235168457031 L 9.43327522277832 1.103385210037231 L 9.330075263977051 1.103385210037231 L 9.330075263977051 0.9999951720237732 L 0.999995231628418 0.9999951720237732 L 0.999995231628418 1.272545218467712 L 8.160715103149414 1.272545218467712 L 9.160715103149414 1.272545218467712 L 9.160715103149414 2.272545099258423 L 9.160715103149414 9.433235168457031 L 9.43327522277832 9.433235168457031 M 10.43327522277832 10.43323516845703 L 8.160715103149414 10.43323516845703 L 8.160715103149414 2.272545099258423 L -4.772796728502726e-06 2.272545099258423 L -4.772796728502726e-06 -4.799957423529122e-06 L 10.33007526397705 -4.799957423529122e-06 L 10.33007526397705 0.1033852025866508 L 10.43327522277832 0.1033852025866508 L 10.43327522277832 10.43323516845703 Z" stroke="none" fill="#fff"/>
                  </g>
                </g>
              </g>
            </g>
          </g>
        </g>
      </g>
      <g id="Group_29107" data-name="Group 29107" transform="translate(3449.436 5662.684)">
        <g id="Group_3885" data-name="Group 3885" transform="translate(0 0)">
          <path id="Path_7610" data-name="Path 7610" d="M159.7,156.722a.563.563,0,0,1-.563-.563V127.172a.562.562,0,0,1,.748-.531l7.58,2.648a.563.563,0,0,1,.377.531v23.691a.562.562,0,0,1-.377.531l-7.58,2.648A.563.563,0,0,1,159.7,156.722Zm.563-28.758v27.4l6.454-2.255V130.219Z" transform="translate(-136.806 -124.294)" fill="#fff"/>
          <path id="Path_7611" data-name="Path 7611" d="M171.949,154.233a.563.563,0,0,1-.563-.563V128.06h-2.125a.563.563,0,0,1,0-1.125h2.688a.562.562,0,0,1,.563.563V153.67A.563.563,0,0,1,171.949,154.233Z" transform="translate(-141.472 -124.454)" fill="#fff"/>
          <path id="Path_7612" data-name="Path 7612" d="M164.721,152.761a.881.881,0,1,1-.881-.881A.881.881,0,0,1,164.721,152.761Z" transform="translate(-138.67 -136.63)" fill="#fff"/>
          <path id="Path_7613" data-name="Path 7613" d="M129.3,156.722a.567.567,0,0,1-.186-.031l-7.579-2.648a.562.562,0,0,1-.377-.531V129.82a.563.563,0,0,1,.377-.531l7.579-2.648a.562.562,0,0,1,.748.531V156.16a.563.563,0,0,1-.563.563Zm-7.017-3.61,6.454,2.255v-27.4l-6.454,2.255Z" transform="translate(-118.266 -124.294)" fill="#fff"/>
          <path id="Path_7614" data-name="Path 7614" d="M148.292,128.06h-7.513a.563.563,0,0,1,0-1.125h7.513a.563.563,0,1,1,0,1.125Z" transform="translate(-127.568 -124.454)" fill="#fff"/>
          <path id="Path_7615" data-name="Path 7615" d="M121.724,154.233a.563.563,0,0,1-.563-.563V127.5a.562.562,0,0,1,.563-.563h2.688a.563.563,0,1,1,0,1.125h-2.125v25.61A.563.563,0,0,1,121.724,154.233Z" transform="translate(-118.266 -124.454)" fill="#fff"/>
          <path id="Path_7616" data-name="Path 7616" d="M148.878,151.866a.563.563,0,0,1-.563-.563V123.212H116.63V151.3a.563.563,0,1,1-1.125,0V122.65a.562.562,0,0,1,.563-.563h32.81a.563.563,0,0,1,.563.563V151.3A.563.563,0,0,1,148.878,151.866Z" transform="translate(-115.505 -122.087)" fill="#fff"/>
          <path id="Path_7617" data-name="Path 7617" d="M130.908,152.761a.881.881,0,1,0,.881-.881A.881.881,0,0,0,130.908,152.761Z" transform="translate(-123.024 -136.63)" fill="#fff"/>
        </g>
      </g>
    </g>
  </g>
</svg>
