<svg xmlns="http://www.w3.org/2000/svg" width="62.051" height="62.05" viewBox="0 0 62.051 62.05">
  <g id="Group_29101" data-name="Group 29101" transform="translate(-3007.387 -5501.411)">
    <g id="Group_29098" data-name="Group 29098" transform="translate(2789.5 5373.308)">
      <g id="Group_25250" data-name="Group 25250" transform="translate(227.802 137.387)">
        <g id="Group_25228" data-name="Group 25228" transform="translate(12.037 25.8)">
          <path id="Path_53139" data-name="Path 53139" d="M243.113,182.906a.217.217,0,0,1-.115-.4l2.878-1.789a.216.216,0,0,1,.228.368l-2.877,1.789A.222.222,0,0,1,243.113,182.906Zm4.837-3.007a.217.217,0,0,1-.114-.4l2.877-1.788a.216.216,0,0,1,.228.367l-2.877,1.789A.214.214,0,0,1,247.95,179.9Zm4.837-3.007a.216.216,0,0,1-.114-.4l2.877-1.789a.216.216,0,0,1,.228.368L252.9,176.86A.212.212,0,0,1,252.786,176.893Zm4.837-3.006a.217.217,0,0,1-.114-.4l2.877-1.788a.216.216,0,1,1,.228.367l-2.877,1.789A.214.214,0,0,1,257.623,173.887Zm4.837-3.007a.216.216,0,0,1-.114-.4l1.142-.71a.216.216,0,1,1,.228.367l-1.142.71A.212.212,0,0,1,262.46,170.881Z" transform="translate(-242.896 -169.739)" fill="#fff" stroke="#fff" stroke-width="1"/>
        </g>
        <g id="Group_25229" data-name="Group 25229" transform="translate(9.085 8.641)">
          <path id="Path_53140" data-name="Path 53140" d="M262.622,160.734a.211.211,0,0,1-.1-.025l-3.006-1.564a.216.216,0,0,1,.2-.384l3.006,1.564a.216.216,0,0,1-.1.408Zm-5.051-2.629a.214.214,0,0,1-.1-.024l-3.006-1.564a.216.216,0,0,1,.2-.384l3,1.564a.216.216,0,0,1-.1.408Zm-5.052-2.629a.214.214,0,0,1-.1-.025l-3.006-1.564a.216.216,0,0,1,.2-.384l3,1.564a.216.216,0,0,1-.1.408Zm-5.052-2.629a.214.214,0,0,1-.1-.025l-3-1.564a.216.216,0,1,1,.2-.384l3.006,1.564a.216.216,0,0,1-.1.408Zm-5.052-2.629a.21.21,0,0,1-.1-.024l-3.006-1.565a.216.216,0,1,1,.2-.384l3.006,1.564a.216.216,0,0,1-.1.408Z" transform="translate(-239.193 -148.222)" fill="#fff" stroke="#fff" stroke-width="1"/>
        </g>
        <g id="Group_25233" data-name="Group 25233" transform="translate(0 26.564)">
          <g id="Group_25230" data-name="Group 25230" transform="translate(0.224 0.223)">
            <path id="Path_53141" data-name="Path 53141" d="M234,170.977a5.919,5.919,0,0,0-5.92,5.92c0,4.332,5.92,9.557,5.92,9.557s5.919-5.225,5.919-9.557A5.919,5.919,0,0,0,234,170.977Zm0,9.855a4.233,4.233,0,1,1,4.232-4.233A4.233,4.233,0,0,1,234,180.832Z" transform="translate(-228.083 -170.977)" fill="#fff" stroke="#fff" stroke-width="1"/>
          </g>
          <g id="Group_25231" data-name="Group 25231" transform="translate(0.224 0.223)">
            <path id="Path_53142" data-name="Path 53142" d="M234,172.366v-1.389a5.92,5.92,0,0,0-5.92,5.92c0,4.332,5.92,9.557,5.92,9.557v-5.621a4.233,4.233,0,0,1,0-8.466Z" transform="translate(-228.083 -170.977)" fill="#fff" stroke="#fff" stroke-width="1"/>
          </g>
          <g id="Group_25232" data-name="Group 25232">
            <path id="Path_53143" data-name="Path 53143" d="M233.946,186.7l-.148-.131c-.245-.216-6-5.342-6-9.725a6.143,6.143,0,0,1,12.287,0c0,4.383-5.751,9.508-6,9.725Zm0-15.551a5.7,5.7,0,0,0-5.7,5.7c0,3.8,4.786,8.413,5.7,9.255.909-.842,5.7-5.452,5.7-9.255A5.7,5.7,0,0,0,233.946,171.144Zm0,9.855a4.457,4.457,0,1,1,4.456-4.456A4.462,4.462,0,0,1,233.946,181Zm0-8.466a4.009,4.009,0,1,0,4.009,4.01A4.014,4.014,0,0,0,233.946,172.533Z" transform="translate(-227.802 -170.697)" fill="#fff" stroke="#fff" stroke-width="1"/>
          </g>
        </g>
        <g id="Group_25241" data-name="Group 25241" transform="translate(32.878 11.501)">
          <g id="Group_25238" data-name="Group 25238" transform="translate(0.165 0.165)">
            <path id="Path_53147" data-name="Path 53147" d="M273.613,152.015a4.377,4.377,0,0,0-4.377,4.377c0,3.2,4.377,7.065,4.377,7.065s4.376-3.863,4.376-7.065A4.376,4.376,0,0,0,273.613,152.015Zm0,7.285a3.129,3.129,0,1,1,3.129-3.129A3.128,3.128,0,0,1,273.613,159.3Z" transform="translate(-269.236 -152.015)" fill="#fff" stroke="#fff" stroke-width="1"/>
          </g>
          <g id="Group_25239" data-name="Group 25239" transform="translate(0.165 0.165)">
            <path id="Path_53148" data-name="Path 53148" d="M273.613,153.042v-1.027a4.377,4.377,0,0,0-4.377,4.377c0,3.2,4.377,7.065,4.377,7.065V159.3a3.129,3.129,0,1,1,0-6.259Z" transform="translate(-269.236 -152.015)" fill="#fff" stroke="#fff" stroke-width="1"/>
          </g>
          <g id="Group_25240" data-name="Group 25240">
            <path id="Path_53149" data-name="Path 53149" d="M273.57,163.635l-.109-.1c-.181-.16-4.432-3.949-4.432-7.189a4.541,4.541,0,1,1,9.083,0c0,3.239-4.251,7.029-4.432,7.189Zm0-11.5a4.215,4.215,0,0,0-4.21,4.211c0,2.81,3.538,6.218,4.21,6.841.673-.623,4.212-4.031,4.212-6.841A4.216,4.216,0,0,0,273.57,152.139Zm0,7.285a3.295,3.295,0,1,1,3.294-3.294A3.3,3.3,0,0,1,273.57,159.424Zm0-6.259a2.964,2.964,0,1,0,2.964,2.964A2.967,2.967,0,0,0,273.57,153.165Z" transform="translate(-269.029 -151.808)" fill="#fff" stroke="#fff" stroke-width="1"/>
          </g>
        </g>
        <g id="Group_25249" data-name="Group 25249" transform="translate(3.221)">
          <g id="Group_25246" data-name="Group 25246" transform="translate(0.106 0.107)">
            <path id="Path_53154" data-name="Path 53154" d="M234.791,137.521a2.816,2.816,0,0,0-2.817,2.816c0,2.061,2.817,4.547,2.817,4.547s2.816-2.486,2.816-4.547A2.816,2.816,0,0,0,234.791,137.521Zm0,4.688A2.014,2.014,0,1,1,236.8,140.2,2.014,2.014,0,0,1,234.791,142.209Z" transform="translate(-231.974 -137.521)" fill="#fff" stroke="#fff" stroke-width="1"/>
          </g>
          <g id="Group_25247" data-name="Group 25247" transform="translate(0.106 0.107)">
            <path id="Path_53155" data-name="Path 53155" d="M234.791,138.181v-.66a2.816,2.816,0,0,0-2.817,2.816c0,2.061,2.817,4.547,2.817,4.547v-2.675a2.014,2.014,0,1,1,0-4.028Z" transform="translate(-231.974 -137.521)" fill="#fff" stroke="#fff" stroke-width="1"/>
          </g>
          <g id="Group_25248" data-name="Group 25248">
            <path id="Path_53156" data-name="Path 53156" d="M234.764,145l-.071-.062c-.116-.1-2.852-2.542-2.852-4.627a2.922,2.922,0,1,1,5.845,0c0,2.085-2.735,4.524-2.852,4.627Zm0-7.4a2.713,2.713,0,0,0-2.71,2.71c0,1.809,2.277,4,2.71,4.4.433-.4,2.709-2.593,2.709-4.4A2.713,2.713,0,0,0,234.764,137.6Zm0,4.688a2.12,2.12,0,1,1,2.12-2.12A2.122,2.122,0,0,1,234.764,142.288Zm0-4.027a1.907,1.907,0,1,0,1.907,1.908A1.91,1.91,0,0,0,234.764,138.261Z" transform="translate(-231.841 -137.387)" fill="#fff" stroke="#fff" stroke-width="1"/>
          </g>
        </g>
      </g>
    </g>
    <g id="Group_29099" data-name="Group 29099" transform="translate(3007.387 5501.411)" style="isolation: isolate">
      <g id="Group_23072" data-name="Group 23072">
        <g id="Group_238" data-name="Group 238">
          <g id="Union_1" data-name="Union 1" transform="translate(51.617)" fill="#fff">
            <path d="M 9.933235168457031 9.933235168457031 L 8.660675048828125 9.933235168457031 L 8.660675048828125 2.272545099258423 L 8.660675048828125 1.772545218467712 L 8.160675048828125 1.772545218467712 L 0.4999952018260956 1.772545218467712 L 0.4999952018260956 0.4999952018260956 L 9.830035209655762 0.4999952018260956 L 9.830035209655762 0.6033852100372314 L 9.933235168457031 0.6033852100372314 L 9.933235168457031 9.933235168457031 Z" stroke="none"/>
            <path d="M 9.433235168457031 9.433235168457031 L 9.433235168457031 1.103385210037231 L 9.330035209655762 1.103385210037231 L 9.330035209655762 0.9999951720237732 L 0.9999951720237732 0.9999951720237732 L 0.9999951720237732 1.272545218467712 L 8.160675048828125 1.272545218467712 L 9.160675048828125 1.272545218467712 L 9.160675048828125 2.272545099258423 L 9.160675048828125 9.433235168457031 L 9.433235168457031 9.433235168457031 M 10.43323516845703 10.43323516845703 L 8.160675048828125 10.43323516845703 L 8.160675048828125 2.272545099258423 L -4.799957423529122e-06 2.272545099258423 L -4.799957423529122e-06 -4.799957423529122e-06 L 10.33003520965576 -4.799957423529122e-06 L 10.33003520965576 0.1033852025866508 L 10.43323516845703 0.1033852025866508 L 10.43323516845703 10.43323516845703 Z" stroke="none" fill="#fff"/>
          </g>
          <g id="Union_3" data-name="Union 3" transform="translate(51.617 51.617)" fill="#fff">
            <path d="M 9.830038070678711 9.933235168457031 L 0.4999980628490448 9.933235168457031 L 0.4999980628490448 8.660675048828125 L 8.160688400268555 8.660675048828125 L 8.660688400268555 8.660675048828125 L 8.660688400268555 8.160675048828125 L 8.660688400268555 0.4999952018260956 L 9.93323802947998 0.4999952018260956 L 9.93323802947998 9.829845428466797 L 9.830038070678711 9.829845428466797 L 9.830038070678711 9.933235168457031 Z" stroke="none"/>
            <path d="M 9.160688400268555 0.999995231628418 L 9.160688400268555 8.160675048828125 L 9.160688400268555 9.160675048828125 L 8.160688400268555 9.160675048828125 L 0.9999980926513672 9.160675048828125 L 0.9999980926513672 9.433235168457031 L 9.330038070678711 9.433235168457031 L 9.330038070678711 9.329845428466797 L 9.43323802947998 9.329845428466797 L 9.43323802947998 0.999995231628418 L 9.160688400268555 0.999995231628418 M 8.160688400268555 -4.76837158203125e-06 L 10.43323802947998 -4.76837158203125e-06 L 10.43323802947998 10.3298454284668 L 10.33003807067871 10.3298454284668 L 10.33003807067871 10.43323516845703 L -1.9073486328125e-06 10.43323516845703 L -1.9073486328125e-06 8.160675048828125 L 8.160688400268555 8.160675048828125 L 8.160688400268555 -4.76837158203125e-06 Z" stroke="none" fill="#fff"/>
          </g>
          <g id="Union_2" data-name="Union 2" transform="translate(10.433 10.433) rotate(180)" fill="#fff">
            <path d="M 9.830072402954102 9.933235168457031 L 0.5000028610229492 9.933235168457031 L 0.5000028610229492 8.660685539245605 L 8.160713195800781 8.660685539245605 L 8.660713195800781 8.660685539245605 L 8.660713195800781 8.160685539245605 L 8.660713195800781 0.4999952018260956 L 9.933262825012207 0.4999952018260956 L 9.933262825012207 9.829845428466797 L 9.830072402954102 9.829845428466797 L 9.830072402954102 9.933235168457031 Z" stroke="none"/>
            <path d="M 9.160713195800781 0.999995231628418 L 9.160713195800781 8.160685539245605 L 9.160713195800781 9.160685539245605 L 8.160713195800781 9.160685539245605 L 1.000002861022949 9.160685539245605 L 1.000002861022949 9.433235168457031 L 9.330072402954102 9.433235168457031 L 9.330072402954102 9.329845428466797 L 9.433262825012207 9.329845428466797 L 9.433262825012207 0.999995231628418 L 9.160713195800781 0.999995231628418 M 8.160713195800781 -4.76837158203125e-06 L 10.43326282501221 -4.76837158203125e-06 L 10.43326282501221 10.3298454284668 L 10.3300724029541 10.3298454284668 L 10.3300724029541 10.43323516845703 L 2.86102294921875e-06 10.43323516845703 L 2.86102294921875e-06 8.160685539245605 L 8.160713195800781 8.160685539245605 L 8.160713195800781 -4.76837158203125e-06 Z" stroke="none" fill="#fff"/>
          </g>
          <g id="Union_4" data-name="Union 4" transform="translate(10.433 62.05) rotate(180)" fill="#fff">
            <path d="M 9.93327522277832 9.933235168457031 L 8.660715103149414 9.933235168457031 L 8.660715103149414 2.272545099258423 L 8.660715103149414 1.772545218467712 L 8.160715103149414 1.772545218467712 L 0.499995231628418 1.772545218467712 L 0.499995231628418 0.4999952018260956 L 9.830075263977051 0.4999952018260956 L 9.830075263977051 0.6033852100372314 L 9.93327522277832 0.6033852100372314 L 9.93327522277832 9.933235168457031 Z" stroke="none"/>
            <path d="M 9.43327522277832 9.433235168457031 L 9.43327522277832 1.103385210037231 L 9.330075263977051 1.103385210037231 L 9.330075263977051 0.9999951720237732 L 0.999995231628418 0.9999951720237732 L 0.999995231628418 1.272545218467712 L 8.160715103149414 1.272545218467712 L 9.160715103149414 1.272545218467712 L 9.160715103149414 2.272545099258423 L 9.160715103149414 9.433235168457031 L 9.43327522277832 9.433235168457031 M 10.43327522277832 10.43323516845703 L 8.160715103149414 10.43323516845703 L 8.160715103149414 2.272545099258423 L -4.772796728502726e-06 2.272545099258423 L -4.772796728502726e-06 -4.799957423529122e-06 L 10.33007526397705 -4.799957423529122e-06 L 10.33007526397705 0.1033852025866508 L 10.43327522277832 0.1033852025866508 L 10.43327522277832 10.43323516845703 Z" stroke="none" fill="#fff"/>
          </g>
        </g>
      </g>
    </g>
  </g>
</svg>
