<?xml version="1.0" ?><svg id="Layer_1" style="enable-background:new 0 0 49 49;" version="1.1" viewBox="0 0 49 49" xml:space="preserve" xmlns="http://www.w3.org/2000/svg" xmlns:xlink="http://www.w3.org/1999/xlink"><g><path d="M32.22,5.6h-1.86C29.89,2.99,27.6,1,24.85,1h-0.7c-2.75,0-5.04,1.99-5.51,4.6h-1.86c-1.74,0-3.15,1.41-3.15,3.15V9.4h-1.29   c-2.16,0-3.91,1.75-3.91,3.91v30.79c0,2.16,1.75,3.91,3.91,3.91h24.31c2.16,0,3.91-1.75,3.91-3.91V13.31   c0-2.16-1.75-3.91-3.91-3.91h-1.29V8.75C35.37,7.01,33.95,5.6,32.22,5.6z M15.63,8.75c0-0.63,0.52-1.15,1.15-1.15h2.77   c0.55,0,1-0.45,1-1c0-1.98,1.61-3.6,3.6-3.6h0.7c1.98,0,3.6,1.61,3.6,3.6c0,0.55,0.45,1,1,1h2.77c0.63,0,1.15,0.52,1.15,1.15v3.81   H15.63V8.75z M36.66,11.4c1.05,0,1.91,0.86,1.91,1.91v30.79c0,1.05-0.86,1.91-1.91,1.91H12.34c-1.05,0-1.91-0.86-1.91-1.91V13.31   c0-1.05,0.86-1.91,1.91-1.91h1.29v2.16c0,0.55,0.45,1,1,1h19.73c0.55,0,1-0.45,1-1V11.4H36.66z"/><path d="M16.43,30.76l-1.6-1.6l-1.41,1.41l2.31,2.31c0.19,0.19,0.44,0.29,0.71,0.29s0.52-0.11,0.71-0.29l4.64-4.64l-1.41-1.41   L16.43,30.76z"/><path d="M16.43,39.44l-1.6-1.6l-1.41,1.41l2.31,2.3c0.2,0.2,0.45,0.29,0.71,0.29s0.51-0.1,0.71-0.29l4.64-4.64l-1.41-1.41   L16.43,39.44z"/><path d="M16.43,22.07l-1.6-1.6l-1.41,1.41l2.31,2.31c0.19,0.19,0.44,0.29,0.71,0.29s0.52-0.11,0.71-0.29l4.64-4.64l-1.41-1.41   L16.43,22.07z"/><rect height="2" width="10.56" x="24.59" y="20.17"/><rect height="2" width="10.56" x="24.59" y="28.85"/><rect height="2" width="10.56" x="24.59" y="37.53"/></g></svg>