<?xml version="1.0" ?><svg id="Layer_1" style="enable-background:new 0 0 512 512;" version="1.1" viewBox="0 0 512 512" xml:space="preserve" xmlns="http://www.w3.org/2000/svg" xmlns:xlink="http://www.w3.org/1999/xlink"><style type="text/css">
	.st0{fill:#ED6F62;}
	.st1{fill:#D64C45;}
	.st2{fill:#474747;}
	.st3{fill:#FFCE6C;}
	.st4{fill:#EFAF3F;}
	.st5{fill:#A6D17A;}
	.st6{fill:#8AAF5F;}
</style><g id="XMLID_467_"><g id="XMLID_466_"><polygon class="st0" id="XMLID_534_" points="84.1,478.1 84.1,373.6 310.6,373.6 351.7,425.8 310.6,478.1   "/><g id="XMLID_451_"><polygon class="st1" id="XMLID_533_" points="47.9,498.4 6,425.8 47.9,353.2 131.7,353.2 173.7,425.8 131.7,498.4    "/><g id="XMLID_508_"><path class="st2" d="M59.5,444.4h-7.4v-30.6h-7.7v-5.7l15.1-1.3V444.4z" id="XMLID_518_"/><path class="st2" d="M96.6,431c0,4.3-1.1,7.8-3.4,10.2c-2.3,2.5-5.3,3.7-9.1,3.7c-3.8,0-6.8-1.2-9.1-3.7      c-2.3-2.5-3.4-5.9-3.4-10.2v-10.2c0-4.3,1.1-7.7,3.4-10.2c2.3-2.5,5.3-3.7,9.1-3.7c3.8,0,6.8,1.2,9.1,3.7      c2.3,2.5,3.4,5.9,3.4,10.2V431z M89.2,420c0-2.4-0.5-4.2-1.4-5.5c-0.9-1.3-2.2-2-3.8-2c-1.6,0-2.9,0.7-3.8,2s-1.3,3.1-1.3,5.5      v11.7c0,2.4,0.4,4.3,1.3,5.6c0.9,1.3,2.2,1.9,3.8,1.9c1.6,0,2.9-0.6,3.8-1.9c0.9-1.3,1.3-3.2,1.3-5.6V420z" id="XMLID_515_"/><path class="st2" d="M101.4,414.4c0-2.2,0.7-4,2.1-5.5c1.4-1.5,3.4-2.2,5.9-2.2c2.6,0,4.5,0.7,6,2.2      s2.1,3.3,2.1,5.5v2c0,2.2-0.7,4-2.1,5.4s-3.4,2.2-5.9,2.2c-2.5,0-4.5-0.7-6-2.2s-2.1-3.3-2.1-5.4V414.4z M106.4,416.4      c0,1,0.3,1.8,0.8,2.5c0.5,0.7,1.3,1,2.3,1c1,0,1.7-0.3,2.3-1c0.5-0.7,0.8-1.5,0.8-2.5v-2c0-1-0.3-1.8-0.8-2.5      c-0.5-0.7-1.3-1-2.3-1c-1,0-1.8,0.3-2.3,1c-0.5,0.7-0.8,1.5-0.8,2.5V416.4z M110.7,441.6l-3.6-1.9l18.1-29l3.6,1.9L110.7,441.6z       M119.1,435.3c0-2.2,0.7-4,2.1-5.4s3.4-2.2,5.9-2.2c2.5,0,4.5,0.7,5.9,2.2c1.4,1.5,2.1,3.3,2.1,5.5v2c0,2.2-0.7,4-2.1,5.5      c-1.4,1.4-3.4,2.2-5.9,2.2c-2.5,0-4.5-0.7-6-2.2c-1.4-1.5-2.1-3.3-2.1-5.5V435.3z M124.1,437.2c0,1,0.3,1.8,0.9,2.5      c0.6,0.7,1.4,1,2.3,1c1.1,0,1.9-0.3,2.4-1c0.5-0.6,0.7-1.5,0.7-2.6v-2c0-1-0.3-1.8-0.8-2.5c-0.5-0.7-1.3-1-2.3-1      c-1,0-1.8,0.3-2.3,1c-0.5,0.7-0.8,1.5-0.8,2.5V437.2z" id="XMLID_509_"/></g></g></g><g id="XMLID_465_"><polygon class="st3" id="XMLID_506_" points="84.1,308.2 84.1,203.8 387.7,203.8 428.9,256 387.7,308.2   "/><g id="XMLID_450_"><polygon class="st4" id="XMLID_505_" points="47.9,328.6 6,256 47.9,183.4 131.7,183.4 173.7,256 131.7,328.6    "/><g id="XMLID_480_"><path class="st2" d="M69.2,273.9H45.1v-4.7l11.1-12.6c1.7-2,2.8-3.6,3.5-5c0.7-1.4,1-2.6,1-3.7      c0-1.5-0.4-2.7-1.1-3.5s-1.8-1.3-3.3-1.3c-1.6,0-2.8,0.6-3.6,1.7c-0.9,1.1-1.3,2.6-1.3,4.3h-7l0-0.1c-0.1-3.2,1-5.9,3.2-8.1      c2.2-2.2,5.1-3.3,8.8-3.3c3.7,0,6.5,0.9,8.6,2.8c2,1.9,3.1,4.4,3.1,7.6c0,2.2-0.6,4.1-1.7,5.9c-1.1,1.8-3.1,4.2-5.9,7.4      l-5.9,7.1l0,0.1h14.7V273.9z" id="XMLID_490_"/><path class="st2" d="M97.8,261c0,4.2-1.1,7.5-3.3,9.9s-5.1,3.6-8.8,3.6c-3.7,0-6.6-1.2-8.8-3.6      s-3.3-5.7-3.3-9.9v-9.9c0-4.2,1.1-7.5,3.3-9.9c2.2-2.4,5.1-3.6,8.8-3.6c3.6,0,6.6,1.2,8.8,3.6c2.2,2.4,3.3,5.7,3.3,9.9V261z       M90.6,250.3c0-2.3-0.4-4.1-1.3-5.3c-0.9-1.3-2.1-1.9-3.7-1.9c-1.6,0-2.8,0.6-3.7,1.9c-0.9,1.3-1.3,3-1.3,5.3v11.3      c0,2.3,0.4,4.2,1.3,5.4c0.9,1.3,2.1,1.9,3.7,1.9c1.6,0,2.8-0.6,3.6-1.9c0.9-1.3,1.3-3.1,1.3-5.4V250.3z" id="XMLID_487_"/><path class="st2" d="M102.5,245c0-2.1,0.7-3.9,2.1-5.3c1.4-1.4,3.3-2.1,5.7-2.1c2.5,0,4.4,0.7,5.8,2.1      c1.4,1.4,2,3.2,2,5.3v1.9c0,2.1-0.7,3.9-2,5.3c-1.4,1.4-3.3,2.1-5.7,2.1c-2.5,0-4.4-0.7-5.8-2.1c-1.4-1.4-2.1-3.2-2.1-5.3V245z       M107.3,246.9c0,1,0.3,1.8,0.8,2.4c0.5,0.6,1.3,1,2.3,1c1,0,1.7-0.3,2.2-1s0.8-1.4,0.8-2.4V245c0-1-0.3-1.8-0.8-2.4      c-0.5-0.7-1.3-1-2.2-1c-1,0-1.7,0.3-2.2,1c-0.5,0.7-0.8,1.5-0.8,2.4V246.9z M111.5,271.3l-3.5-1.8l17.5-28l3.5,1.8L111.5,271.3z       M119.6,265.1c0-2.1,0.7-3.9,2.1-5.3c1.4-1.4,3.3-2.1,5.7-2.1c2.5,0,4.4,0.7,5.8,2.1c1.4,1.4,2.1,3.2,2.1,5.3v1.9      c0,2.1-0.7,3.9-2,5.3s-3.3,2.1-5.7,2.1c-2.5,0-4.4-0.7-5.8-2.1c-1.4-1.4-2.1-3.2-2.1-5.3V265.1z M124.4,267      c0,0.9,0.3,1.7,0.9,2.4c0.6,0.7,1.3,1,2.2,1c1.1,0,1.8-0.3,2.3-0.9c0.5-0.6,0.7-1.4,0.7-2.5v-1.9c0-0.9-0.3-1.7-0.8-2.4      s-1.3-1-2.2-1c-1,0-1.7,0.3-2.3,1s-0.8,1.5-0.8,2.4V267z" id="XMLID_481_"/></g></g></g><g id="XMLID_464_"><polygon class="st5" id="XMLID_478_" points="84.1,138.4 84.1,33.9 464.9,33.9 506,86.2 464.9,138.4   "/><g id="XMLID_449_"><polygon class="st6" id="XMLID_477_" points="47.9,158.8 6,86.2 47.9,13.6 131.7,13.6 173.7,86.2 131.7,158.8    "/><g id="XMLID_452_"><path class="st2" d="M56.4,83c1.7,0,3-0.4,3.8-1.3c0.8-0.9,1.2-2.1,1.2-3.7c0-1.3-0.4-2.5-1.3-3.4      c-0.9-0.9-2.1-1.3-3.6-1.3c-1.3,0-2.4,0.4-3.3,1.2s-1.3,1.8-1.3,3.1h-7l0-0.1c-0.1-2.8,1-5.1,3.3-7c2.3-1.8,5.1-2.7,8.4-2.7      c3.7,0,6.7,0.9,8.9,2.6c2.2,1.8,3.3,4.3,3.3,7.5c0,1.6-0.5,3.2-1.4,4.5c-0.9,1.4-2.2,2.5-3.9,3.2c1.9,0.7,3.3,1.8,4.3,3.2      c1,1.4,1.5,3.2,1.5,5.2c0,3.3-1.2,5.9-3.6,7.8c-2.4,1.9-5.4,2.8-9.1,2.8c-3.3,0-6.1-0.9-8.6-2.7c-2.4-1.8-3.6-4.3-3.6-7.5l0-0.1      h7c0,1.3,0.5,2.5,1.4,3.4c0.9,0.9,2.2,1.4,3.7,1.4c1.6,0,3-0.5,4-1.5s1.5-2.2,1.5-3.7c0-1.9-0.5-3.3-1.4-4.2      c-1-0.9-2.4-1.4-4.2-1.4h-4V83H56.4z" id="XMLID_462_"/><path class="st2" d="M97.8,91.1c0,4.2-1.1,7.5-3.3,9.9c-2.2,2.4-5.1,3.6-8.8,3.6c-3.7,0-6.6-1.2-8.9-3.6      c-2.2-2.4-3.3-5.7-3.3-9.9v-9.9c0-4.2,1.1-7.5,3.3-9.9c2.2-2.4,5.1-3.6,8.8-3.6c3.6,0,6.6,1.2,8.8,3.6c2.2,2.4,3.3,5.7,3.3,9.9      V91.1z M90.6,80.5c0-2.3-0.4-4.1-1.3-5.4c-0.9-1.3-2.1-1.9-3.7-1.9c-1.6,0-2.8,0.6-3.7,1.9c-0.9,1.3-1.3,3-1.3,5.4v11.3      c0,2.4,0.4,4.2,1.3,5.4c0.9,1.3,2.1,1.9,3.7,1.9c1.6,0,2.8-0.6,3.6-1.9c0.9-1.3,1.3-3.1,1.3-5.4V80.5z" id="XMLID_459_"/><path class="st2" d="M102.5,75.1c0-2.1,0.7-3.9,2.1-5.3c1.4-1.4,3.3-2.1,5.7-2.1c2.5,0,4.4,0.7,5.8,2.1      c1.4,1.4,2,3.2,2,5.3V77c0,2.1-0.7,3.9-2,5.3c-1.4,1.4-3.3,2.1-5.7,2.1c-2.5,0-4.4-0.7-5.8-2.1c-1.4-1.4-2.1-3.2-2.1-5.3V75.1z       M107.2,77c0,1,0.3,1.8,0.8,2.4c0.5,0.6,1.3,1,2.3,1c1,0,1.7-0.3,2.2-1c0.5-0.6,0.8-1.5,0.8-2.4v-1.9c0-1-0.3-1.8-0.8-2.4      s-1.3-1-2.2-1s-1.7,0.3-2.2,1s-0.8,1.5-0.8,2.4V77z M111.5,101.4l-3.5-1.8l17.5-28.1l3.5,1.8L111.5,101.4z M119.6,95.3      c0-2.1,0.7-3.9,2.1-5.3c1.4-1.4,3.3-2.1,5.7-2.1c2.5,0,4.4,0.7,5.8,2.1c1.4,1.4,2.1,3.2,2.1,5.3v1.9c0,2.1-0.7,3.9-2,5.3      s-3.3,2.1-5.7,2.1c-2.5,0-4.4-0.7-5.8-2.1c-1.4-1.4-2.1-3.2-2.1-5.3V95.3z M124.4,97.2c0,0.9,0.3,1.7,0.9,2.4s1.3,1,2.2,1      c1.1,0,1.8-0.3,2.3-0.9s0.7-1.4,0.7-2.5v-1.9c0-0.9-0.3-1.7-0.8-2.4c-0.5-0.7-1.3-1-2.2-1c-1,0-1.7,0.3-2.3,1      c-0.5,0.7-0.8,1.5-0.8,2.4V97.2z" id="XMLID_453_"/></g></g></g></g></svg>