<svg xmlns="http://www.w3.org/2000/svg" width="62.051" height="62.05" viewBox="0 0 62.051 62.05">
  <defs>
    <style>
      .cls-1, .cls-2 {
        isolation: isolate;
      }

      .cls-2 {
        mix-blend-mode: overlay;
      }

      .cls-3, .cls-6 {
        fill: #fff;
      }

      .cls-4 {
        fill: none;
        stroke: #fff;
      }

      .cls-5, .cls-6 {
        stroke: none;
      }
    </style>
  </defs>
  <g id="Group_29109" data-name="Group 29109" transform="translate(-3358.387 -5645.411)">
    <g id="Group_29108" data-name="Group 29108" transform="translate(122 62)">
      <g id="Group_29102" data-name="Group 29102" class="cls-1" transform="translate(-3043 3940.905)">
        <g id="Group_23077" data-name="Group 23077" class="cls-2" transform="translate(6279.387 1642.506)">
          <g id="Group_23072" data-name="Group 23072">
            <g id="Group_238" data-name="Group 238">
              <g id="Union_1" data-name="Union 1" class="cls-3" transform="translate(51.617)">
                <path class="cls-5" d="M 9.933235168457031 9.933235168457031 L 8.660675048828125 9.933235168457031 L 8.660675048828125 2.272545099258423 L 8.660675048828125 1.772545218467712 L 8.160675048828125 1.772545218467712 L 0.4999952018260956 1.772545218467712 L 0.4999952018260956 0.4999952018260956 L 9.830035209655762 0.4999952018260956 L 9.830035209655762 0.6033852100372314 L 9.933235168457031 0.6033852100372314 L 9.933235168457031 9.933235168457031 Z"/>
                <path class="cls-6" d="M 9.433235168457031 9.433235168457031 L 9.433235168457031 1.103385210037231 L 9.330035209655762 1.103385210037231 L 9.330035209655762 0.9999951720237732 L 0.9999951720237732 0.9999951720237732 L 0.9999951720237732 1.272545218467712 L 8.160675048828125 1.272545218467712 L 9.160675048828125 1.272545218467712 L 9.160675048828125 2.272545099258423 L 9.160675048828125 9.433235168457031 L 9.433235168457031 9.433235168457031 M 10.43323516845703 10.43323516845703 L 8.160675048828125 10.43323516845703 L 8.160675048828125 2.272545099258423 L -4.799957423529122e-06 2.272545099258423 L -4.799957423529122e-06 -4.799957423529122e-06 L 10.33003520965576 -4.799957423529122e-06 L 10.33003520965576 0.1033852025866508 L 10.43323516845703 0.1033852025866508 L 10.43323516845703 10.43323516845703 Z"/>
              </g>
              <g id="Union_3" data-name="Union 3" class="cls-3" transform="translate(51.617 51.617)">
                <path class="cls-5" d="M 9.830038070678711 9.933235168457031 L 0.4999980628490448 9.933235168457031 L 0.4999980628490448 8.660675048828125 L 8.160688400268555 8.660675048828125 L 8.660688400268555 8.660675048828125 L 8.660688400268555 8.160675048828125 L 8.660688400268555 0.4999952018260956 L 9.93323802947998 0.4999952018260956 L 9.93323802947998 9.829845428466797 L 9.830038070678711 9.829845428466797 L 9.830038070678711 9.933235168457031 Z"/>
                <path class="cls-6" d="M 9.160688400268555 0.999995231628418 L 9.160688400268555 8.160675048828125 L 9.160688400268555 9.160675048828125 L 8.160688400268555 9.160675048828125 L 0.9999980926513672 9.160675048828125 L 0.9999980926513672 9.433235168457031 L 9.330038070678711 9.433235168457031 L 9.330038070678711 9.329845428466797 L 9.43323802947998 9.329845428466797 L 9.43323802947998 0.999995231628418 L 9.160688400268555 0.999995231628418 M 8.160688400268555 -4.76837158203125e-06 L 10.43323802947998 -4.76837158203125e-06 L 10.43323802947998 10.3298454284668 L 10.33003807067871 10.3298454284668 L 10.33003807067871 10.43323516845703 L -1.9073486328125e-06 10.43323516845703 L -1.9073486328125e-06 8.160675048828125 L 8.160688400268555 8.160675048828125 L 8.160688400268555 -4.76837158203125e-06 Z"/>
              </g>
              <g id="Union_2" data-name="Union 2" class="cls-3" transform="translate(10.433 10.433) rotate(180)">
                <path class="cls-5" d="M 9.830072402954102 9.933235168457031 L 0.5000028610229492 9.933235168457031 L 0.5000028610229492 8.660685539245605 L 8.160713195800781 8.660685539245605 L 8.660713195800781 8.660685539245605 L 8.660713195800781 8.160685539245605 L 8.660713195800781 0.4999952018260956 L 9.933262825012207 0.4999952018260956 L 9.933262825012207 9.829845428466797 L 9.830072402954102 9.829845428466797 L 9.830072402954102 9.933235168457031 Z"/>
                <path class="cls-6" d="M 9.160713195800781 0.999995231628418 L 9.160713195800781 8.160685539245605 L 9.160713195800781 9.160685539245605 L 8.160713195800781 9.160685539245605 L 1.000002861022949 9.160685539245605 L 1.000002861022949 9.433235168457031 L 9.330072402954102 9.433235168457031 L 9.330072402954102 9.329845428466797 L 9.433262825012207 9.329845428466797 L 9.433262825012207 0.999995231628418 L 9.160713195800781 0.999995231628418 M 8.160713195800781 -4.76837158203125e-06 L 10.43326282501221 -4.76837158203125e-06 L 10.43326282501221 10.3298454284668 L 10.3300724029541 10.3298454284668 L 10.3300724029541 10.43323516845703 L 2.86102294921875e-06 10.43323516845703 L 2.86102294921875e-06 8.160685539245605 L 8.160713195800781 8.160685539245605 L 8.160713195800781 -4.76837158203125e-06 Z"/>
              </g>
              <g id="Union_4" data-name="Union 4" class="cls-3" transform="translate(10.433 62.05) rotate(180)">
                <path class="cls-5" d="M 9.93327522277832 9.933235168457031 L 8.660715103149414 9.933235168457031 L 8.660715103149414 2.272545099258423 L 8.660715103149414 1.772545218467712 L 8.160715103149414 1.772545218467712 L 0.499995231628418 1.772545218467712 L 0.499995231628418 0.4999952018260956 L 9.830075263977051 0.4999952018260956 L 9.830075263977051 0.6033852100372314 L 9.93327522277832 0.6033852100372314 L 9.93327522277832 9.933235168457031 Z"/>
                <path class="cls-6" d="M 9.43327522277832 9.433235168457031 L 9.43327522277832 1.103385210037231 L 9.330075263977051 1.103385210037231 L 9.330075263977051 0.9999951720237732 L 0.999995231628418 0.9999951720237732 L 0.999995231628418 1.272545218467712 L 8.160715103149414 1.272545218467712 L 9.160715103149414 1.272545218467712 L 9.160715103149414 2.272545099258423 L 9.160715103149414 9.433235168457031 L 9.43327522277832 9.433235168457031 M 10.43327522277832 10.43323516845703 L 8.160715103149414 10.43323516845703 L 8.160715103149414 2.272545099258423 L -4.772796728502726e-06 2.272545099258423 L -4.772796728502726e-06 -4.799957423529122e-06 L 10.33007526397705 -4.799957423529122e-06 L 10.33007526397705 0.1033852025866508 L 10.43327522277832 0.1033852025866508 L 10.43327522277832 10.43323516845703 Z"/>
              </g>
            </g>
          </g>
        </g>
      </g>
    </g>
    <g id="Group_29106" data-name="Group 29106" transform="translate(3369.402 5663.626)">
      <g id="Group_4025" data-name="Group 4025" transform="translate(24.964 0.131)">
        <path id="Path_7826" data-name="Path 7826" class="cls-4" d="M489.029,100.957a3.427,3.427,0,0,1-4.345,0,3.011,3.011,0,0,0-1.9,2.8V105.1a1.085,1.085,0,0,0,1.085,1.085h5.983a1.085,1.085,0,0,0,1.085-1.085v-1.345A3.011,3.011,0,0,0,489.029,100.957Z" transform="translate(-482.78 -95.363)"/>
        <path id="Path_7827" data-name="Path 7827" class="cls-4" d="M492.863,79.038q-.069-.1-.147-.2a2.968,2.968,0,0,0-.341-.358q-.092-.082-.192-.156a2.942,2.942,0,0,0-.648-.367q-.116-.047-.237-.085a2.943,2.943,0,0,0-2.944,4.907q.1.1.208.187a2.968,2.968,0,0,0,.284.2,2.933,2.933,0,0,0,1.576.459,2.983,2.983,0,0,0,.3-.015A2.92,2.92,0,0,0,492,83.169c.019-.012.04-.023.059-.035q.116-.078.225-.167t.207-.187a2.952,2.952,0,0,0,.365-.437q.081-.118.15-.244a2.943,2.943,0,0,0,.007-2.818Q492.943,79.156,492.863,79.038Z" transform="translate(-486.345 -77.741)"/>
      </g>
      <g id="Group_4026" data-name="Group 4026" transform="translate(7.605)">
        <path id="Path_7826-2" data-name="Path 7826" class="cls-4" d="M489.029,100.957a3.427,3.427,0,0,1-4.345,0,3.011,3.011,0,0,0-1.9,2.8V105.1a1.085,1.085,0,0,0,1.085,1.085h5.983a1.085,1.085,0,0,0,1.085-1.085v-1.345A3.011,3.011,0,0,0,489.029,100.957Z" transform="translate(-482.78 -95.363)"/>
        <path id="Path_7827-2" data-name="Path 7827" class="cls-4" d="M492.863,79.038q-.069-.1-.147-.2a2.968,2.968,0,0,0-.341-.358q-.092-.082-.192-.156a2.942,2.942,0,0,0-.648-.367q-.116-.047-.237-.085a2.943,2.943,0,0,0-2.944,4.907q.1.1.208.187a2.968,2.968,0,0,0,.284.2,2.933,2.933,0,0,0,1.576.459,2.983,2.983,0,0,0,.3-.015A2.92,2.92,0,0,0,492,83.169c.019-.012.04-.023.059-.035q.116-.078.225-.167t.207-.187a2.952,2.952,0,0,0,.365-.437q.081-.118.15-.244a2.943,2.943,0,0,0,.007-2.818Q492.943,79.156,492.863,79.038Z" transform="translate(-486.345 -77.741)"/>
      </g>
      <g id="Group_4024" data-name="Group 4024" transform="translate(0 10.887)">
        <rect id="Rectangle_658" data-name="Rectangle 658" class="cls-4" width="40.165" height="0.722" transform="translate(0 0)"/>
        <path id="Path_7828" data-name="Path 7828" class="cls-4" d="M0,0H36.076V14.24H0Z" transform="translate(1.948 0.722)"/>
        <rect id="Rectangle_666" data-name="Rectangle 666" class="cls-4" width="36.076" height="4.907" transform="translate(1.948 7.192)"/>
      </g>
    </g>
  </g>
</svg>
