<svg xmlns="http://www.w3.org/2000/svg" width="62.051" height="62.05" viewBox="0 0 62.051 62.05">
  <g id="Group_29094" data-name="Group 29094" transform="translate(-6206.387 -1712.506)" style="isolation: isolate">
    <g id="Group_23076" data-name="Group 23076" transform="translate(6217.986 1720.933)" style="mix-blend-mode: overlay;isolation: isolate">
      <path id="Path_7064" data-name="Path 7064" d="M251.583,251.748a4.027,4.027,0,0,0-.522-.267,3.928,3.928,0,0,0-.37-.136q-.186-.058-.38-.1a3.419,3.419,0,0,1-1.873.564c-.1,0-.205,0-.307-.014a3.373,3.373,0,0,1-.621-.115,3.422,3.422,0,0,1-.949-.434,4.031,4.031,0,0,0-2.284,1.377,3.417,3.417,0,0,1-.355,4.351,4.659,4.659,0,0,1,3.244,4.434v3.781a2.036,2.036,0,0,1-1.764,2.015V269.1a1.364,1.364,0,0,0,1.079.535h.242a1.371,1.371,0,0,0,1.371-1.371v-5.4a.343.343,0,0,1,.686,0v5.4a1.369,1.369,0,0,0,1.371,1.371h.237a1.369,1.369,0,0,0,1.371-1.371v-7.874h.352a1.406,1.406,0,0,0,1-.414,1.4,1.4,0,0,0,.173-.209,1.407,1.407,0,0,0,.241-.789V255.2A4.031,4.031,0,0,0,251.583,251.748Z" transform="translate(-215.157 -234.6)" fill="#fff"/>
      <path id="Path_7065" data-name="Path 7065" d="M211.2,232.689v3.781a2.026,2.026,0,0,1-.951,1.711v3.784a3.443,3.443,0,0,1,2.984-2.57V236.38a.343.343,0,0,1,.686,0v3.015a3.443,3.443,0,0,1,2.979,2.555v-3.772a2.026,2.026,0,0,1-.946-1.708v-3.781a4.655,4.655,0,0,1,2.7-4.217A4.032,4.032,0,0,0,216.2,225q-.181-.076-.371-.136t-.379-.1a3.4,3.4,0,0,1-3.75,0,4.032,4.032,0,0,0-3.2,3.706A4.656,4.656,0,0,1,211.2,232.689Z" transform="translate(-194.391 -219.075)" fill="#fff"/>
      <path id="Path_7066" data-name="Path 7066" d="M192.884,238.48a3.416,3.416,0,0,1-.974,2.389,4.661,4.661,0,0,1,2.1,1.385,3.433,3.433,0,0,1,5.589,1.118c.007.017.012.035.019.052a1.428,1.428,0,0,0,.932-1.323v-3.781a4.031,4.031,0,0,0-2.09-3.533l-.022-.013a4,4,0,0,0-.6-.26,3.942,3.942,0,0,0-.5-.143,3.4,3.4,0,0,1-3.75,0,3.983,3.983,0,0,0-2.193,1.278A3.435,3.435,0,0,1,192.884,238.48Z" transform="translate(-184.361 -224.706)" fill="#fff"/>
      <path id="Path_7067" data-name="Path 7067" d="M228.008,238.319V242.1a1.427,1.427,0,0,0,.931,1.322c.005-.014.01-.028.015-.041a3.433,3.433,0,0,1,5.594-1.128,4.664,4.664,0,0,1,2.094-1.384,3.428,3.428,0,0,1,.522-5.221,4.025,4.025,0,0,0-2.2-1.279,3.4,3.4,0,0,1-3.749,0,4.374,4.374,0,0,0-1.12.415A4.031,4.031,0,0,0,228.008,238.319Z" transform="translate(-205.827 -224.706)" fill="#fff"/>
      <path id="Path_7068" data-name="Path 7068" d="M180.757,265.193v-3.781a4.627,4.627,0,0,1,.8-2.6A4.725,4.725,0,0,1,184,256.978a3.423,3.423,0,0,1-.352-4.352q-.121-.146-.255-.28a4.067,4.067,0,0,0-.6-.493,4.018,4.018,0,0,0-1.435-.6,3.421,3.421,0,0,1-1.566.55c-.1.009-.2.014-.307.014a3.428,3.428,0,0,1-1.876-.563,4.03,4.03,0,0,0-3.21,3.949v3.781a1.411,1.411,0,0,0,1.412,1.412h.348v7.874a1.371,1.371,0,0,0,1.371,1.371h.242a1.371,1.371,0,0,0,1.371-1.371v-5.4a.343.343,0,0,1,.686,0v5.4a1.371,1.371,0,0,0,1.371,1.371h.238a1.342,1.342,0,0,0,1.079-.535v-1.894A2.036,2.036,0,0,1,180.757,265.193Z" transform="translate(-174.4 -234.6)" fill="#fff"/>
      <path id="Path_7069" data-name="Path 7069" d="M197.764,277.748v-3.781a4.622,4.622,0,0,1,.528-2.144A4.71,4.71,0,0,1,201,269.534a3.439,3.439,0,0,1-.97-2.373,3.991,3.991,0,0,0-.481-.355c-.074-.046-.146-.094-.223-.135a4.019,4.019,0,0,0-.621-.269,4.062,4.062,0,0,0-.485-.136,3.391,3.391,0,0,1-3.144.317l-.036-.015a3.434,3.434,0,0,1-.569-.3l-.015,0a4,4,0,0,0-1.084.4,4.037,4.037,0,0,0-2.111,3.546V274a1.412,1.412,0,0,0,1.412,1.412h.347v7.873a1.372,1.372,0,0,0,1.095,1.343,1.384,1.384,0,0,0,.276.028h.242a1.371,1.371,0,0,0,1.371-1.371v-5.4a.343.343,0,1,1,.685,0v5.4a1.371,1.371,0,0,0,1.371,1.371h.237a1.355,1.355,0,0,0,1.22-.758v-4.133A2.036,2.036,0,0,1,197.764,277.748Z" transform="translate(-184.287 -243.405)" fill="#fff"/>
      <path id="Path_7070" data-name="Path 7070" d="M236.459,274v-3.781a4.048,4.048,0,0,0-3.194-3.944l-.019-.005a3.432,3.432,0,0,1-.566.3l-.036.015a3.391,3.391,0,0,1-3.148-.314,4.347,4.347,0,0,0-1.107.407c-.077.042-.15.089-.223.135a4.026,4.026,0,0,0-.477.353,3.43,3.43,0,0,1-.973,2.371,4.67,4.67,0,0,1,3.244,4.434v3.781a2.035,2.035,0,0,1-1.764,2.015V283.9a1.366,1.366,0,0,0,1.22.758h.242a1.368,1.368,0,0,0,.969-.4,1.366,1.366,0,0,0,.4-.969v-5.4a.344.344,0,0,1,.125-.264.355.355,0,0,1,.085-.052.337.337,0,0,1,.132-.027.345.345,0,0,1,.343.343v5.4a1.371,1.371,0,0,0,1.371,1.371h.237a1.371,1.371,0,0,0,1.371-1.371v-7.873h.352A1.412,1.412,0,0,0,236.459,274Z" transform="translate(-205.07 -243.405)" fill="#fff"/>
      <path id="Path_7071" data-name="Path 7071" d="M218.23,284.062a1.435,1.435,0,0,0,.274-.386,1.411,1.411,0,0,0,.139-.612v-3.781a4.037,4.037,0,0,0-2.463-3.716q-.181-.076-.371-.136c-.069-.021-.141-.036-.212-.054s-.111-.031-.168-.043a3.451,3.451,0,0,1-.461.256,3.405,3.405,0,0,1-3.289-.254c-.056.012-.109.028-.164.042a4.031,4.031,0,0,0-3.046,3.906v3.781a1.394,1.394,0,0,0,1.29,1.4c.041,0,.081.012.122.012h.347v7.874a1.371,1.371,0,0,0,1.371,1.371h.242a1.371,1.371,0,0,0,1.371-1.371v-5.4a.343.343,0,1,1,.686,0v5.4a1.371,1.371,0,0,0,1.094,1.343,1.379,1.379,0,0,0,.276.028h.237a1.37,1.37,0,0,0,1.371-1.371v-7.874h.352c.041,0,.079-.009.118-.012a1.4,1.4,0,0,0,.432-.1A1.418,1.418,0,0,0,218.23,284.062Z" transform="translate(-194.374 -248.72)" fill="#fff"/>
      <circle id="Ellipse_14" data-name="Ellipse 14" cx="2.817" cy="2.817" r="2.817" transform="translate(8.283 3.974)" fill="#fff"/>
      <circle id="Ellipse_15" data-name="Ellipse 15" cx="2.817" cy="2.817" r="2.817" transform="translate(16.367 0)" fill="#fff"/>
      <circle id="Ellipse_16" data-name="Ellipse 16" cx="2.817" cy="2.817" r="2.817" transform="translate(24.45 3.974)" fill="#fff"/>
      <circle id="Ellipse_17" data-name="Ellipse 17" cx="2.817" cy="2.817" r="2.817" transform="translate(30.464 10.958)" fill="#fff"/>
      <path id="Path_7072" data-name="Path 7072" d="M233.978,252.514a2.817,2.817,0,1,0,2.817,2.817A2.817,2.817,0,0,0,233.978,252.514Z" transform="translate(-207.676 -235.343)" fill="#fff"/>
      <path id="Path_7073" data-name="Path 7073" d="M216.773,261.582a2.817,2.817,0,1,0,2.817,2.816A2.816,2.816,0,0,0,216.773,261.582Z" transform="translate(-197.59 -240.659)" fill="#fff"/>
      <circle id="Ellipse_18" data-name="Ellipse 18" cx="2.817" cy="2.817" r="2.817" transform="translate(9.247 17.171)" fill="#fff"/>
      <circle id="Ellipse_19" data-name="Ellipse 19" cx="2.817" cy="2.817" r="2.817" transform="translate(2.269 10.958)" fill="#fff"/>
    </g>
    <g id="Group_23077" data-name="Group 23077" transform="translate(6206.387 1712.506)" style="mix-blend-mode: overlay;isolation: isolate">
      <g id="Group_23072" data-name="Group 23072">
        <g id="Group_238" data-name="Group 238">
          <g id="Union_1" data-name="Union 1" transform="translate(51.617)" fill="#fff">
            <path d="M 9.933235168457031 9.933235168457031 L 8.660675048828125 9.933235168457031 L 8.660675048828125 2.272545099258423 L 8.660675048828125 1.772545218467712 L 8.160675048828125 1.772545218467712 L 0.4999952018260956 1.772545218467712 L 0.4999952018260956 0.4999952018260956 L 9.830035209655762 0.4999952018260956 L 9.830035209655762 0.6033852100372314 L 9.933235168457031 0.6033852100372314 L 9.933235168457031 9.933235168457031 Z" stroke="none"/>
            <path d="M 9.433235168457031 9.433235168457031 L 9.433235168457031 1.103385210037231 L 9.330035209655762 1.103385210037231 L 9.330035209655762 0.9999951720237732 L 0.9999951720237732 0.9999951720237732 L 0.9999951720237732 1.272545218467712 L 8.160675048828125 1.272545218467712 L 9.160675048828125 1.272545218467712 L 9.160675048828125 2.272545099258423 L 9.160675048828125 9.433235168457031 L 9.433235168457031 9.433235168457031 M 10.43323516845703 10.43323516845703 L 8.160675048828125 10.43323516845703 L 8.160675048828125 2.272545099258423 L -4.799957423529122e-06 2.272545099258423 L -4.799957423529122e-06 -4.799957423529122e-06 L 10.33003520965576 -4.799957423529122e-06 L 10.33003520965576 0.1033852025866508 L 10.43323516845703 0.1033852025866508 L 10.43323516845703 10.43323516845703 Z" stroke="none" fill="#fff"/>
          </g>
          <g id="Union_3" data-name="Union 3" transform="translate(51.617 51.617)" fill="#fff">
            <path d="M 9.830038070678711 9.933235168457031 L 0.4999980628490448 9.933235168457031 L 0.4999980628490448 8.660675048828125 L 8.160688400268555 8.660675048828125 L 8.660688400268555 8.660675048828125 L 8.660688400268555 8.160675048828125 L 8.660688400268555 0.4999952018260956 L 9.93323802947998 0.4999952018260956 L 9.93323802947998 9.829845428466797 L 9.830038070678711 9.829845428466797 L 9.830038070678711 9.933235168457031 Z" stroke="none"/>
            <path d="M 9.160688400268555 0.999995231628418 L 9.160688400268555 8.160675048828125 L 9.160688400268555 9.160675048828125 L 8.160688400268555 9.160675048828125 L 0.9999980926513672 9.160675048828125 L 0.9999980926513672 9.433235168457031 L 9.330038070678711 9.433235168457031 L 9.330038070678711 9.329845428466797 L 9.43323802947998 9.329845428466797 L 9.43323802947998 0.999995231628418 L 9.160688400268555 0.999995231628418 M 8.160688400268555 -4.76837158203125e-06 L 10.43323802947998 -4.76837158203125e-06 L 10.43323802947998 10.3298454284668 L 10.33003807067871 10.3298454284668 L 10.33003807067871 10.43323516845703 L -1.9073486328125e-06 10.43323516845703 L -1.9073486328125e-06 8.160675048828125 L 8.160688400268555 8.160675048828125 L 8.160688400268555 -4.76837158203125e-06 Z" stroke="none" fill="#fff"/>
          </g>
          <g id="Union_2" data-name="Union 2" transform="translate(10.433 10.433) rotate(180)" fill="#fff">
            <path d="M 9.830072402954102 9.933235168457031 L 0.5000028610229492 9.933235168457031 L 0.5000028610229492 8.660685539245605 L 8.160713195800781 8.660685539245605 L 8.660713195800781 8.660685539245605 L 8.660713195800781 8.160685539245605 L 8.660713195800781 0.4999952018260956 L 9.933262825012207 0.4999952018260956 L 9.933262825012207 9.829845428466797 L 9.830072402954102 9.829845428466797 L 9.830072402954102 9.933235168457031 Z" stroke="none"/>
            <path d="M 9.160713195800781 0.999995231628418 L 9.160713195800781 8.160685539245605 L 9.160713195800781 9.160685539245605 L 8.160713195800781 9.160685539245605 L 1.000002861022949 9.160685539245605 L 1.000002861022949 9.433235168457031 L 9.330072402954102 9.433235168457031 L 9.330072402954102 9.329845428466797 L 9.433262825012207 9.329845428466797 L 9.433262825012207 0.999995231628418 L 9.160713195800781 0.999995231628418 M 8.160713195800781 -4.76837158203125e-06 L 10.43326282501221 -4.76837158203125e-06 L 10.43326282501221 10.3298454284668 L 10.3300724029541 10.3298454284668 L 10.3300724029541 10.43323516845703 L 2.86102294921875e-06 10.43323516845703 L 2.86102294921875e-06 8.160685539245605 L 8.160713195800781 8.160685539245605 L 8.160713195800781 -4.76837158203125e-06 Z" stroke="none" fill="#fff"/>
          </g>
          <g id="Union_4" data-name="Union 4" transform="translate(10.433 62.05) rotate(180)" fill="#fff">
            <path d="M 9.93327522277832 9.933235168457031 L 8.660715103149414 9.933235168457031 L 8.660715103149414 2.272545099258423 L 8.660715103149414 1.772545218467712 L 8.160715103149414 1.772545218467712 L 0.499995231628418 1.772545218467712 L 0.499995231628418 0.4999952018260956 L 9.830075263977051 0.4999952018260956 L 9.830075263977051 0.6033852100372314 L 9.93327522277832 0.6033852100372314 L 9.93327522277832 9.933235168457031 Z" stroke="none"/>
            <path d="M 9.43327522277832 9.433235168457031 L 9.43327522277832 1.103385210037231 L 9.330075263977051 1.103385210037231 L 9.330075263977051 0.9999951720237732 L 0.999995231628418 0.9999951720237732 L 0.999995231628418 1.272545218467712 L 8.160715103149414 1.272545218467712 L 9.160715103149414 1.272545218467712 L 9.160715103149414 2.272545099258423 L 9.160715103149414 9.433235168457031 L 9.43327522277832 9.433235168457031 M 10.43327522277832 10.43323516845703 L 8.160715103149414 10.43323516845703 L 8.160715103149414 2.272545099258423 L -4.772796728502726e-06 2.272545099258423 L -4.772796728502726e-06 -4.799957423529122e-06 L 10.33007526397705 -4.799957423529122e-06 L 10.33007526397705 0.1033852025866508 L 10.43327522277832 0.1033852025866508 L 10.43327522277832 10.43323516845703 Z" stroke="none" fill="#fff"/>
          </g>
        </g>
      </g>
    </g>
  </g>
</svg>
