<svg xmlns="http://www.w3.org/2000/svg" width="107.701" height="107.7" viewBox="0 0 107.701 107.7">
  <defs>
    <style>
      .cls-1 {
        fill: #fff;
      }
    </style>
  </defs>
  <g id="Group_131005" data-name="Group 131005" transform="translate(-3056 -1071)">
    <g id="Group_130999" data-name="Group 130999" transform="translate(-3150.387 -641.506)">
      <g id="Group_39401" data-name="Group 39401" transform="translate(6206.387 1712.506)">
        <g id="Group_39397" data-name="Group 39397" transform="translate(89.592)">
          <path id="Path_70613" data-name="Path 70613" class="cls-1" d="M17.609,17.609H14.664V3.444H.5V.5H17.43V.679h.179Z"/>
          <path id="Path_70614" data-name="Path 70614" class="cls-1" d="M17.109,17.109V1.179H16.93V1H1V2.944H15.164V17.109h1.944m1,1H14.164V3.944H0V0H17.93V.179h.179Z"/>
        </g>
        <g id="Group_39398" data-name="Group 39398" transform="translate(89.592 89.591)">
          <path id="Path_70615" data-name="Path 70615" class="cls-1" d="M17.43,17.609H.5V14.664H14.664V.5h2.944V17.429H17.43Z"/>
          <path id="Path_70616" data-name="Path 70616" class="cls-1" d="M15.164,1V15.164H1v1.944H16.93v-.18h.179V1H15.164m-1-1h3.944V17.929H17.93v.18H0V14.164H14.164Z"/>
        </g>
        <g id="Group_39399" data-name="Group 39399" transform="translate(18.109 18.109) rotate(180)">
          <path id="Path_70617" data-name="Path 70617" class="cls-1" d="M17.43,17.609H.5V14.664H14.665V.5h2.944V17.429H17.43Z"/>
          <path id="Path_70618" data-name="Path 70618" class="cls-1" d="M15.165,1V15.164H1v1.944H16.93v-.18h.179V1H15.165m-1-1h3.944V17.929H17.93v.18H0V14.164H14.165Z"/>
        </g>
        <g id="Group_39400" data-name="Group 39400" transform="translate(18.109 107.7) rotate(180)">
          <path id="Path_70619" data-name="Path 70619" class="cls-1" d="M17.609,17.609H14.665V3.444H.5V.5H17.43V.679h.179Z"/>
          <path id="Path_70620" data-name="Path 70620" class="cls-1" d="M17.109,17.109V1.179H16.93V1H1V2.944H15.165V17.109h1.944m1,1H14.165V3.944H0V0H17.93V.179h.179Z"/>
        </g>
      </g>
    </g>
    <g id="Group_131000" data-name="Group 131000" transform="translate(3067 1111)">
      <g id="Group_29085" data-name="Group 29085" transform="translate(0 9.694)">
        <g id="Group_29068" data-name="Group 29068" transform="translate(0 0)">
          <path id="Path_53889" data-name="Path 53889" class="cls-1" d="M50.266,400.384c.316-.089-.579-.764-.579-.764a44.642,44.642,0,0,0-5.288-1.666c-.641.219.666,1.534,1.087,1.772A25.385,25.385,0,0,0,50.266,400.384Z" transform="translate(-42.279 -388.552)"/>
          <path id="Path_53890" data-name="Path 53890" class="cls-1" d="M70.253,375.263a.923.923,0,0,0-.667-.37c-.238-.024-.516-.036-.827-.036-.8,0-1.554.079-1.585.083a.24.24,0,0,0-.211.275,3.047,3.047,0,0,1-.093,1.526c-.273-.445-.863-1.4-1.506-2.352-1.852-2.758-2.319-2.868-2.542-2.921-.778-.183-6.215-.426-7.834-.494v-.033l-.4.016-.4-.016v.033c-1.62.068-7.057.311-7.835.494-.224.053-.691.163-2.543,2.921-.642.957-1.233,1.907-1.506,2.352a3.055,3.055,0,0,1-.093-1.526.239.239,0,0,0-.211-.275c-.032,0-.783-.083-1.585-.083-.311,0-.59.012-.828.036a.926.926,0,0,0-.667.37,2.418,2.418,0,0,0-.232,1.646.239.239,0,0,0,.147.179l2.032.8a9.984,9.984,0,0,0-1.332,1.156c-.157.186-.449.531-.3,3.928.068,1.61.206,3.158.207,3.173l.037.417.752-.066c2,.162,8.624.652,16.018.652a111.111,111.111,0,0,0,12.782-.646l.675.06.037-.417c0-.016.139-1.564.207-3.173.144-3.4-.148-3.742-.3-3.928a9.98,9.98,0,0,0-1.331-1.156l2.032-.8a.238.238,0,0,0,.148-.179A2.42,2.42,0,0,0,70.253,375.263Zm-23.705-2.981c.626-.14,5.134-.367,8.037-.486,2.9.119,7.41.346,8.036.486.458.2,2.065,2.5,3.413,4.7-1.931-.07-7.55-.258-11.21-.267h-.479c-3.66.009-9.279.2-11.211.267C44.483,374.784,46.09,372.478,46.548,372.282Zm-7.413,4.411a1.812,1.812,0,0,1,.165-1.143.439.439,0,0,1,.331-.181,7.792,7.792,0,0,1,.78-.035c.508,0,1.005.035,1.29.058a2.726,2.726,0,0,0,.255,1.695c-.171.122-.4.283-.643.465Zm29.492,2.533-6.007,2.311-.01,0a.148.148,0,0,0-.046.029c-.121.109-.234.217-.344.332a4.557,4.557,0,0,0-.317.364,1.382,1.382,0,0,0-.251.461.444.444,0,0,0-.011.172.319.319,0,0,0,.094.184.352.352,0,0,0,.077.057.33.33,0,0,0,.044.021l.03.011a.749.749,0,0,0,.143.03,3.318,3.318,0,0,0,.484.013c.158,0,.313-.014.469-.026.311-.025.619-.058.927-.1q.922-.117,1.835-.294c.3-.059.607-.125.907-.2.15-.039.3-.078.448-.125a3.07,3.07,0,0,0,.434-.164,3.149,3.149,0,0,1-.44.142c-.15.038-.3.072-.452.1-.3.061-.607.11-.912.155q-.916.131-1.838.2c-.307.024-.615.042-.921.051-.153,0-.306.006-.457,0a3.041,3.041,0,0,1-.441-.034l-.048-.01L62,382.912l-.013,0-.024-.01-.008,0-.015-.013c-.006-.008,0-.01-.006-.021a.183.183,0,0,1,.009-.056,1.145,1.145,0,0,1,.214-.336,3.907,3.907,0,0,1,.308-.319c.1-.1.206-.187.31-.274l6.287-2.062a34.579,34.579,0,0,1-.134,5.961c-1.011.12-2.051.221-3.111.3H44.96c-2.226-.126-3.9-.254-4.72-.321a34.392,34.392,0,0,1-.132-5.943l6.287,2.062c.1.086.21.178.31.274a3.977,3.977,0,0,1,.308.319,1.134,1.134,0,0,1,.213.336.176.176,0,0,1,.009.056c0,.011,0,.013-.007.021a.083.083,0,0,1-.015.013l-.008,0-.023.01-.013,0-.022.006-.048.01a3.042,3.042,0,0,1-.441.034c-.151,0-.3,0-.458,0-.306-.008-.613-.027-.921-.051-.614-.047-1.228-.114-1.838-.2-.3-.045-.609-.094-.912-.155q-.227-.044-.451-.1a3.124,3.124,0,0,1-.44-.142,3.09,3.09,0,0,0,.434.164c.148.046.3.086.448.125.3.075.6.14.907.2q.912.177,1.835.294c.307.039.616.073.927.1.155.012.311.022.468.026a3.315,3.315,0,0,0,.484-.013.725.725,0,0,0,.143-.03l.031-.011a.344.344,0,0,0,.043-.021.363.363,0,0,0,.077-.057.32.32,0,0,0,.093-.184.451.451,0,0,0-.011-.172,1.377,1.377,0,0,0-.251-.461,4.406,4.406,0,0,0-.316-.364c-.111-.115-.222-.224-.344-.332a.144.144,0,0,0-.047-.029l-.01,0-6.007-2.311c.636-.557,1.736-1.345,2.193-1.662a.407.407,0,0,0,.1-.095c1.565-.057,7.886-.278,11.753-.278s10.188.221,11.753.278a.411.411,0,0,0,.1.095C66.89,377.88,67.991,378.668,68.627,379.226Zm1.408-2.533-2.177.859c-.246-.182-.472-.343-.643-.465a2.726,2.726,0,0,0,.255-1.695c.285-.024.782-.058,1.291-.058a7.779,7.779,0,0,1,.779.035.437.437,0,0,1,.331.18A1.822,1.822,0,0,1,70.035,376.693Z" transform="translate(-38.633 -370.94)"/>
          <path id="Path_53891" data-name="Path 53891" class="cls-1" d="M113.1,397.954a44.649,44.649,0,0,0-5.289,1.666s-.894.675-.579.764a25.382,25.382,0,0,0,4.78-.658C112.433,399.488,113.74,398.173,113.1,397.954Z" transform="translate(-83.317 -388.552)"/>
          <path id="Path_53892" data-name="Path 53892" class="cls-1" d="M73.781,397.786c-.251.066-.521.14-.8.241a3.27,3.27,0,0,0-.43.182.968.968,0,0,0-.217.146,1.57,1.57,0,0,0-.157.209,3.2,3.2,0,0,1-.685.655,2.229,2.229,0,0,1-.413.238.937.937,0,0,1-.208.065l-.008,0h-.007l-.032,0-.064,0-.129,0c-.174.011-.338,0-.506,0s-.33,0-.5-.011l-.99-.033-1.758-.071L65.5,399.35v-.033l-.353.017-.353-.017v.033l-1.368.064-1.758.071-.991.033c-.171.006-.333.007-.5.011s-.332.011-.506,0l-.129,0-.064,0-.033,0h-.006l-.008,0a.946.946,0,0,1-.209-.065,2.251,2.251,0,0,1-.413-.238,3.192,3.192,0,0,1-.684-.655,1.673,1.673,0,0,0-.157-.209.966.966,0,0,0-.216-.146,3.25,3.25,0,0,0-.43-.182c-.283-.1-.553-.175-.8-.241-.5-.13-.922-.218-1.217-.278s-.465-.089-.465-.089.167.04.458.119.7.194,1.192.355c.244.081.507.174.774.289a3.315,3.315,0,0,1,.394.2.775.775,0,0,1,.165.125,1.9,1.9,0,0,1,.117.183,3.442,3.442,0,0,0,.7.763,2.609,2.609,0,0,0,.452.3,1.273,1.273,0,0,0,.275.1l.019.005,0,0,.017,0h.008l.032,0,.064.007.128.012c.168.021.348.023.522.034s.353.019.521.024l1,.032,1.763.044,1.349.025v.014l.359-.007h.012l.359.007v-.014l1.349-.025,1.764-.044,1-.032c.167-.005.346-.015.521-.024s.354-.013.523-.034l.128-.012.064-.007.032,0H70.9l.017,0,0,0,.019-.005a1.276,1.276,0,0,0,.275-.1,2.6,2.6,0,0,0,.453-.3,3.452,3.452,0,0,0,.7-.763,1.776,1.776,0,0,1,.117-.183.8.8,0,0,1,.164-.125,3.315,3.315,0,0,1,.394-.2c.268-.115.53-.208.774-.289.488-.161.9-.276,1.192-.355s.458-.119.458-.119-.169.029-.465.089S74.282,397.656,73.781,397.786Z" transform="translate(-49.199 -388.205)"/>
          <path id="Path_53893" data-name="Path 53893" class="cls-1" d="M43.189,417.2s-.411,1.863,0,2.385,4.415.5,4.976,0,.262-2.182.262-2.182C46.818,417.4,43.189,417.2,43.189,417.2Z" transform="translate(-41.484 -401.1)"/>
          <path id="Path_53894" data-name="Path 53894" class="cls-1" d="M110.079,417.4s-.3,1.688.263,2.182,4.581.524,4.993,0,0-2.385,0-2.385S111.693,417.4,110.079,417.4Z" transform="translate(-85.165 -401.1)"/>
        </g>
        <path id="Path_70621" data-name="Path 70621" class="cls-1" d="M0,0H10.242V2.561H0Z" transform="translate(10.43 12.13)"/>
      </g>
      <g id="Group_130998" data-name="Group 130998" transform="translate(53.616 9.694)">
        <g id="Group_29068-2" data-name="Group 29068" transform="translate(0 0)">
          <path id="Path_53889-2" data-name="Path 53889" class="cls-1" d="M50.266,400.384c.316-.089-.579-.764-.579-.764a44.642,44.642,0,0,0-5.288-1.666c-.641.219.666,1.534,1.087,1.772A25.385,25.385,0,0,0,50.266,400.384Z" transform="translate(-42.279 -388.552)"/>
          <path id="Path_53890-2" data-name="Path 53890" class="cls-1" d="M70.253,375.263a.923.923,0,0,0-.667-.37c-.238-.024-.516-.036-.827-.036-.8,0-1.554.079-1.585.083a.24.24,0,0,0-.211.275,3.047,3.047,0,0,1-.093,1.526c-.273-.445-.863-1.4-1.506-2.352-1.852-2.758-2.319-2.868-2.542-2.921-.778-.183-6.215-.426-7.834-.494v-.033l-.4.016-.4-.016v.033c-1.62.068-7.057.311-7.835.494-.224.053-.691.163-2.543,2.921-.642.957-1.233,1.907-1.506,2.352a3.055,3.055,0,0,1-.093-1.526.239.239,0,0,0-.211-.275c-.032,0-.783-.083-1.585-.083-.311,0-.59.012-.828.036a.926.926,0,0,0-.667.37,2.418,2.418,0,0,0-.232,1.646.239.239,0,0,0,.147.179l2.032.8a9.984,9.984,0,0,0-1.332,1.156c-.157.186-.449.531-.3,3.928.068,1.61.206,3.158.207,3.173l.037.417.752-.066c2,.162,8.624.652,16.018.652a111.111,111.111,0,0,0,12.782-.646l.675.06.037-.417c0-.016.139-1.564.207-3.173.144-3.4-.148-3.742-.3-3.928a9.98,9.98,0,0,0-1.331-1.156l2.032-.8a.238.238,0,0,0,.148-.179A2.42,2.42,0,0,0,70.253,375.263Zm-23.705-2.981c.626-.14,5.134-.367,8.037-.486,2.9.119,7.41.346,8.036.486.458.2,2.065,2.5,3.413,4.7-1.931-.07-7.55-.258-11.21-.267h-.479c-3.66.009-9.279.2-11.211.267C44.483,374.784,46.09,372.478,46.548,372.282Zm-7.413,4.411a1.812,1.812,0,0,1,.165-1.143.439.439,0,0,1,.331-.181,7.792,7.792,0,0,1,.78-.035c.508,0,1.005.035,1.29.058a2.726,2.726,0,0,0,.255,1.695c-.171.122-.4.283-.643.465Zm29.492,2.533-6.007,2.311-.01,0a.148.148,0,0,0-.046.029c-.121.109-.234.217-.344.332a4.557,4.557,0,0,0-.317.364,1.382,1.382,0,0,0-.251.461.444.444,0,0,0-.011.172.319.319,0,0,0,.094.184.352.352,0,0,0,.077.057.33.33,0,0,0,.044.021l.03.011a.749.749,0,0,0,.143.03,3.318,3.318,0,0,0,.484.013c.158,0,.313-.014.469-.026.311-.025.619-.058.927-.1q.922-.117,1.835-.294c.3-.059.607-.125.907-.2.15-.039.3-.078.448-.125a3.07,3.07,0,0,0,.434-.164,3.149,3.149,0,0,1-.44.142c-.15.038-.3.072-.452.1-.3.061-.607.11-.912.155q-.916.131-1.838.2c-.307.024-.615.042-.921.051-.153,0-.306.006-.457,0a3.041,3.041,0,0,1-.441-.034l-.048-.01L62,382.912l-.013,0-.024-.01-.008,0-.015-.013c-.006-.008,0-.01-.006-.021a.183.183,0,0,1,.009-.056,1.145,1.145,0,0,1,.214-.336,3.907,3.907,0,0,1,.308-.319c.1-.1.206-.187.31-.274l6.287-2.062a34.579,34.579,0,0,1-.134,5.961c-1.011.12-2.051.221-3.111.3H44.96c-2.226-.126-3.9-.254-4.72-.321a34.392,34.392,0,0,1-.132-5.943l6.287,2.062c.1.086.21.178.31.274a3.977,3.977,0,0,1,.308.319,1.134,1.134,0,0,1,.213.336.176.176,0,0,1,.009.056c0,.011,0,.013-.007.021a.083.083,0,0,1-.015.013l-.008,0-.023.01-.013,0-.022.006-.048.01a3.042,3.042,0,0,1-.441.034c-.151,0-.3,0-.458,0-.306-.008-.613-.027-.921-.051-.614-.047-1.228-.114-1.838-.2-.3-.045-.609-.094-.912-.155q-.227-.044-.451-.1a3.124,3.124,0,0,1-.44-.142,3.09,3.09,0,0,0,.434.164c.148.046.3.086.448.125.3.075.6.14.907.2q.912.177,1.835.294c.307.039.616.073.927.1.155.012.311.022.468.026a3.315,3.315,0,0,0,.484-.013.725.725,0,0,0,.143-.03l.031-.011a.344.344,0,0,0,.043-.021.363.363,0,0,0,.077-.057.32.32,0,0,0,.093-.184.451.451,0,0,0-.011-.172,1.377,1.377,0,0,0-.251-.461,4.406,4.406,0,0,0-.316-.364c-.111-.115-.222-.224-.344-.332a.144.144,0,0,0-.047-.029l-.01,0-6.007-2.311c.636-.557,1.736-1.345,2.193-1.662a.407.407,0,0,0,.1-.095c1.565-.057,7.886-.278,11.753-.278s10.188.221,11.753.278a.411.411,0,0,0,.1.095C66.89,377.88,67.991,378.668,68.627,379.226Zm1.408-2.533-2.177.859c-.246-.182-.472-.343-.643-.465a2.726,2.726,0,0,0,.255-1.695c.285-.024.782-.058,1.291-.058a7.779,7.779,0,0,1,.779.035.437.437,0,0,1,.331.18A1.822,1.822,0,0,1,70.035,376.693Z" transform="translate(-38.633 -370.94)"/>
          <path id="Path_53891-2" data-name="Path 53891" class="cls-1" d="M113.1,397.954a44.649,44.649,0,0,0-5.289,1.666s-.894.675-.579.764a25.382,25.382,0,0,0,4.78-.658C112.433,399.488,113.74,398.173,113.1,397.954Z" transform="translate(-83.317 -388.552)"/>
          <path id="Path_53892-2" data-name="Path 53892" class="cls-1" d="M73.781,397.786c-.251.066-.521.14-.8.241a3.27,3.27,0,0,0-.43.182.968.968,0,0,0-.217.146,1.57,1.57,0,0,0-.157.209,3.2,3.2,0,0,1-.685.655,2.229,2.229,0,0,1-.413.238.937.937,0,0,1-.208.065l-.008,0h-.007l-.032,0-.064,0-.129,0c-.174.011-.338,0-.506,0s-.33,0-.5-.011l-.99-.033-1.758-.071L65.5,399.35v-.033l-.353.017-.353-.017v.033l-1.368.064-1.758.071-.991.033c-.171.006-.333.007-.5.011s-.332.011-.506,0l-.129,0-.064,0-.033,0h-.006l-.008,0a.946.946,0,0,1-.209-.065,2.251,2.251,0,0,1-.413-.238,3.192,3.192,0,0,1-.684-.655,1.673,1.673,0,0,0-.157-.209.966.966,0,0,0-.216-.146,3.25,3.25,0,0,0-.43-.182c-.283-.1-.553-.175-.8-.241-.5-.13-.922-.218-1.217-.278s-.465-.089-.465-.089.167.04.458.119.7.194,1.192.355c.244.081.507.174.774.289a3.315,3.315,0,0,1,.394.2.775.775,0,0,1,.165.125,1.9,1.9,0,0,1,.117.183,3.442,3.442,0,0,0,.7.763,2.609,2.609,0,0,0,.452.3,1.273,1.273,0,0,0,.275.1l.019.005,0,0,.017,0h.008l.032,0,.064.007.128.012c.168.021.348.023.522.034s.353.019.521.024l1,.032,1.763.044,1.349.025v.014l.359-.007h.012l.359.007v-.014l1.349-.025,1.764-.044,1-.032c.167-.005.346-.015.521-.024s.354-.013.523-.034l.128-.012.064-.007.032,0H70.9l.017,0,0,0,.019-.005a1.276,1.276,0,0,0,.275-.1,2.6,2.6,0,0,0,.453-.3,3.452,3.452,0,0,0,.7-.763,1.776,1.776,0,0,1,.117-.183.8.8,0,0,1,.164-.125,3.315,3.315,0,0,1,.394-.2c.268-.115.53-.208.774-.289.488-.161.9-.276,1.192-.355s.458-.119.458-.119-.169.029-.465.089S74.282,397.656,73.781,397.786Z" transform="translate(-49.199 -388.205)"/>
          <path id="Path_53893-2" data-name="Path 53893" class="cls-1" d="M43.189,417.2s-.411,1.863,0,2.385,4.415.5,4.976,0,.262-2.182.262-2.182C46.818,417.4,43.189,417.2,43.189,417.2Z" transform="translate(-41.484 -401.1)"/>
          <path id="Path_53894-2" data-name="Path 53894" class="cls-1" d="M110.079,417.4s-.3,1.688.263,2.182,4.581.524,4.993,0,0-2.385,0-2.385S111.693,417.4,110.079,417.4Z" transform="translate(-85.165 -401.1)"/>
        </g>
        <path id="Path_70622" data-name="Path 70622" class="cls-1" d="M0,0H10.242V2.561H0Z" transform="translate(10.43 12.13)"/>
      </g>
      <g id="Group_129158" data-name="Group 129158" transform="translate(31.902 0)">
        <g id="Group_29068-3" data-name="Group 29068" transform="translate(0 0)">
          <path id="Path_53889-3" data-name="Path 53889" class="cls-1" d="M48.336,399.607c.215-.06-.394-.52-.394-.52a30.334,30.334,0,0,0-3.6-1.134c-.436.149.454,1.044.74,1.206A17.258,17.258,0,0,0,48.336,399.607Z" transform="translate(-42.9 -391.554)"/>
          <path id="Path_53890-3" data-name="Path 53890" class="cls-1" d="M60.154,373.882a.629.629,0,0,0-.454-.252c-.162-.016-.351-.025-.563-.025-.546,0-1.058.054-1.079.056a.161.161,0,0,0-.112.063.163.163,0,0,0-.032.124,2.073,2.073,0,0,1-.063,1.038c-.186-.3-.588-.949-1.025-1.6-1.261-1.877-1.578-1.952-1.73-1.988-.529-.125-4.23-.29-5.332-.337v-.022l-.273.011-.273-.011v.022c-1.1.047-4.8.212-5.332.337-.153.036-.47.111-1.731,1.988-.437.651-.839,1.3-1.025,1.6a2.078,2.078,0,0,1-.063-1.038.164.164,0,0,0-.032-.124.162.162,0,0,0-.112-.063c-.022,0-.533-.056-1.079-.056-.212,0-.4.008-.563.025a.631.631,0,0,0-.454.252,1.646,1.646,0,0,0-.158,1.12.162.162,0,0,0,.1.122l1.383.546a6.8,6.8,0,0,0-.906.787c-.107.127-.306.362-.207,2.674.046,1.1.14,2.149.141,2.16l.025.283.512-.045c1.359.111,5.869.444,10.9.444a75.586,75.586,0,0,0,8.7-.44l.46.041.025-.283c0-.011.095-1.064.141-2.16.1-2.312-.1-2.547-.207-2.674a6.8,6.8,0,0,0-.906-.787l1.383-.546a.162.162,0,0,0,.1-.122A1.647,1.647,0,0,0,60.154,373.882ZM44.02,371.853c.426-.1,3.494-.25,5.47-.331,1.976.081,5.044.236,5.47.331a15.588,15.588,0,0,1,2.323,3.2c-1.315-.047-5.139-.176-7.63-.182h-.326c-2.491.006-6.316.134-7.63.182A15.589,15.589,0,0,1,44.02,371.853Zm-5.046,3a1.233,1.233,0,0,1,.112-.778.3.3,0,0,1,.225-.123,5.3,5.3,0,0,1,.531-.023c.346,0,.684.023.878.04a1.855,1.855,0,0,0,.173,1.154c-.116.083-.27.192-.438.316Zm20.073,1.724-4.088,1.573-.007,0a.1.1,0,0,0-.032.019c-.083.074-.159.148-.234.226a3.061,3.061,0,0,0-.216.247.942.942,0,0,0-.171.314.3.3,0,0,0-.008.117.217.217,0,0,0,.064.126.234.234,0,0,0,.052.039l.03.014.02.007a.506.506,0,0,0,.1.021,2.285,2.285,0,0,0,.329.009c.107,0,.213-.01.319-.018.212-.017.422-.039.631-.066q.628-.08,1.249-.2c.207-.041.413-.085.617-.136.1-.026.2-.053.3-.085a2.046,2.046,0,0,0,.3-.112,2.093,2.093,0,0,1-.3.1c-.1.026-.2.049-.307.069-.206.041-.413.075-.621.105q-.623.089-1.251.137c-.209.016-.418.029-.627.034-.1,0-.208,0-.311,0a2.061,2.061,0,0,1-.3-.023l-.033-.007-.015,0-.009,0-.016-.007-.005,0-.01-.009c0-.005,0-.006,0-.014a.124.124,0,0,1,.006-.038.781.781,0,0,1,.145-.228,2.631,2.631,0,0,1,.21-.217c.068-.065.14-.127.211-.186l4.279-1.4a23.533,23.533,0,0,1-.091,4.057c-.688.082-1.4.15-2.118.206H42.94c-1.515-.086-2.654-.173-3.212-.219a23.4,23.4,0,0,1-.09-4.045l4.279,1.4c.071.059.143.121.211.186a2.671,2.671,0,0,1,.21.217.775.775,0,0,1,.145.228.119.119,0,0,1,.006.038c0,.008,0,.009,0,.014l-.01.009-.006,0-.016.007-.009,0-.015,0-.033.007a2.061,2.061,0,0,1-.3.023c-.1,0-.207,0-.311,0-.208-.006-.417-.018-.627-.034-.418-.032-.836-.077-1.251-.137-.207-.031-.415-.064-.621-.105q-.155-.03-.307-.069a2.078,2.078,0,0,1-.3-.1,2.06,2.06,0,0,0,.3.112c.1.032.2.059.3.085.2.051.41.1.617.136q.621.121,1.249.2c.209.027.419.049.631.066.106.008.212.015.319.018a2.284,2.284,0,0,0,.329-.009.49.49,0,0,0,.1-.021l.021-.007.029-.014a.241.241,0,0,0,.053-.039.217.217,0,0,0,.063-.126.307.307,0,0,0-.007-.117.938.938,0,0,0-.171-.314,2.969,2.969,0,0,0-.215-.247c-.075-.079-.151-.152-.234-.226a.1.1,0,0,0-.032-.019l-.007,0-4.088-1.573c.433-.379,1.182-.915,1.493-1.131a.277.277,0,0,0,.065-.064c1.065-.039,5.367-.189,8-.189s6.934.151,8,.189a.281.281,0,0,0,.065.064C57.865,375.664,58.614,376.2,59.047,376.58Zm.958-1.724-1.482.585c-.168-.124-.321-.233-.438-.316a1.856,1.856,0,0,0,.173-1.154c.194-.016.532-.04.879-.04a5.3,5.3,0,0,1,.53.023.3.3,0,0,1,.225.122A1.24,1.24,0,0,1,60.006,374.856Z" transform="translate(-38.633 -370.94)"/>
          <path id="Path_53891-3" data-name="Path 53891" class="cls-1" d="M111.2,397.953a30.342,30.342,0,0,0-3.6,1.134s-.609.46-.394.52a17.254,17.254,0,0,0,3.253-.448C110.751,399,111.64,398.1,111.2,397.953Z" transform="translate(-90.934 -391.554)"/>
          <path id="Path_53892-3" data-name="Path 53892" class="cls-1" d="M67.731,397.669c-.171.045-.355.1-.547.164a2.135,2.135,0,0,0-.293.124.648.648,0,0,0-.148.1,1.071,1.071,0,0,0-.107.142,2.186,2.186,0,0,1-.466.446,1.545,1.545,0,0,1-.281.162.665.665,0,0,1-.142.044h-.032l-.044,0-.088,0c-.118.007-.23,0-.344,0s-.225,0-.341-.007l-.674-.023-1.2-.049-.931-.043v-.023l-.24.012-.24-.012v.023l-.931.043-1.2.049-.675.023c-.116,0-.227,0-.341.007s-.226.008-.344,0l-.088,0-.044,0h-.032a.673.673,0,0,1-.142-.044,1.56,1.56,0,0,1-.281-.162,2.181,2.181,0,0,1-.466-.446,1.139,1.139,0,0,0-.107-.142.648.648,0,0,0-.147-.1,2.123,2.123,0,0,0-.293-.124c-.192-.068-.376-.119-.547-.164-.341-.088-.628-.148-.828-.189s-.316-.061-.316-.061.114.027.311.081.479.132.811.242c.166.056.345.118.527.2a2.173,2.173,0,0,1,.268.135.519.519,0,0,1,.112.085,1.257,1.257,0,0,1,.079.125,2.346,2.346,0,0,0,.474.519,1.8,1.8,0,0,0,.308.2.873.873,0,0,0,.187.072l.013,0h.02l.022,0,.044,0,.087.008c.114.014.237.016.356.023s.24.013.354.016l.678.022,1.2.03.918.016v.009l.245,0h.008l.244,0v-.009l.918-.016,1.2-.03.677-.022c.114,0,.235-.011.354-.016s.241-.009.356-.023l.087-.008.043,0,.022,0h.02l.013,0a.875.875,0,0,0,.187-.072,1.8,1.8,0,0,0,.308-.2,2.352,2.352,0,0,0,.474-.519,1.175,1.175,0,0,1,.079-.125.536.536,0,0,1,.112-.085,2.173,2.173,0,0,1,.268-.135c.182-.078.361-.141.527-.2.332-.109.614-.187.811-.242s.311-.081.311-.081-.115.02-.316.061S68.072,397.58,67.731,397.669Z" transform="translate(-51 -391.148)"/>
          <path id="Path_53893-3" data-name="Path 53893" class="cls-1" d="M43.13,417.2s-.28,1.268,0,1.623,3,.337,3.387,0,.178-1.485.178-1.485C45.6,417.335,43.13,417.2,43.13,417.2Z" transform="translate(-41.97 -406.241)"/>
          <path id="Path_53894-3" data-name="Path 53894" class="cls-1" d="M110.054,417.335s-.2,1.148.179,1.485,3.118.357,3.4,0,0-1.623,0-1.623S111.152,417.335,110.054,417.335Z" transform="translate(-93.097 -406.241)"/>
        </g>
        <path id="Path_70623" data-name="Path 70623" class="cls-1" d="M0,0H6.971V1.743H0Z" transform="translate(7.099 8.256)"/>
      </g>
    </g>
  </g>
</svg>
