<svg xmlns="http://www.w3.org/2000/svg" width="55.507" height="55.507" viewBox="0 0 55.507 55.507">
  <g id="Group_29096" data-name="Group 29096" transform="translate(-4854.387 -5575.223)">
    <g id="Group_29091" data-name="Group 29091" transform="translate(4636.5 5444.83)">
      <g id="Group_25250" data-name="Group 25250" transform="translate(227.802 137.387)">
        <g id="Group_25228" data-name="Group 25228" transform="translate(10.5 22.505)">
          <path id="Path_53139" data-name="Path 53139" d="M243.085,181.224a.189.189,0,0,1-.1-.349l2.51-1.56a.189.189,0,0,1,.2.321l-2.51,1.56A.193.193,0,0,1,243.085,181.224ZM247.3,178.6a.189.189,0,0,1-.1-.349l2.51-1.56a.188.188,0,0,1,.2.32l-2.51,1.56A.187.187,0,0,1,247.3,178.6Zm4.219-2.622a.188.188,0,0,1-.1-.349l2.51-1.56a.189.189,0,0,1,.2.321l-2.51,1.56A.185.185,0,0,1,251.523,175.979Zm4.219-2.622a.189.189,0,0,1-.1-.349l2.51-1.56a.188.188,0,1,1,.2.32l-2.51,1.56A.187.187,0,0,1,255.742,173.358Zm4.219-2.622a.188.188,0,0,1-.1-.349l1-.619a.188.188,0,1,1,.2.32l-1,.619A.185.185,0,0,1,259.961,170.735Z" transform="translate(-242.896 -169.739)" fill="#fff" stroke="#fff" stroke-width="1"/>
        </g>
        <g id="Group_25229" data-name="Group 25229" transform="translate(7.924 7.537)">
          <path id="Path_53140" data-name="Path 53140" d="M259.63,159.136a.185.185,0,0,1-.086-.022l-2.622-1.364a.189.189,0,0,1,.174-.335l2.622,1.364a.189.189,0,0,1-.088.356Zm-4.406-2.293a.186.186,0,0,1-.087-.021l-2.622-1.364a.189.189,0,0,1,.175-.335l2.621,1.364a.188.188,0,0,1-.087.355Zm-4.407-2.293a.187.187,0,0,1-.087-.022l-2.622-1.364a.189.189,0,0,1,.175-.335l2.621,1.364a.189.189,0,0,1-.087.356Zm-4.407-2.293a.187.187,0,0,1-.087-.022l-2.621-1.364a.189.189,0,1,1,.174-.335L246.5,151.9a.189.189,0,0,1-.088.356ZM242,149.963a.183.183,0,0,1-.086-.021l-2.622-1.365a.189.189,0,1,1,.174-.335l2.622,1.364a.189.189,0,0,1-.088.356Z" transform="translate(-239.193 -148.222)" fill="#fff" stroke="#fff" stroke-width="1"/>
        </g>
        <g id="Group_25233" data-name="Group 25233" transform="translate(0 23.171)">
          <g id="Group_25230" data-name="Group 25230" transform="translate(0.195 0.195)">
            <path id="Path_53141" data-name="Path 53141" d="M233.247,170.977a5.163,5.163,0,0,0-5.164,5.164c0,3.779,5.164,8.336,5.164,8.336s5.163-4.558,5.163-8.336A5.163,5.163,0,0,0,233.247,170.977Zm0,8.6a3.692,3.692,0,1,1,3.692-3.692A3.692,3.692,0,0,1,233.247,179.574Z" transform="translate(-228.083 -170.977)" fill="#fff"/>
          </g>
          <g id="Group_25231" data-name="Group 25231" transform="translate(0.195 0.195)">
            <path id="Path_53142" data-name="Path 53142" d="M233.247,172.189v-1.212a5.164,5.164,0,0,0-5.164,5.164c0,3.779,5.164,8.336,5.164,8.336v-4.9a3.692,3.692,0,1,1,0-7.385Z" transform="translate(-228.083 -170.977)" fill="#fff"/>
          </g>
          <g id="Group_25232" data-name="Group 25232">
            <path id="Path_53143" data-name="Path 53143" d="M233.161,184.652l-.129-.114c-.214-.189-5.23-4.659-5.23-8.482a5.359,5.359,0,0,1,10.717,0c0,3.823-5.016,8.294-5.23,8.482Zm0-13.565a4.974,4.974,0,0,0-4.969,4.968c0,3.318,4.174,7.338,4.969,8.073.793-.735,4.968-4.756,4.968-8.073A4.974,4.974,0,0,0,233.161,171.087Zm0,8.6a3.887,3.887,0,1,1,3.887-3.887A3.892,3.892,0,0,1,233.161,179.683Zm0-7.385a3.5,3.5,0,1,0,3.5,3.5A3.5,3.5,0,0,0,233.161,172.3Z" transform="translate(-227.802 -170.697)" fill="#fff"/>
          </g>
        </g>
        <g id="Group_25241" data-name="Group 25241" transform="translate(28.678 10.032)">
          <g id="Group_25238" data-name="Group 25238" transform="translate(0.144 0.144)">
            <path id="Path_53147" data-name="Path 53147" d="M273.054,152.015a3.818,3.818,0,0,0-3.818,3.818c0,2.793,3.818,6.163,3.818,6.163s3.817-3.37,3.817-6.163A3.817,3.817,0,0,0,273.054,152.015Zm0,6.354a2.729,2.729,0,1,1,2.729-2.729A2.729,2.729,0,0,1,273.054,158.369Z" transform="translate(-269.236 -152.015)" fill="#fff"/>
          </g>
          <g id="Group_25239" data-name="Group 25239" transform="translate(0.144 0.144)">
            <path id="Path_53148" data-name="Path 53148" d="M273.054,152.911v-.9a3.818,3.818,0,0,0-3.818,3.818c0,2.793,3.818,6.163,3.818,6.163V158.37a2.73,2.73,0,1,1,0-5.459Z" transform="translate(-269.236 -152.015)" fill="#fff"/>
          </g>
          <g id="Group_25240" data-name="Group 25240">
            <path id="Path_53149" data-name="Path 53149" d="M272.99,162.124l-.1-.084c-.158-.139-3.866-3.445-3.866-6.27a3.961,3.961,0,1,1,7.922,0c0,2.826-3.708,6.131-3.866,6.27Zm0-10.027a3.676,3.676,0,0,0-3.672,3.673c0,2.451,3.086,5.424,3.672,5.967.587-.543,3.674-3.516,3.674-5.967A3.677,3.677,0,0,0,272.99,152.1Zm0,6.354a2.874,2.874,0,1,1,2.874-2.874A2.877,2.877,0,0,1,272.99,158.451Zm0-5.459a2.585,2.585,0,1,0,2.586,2.586A2.588,2.588,0,0,0,272.99,152.992Z" transform="translate(-269.029 -151.808)" fill="#fff"/>
          </g>
        </g>
        <g id="Group_25249" data-name="Group 25249" transform="translate(2.81)">
          <g id="Group_25246" data-name="Group 25246" transform="translate(0.093 0.093)">
            <path id="Path_53154" data-name="Path 53154" d="M234.431,137.521a2.457,2.457,0,0,0-2.457,2.456c0,1.8,2.457,3.966,2.457,3.966s2.456-2.168,2.456-3.966A2.456,2.456,0,0,0,234.431,137.521Zm0,4.09a1.757,1.757,0,1,1,1.756-1.756A1.757,1.757,0,0,1,234.431,141.611Z" transform="translate(-231.974 -137.521)" fill="#fff"/>
          </g>
          <g id="Group_25247" data-name="Group 25247" transform="translate(0.093 0.093)">
            <path id="Path_53155" data-name="Path 53155" d="M234.431,138.1v-.576a2.457,2.457,0,0,0-2.457,2.456c0,1.8,2.457,3.966,2.457,3.966v-2.333a1.757,1.757,0,1,1,0-3.514Z" transform="translate(-231.974 -137.521)" fill="#fff"/>
          </g>
          <g id="Group_25248" data-name="Group 25248">
            <path id="Path_53156" data-name="Path 53156" d="M234.39,144.027l-.062-.054c-.1-.09-2.488-2.217-2.488-4.036a2.549,2.549,0,1,1,5.1,0c0,1.819-2.386,3.946-2.488,4.036Zm0-6.454a2.367,2.367,0,0,0-2.364,2.364c0,1.578,1.986,3.491,2.364,3.841.378-.349,2.363-2.262,2.363-3.841A2.366,2.366,0,0,0,234.39,137.573Zm0,4.09a1.849,1.849,0,1,1,1.849-1.849A1.851,1.851,0,0,1,234.39,141.662Zm0-3.513a1.664,1.664,0,1,0,1.663,1.664A1.666,1.666,0,0,0,234.39,138.149Z" transform="translate(-231.841 -137.387)" fill="#fff"/>
          </g>
        </g>
      </g>
    </g>
    <g id="Group_29094" data-name="Group 29094" transform="translate(4854.387 5575.223)" style="isolation: isolate">
      <g id="Group_23072" data-name="Group 23072">
        <g id="Group_238" data-name="Group 238">
          <g id="Union_1" data-name="Union 1" transform="translate(46.174)" fill="#fff">
            <path d="M 8.832963943481445 8.832963943481445 L 7.800074100494385 8.832963943481445 L 7.800074100494385 2.032893896102905 L 7.800074100494385 1.532893896102905 L 7.300074100494385 1.532893896102905 L 0.5000038743019104 1.532893896102905 L 0.5000038743019104 0.5000038743019104 L 8.740653991699219 0.5000038743019104 L 8.740653991699219 0.5924838781356812 L 8.832963943481445 0.5924838781356812 L 8.832963943481445 8.832963943481445 Z" stroke="none"/>
            <path d="M 8.332963943481445 8.332963943481445 L 8.332963943481445 1.092483878135681 L 8.300073623657227 1.092483878135681 L 8.300073623657227 2.032893896102905 L 8.300073623657227 8.332963943481445 L 8.332963943481445 8.332963943481445 M 8.240653991699219 1.032893896102905 L 8.240653991699219 1.000003933906555 L 1.000003933906555 1.000003933906555 L 1.000003933906555 1.032893896102905 L 7.300074100494385 1.032893896102905 L 8.240653991699219 1.032893896102905 M 9.332963943481445 9.332963943481445 L 7.300074100494385 9.332963943481445 L 7.300074100494385 2.032893896102905 L 3.879089490510523e-06 2.032893896102905 L 3.879089490510523e-06 3.879089490510523e-06 L 9.240653991699219 3.879089490510523e-06 L 9.240653991699219 0.09248387813568115 L 9.332963943481445 0.09248387813568115 L 9.332963943481445 9.332963943481445 Z" stroke="none" fill="#fff"/>
          </g>
          <g id="Union_3" data-name="Union 3" transform="translate(46.174 46.174)" fill="#fff">
            <path d="M 8.740655899047852 8.832963943481445 L 0.4999957978725433 8.832963943481445 L 0.4999957978725433 7.800074100494385 L 7.300076007843018 7.800074100494385 L 7.800076007843018 7.800074100494385 L 7.800076007843018 7.300074100494385 L 7.800076007843018 0.5000038743019104 L 8.832975387573242 0.5000038743019104 L 8.832975387573242 8.740484237670898 L 8.740655899047852 8.740484237670898 L 8.740655899047852 8.832963943481445 Z" stroke="none"/>
            <path d="M 8.300075531005859 1.000003814697266 L 8.300075531005859 7.300073623657227 L 8.300075531005859 8.240484237670898 L 8.332975387573242 8.240484237670898 L 8.332975387573242 1.000003814697266 L 8.300075531005859 1.000003814697266 M 0.9999961853027344 8.300073623657227 L 0.9999961853027344 8.332963943481445 L 8.240655899047852 8.332963943481445 L 8.240655899047852 8.300073623657227 L 7.300075531005859 8.300073623657227 L 0.9999961853027344 8.300073623657227 M 7.300075531005859 3.814697265625e-06 L 9.332975387573242 3.814697265625e-06 L 9.332975387573242 9.240484237670898 L 9.240655899047852 9.240484237670898 L 9.240655899047852 9.332963943481445 L -3.814697265625e-06 9.332963943481445 L -3.814697265625e-06 7.300073623657227 L 7.300075531005859 7.300073623657227 L 7.300075531005859 3.814697265625e-06 Z" stroke="none" fill="#fff"/>
          </g>
          <g id="Union_2" data-name="Union 2" transform="translate(9.333 9.333) rotate(180)" fill="#fff">
            <path d="M 8.740689277648926 8.832963943481445 L 0.499999612569809 8.832963943481445 L 0.499999612569809 7.800074100494385 L 7.300099849700928 7.800074100494385 L 7.800099849700928 7.800074100494385 L 7.800099849700928 7.300074100494385 L 7.800099849700928 0.5000038743019104 L 8.832999229431152 0.5000038743019104 L 8.832999229431152 8.740484237670898 L 8.740689277648926 8.740484237670898 L 8.740689277648926 8.832963943481445 Z" stroke="none"/>
            <path d="M 8.30009937286377 1.000003814697266 L 8.30009937286377 7.300073623657227 L 8.30009937286377 8.240484237670898 L 8.332999229431152 8.240484237670898 L 8.332999229431152 1.000003814697266 L 8.30009937286377 1.000003814697266 M 1 8.300073623657227 L 1 8.332963943481445 L 8.240689277648926 8.332963943481445 L 8.240689277648926 8.300073623657227 L 7.30009937286377 8.300073623657227 L 1 8.300073623657227 M 7.30009937286377 3.814697265625e-06 L 9.332999229431152 3.814697265625e-06 L 9.332999229431152 9.240484237670898 L 9.240689277648926 9.240484237670898 L 9.240689277648926 9.332963943481445 L 0 9.332963943481445 L 0 7.300073623657227 L 7.30009937286377 7.300073623657227 L 7.30009937286377 3.814697265625e-06 Z" stroke="none" fill="#fff"/>
          </g>
          <g id="Union_4" data-name="Union 4" transform="translate(9.333 55.507) rotate(180)" fill="#fff">
            <path d="M 8.833001136779785 8.832963943481445 L 7.800101757049561 8.832963943481445 L 7.800101757049561 2.032893896102905 L 7.800101757049561 1.532893896102905 L 7.300101757049561 1.532893896102905 L 0.5000015497207642 1.532893896102905 L 0.5000015497207642 0.5000038743019104 L 8.740691184997559 0.5000038743019104 L 8.740691184997559 0.5924838781356812 L 8.833001136779785 0.5924838781356812 L 8.833001136779785 8.832963943481445 Z" stroke="none"/>
            <path d="M 8.333001136779785 8.332963943481445 L 8.333001136779785 1.092483878135681 L 8.300101280212402 1.092483878135681 L 8.300101280212402 2.032893896102905 L 8.300101280212402 8.332963943481445 L 8.333001136779785 8.332963943481445 M 8.240691184997559 1.032893896102905 L 8.240691184997559 1.000003933906555 L 1.000001549720764 1.000003933906555 L 1.000001549720764 1.032893896102905 L 7.300101757049561 1.032893896102905 L 8.240691184997559 1.032893896102905 M 9.333001136779785 9.332963943481445 L 7.300101757049561 9.332963943481445 L 7.300101757049561 2.032893896102905 L 1.522064167147619e-06 2.032893896102905 L 1.522064167147619e-06 3.879089490510523e-06 L 9.240691184997559 3.879089490510523e-06 L 9.240691184997559 0.09248387813568115 L 9.333001136779785 0.09248387813568115 L 9.333001136779785 9.332963943481445 Z" stroke="none" fill="#fff"/>
          </g>
        </g>
      </g>
    </g>
  </g>
</svg>
