<svg xmlns="http://www.w3.org/2000/svg" width="55.08" height="81.144" viewBox="0 0 55.08 81.144">
  <g id="branch" transform="translate(-977.165 -63.504)">
    <path id="Path_49896" data-name="Path 49896" d="M1017.6,87.7c-.026-.193-.05-.386-.09-.574-.029-.146-.067-.281-.1-.418l-.118-.462c-.031-.126-.06-.252-.1-.374-.057-.183-.124-.358-.192-.532l-.157-.428c-.029-.08-.055-.162-.088-.24-.1-.249-.227-.487-.347-.725l-.133-.275a1.471,1.471,0,0,0-.07-.144c-.156-.289-.332-.569-.511-.848-.031-.047-.066-.1-.1-.161-.243-.369-.466-.659-.693-.943l-.087-.117q-.367-.451-.8-.895l-.079-.087a13.022,13.022,0,0,0-9.153-3.84l-.152-.007a13.13,13.13,0,1,0,0,26.26h.159A13.048,13.048,0,0,0,1013.97,99c.33-.339.6-.637.836-.928.038-.052.068-.093.1-.134.22-.277.442-.566.646-.87.071-.121.1-.176.138-.228.179-.279.356-.559.513-.85.024-.044.046-.09.066-.135.033-.071.064-.14.1-.208l.057-.113c.113-.226.226-.45.323-.683.033-.077.059-.154.085-.232l.162-.435c.068-.175.135-.35.191-.534.039-.123.068-.247.1-.372l.123-.471c.036-.135.074-.269.1-.406.04-.194.064-.387.09-.58l.068-.456c.015-.089.03-.176.041-.265.044-.443.066-.893.066-1.34s-.022-.9-.066-1.339c-.011-.089-.026-.177-.04-.264Z" fill="#fff"/>
    <path id="Path_49897" data-name="Path 49897" d="M1027.58,106.953c.131-.216.272-.447.464-.731a1.261,1.261,0,0,0,.067-.112c.347-.654.884-1.605.91-1.654a29.225,29.225,0,0,0,3.224-13.416c0-.507-.011-1.006-.031-1.5-.01-.218-.026-.431-.041-.644l-.028-.427c-.008-.138-.016-.274-.028-.4-.015-.176-.036-.352-.056-.525l-.042-.381c-.018-.182-.037-.363-.061-.546-.02-.143-.043-.285-.067-.427l-.056-.366c-.031-.207-.062-.414-.1-.614-.029-.165-.064-.328-.1-.49l-.089-.437c-.031-.153-.062-.3-.094-.452-.051-.217-.107-.429-.162-.643l-.094-.364c-.027-.112-.055-.223-.087-.34-.066-.235-.138-.462-.21-.69l-.087-.288c-.035-.113-.068-.228-.1-.327-.074-.229-.157-.451-.24-.675l-.107-.3c-.037-.105-.074-.209-.113-.307-.1-.249-.2-.492-.3-.738l-.117-.273c-.031-.077-.062-.154-.095-.227-.147-.326-.3-.647-.462-.968l-.111-.229c-.162-.318-.334-.629-.543-1l-.082-.15c-.19-.329-.39-.652-.621-1.017l-.062-.1c-.21-.323-.428-.64-.668-.976l-.063-.094c-.24-.329-.488-.653-.73-.954-.011-.016-.046-.061-.059-.076-.264-.327-.537-.647-.834-.981q-.429-.477-.883-.932l-.005-.006c-5.007-5.02-11.892-7.672-19.91-7.672-16.215,0-27.542,11.325-27.542,27.541a29.55,29.55,0,0,0,3.7,14.323l.412.757c.016.03.031.056.049.085l.692,1.063c.077.119.153.237.2.3l17.619,29.61h-.013l4.083,6.865a1.219,1.219,0,0,0,1.049.6h.007a1.218,1.218,0,0,0,1.049-.608l3.982-6.854h-.008L1027.17,107.6C1027.32,107.375,1027.45,107.17,1027.58,106.953Zm-7.446-15.6c-.015.146-.038.288-.063.43l-.055.37c-.033.25-.068.5-.118.744-.037.187-.087.375-.14.562l-.1.4c-.044.177-.086.354-.14.524-.073.233-.157.459-.245.686l-.133.362c-.046.128-.089.255-.142.378-.118.281-.255.556-.393.831l-.12.246c-.044.094-.088.187-.138.278-.185.345-.394.678-.607,1.008-.077.133-.118.2-.163.268-.24.358-.5.7-.77,1.039-.048.065-.078.106-.111.145-.288.353-.607.707-.95,1.057a15.506,15.506,0,0,1-10.949,4.655c-.051,0-.1.006-.155.006a15.572,15.572,0,0,1,0-31.145l.161.007a15.471,15.471,0,0,1,10.9,4.607l.067.072c.35.355.653.695.926,1.027.038.046.069.089.1.133.281.355.544.7.784,1.059.041.06.084.129.124.2.253.4.461.729.649,1.075.05.1.093.188.137.284l.058.121c.182.36.328.649.453.95.055.127.1.258.147.389l.128.354c.088.224.173.451.245.683.054.17.1.348.14.527l.1.388c.054.189.1.379.143.574.048.237.083.487.116.74l.057.369c.023.142.048.284.061.428a15.943,15.943,0,0,1,0,3.171Z" fill="#fff"/>
  </g>
</svg>
