<?xml version="1.0" standalone="no"?>
<!DOCTYPE svg PUBLIC "-//W3C//DTD SVG 20010904//EN"
 "http://www.w3.org/TR/2001/REC-SVG-20010904/DTD/svg10.dtd">
<svg version="1.0" xmlns="http://www.w3.org/2000/svg"
 width="900.000000pt" height="660.000000pt" viewBox="0 0 900.000000 660.000000"
 preserveAspectRatio="xMidYMid meet">
<metadata>
Created by potrace 1.16, written by Peter Selinger 2001-2019
</metadata>
<g transform="translate(0.000000,660.000000) scale(0.100000,-0.100000)"
fill="#000000" stroke="none">
<path d="M4325 6594 c-242 -18 -431 -47 -620 -94 -1580 -395 -2621 -1889
-2430 -3486 83 -692 383 -1323 873 -1835 885 -926 2268 -1243 3479 -799 310
114 668 317 926 525 567 457 975 1116 1121 1813 153 729 56 1469 -277 2117
-499 968 -1423 1607 -2517 1740 -123 15 -458 27 -555 19z m-324 -642 c49 -32
95 -82 111 -121 7 -17 10 -172 9 -428 l-2 -403 361 0 361 0 25 25 26 26 -3
377 c-3 368 -3 378 18 417 24 45 62 83 113 114 29 18 51 21 135 21 84 0 106
-3 135 -21 52 -31 89 -69 113 -114 20 -38 21 -53 18 -300 -1 -143 1 -324 5
-402 l7 -143 218 0 218 0 6 -32 c3 -18 5 -343 3 -723 -4 -771 -1 -734 -77
-890 -67 -136 -174 -247 -336 -351 -107 -68 -98 -69 -575 114 -228 88 -566
217 -750 287 -845 320 -947 362 -989 404 -21 21 -21 23 -21 606 l0 585 225 0
225 0 0 388 c0 445 1 453 76 522 64 59 94 69 205 70 88 0 99 -2 140 -28z
m-1281 -2395 c500 -184 844 -315 2065 -785 1358 -523 1486 -574 1549 -617 l31
-21 3 -268 2 -267 -22 7 c-41 12 -439 161 -628 234 -307 119 -658 255 -975
377 -165 63 -487 187 -715 275 -228 88 -462 178 -520 200 -58 22 -253 97 -435
168 -181 70 -413 160 -515 199 -101 40 -195 81 -207 93 -23 21 -23 24 -23 284
l0 263 53 -18 c28 -10 180 -66 337 -124z m1713 -1608 c347 -130 383 -146 403
-177 16 -25 18 -58 17 -392 -1 -357 -2 -367 -23 -413 -72 -153 -320 -218 -507
-132 -67 30 -135 98 -151 151 -9 30 -12 175 -12 541 0 275 3 503 7 506 11 11
16 10 266 -84z"/>
</g>
</svg>
