<?xml version="1.0" encoding="UTF-8"?>
<svg xmlns="http://www.w3.org/2000/svg" xmlns:xlink="http://www.w3.org/1999/xlink" width="32px" height="32px" viewBox="0 0 32 32" version="1.1">
<g id="surface1">
<path style=" stroke:none;fill-rule:nonzero;fill:rgb(100%,100%,100%);fill-opacity:1;" d="M 5.542969 0.636719 L 26.457031 0.636719 L 26.457031 31.363281 L 5.542969 31.363281 Z M 5.542969 0.636719 "/>
<path style=" stroke:none;fill-rule:nonzero;fill:rgb(38.039216%,70.588235%,89.411765%);fill-opacity:1;" d="M 13.796875 24.605469 L 18.203125 24.605469 L 18.203125 31.363281 L 13.796875 31.363281 Z M 13.796875 24.605469 "/>
<path style=" stroke:none;fill-rule:nonzero;fill:rgb(38.039216%,70.588235%,89.411765%);fill-opacity:1;" d="M 9.164062 18.226562 L 11.363281 18.226562 L 11.363281 22.191406 L 9.164062 22.191406 Z M 9.164062 18.226562 "/>
<path style=" stroke:none;fill-rule:nonzero;fill:rgb(38.039216%,70.588235%,89.411765%);fill-opacity:1;" d="M 11.363281 18.226562 L 13.558594 18.226562 L 13.558594 22.191406 L 11.363281 22.191406 Z M 11.363281 18.226562 "/>
<path style=" stroke:none;fill-rule:nonzero;fill:rgb(38.039216%,70.588235%,89.411765%);fill-opacity:1;" d="M 18.441406 18.226562 L 20.636719 18.226562 L 20.636719 22.191406 L 18.441406 22.191406 Z M 18.441406 18.226562 "/>
<path style=" stroke:none;fill-rule:nonzero;fill:rgb(38.039216%,70.588235%,89.411765%);fill-opacity:1;" d="M 20.636719 18.226562 L 22.835938 18.226562 L 22.835938 22.191406 L 20.636719 22.191406 Z M 20.636719 18.226562 "/>
<path style=" stroke:none;fill-rule:nonzero;fill:rgb(38.039216%,70.588235%,89.411765%);fill-opacity:1;" d="M 9.164062 10.988281 L 11.363281 10.988281 L 11.363281 14.953125 L 9.164062 14.953125 Z M 9.164062 10.988281 "/>
<path style=" stroke:none;fill-rule:nonzero;fill:rgb(38.039216%,70.588235%,89.411765%);fill-opacity:1;" d="M 11.363281 10.988281 L 13.558594 10.988281 L 13.558594 14.953125 L 11.363281 14.953125 Z M 11.363281 10.988281 "/>
<path style=" stroke:none;fill-rule:nonzero;fill:rgb(38.039216%,70.588235%,89.411765%);fill-opacity:1;" d="M 18.441406 10.988281 L 20.636719 10.988281 L 20.636719 14.953125 L 18.441406 14.953125 Z M 18.441406 10.988281 "/>
<path style=" stroke:none;fill-rule:nonzero;fill:rgb(38.039216%,70.588235%,89.411765%);fill-opacity:1;" d="M 20.636719 10.988281 L 22.835938 10.988281 L 22.835938 14.953125 L 20.636719 14.953125 Z M 20.636719 10.988281 "/>
<path style=" stroke:none;fill-rule:nonzero;fill:rgb(38.039216%,70.588235%,89.411765%);fill-opacity:1;" d="M 9.164062 3.960938 L 11.363281 3.960938 L 11.363281 7.929688 L 9.164062 7.929688 Z M 9.164062 3.960938 "/>
<path style=" stroke:none;fill-rule:nonzero;fill:rgb(38.039216%,70.588235%,89.411765%);fill-opacity:1;" d="M 11.363281 3.960938 L 13.558594 3.960938 L 13.558594 7.929688 L 11.363281 7.929688 Z M 11.363281 3.960938 "/>
<path style=" stroke:none;fill-rule:nonzero;fill:rgb(38.039216%,70.588235%,89.411765%);fill-opacity:1;" d="M 18.441406 3.960938 L 20.636719 3.960938 L 20.636719 7.929688 L 18.441406 7.929688 Z M 18.441406 3.960938 "/>
<path style=" stroke:none;fill-rule:nonzero;fill:rgb(38.039216%,70.588235%,89.411765%);fill-opacity:1;" d="M 20.636719 3.960938 L 22.835938 3.960938 L 22.835938 7.929688 L 20.636719 7.929688 Z M 20.636719 3.960938 "/>
<path style=" stroke:none;fill-rule:nonzero;fill:rgb(2.352941%,5.882353%,17.647059%);fill-opacity:1;" d="M 26.457031 32 C 26.808594 32 27.09375 31.714844 27.09375 31.363281 L 27.09375 0.636719 C 27.09375 0.285156 26.808594 0 26.457031 0 L 5.542969 0 C 5.191406 0 4.90625 0.285156 4.90625 0.636719 L 4.90625 31.363281 C 4.90625 31.714844 5.191406 32 5.542969 32 Z M 14.4375 30.726562 L 14.4375 25.242188 L 17.5625 25.242188 L 17.5625 30.726562 Z M 25.820312 30.726562 L 18.839844 30.726562 L 18.839844 24.605469 C 18.839844 24.253906 18.554688 23.96875 18.203125 23.96875 L 13.796875 23.96875 C 13.445312 23.96875 13.160156 24.253906 13.160156 24.605469 L 13.160156 30.726562 L 6.179688 30.726562 L 6.179688 1.273438 L 25.820312 1.273438 Z M 25.820312 30.726562 "/>
<path style=" stroke:none;fill-rule:nonzero;fill:rgb(2.352941%,5.882353%,17.647059%);fill-opacity:1;" d="M 9.164062 17.585938 C 8.8125 17.585938 8.527344 17.875 8.527344 18.226562 L 8.527344 21.554688 L 7.984375 21.554688 C 7.632812 21.554688 7.347656 21.839844 7.347656 22.191406 C 7.347656 22.546875 7.632812 22.832031 7.984375 22.832031 L 14.738281 22.832031 C 15.09375 22.832031 15.378906 22.546875 15.378906 22.191406 C 15.378906 21.839844 15.09375 21.554688 14.738281 21.554688 L 14.199219 21.554688 L 14.199219 18.226562 C 14.199219 17.875 13.914062 17.585938 13.558594 17.585938 Z M 12.921875 21.554688 L 12 21.554688 L 12 18.863281 L 12.921875 18.863281 Z M 9.800781 18.863281 L 10.722656 18.863281 L 10.722656 21.554688 L 9.800781 21.554688 Z M 9.800781 18.863281 "/>
<path style=" stroke:none;fill-rule:nonzero;fill:rgb(2.352941%,5.882353%,17.647059%);fill-opacity:1;" d="M 18.441406 17.585938 C 18.085938 17.585938 17.800781 17.875 17.800781 18.226562 L 17.800781 21.554688 L 17.261719 21.554688 C 16.90625 21.554688 16.621094 21.839844 16.621094 22.191406 C 16.621094 22.546875 16.90625 22.832031 17.261719 22.832031 L 24.015625 22.832031 C 24.367188 22.832031 24.652344 22.546875 24.652344 22.191406 C 24.652344 21.839844 24.367188 21.554688 24.015625 21.554688 L 23.472656 21.554688 L 23.472656 18.226562 C 23.472656 17.875 23.1875 17.585938 22.835938 17.585938 Z M 22.199219 21.554688 L 21.277344 21.554688 L 21.277344 18.863281 L 22.199219 18.863281 Z M 19.078125 18.863281 L 20 18.863281 L 20 21.554688 L 19.078125 21.554688 Z M 19.078125 18.863281 "/>
<path style=" stroke:none;fill-rule:nonzero;fill:rgb(2.352941%,5.882353%,17.647059%);fill-opacity:1;" d="M 9.164062 10.347656 C 8.8125 10.347656 8.527344 10.632812 8.527344 10.988281 L 8.527344 14.316406 L 7.984375 14.316406 C 7.632812 14.316406 7.347656 14.601562 7.347656 14.953125 C 7.347656 15.304688 7.632812 15.59375 7.984375 15.59375 L 14.738281 15.59375 C 15.09375 15.59375 15.378906 15.304688 15.378906 14.953125 C 15.378906 14.601562 15.09375 14.316406 14.738281 14.316406 L 14.199219 14.316406 L 14.199219 10.988281 C 14.199219 10.632812 13.914062 10.347656 13.558594 10.347656 Z M 12.921875 14.316406 L 12 14.316406 L 12 11.625 L 12.921875 11.625 Z M 9.800781 11.625 L 10.722656 11.625 L 10.722656 14.316406 L 9.800781 14.316406 Z M 9.800781 11.625 "/>
<path style=" stroke:none;fill-rule:nonzero;fill:rgb(2.352941%,5.882353%,17.647059%);fill-opacity:1;" d="M 18.441406 10.347656 C 18.085938 10.347656 17.800781 10.632812 17.800781 10.988281 L 17.800781 14.316406 L 17.261719 14.316406 C 16.90625 14.316406 16.621094 14.601562 16.621094 14.953125 C 16.621094 15.304688 16.90625 15.59375 17.261719 15.59375 L 24.015625 15.59375 C 24.367188 15.59375 24.652344 15.304688 24.652344 14.953125 C 24.652344 14.601562 24.367188 14.316406 24.015625 14.316406 L 23.472656 14.316406 L 23.472656 10.988281 C 23.472656 10.632812 23.1875 10.347656 22.835938 10.347656 Z M 22.199219 14.316406 L 21.277344 14.316406 L 21.277344 11.625 L 22.199219 11.625 Z M 19.078125 11.625 L 20 11.625 L 20 14.316406 L 19.078125 14.316406 Z M 19.078125 11.625 "/>
<path style=" stroke:none;fill-rule:nonzero;fill:rgb(2.352941%,5.882353%,17.647059%);fill-opacity:1;" d="M 9.164062 3.324219 C 8.8125 3.324219 8.527344 3.609375 8.527344 3.960938 L 8.527344 7.292969 L 7.984375 7.292969 C 7.632812 7.292969 7.347656 7.578125 7.347656 7.929688 C 7.347656 8.28125 7.632812 8.566406 7.984375 8.566406 L 14.738281 8.566406 C 15.09375 8.566406 15.378906 8.28125 15.378906 7.929688 C 15.378906 7.578125 15.09375 7.292969 14.738281 7.292969 L 14.199219 7.292969 L 14.199219 3.960938 C 14.199219 3.609375 13.914062 3.324219 13.558594 3.324219 Z M 12.921875 7.292969 L 12 7.292969 L 12 4.597656 L 12.921875 4.597656 Z M 9.800781 4.597656 L 10.722656 4.597656 L 10.722656 7.292969 L 9.800781 7.292969 Z M 9.800781 4.597656 "/>
<path style=" stroke:none;fill-rule:nonzero;fill:rgb(2.352941%,5.882353%,17.647059%);fill-opacity:1;" d="M 18.441406 3.324219 C 18.085938 3.324219 17.800781 3.609375 17.800781 3.960938 L 17.800781 7.292969 L 17.261719 7.292969 C 16.90625 7.292969 16.621094 7.578125 16.621094 7.929688 C 16.621094 8.28125 16.90625 8.566406 17.261719 8.566406 L 24.015625 8.566406 C 24.367188 8.566406 24.652344 8.28125 24.652344 7.929688 C 24.652344 7.578125 24.367188 7.292969 24.015625 7.292969 L 23.472656 7.292969 L 23.472656 3.960938 C 23.472656 3.609375 23.1875 3.324219 22.835938 3.324219 Z M 22.199219 7.292969 L 21.277344 7.292969 L 21.277344 4.597656 L 22.199219 4.597656 Z M 19.078125 4.597656 L 20 4.597656 L 20 7.292969 L 19.078125 7.292969 Z M 19.078125 4.597656 "/>
<path style=" stroke:none;fill-rule:nonzero;fill:rgb(2.352941%,5.882353%,17.647059%);fill-opacity:1;" d="M 15.410156 25.738281 C 15.058594 25.738281 14.773438 26.023438 14.773438 26.375 L 14.773438 26.535156 C 14.773438 26.886719 15.058594 27.175781 15.410156 27.175781 C 15.761719 27.175781 16.046875 26.886719 16.046875 26.535156 L 16.046875 26.375 C 16.046875 26.023438 15.761719 25.738281 15.410156 25.738281 Z M 15.410156 25.738281 "/>
<path style=" stroke:none;fill-rule:nonzero;fill:rgb(2.352941%,5.882353%,17.647059%);fill-opacity:1;" d="M 15.410156 27.5625 C 15.058594 27.5625 14.773438 27.847656 14.773438 28.199219 L 14.773438 29.753906 C 14.773438 30.105469 15.058594 30.390625 15.410156 30.390625 C 15.761719 30.390625 16.046875 30.105469 16.046875 29.753906 L 16.046875 28.199219 C 16.046875 27.847656 15.761719 27.5625 15.410156 27.5625 Z M 15.410156 27.5625 "/>
</g>
</svg>
