<?xml version="1.0" encoding="utf-8"?>
<!-- Generator: Adobe Illustrator 24.1.0, SVG Export Plug-In . SVG Version: 6.00 Build 0)  -->
<svg version="1.1" id="Layer_1" xmlns="http://www.w3.org/2000/svg" xmlns:xlink="http://www.w3.org/1999/xlink" x="0px" y="0px"
	 viewBox="0 0 40 40" style="enable-background:new 0 0 40 40;" xml:space="preserve">
<style type="text/css">
	.st0{fill:#2C79C6;}
	.st1{fill:none;stroke:#2C79C6;stroke-width:0.9678;stroke-miterlimit:10;}
	.st2{fill:none;stroke:#2C79C6;stroke-width:0.2494;stroke-miterlimit:10;}
	.st3{fill:#FFFFFF;}
	.st4{fill:none;stroke:#2C79C6;stroke-width:0.3776;stroke-miterlimit:10;}
	.st5{fill:none;stroke:#2C79C6;stroke-width:1.0076;stroke-miterlimit:10;}
	.st6{fill:#151A6A;}
	.st7{fill:none;stroke:#2C79C6;stroke-width:1.0467;stroke-miterlimit:10;}
	.st8{fill:none;stroke:#2C79C6;stroke-width:0.7887;stroke-miterlimit:10;}
	.st9{fill:none;stroke:#2C79C6;stroke-miterlimit:10;}
	.st10{fill:none;stroke:#2C79C6;stroke-width:0.5;stroke-miterlimit:10;}
	.st11{opacity:0.22;}
	.st12{fill:none;stroke:#2C79C6;stroke-width:0.8978;stroke-miterlimit:10;}
	.st13{fill:none;stroke:#2C79C6;stroke-width:0.4592;stroke-miterlimit:10;}
	.st14{fill:none;stroke:#2C79C6;stroke-width:0.4489;stroke-miterlimit:10;}
	.st15{opacity:0.11;}
	.st16{fill:none;stroke:#1C75BC;stroke-width:0.9179;stroke-miterlimit:10;}
	.st17{fill:none;stroke:#1C75BC;stroke-width:0.5809;stroke-miterlimit:10;}
	.st18{fill:#1C75BC;}
	.st19{fill:none;stroke:#2C79C6;stroke-width:1.0446;stroke-miterlimit:10;}
	.st20{clip-path:url(#SVGID_2_);fill:#2C79C6;}
	.st21{fill:none;stroke:#2C79C6;stroke-width:0.5341;stroke-miterlimit:10;}
	.st22{fill:url(#SVGID_3_);stroke:#2C79C6;stroke-width:0.5341;stroke-miterlimit:10;}
	.st23{fill:url(#SVGID_4_);stroke:#2C79C6;stroke-width:0.5341;stroke-miterlimit:10;}
	.st24{fill:url(#SVGID_5_);stroke:#2C79C6;stroke-width:0.5341;stroke-miterlimit:10;}
	.st25{fill:url(#SVGID_6_);stroke:#2C79C6;stroke-width:0.5;stroke-miterlimit:10;}
	.st26{fill:#D4E1F4;}
	.st27{clip-path:url(#SVGID_8_);fill:#D4E1F4;}
	.st28{clip-path:url(#SVGID_8_);fill:#2C79C6;}
	.st29{clip-path:url(#SVGID_10_);fill:#2C79C6;}
	.st30{clip-path:url(#SVGID_12_);fill:#2C79C6;}
	.st31{fill:url(#SVGID_13_);stroke:#2C79C6;stroke-width:0.5341;stroke-miterlimit:10;}
	.st32{clip-path:url(#SVGID_15_);fill:#2C79C6;}
	.st33{clip-path:url(#SVGID_17_);fill:#2C79C6;}
	.st34{clip-path:url(#SVGID_19_);fill:#2C79C6;}
	.st35{clip-path:url(#SVGID_21_);fill:#2C79C6;}
	.st36{fill:#24A2CE;}
	.st37{fill:#EF5B5B;}
	.st38{fill:#FFBA49;}
	.st39{clip-path:url(#SVGID_23_);fill:#2C79C6;}
	.st40{clip-path:url(#SVGID_25_);fill:#2C79C6;}
</style>
<g>
	<path class="st0" d="M15.03,8.37l-0.71-0.71l-0.78,0.78l1.49,1.49l4.81-4.81l-0.78-0.78L15.03,8.37z M15.03,8.37"/>
	<path class="st0" d="M37.11,17.43c0-2.82-1.21-5.52-3.31-7.41c-2.13-1.91-4.89-2.78-7.76-2.46c-0.75,0.08-1.47,0.26-2.17,0.51V4.18
		c0-0.91-0.74-1.66-1.66-1.66H11.17c-0.91,0-1.66,0.74-1.66,1.66v6.62c0,0.91,0.74,1.66,1.66,1.66h0.88l1.82,1.82
		c0.25,0.25,0.59,0.39,0.94,0.39c0.73,0,1.33-0.6,1.33-1.33v-0.88h2.44c-0.66,1.12-1.1,2.38-1.26,3.72
		c-0.48,3.93,1.34,7.68,4.67,9.72c-0.36,0.19-0.64,0.52-0.78,0.91h-8.93v3.86H2.89v6.07h24.28c1.52,0,2.76-1.24,2.76-2.76v-0.65
		c0.64-0.23,1.1-0.84,1.1-1.55c0-0.22-0.04-0.42-0.12-0.62c0.7-0.19,1.23-0.83,1.23-1.59c0-0.22-0.04-0.43-0.12-0.62
		c0.7-0.19,1.23-0.83,1.23-1.59c0-0.63-0.36-1.19-0.88-1.46C35.31,24.1,37.11,20.9,37.11,17.43L37.11,17.43z M15.03,11.36v1.98
		c0,0.19-0.26,0.29-0.39,0.16l-2.14-2.14h-1.33c-0.3,0-0.55-0.25-0.55-0.55V4.18c0-0.3,0.25-0.55,0.55-0.55h11.04
		c0.3,0,0.55,0.25,0.55,0.55v4.35c-1.34,0.67-2.51,1.65-3.43,2.82H15.03z M3.99,31.78h9.38v-3.86h7.83c0.18,0.51,0.6,0.9,1.12,1.04
		c-0.08,0.19-0.12,0.4-0.12,0.62c0,0.76,0.52,1.4,1.23,1.59c-0.08,0.19-0.12,0.4-0.12,0.62c0,0.72,0.46,1.33,1.1,1.55v0.65
		c0,0.62,0.22,1.19,0.57,1.66H3.99V31.78z M27.18,35.64c-0.91,0-1.66-0.74-1.66-1.66v-0.55h3.31v0.55
		C28.83,34.9,28.09,35.64,27.18,35.64L27.18,35.64z M29.38,32.33h-4.42c-0.3,0-0.55-0.25-0.55-0.55c0-0.3,0.25-0.55,0.55-0.55h4.42
		c0.3,0,0.55,0.25,0.55,0.55C29.93,32.08,29.69,32.33,29.38,32.33L29.38,32.33z M30.49,30.12h-6.62c-0.3,0-0.55-0.25-0.55-0.55
		s0.25-0.55,0.55-0.55h6.62c0.3,0,0.55,0.25,0.55,0.55S30.79,30.12,30.49,30.12L30.49,30.12z M31.76,20.5
		c-0.51-1.24-1.49-2.21-2.72-2.7c0.55-0.5,0.89-1.22,0.89-2.02c0-1.52-1.24-2.76-2.76-2.76c-1.52,0-2.76,1.24-2.76,2.76
		c0,0.8,0.35,1.52,0.89,2.02c-1.22,0.49-2.21,1.46-2.72,2.7c-0.59-0.88-0.94-1.93-0.94-3.07c0-3.04,2.48-5.52,5.52-5.52
		s5.52,2.48,5.52,5.52C32.69,18.56,32.35,19.62,31.76,20.5L31.76,20.5z M25.52,15.77c0-0.91,0.74-1.66,1.66-1.66
		c0.91,0,1.66,0.74,1.66,1.66c0,0.91-0.74,1.66-1.66,1.66C26.26,17.43,25.52,16.69,25.52,15.77L25.52,15.77z M27.18,18.53
		c1.79,0,3.33,1.22,3.74,2.94c-0.99,0.91-2.3,1.48-3.74,1.48c-1.45,0-2.76-0.56-3.74-1.48C23.85,19.75,25.38,18.53,27.18,18.53
		L27.18,18.53z M27.18,24.05c0.19,0,0.37-0.01,0.55-0.03v3.89h-1.1v-3.89C26.81,24.04,26.99,24.05,27.18,24.05L27.18,24.05z
		 M31.33,25.22l-0.29,0.16v1.44h0.55c0.3,0,0.55,0.25,0.55,0.55s-0.25,0.55-0.55,0.55h-2.76v-4.08c2.85-0.74,4.97-3.33,4.97-6.4
		c0-3.65-2.97-6.62-6.62-6.62c-3.65,0-6.62,2.97-6.62,6.62c0,3.08,2.12,5.67,4.97,6.4v4.08h-2.76c-0.3,0-0.55-0.25-0.55-0.55
		s0.25-0.55,0.55-0.55h0.55v-1.44l-0.29-0.16c-3.25-1.74-5.06-5.23-4.61-8.91c0.49-3.99,3.74-7.21,7.74-7.66
		c2.56-0.29,5.01,0.49,6.91,2.19c1.87,1.67,2.95,4.07,2.95,6.58C36.01,20.69,34.21,23.68,31.33,25.22L31.33,25.22z M31.33,25.22"/>
	<path class="st0" d="M11.17,27.92v-7.18c0-0.3,0.25-0.55,0.55-0.55h2.53l-1.27,1.27l0.78,0.78l2.6-2.6l-2.6-2.6l-0.78,0.78
		l1.27,1.27h-2.53c-0.91,0-1.66,0.74-1.66,1.66v7.18c0,0.3-0.25,0.55-0.55,0.55H2.89v1.1h6.62C10.43,29.57,11.17,28.83,11.17,27.92
		L11.17,27.92z M11.17,27.92"/>
</g>
</svg>
