<svg xmlns="http://www.w3.org/2000/svg" width="440.019" height="512" viewBox="0 0 440.019 512">
  <g id="file" transform="translate(-0.5)">
    <path id="Path_1" data-name="Path 1" d="M436.031,107.031,331.429,4.3A15,15,0,0,0,320.917,0H56.468A56.032,56.032,0,0,0,.5,55.969V456.032A56.032,56.032,0,0,0,56.468,512H384.55a56.032,56.032,0,0,0,55.969-55.969v-338.3a15,15,0,0,0-4.488-10.7ZM335.918,50.758l52.922,51.977H340.688a4.776,4.776,0,0,1-4.77-4.77ZM384.551,482H56.469A26,26,0,0,1,30.5,456.031V55.968A26,26,0,0,1,56.469,30H305.922V97.964a34.809,34.809,0,0,0,34.77,34.77H410.52v323.3A26,26,0,0,1,384.551,482Zm0,0" fill="#060f2d"/>
    <path id="Path_2" data-name="Path 2" d="M324.645,238H113.192a15,15,0,0,0,0,30H324.645a15,15,0,0,0,0-30Zm0,0" fill="#008bd0"/>
    <path id="Path_3" data-name="Path 3" d="M113.191,328H285.605a15,15,0,1,0,0-30H113.191a15,15,0,0,0,0,30Zm0,0" fill="#008bd0"/>
    <path id="Path_4" data-name="Path 4" d="M306.406,358H113.191a15,15,0,0,0,0,30H306.406a15,15,0,1,0,0-30Zm0,0" fill="#008bd0"/>
  </g>
</svg>
