<svg xmlns="http://www.w3.org/2000/svg" width="353.889" height="353.884" viewBox="0 0 353.889 353.884">
  <g id="Group_30666" data-name="Group 30666" transform="translate(-71.426 -180.706)">
    <g id="Group_30665" data-name="Group 30665" transform="translate(71.426 180.706)">
      <path id="Path_49813" data-name="Path 49813" d="M380.834,572.753H318.445a25.2,25.2,0,0,1-25.892-25.911V421.721a25.213,25.213,0,0,1,25.922-25.89H443.6a25.175,25.175,0,0,1,25.879,25.922q.019,62.563,0,125.124a25.153,25.153,0,0,1-25.911,25.879Q412.2,572.758,380.834,572.753Zm5.994-127.982a27.99,27.99,0,0,0-7.99-7.8,17.567,17.567,0,0,0-17.086-1.367c-8.563,3.875-14.471,16.254-12.309,25.421a21.091,21.091,0,0,0,8.049,11.2c1.322,1.1,2.719,2.117,4.035,3.136-.053.193-.053.268-.088.294-.372.364-.749.723-1.124,1.07-7.329,6.984-12.336,15.092-12.654,25.574a28.758,28.758,0,0,0,18.464,28.662,53.282,53.282,0,0,0,24.715,3.321,20.705,20.705,0,0,0,9.663-2.47c4.354-2.743,8.587-5.676,12.89-8.5,1.041-.682,1.111-1.362.209-2.2l-1.541.316a84.489,84.489,0,0,1-34.648.516,34.969,34.969,0,0,1-18.5-9.283c-7.075-7.225-7.492-16.679-.65-24.1a47.744,47.744,0,0,1,9.77-7.953,154.561,154.561,0,0,1,26.65-12.526,3.4,3.4,0,0,0,2.408-2.588c.669-2.751,1.539-5.453,2.3-8.18a11.492,11.492,0,0,0,.2-1.421c-.685.241-1.127.367-1.547.535-7.493,3.23-14.942,6.51-22.456,9.665a7.613,7.613,0,0,1-4.589.942,26.59,26.59,0,0,1-14.386-10.61c-2.374-3.626-1.582-6.444,2.047-8.889a23.588,23.588,0,0,1,12.111-3.768,31.057,31.057,0,0,1,14.686,2.713Z" transform="translate(-115.6 -218.884)" fill="#008bd0"/>
      <path id="Path_1" data-name="Path 1" d="M0,0H80.278V101.685H0Z" transform="translate(48.166 40.139)" fill="#008bd0"/>
      <path id="Path_49814" data-name="Path 49814" d="M111.9,303.529V240.618a25.2,25.2,0,0,1,25.3-25.421q63.171-.043,126.341-.016a25.108,25.108,0,0,1,25.274,25.127q.075,63.345,0,126.689a25.092,25.092,0,0,1-25.124,25.095q-63.345.072-126.689,0a25.1,25.1,0,0,1-25.081-25.127C111.855,345.817,111.9,324.674,111.9,303.529Zm126.36,37.463a23.24,23.24,0,0,0-.779-2.478q-15.486-37.233-30.985-74.46a6.567,6.567,0,0,0-6.064-4.651,6.422,6.422,0,0,0-6.2,4.68q-8.336,20.013-16.66,40.032-7.206,17.289-14.45,34.57a6.3,6.3,0,1,0,11.571,4.94q5.467-12.941,10.811-25.932a1.935,1.935,0,0,1,2.157-1.418q12.684.072,25.365,0a1.94,1.94,0,0,1,2.159,1.426c3.083,7.546,6.251,15.057,9.4,22.577.6,1.44,1.151,2.911,1.873,4.281a6.131,6.131,0,0,0,7.064,3.088,6.535,6.535,0,0,0,4.739-6.658Z" transform="translate(-111.882 -215.17)" fill="#060f2d"/>
      <path id="Path_49815" data-name="Path 49815" d="M245.1,484.711h-1.825c-6.31-.056-12.673.391-18.922-.268-20.527-2.16-37.2-10.854-47.2-29.751a68.426,68.426,0,0,1-7.1-33.449,6.08,6.08,0,0,1,6.326-6.026,6.438,6.438,0,0,1,6.288,6.342,126.972,126.972,0,0,0,1.809,16.171,41.656,41.656,0,0,0,35.884,33.5,209.173,209.173,0,0,0,21.306.8,11.892,11.892,0,0,0,3.653-.351l-9.366-7.043a6.154,6.154,0,0,1-2.705-5.855A6.28,6.28,0,0,1,243.47,454.5c4.718,3.454,9.366,7,14.043,10.508,3.479,2.6,6.957,5.175,10.436,7.811a6.377,6.377,0,0,1,.153,10.942q-12.293,9.366-24.739,18.536a6.232,6.232,0,0,1-10.088-4.281,6.088,6.088,0,0,1,2.66-5.866q4.656-3.479,9.294-6.984Z" transform="translate(-113.115 -219.292)" fill="#008bd0"/>
      <path id="Path_49816" data-name="Path 49816" d="M337.718,318.123c3.142,2.36,6.3,4.694,9.414,7.094a6.2,6.2,0,0,1,2.186,7.557,6.275,6.275,0,0,1-9.716,2.545c-3.984-2.887-7.883-5.887-11.817-8.831-4.166-3.125-8.344-6.24-12.5-9.382-4.528-3.422-4.549-7.934,0-11.359q11.985-9.05,24.027-18.025a6.331,6.331,0,1,1,7.578,10.1c-2.944,2.256-5.9,4.471-8.852,6.711-.072.056-.094.182-.236.471.677.038,1.274.091,1.873.1,6.369.064,12.788-.391,19.093.268,20.393,2.141,36.963,10.805,46.973,29.526a68.467,68.467,0,0,1,7.225,33.583,6.093,6.093,0,0,1-6.256,6.1,6.2,6.2,0,0,1-6.307-6.272,65.707,65.707,0,0,0-2.928-20.361c-5.515-16.615-17.279-26.077-34.212-29.4a52.661,52.661,0,0,0-8.972-.76c-5.483-.118-10.971-.032-16.457-.032Z" transform="translate(-115.994 -216.618)" fill="#060f2d"/>
      <path id="Path_49819" data-name="Path 49819" d="M210.965,304.944H193.1l8.914-21.383Z" transform="translate(-113.562 -216.572)" fill="#060f2d"/>
    </g>
  </g>
</svg>
