<svg xmlns="http://www.w3.org/2000/svg" width="62.05" height="62.05" viewBox="0 0 62.05 62.05">
  <defs>
    <style>
      .cls-1 {
        fill: #11044c;
      }
    </style>
  </defs>
  <g id="Group_131022" data-name="Group 131022" transform="translate(-3084 -913)">
    <g id="Group_131011" data-name="Group 131011">
      <g id="Group_29115" data-name="Group 29115" transform="translate(-3122.387 -799.506)">
        <g id="Group_23077" data-name="Group 23077" transform="translate(6206.387 1712.506)">
          <g id="Group_23072" data-name="Group 23072">
            <g id="Group_238" data-name="Group 238">
              <g id="Union_1" data-name="Union 1" transform="translate(51.617)">
                <path id="Path_70624" data-name="Path 70624" class="cls-1" d="M9.933,9.933H8.661V1.773H.5V.5H9.83V.6h.1Z"/>
                <path id="Path_70625" data-name="Path 70625" class="cls-1" d="M9.433,9.433V1.1h-.1V1H1v.273H9.161V9.433h.273m1,1H8.161V2.273H0V0H10.33V.1h.1Z"/>
              </g>
              <g id="Union_3" data-name="Union 3" transform="translate(51.617 51.617)">
                <path id="Path_70626" data-name="Path 70626" class="cls-1" d="M9.83,9.933H.5V8.661H8.661V.5H9.933V9.83h-.1Z"/>
                <path id="Path_70627" data-name="Path 70627" class="cls-1" d="M9.161,1V9.161H1v.273H9.33v-.1h.1V1H9.161m-1-1h2.273V10.33h-.1v.1H0V8.161H8.161Z"/>
              </g>
              <g id="Union_2" data-name="Union 2" transform="translate(10.433 10.433) rotate(180)">
                <path id="Path_70628" data-name="Path 70628" class="cls-1" d="M9.83,9.933H.5V8.661H8.661V.5H9.933V9.83h-.1Z"/>
                <path id="Path_70629" data-name="Path 70629" class="cls-1" d="M9.161,1V9.161H1v.273H9.33v-.1h.1V1H9.161m-1-1h2.273V10.33h-.1v.1H0V8.161H8.161Z"/>
              </g>
              <g id="Union_4" data-name="Union 4" transform="translate(10.433 62.05) rotate(180)">
                <path id="Path_70630" data-name="Path 70630" class="cls-1" d="M9.933,9.933H8.661V1.773H.5V.5H9.83V.6h.1Z"/>
                <path id="Path_70631" data-name="Path 70631" class="cls-1" d="M9.433,9.433V1.1h-.1V1H1v.273H9.161V9.433h.273m1,1H8.161V2.273H0V0H10.33V.1h.1Z"/>
              </g>
            </g>
          </g>
        </g>
      </g>
      <g id="Group_131010" data-name="Group 131010" transform="translate(3090 936)">
        <g id="Group_29085" data-name="Group 29085" transform="translate(0 5.768)">
          <g id="Group_29068" data-name="Group 29068" transform="translate(0 0)">
            <path id="Path_53889" data-name="Path 53889" class="cls-1" d="M47.819,399.4c.188-.053-.345-.455-.345-.455a26.562,26.562,0,0,0-3.146-.991c-.381.13.4.913.647,1.054A15.1,15.1,0,0,0,47.819,399.4Z" transform="translate(-43.067 -392.359)"/>
            <path id="Path_53890" data-name="Path 53890" class="cls-1" d="M57.447,373.512a.549.549,0,0,0-.4-.22c-.142-.014-.307-.022-.492-.022-.477,0-.924.047-.943.049a.141.141,0,0,0-.1.055.142.142,0,0,0-.028.109,1.813,1.813,0,0,1-.055.908c-.163-.265-.514-.83-.9-1.4-1.1-1.641-1.38-1.707-1.513-1.738-.463-.109-3.7-.253-4.661-.294v-.02l-.239.01-.239-.01v.02c-.964.041-4.2.185-4.662.294-.134.031-.411.1-1.513,1.738-.382.569-.733,1.134-.9,1.4a1.817,1.817,0,0,1-.055-.908.142.142,0,0,0-.126-.164c-.019,0-.466-.049-.943-.049-.185,0-.351.007-.493.022a.551.551,0,0,0-.4.22,1.439,1.439,0,0,0-.138.979.143.143,0,0,0,.088.106l1.209.477a5.94,5.94,0,0,0-.792.688c-.093.111-.267.316-.181,2.337.04.958.122,1.879.123,1.888l.022.248.447-.039c1.188.1,5.131.388,9.531.388a66.106,66.106,0,0,0,7.605-.384l.4.036.022-.248c0-.009.083-.93.123-1.888.086-2.021-.088-2.226-.181-2.337a5.938,5.938,0,0,0-.792-.688L57.5,374.6a.142.142,0,0,0,.088-.106A1.44,1.44,0,0,0,57.447,373.512Zm-14.1-1.774c.373-.083,3.055-.218,4.782-.289,1.727.071,4.409.206,4.782.289a13.636,13.636,0,0,1,2.031,2.8c-1.149-.042-4.492-.154-6.67-.159h-.285c-2.178.005-5.521.117-6.67.159A13.631,13.631,0,0,1,43.342,371.738Zm-4.411,2.625a1.078,1.078,0,0,1,.1-.68.261.261,0,0,1,.2-.108,4.63,4.63,0,0,1,.464-.021c.3,0,.6.021.768.035a1.622,1.622,0,0,0,.152,1.008c-.1.073-.236.168-.383.277Zm17.548,1.507L52.9,377.245l-.006,0a.089.089,0,0,0-.028.017c-.072.065-.139.129-.2.2a2.709,2.709,0,0,0-.188.216.822.822,0,0,0-.149.274.264.264,0,0,0-.007.1.19.19,0,0,0,.056.11.211.211,0,0,0,.046.034l.026.013.018.006a.445.445,0,0,0,.085.018,1.975,1.975,0,0,0,.288.008c.094,0,.186-.008.279-.016.185-.015.369-.035.552-.058q.549-.07,1.092-.175c.181-.035.361-.074.54-.119.089-.023.178-.047.266-.074a1.827,1.827,0,0,0,.258-.1,1.872,1.872,0,0,1-.262.085c-.089.023-.179.043-.269.06-.18.036-.361.065-.543.092q-.545.078-1.093.12c-.183.014-.366.025-.548.03-.091,0-.182,0-.272,0a1.806,1.806,0,0,1-.263-.02l-.029-.006-.013,0-.008,0-.014-.006,0,0-.009-.007s0-.006,0-.012A.109.109,0,0,1,52.5,378a.681.681,0,0,1,.127-.2,2.326,2.326,0,0,1,.183-.19c.059-.057.122-.111.185-.163l3.741-1.227a20.574,20.574,0,0,1-.08,3.547c-.6.071-1.22.131-1.851.18H42.4c-1.324-.075-2.32-.151-2.808-.191a20.462,20.462,0,0,1-.078-3.536l3.741,1.227c.062.051.125.106.185.163a2.366,2.366,0,0,1,.183.19.674.674,0,0,1,.127.2.1.1,0,0,1,.006.034c0,.007,0,.008,0,.012l-.009.007,0,0-.014.006-.008,0-.013,0-.029.006a1.806,1.806,0,0,1-.263.02c-.09,0-.181,0-.272,0-.182,0-.365-.016-.548-.03-.365-.028-.73-.068-1.094-.12-.181-.027-.363-.056-.543-.092q-.135-.026-.269-.06a1.856,1.856,0,0,1-.262-.085,1.839,1.839,0,0,0,.258.1c.088.028.177.051.266.074.179.045.359.083.54.119q.543.106,1.092.175c.183.023.366.043.552.058.092.007.185.013.279.016a1.974,1.974,0,0,0,.288-.008.431.431,0,0,0,.085-.018l.018-.006.026-.013a.218.218,0,0,0,.046-.034.191.191,0,0,0,.055-.11.268.268,0,0,0-.006-.1.819.819,0,0,0-.149-.274,2.619,2.619,0,0,0-.188-.216c-.066-.069-.132-.133-.2-.2a.086.086,0,0,0-.028-.017l-.006,0-3.574-1.375c.379-.332,1.033-.8,1.305-.989a.242.242,0,0,0,.057-.056c.931-.034,4.692-.165,6.993-.165s6.062.132,6.993.165a.245.245,0,0,0,.057.056C55.446,375.07,56.1,375.538,56.479,375.87Zm.838-1.507-1.3.511c-.147-.109-.281-.2-.383-.277a1.622,1.622,0,0,0,.152-1.008c.17-.014.465-.035.768-.035a4.622,4.622,0,0,1,.463.021.26.26,0,0,1,.2.107A1.084,1.084,0,0,1,57.317,374.363Z" transform="translate(-38.633 -370.94)"/>
            <path id="Path_53891" data-name="Path 53891" class="cls-1" d="M110.7,397.953a26.566,26.566,0,0,0-3.147.991s-.532.4-.344.455a15.1,15.1,0,0,0,2.844-.391C110.3,398.866,111.077,398.084,110.7,397.953Z" transform="translate(-92.976 -392.359)"/>
            <path id="Path_53892" data-name="Path 53892" class="cls-1" d="M66.109,397.637c-.149.039-.31.083-.478.143a1.943,1.943,0,0,0-.256.108.576.576,0,0,0-.129.087.933.933,0,0,0-.093.124,1.9,1.9,0,0,1-.407.389,1.325,1.325,0,0,1-.246.142.557.557,0,0,1-.124.039H64.31l-.077,0c-.1.006-.2,0-.3,0s-.2,0-.3-.006l-.589-.02L62,398.606l-.814-.038v-.02l-.21.01-.21-.01v.02l-.814.038-1.046.042-.59.02c-.1,0-.2,0-.3.006s-.2.007-.3,0l-.077,0h-.066a.563.563,0,0,1-.124-.039,1.338,1.338,0,0,1-.246-.142,1.9,1.9,0,0,1-.407-.389.994.994,0,0,0-.094-.124.575.575,0,0,0-.129-.087,1.931,1.931,0,0,0-.256-.108c-.168-.06-.329-.1-.478-.143-.3-.078-.549-.13-.724-.165s-.276-.053-.276-.053.1.024.272.071.419.115.709.211c.145.048.3.1.46.172a1.971,1.971,0,0,1,.235.118.46.46,0,0,1,.1.075,1.13,1.13,0,0,1,.069.109,2.048,2.048,0,0,0,.415.454,1.553,1.553,0,0,0,.269.179.758.758,0,0,0,.164.062l.011,0h.036l.038,0,.076.007c.1.013.207.014.311.02s.21.011.31.014l.593.019,1.049.026.8.015v.008l.214,0h.007l.214,0v-.008l.8-.015,1.049-.026.592-.019c.1,0,.206-.009.31-.014s.211-.008.311-.02l.076-.007.038,0h.037l.011,0a.76.76,0,0,0,.164-.062,1.547,1.547,0,0,0,.269-.179,2.054,2.054,0,0,0,.415-.454,1.056,1.056,0,0,1,.069-.109.474.474,0,0,1,.1-.075,1.971,1.971,0,0,1,.235-.118c.159-.069.316-.123.461-.172.29-.1.536-.164.709-.211s.272-.071.272-.071-.1.018-.277.053S66.407,397.56,66.109,397.637Z" transform="translate(-51.483 -391.937)"/>
            <path id="Path_53893" data-name="Path 53893" class="cls-1" d="M43.115,417.2s-.245,1.108,0,1.419a4.928,4.928,0,0,0,2.961,0c.334-.294.156-1.3.156-1.3C45.274,417.317,43.115,417.2,43.115,417.2Z" transform="translate(-42.101 -407.619)"/>
            <path id="Path_53894" data-name="Path 53894" class="cls-1" d="M110.047,417.317s-.179,1,.156,1.3a4.961,4.961,0,0,0,2.971,0c.246-.311,0-1.419,0-1.419S111.007,417.317,110.047,417.317Z" transform="translate(-95.223 -407.619)"/>
          </g>
          <path id="Path_70621" data-name="Path 70621" class="cls-1" d="M0,0H6.094V1.524H0Z" transform="translate(6.206 7.217)"/>
        </g>
        <g id="Group_130998" data-name="Group 130998" transform="translate(31.901 5.768)">
          <g id="Group_29068-2" data-name="Group 29068" transform="translate(0 0)">
            <path id="Path_53889-2" data-name="Path 53889" class="cls-1" d="M47.819,399.4c.188-.053-.345-.455-.345-.455a26.562,26.562,0,0,0-3.146-.991c-.381.13.4.913.647,1.054A15.1,15.1,0,0,0,47.819,399.4Z" transform="translate(-43.067 -392.359)"/>
            <path id="Path_53890-2" data-name="Path 53890" class="cls-1" d="M57.447,373.512a.549.549,0,0,0-.4-.22c-.142-.014-.307-.022-.492-.022-.477,0-.924.047-.943.049a.141.141,0,0,0-.1.055.142.142,0,0,0-.028.109,1.813,1.813,0,0,1-.055.908c-.163-.265-.514-.83-.9-1.4-1.1-1.641-1.38-1.707-1.513-1.738-.463-.109-3.7-.253-4.661-.294v-.02l-.239.01-.239-.01v.02c-.964.041-4.2.185-4.662.294-.134.031-.411.1-1.513,1.738-.382.569-.733,1.134-.9,1.4a1.817,1.817,0,0,1-.055-.908.142.142,0,0,0-.126-.164c-.019,0-.466-.049-.943-.049-.185,0-.351.007-.493.022a.551.551,0,0,0-.4.22,1.439,1.439,0,0,0-.138.979.143.143,0,0,0,.088.106l1.209.477a5.94,5.94,0,0,0-.792.688c-.093.111-.267.316-.181,2.337.04.958.122,1.879.123,1.888l.022.248.447-.039c1.188.1,5.131.388,9.531.388a66.106,66.106,0,0,0,7.605-.384l.4.036.022-.248c0-.009.083-.93.123-1.888.086-2.021-.088-2.226-.181-2.337a5.938,5.938,0,0,0-.792-.688L57.5,374.6a.142.142,0,0,0,.088-.106A1.44,1.44,0,0,0,57.447,373.512Zm-14.1-1.774c.373-.083,3.055-.218,4.782-.289,1.727.071,4.409.206,4.782.289a13.636,13.636,0,0,1,2.031,2.8c-1.149-.042-4.492-.154-6.67-.159h-.285c-2.178.005-5.521.117-6.67.159A13.631,13.631,0,0,1,43.342,371.738Zm-4.411,2.625a1.078,1.078,0,0,1,.1-.68.261.261,0,0,1,.2-.108,4.63,4.63,0,0,1,.464-.021c.3,0,.6.021.768.035a1.622,1.622,0,0,0,.152,1.008c-.1.073-.236.168-.383.277Zm17.548,1.507L52.9,377.245l-.006,0a.089.089,0,0,0-.028.017c-.072.065-.139.129-.2.2a2.709,2.709,0,0,0-.188.216.822.822,0,0,0-.149.274.264.264,0,0,0-.007.1.19.19,0,0,0,.056.11.211.211,0,0,0,.046.034l.026.013.018.006a.445.445,0,0,0,.085.018,1.975,1.975,0,0,0,.288.008c.094,0,.186-.008.279-.016.185-.015.369-.035.552-.058q.549-.07,1.092-.175c.181-.035.361-.074.54-.119.089-.023.178-.047.266-.074a1.827,1.827,0,0,0,.258-.1,1.872,1.872,0,0,1-.262.085c-.089.023-.179.043-.269.06-.18.036-.361.065-.543.092q-.545.078-1.093.12c-.183.014-.366.025-.548.03-.091,0-.182,0-.272,0a1.806,1.806,0,0,1-.263-.02l-.029-.006-.013,0-.008,0-.014-.006,0,0-.009-.007s0-.006,0-.012A.109.109,0,0,1,52.5,378a.681.681,0,0,1,.127-.2,2.326,2.326,0,0,1,.183-.19c.059-.057.122-.111.185-.163l3.741-1.227a20.574,20.574,0,0,1-.08,3.547c-.6.071-1.22.131-1.851.18H42.4c-1.324-.075-2.32-.151-2.808-.191a20.462,20.462,0,0,1-.078-3.536l3.741,1.227c.062.051.125.106.185.163a2.366,2.366,0,0,1,.183.19.674.674,0,0,1,.127.2.1.1,0,0,1,.006.034c0,.007,0,.008,0,.012l-.009.007,0,0-.014.006-.008,0-.013,0-.029.006a1.806,1.806,0,0,1-.263.02c-.09,0-.181,0-.272,0-.182,0-.365-.016-.548-.03-.365-.028-.73-.068-1.094-.12-.181-.027-.363-.056-.543-.092q-.135-.026-.269-.06a1.856,1.856,0,0,1-.262-.085,1.839,1.839,0,0,0,.258.1c.088.028.177.051.266.074.179.045.359.083.54.119q.543.106,1.092.175c.183.023.366.043.552.058.092.007.185.013.279.016a1.974,1.974,0,0,0,.288-.008.431.431,0,0,0,.085-.018l.018-.006.026-.013a.218.218,0,0,0,.046-.034.191.191,0,0,0,.055-.11.268.268,0,0,0-.006-.1.819.819,0,0,0-.149-.274,2.619,2.619,0,0,0-.188-.216c-.066-.069-.132-.133-.2-.2a.086.086,0,0,0-.028-.017l-.006,0-3.574-1.375c.379-.332,1.033-.8,1.305-.989a.242.242,0,0,0,.057-.056c.931-.034,4.692-.165,6.993-.165s6.062.132,6.993.165a.245.245,0,0,0,.057.056C55.446,375.07,56.1,375.538,56.479,375.87Zm.838-1.507-1.3.511c-.147-.109-.281-.2-.383-.277a1.622,1.622,0,0,0,.152-1.008c.17-.014.465-.035.768-.035a4.622,4.622,0,0,1,.463.021.26.26,0,0,1,.2.107A1.084,1.084,0,0,1,57.317,374.363Z" transform="translate(-38.633 -370.94)"/>
            <path id="Path_53891-2" data-name="Path 53891" class="cls-1" d="M110.7,397.953a26.566,26.566,0,0,0-3.147.991s-.532.4-.344.455a15.1,15.1,0,0,0,2.844-.391C110.3,398.866,111.077,398.084,110.7,397.953Z" transform="translate(-92.976 -392.359)"/>
            <path id="Path_53892-2" data-name="Path 53892" class="cls-1" d="M66.109,397.637c-.149.039-.31.083-.478.143a1.943,1.943,0,0,0-.256.108.576.576,0,0,0-.129.087.933.933,0,0,0-.093.124,1.9,1.9,0,0,1-.407.389,1.325,1.325,0,0,1-.246.142.557.557,0,0,1-.124.039H64.31l-.077,0c-.1.006-.2,0-.3,0s-.2,0-.3-.006l-.589-.02L62,398.606l-.814-.038v-.02l-.21.01-.21-.01v.02l-.814.038-1.046.042-.59.02c-.1,0-.2,0-.3.006s-.2.007-.3,0l-.077,0h-.066a.563.563,0,0,1-.124-.039,1.338,1.338,0,0,1-.246-.142,1.9,1.9,0,0,1-.407-.389.994.994,0,0,0-.094-.124.575.575,0,0,0-.129-.087,1.931,1.931,0,0,0-.256-.108c-.168-.06-.329-.1-.478-.143-.3-.078-.549-.13-.724-.165s-.276-.053-.276-.053.1.024.272.071.419.115.709.211c.145.048.3.1.46.172a1.971,1.971,0,0,1,.235.118.46.46,0,0,1,.1.075,1.13,1.13,0,0,1,.069.109,2.048,2.048,0,0,0,.415.454,1.553,1.553,0,0,0,.269.179.758.758,0,0,0,.164.062l.011,0h.036l.038,0,.076.007c.1.013.207.014.311.02s.21.011.31.014l.593.019,1.049.026.8.015v.008l.214,0h.007l.214,0v-.008l.8-.015,1.049-.026.592-.019c.1,0,.206-.009.31-.014s.211-.008.311-.02l.076-.007.038,0h.037l.011,0a.76.76,0,0,0,.164-.062,1.547,1.547,0,0,0,.269-.179,2.054,2.054,0,0,0,.415-.454,1.056,1.056,0,0,1,.069-.109.474.474,0,0,1,.1-.075,1.971,1.971,0,0,1,.235-.118c.159-.069.316-.123.461-.172.29-.1.536-.164.709-.211s.272-.071.272-.071-.1.018-.277.053S66.407,397.56,66.109,397.637Z" transform="translate(-51.483 -391.937)"/>
            <path id="Path_53893-2" data-name="Path 53893" class="cls-1" d="M43.115,417.2s-.245,1.108,0,1.419a4.928,4.928,0,0,0,2.961,0c.334-.294.156-1.3.156-1.3C45.274,417.317,43.115,417.2,43.115,417.2Z" transform="translate(-42.101 -407.619)"/>
            <path id="Path_53894-2" data-name="Path 53894" class="cls-1" d="M110.047,417.317s-.179,1,.156,1.3a4.961,4.961,0,0,0,2.971,0c.246-.311,0-1.419,0-1.419S111.007,417.317,110.047,417.317Z" transform="translate(-95.223 -407.619)"/>
          </g>
          <path id="Path_70622" data-name="Path 70622" class="cls-1" d="M0,0H6.094V1.524H0Z" transform="translate(6.206 7.217)"/>
        </g>
        <g id="Group_129158" data-name="Group 129158" transform="translate(18.982 0)">
          <g id="Group_29068-3" data-name="Group 29068" transform="translate(0 0)">
            <path id="Path_53889-3" data-name="Path 53889" class="cls-1" d="M46.671,398.937c.128-.036-.234-.309-.234-.309a18.045,18.045,0,0,0-2.141-.675c-.259.089.27.621.44.717A10.269,10.269,0,0,0,46.671,398.937Z" transform="translate(-43.437 -394.146)"/>
            <path id="Path_53890-3" data-name="Path 53890" class="cls-1" d="M51.438,372.691a.374.374,0,0,0-.27-.15c-.1-.01-.209-.015-.335-.015-.325,0-.629.032-.642.034a.1.1,0,0,0-.067.037.1.1,0,0,0-.019.074,1.233,1.233,0,0,1-.038.618c-.111-.18-.35-.565-.61-.952-.75-1.117-.939-1.162-1.03-1.183-.315-.074-2.517-.172-3.173-.2v-.013l-.163.007-.163-.007v.013c-.656.028-2.858.126-3.173.2-.091.021-.28.066-1.03,1.183-.26.387-.5.772-.61.952a1.236,1.236,0,0,1-.037-.618.1.1,0,0,0-.019-.074.1.1,0,0,0-.067-.037c-.013,0-.317-.034-.642-.034-.126,0-.239,0-.335.015a.375.375,0,0,0-.27.15.979.979,0,0,0-.094.666.1.1,0,0,0,.06.072l.823.325a4.044,4.044,0,0,0-.539.468c-.064.075-.182.215-.123,1.591.027.652.083,1.279.084,1.285l.015.169.3-.027c.809.066,3.492.264,6.487.264a44.966,44.966,0,0,0,5.176-.262l.274.024.015-.169c0-.006.056-.633.084-1.285.058-1.376-.06-1.515-.123-1.591a4.043,4.043,0,0,0-.539-.468l.823-.325a.1.1,0,0,0,.06-.072A.98.98,0,0,0,51.438,372.691Zm-9.6-1.207c.254-.057,2.079-.149,3.255-.2,1.175.048,3,.14,3.254.2a9.273,9.273,0,0,1,1.382,1.9c-.782-.028-3.058-.1-4.54-.108H45c-1.482,0-3.758.08-4.54.108A9.274,9.274,0,0,1,41.838,371.484Zm-3,1.786a.734.734,0,0,1,.067-.463.178.178,0,0,1,.134-.073c.09-.009.2-.014.316-.014.206,0,.407.014.523.024a1.1,1.1,0,0,0,.1.686c-.069.049-.161.114-.26.188ZM50.779,374.3l-2.433.936h0a.063.063,0,0,0-.019.012c-.049.044-.095.088-.139.135a1.829,1.829,0,0,0-.128.147.561.561,0,0,0-.1.187.18.18,0,0,0,0,.07.129.129,0,0,0,.038.075.139.139,0,0,0,.031.023l.018.009.012,0a.3.3,0,0,0,.058.012,1.364,1.364,0,0,0,.2.005c.064,0,.127-.006.19-.011.126-.01.251-.023.375-.039q.374-.047.743-.119c.123-.024.246-.05.367-.081.061-.016.121-.032.181-.05a1.221,1.221,0,0,0,.176-.067,1.242,1.242,0,0,1-.178.058c-.061.016-.122.029-.183.041-.122.025-.246.044-.37.063q-.371.053-.744.081c-.124.01-.249.017-.373.021-.062,0-.124,0-.185,0a1.231,1.231,0,0,1-.179-.014l-.019,0-.009,0-.005,0-.01,0,0,0-.006-.005s0,0,0-.008a.074.074,0,0,1,0-.023.465.465,0,0,1,.087-.136,1.562,1.562,0,0,1,.125-.129c.04-.039.083-.076.126-.111l2.546-.835a14,14,0,0,1-.054,2.414c-.409.049-.831.089-1.26.123H41.2c-.9-.051-1.579-.1-1.911-.13a13.925,13.925,0,0,1-.053-2.407l2.546.835c.042.035.085.072.126.111a1.586,1.586,0,0,1,.125.129.461.461,0,0,1,.086.136.071.071,0,0,1,0,.023s0,.005,0,.008l-.006.005,0,0-.009,0-.005,0-.009,0-.019,0a1.231,1.231,0,0,1-.179.014c-.061,0-.123,0-.185,0-.124,0-.248-.011-.373-.021-.249-.019-.5-.046-.744-.081-.123-.018-.247-.038-.369-.063q-.092-.018-.183-.041a1.233,1.233,0,0,1-.178-.058,1.23,1.23,0,0,0,.176.067c.06.019.121.035.181.05.122.031.244.057.367.081q.369.072.743.119c.124.016.249.029.375.039.063,0,.126.009.19.011a1.363,1.363,0,0,0,.2-.005.292.292,0,0,0,.058-.012l.012,0,.017-.009a.143.143,0,0,0,.031-.023.129.129,0,0,0,.038-.075.183.183,0,0,0,0-.07.558.558,0,0,0-.1-.187,1.773,1.773,0,0,0-.128-.147c-.045-.047-.09-.091-.139-.135a.06.06,0,0,0-.019-.012h0l-2.432-.936c.258-.226.7-.545.888-.673a.164.164,0,0,0,.039-.038c.634-.023,3.193-.113,4.76-.113s4.126.09,4.76.113a.167.167,0,0,0,.038.038C50.076,373.751,50.522,374.07,50.779,374.3Zm.57-1.026-.882.348c-.1-.074-.191-.139-.261-.188a1.1,1.1,0,0,0,.1-.686c.115-.01.317-.024.523-.024a3.157,3.157,0,0,1,.315.014.177.177,0,0,1,.134.073A.738.738,0,0,1,51.35,373.27Z" transform="translate(-38.633 -370.94)"/>
            <path id="Path_53891-3" data-name="Path 53891" class="cls-1" d="M109.569,397.953a18.05,18.05,0,0,0-2.142.675s-.362.273-.234.309a10.267,10.267,0,0,0,1.936-.266C109.3,398.574,109.828,398.042,109.569,397.953Z" transform="translate(-97.508 -394.146)"/>
            <path id="Path_53892-3" data-name="Path 53892" class="cls-1" d="M62.509,397.568c-.1.027-.211.057-.325.1a1.273,1.273,0,0,0-.174.074.386.386,0,0,0-.088.059.636.636,0,0,0-.064.085,1.3,1.3,0,0,1-.277.265.92.92,0,0,1-.167.1.394.394,0,0,1-.084.026h-.1c-.07,0-.137,0-.2,0s-.134,0-.2,0l-.4-.013-.712-.029-.554-.026v-.014l-.143.007-.143-.007v.014l-.554.026-.712.029-.4.013c-.069,0-.135,0-.2,0s-.134,0-.2,0h-.1a.4.4,0,0,1-.085-.026.929.929,0,0,1-.167-.1,1.3,1.3,0,0,1-.277-.265.676.676,0,0,0-.064-.085.387.387,0,0,0-.088-.059,1.266,1.266,0,0,0-.174-.074c-.114-.041-.224-.071-.325-.1-.2-.053-.373-.088-.493-.112s-.188-.036-.188-.036.068.016.185.048.285.079.483.144c.1.033.205.07.313.117a1.292,1.292,0,0,1,.16.08.309.309,0,0,1,.067.051.748.748,0,0,1,.047.074,1.4,1.4,0,0,0,.282.309,1.073,1.073,0,0,0,.183.122.519.519,0,0,0,.111.043l.008,0H56.7l.026,0,.052.005c.068.008.141.009.212.014l.211.01.4.013.714.018.546.01v.006l.146,0h0l.145,0v-.006l.546-.01.714-.018.4-.013.211-.01c.071,0,.143-.005.212-.014l.052-.005.026,0h.025l.008,0a.521.521,0,0,0,.111-.043,1.069,1.069,0,0,0,.183-.122,1.4,1.4,0,0,0,.282-.309.7.7,0,0,1,.047-.074.319.319,0,0,1,.067-.051,1.292,1.292,0,0,1,.16-.08c.108-.047.215-.084.314-.117.2-.065.365-.112.483-.144s.185-.048.185-.048-.069.012-.188.036S62.712,397.515,62.509,397.568Z" transform="translate(-52.555 -393.688)"/>
            <path id="Path_53893-3" data-name="Path 53893" class="cls-1" d="M43.08,417.2s-.166.754,0,.966a3.355,3.355,0,0,0,2.015,0c.227-.2.106-.883.106-.883C44.55,417.279,43.08,417.2,43.08,417.2Z" transform="translate(-42.39 -410.678)"/>
            <path id="Path_53894-3" data-name="Path 53894" class="cls-1" d="M110.032,417.279s-.122.683.106.883a3.377,3.377,0,0,0,2.022,0c.167-.212,0-.966,0-.966S110.685,417.279,110.032,417.279Z" transform="translate(-99.943 -410.678)"/>
          </g>
          <path id="Path_70623" data-name="Path 70623" class="cls-1" d="M0,0H4.148V1.037H0Z" transform="translate(4.224 4.912)"/>
        </g>
      </g>
    </g>
  </g>
</svg>
