<svg xmlns="http://www.w3.org/2000/svg" width="511.969" height="511.998" viewBox="0 0 511.969 511.998">
  <g id="settings" transform="translate(-0.016)">
    <g id="Group_2" data-name="Group 2">
      <g id="Group_1" data-name="Group 1">
        <path id="Path_5" data-name="Path 5" d="M211.286,115.43a10,10,0,0,0-12.972-5.631A157.206,157.206,0,0,0,98.827,256.033a10,10,0,0,0,20,0,136.454,136.454,0,0,1,86.83-127.63A10,10,0,0,0,211.286,115.43Z" fill="#2da7d3"/>
      </g>
    </g>
    <g id="Group_4" data-name="Group 4">
      <g id="Group_3" data-name="Group 3">
        <path id="Path_6" data-name="Path 6" d="M321.869,246.128a10,10,0,0,0-10,10,56,56,0,1,1-56-56,10,10,0,1,0,0-20,75.995,75.995,0,1,0,75.995,75.995A10,10,0,0,0,321.869,246.128Z" fill="#2da7d3"/>
      </g>
    </g>
    <g id="Group_6" data-name="Group 6">
      <g id="Group_5" data-name="Group 5">
        <path id="Path_7" data-name="Path 7" d="M358.937,245.75a10,10,0,0,0-10,10v.377a10,10,0,0,0,20,0v-.377A10,10,0,0,0,358.937,245.75Z" fill="#2da7d3"/>
      </g>
    </g>
    <g id="Group_8" data-name="Group 8">
      <g id="Group_7" data-name="Group 7">
        <path id="Path_8" data-name="Path 8" d="M318.474,336.945a9.992,9.992,0,1,0,2.931,7.07A10.029,10.029,0,0,0,318.474,336.945Z" fill="#2da7d3"/>
      </g>
    </g>
    <g id="Group_10" data-name="Group 10">
      <g id="Group_9" data-name="Group 9">
        <path id="Path_9" data-name="Path 9" d="M477.987,362.569a33.776,33.776,0,0,0-15.906,3.963L432.489,336.94a10,10,0,0,0-7.071-2.929H352.5a10,10,0,1,0,0,20h68.771l26.667,26.667a33.991,33.991,0,1,0,30.045-18.107Zm0,48a14,14,0,1,1,14-14A14.014,14.014,0,0,1,477.987,410.566Z" fill="#170956"/>
      </g>
    </g>
    <g id="Group_12" data-name="Group 12">
      <g id="Group_11" data-name="Group 11">
        <path id="Path_10" data-name="Path 10" d="M477.987,81.467a33.978,33.978,0,0,0-30.043,49.888l-26.667,26.667H311.86a113.019,113.019,0,0,0-45.878-14.483V125.464H371.423a10,10,0,0,0,8.755-5.168l30.387-55.069a34.059,34.059,0,1,0-15.474-13.352l-29.571,53.59H265.982V10.041a10,10,0,0,0-10-10H211.145a10,10,0,0,0-10,10V40.984a219.7,219.7,0,0,0-58.662,24.311L120.688,43.5a10,10,0,0,0-14.144,0l-63.2,63.25a10,10,0,0,0,0,14.138l21.771,21.772a219.739,219.739,0,0,0-24.309,58.662H10.015a10,10,0,0,0-10,10v89.417a10,10,0,0,0,10,10H40.807A219.654,219.654,0,0,0,65.116,369.4L43.345,391.173a10,10,0,0,0,0,14.138l63.2,63.25a10,10,0,0,0,7.071,2.932h0a10,10,0,0,0,7.071-2.929l21.8-21.794a219.785,219.785,0,0,0,58.661,24.311v30.894a10,10,0,0,0,9.993,10h44.843a9.958,9.958,0,0,0,10-9.975V406.11H365.5l29.6,53.995a33.981,33.981,0,1,0,15.49-13.346l-30.4-55.456a10,10,0,0,0-8.768-5.193H265.98V359.189a10,10,0,0,0-10-10A93.155,93.155,0,0,1,254.122,162.9a9.994,9.994,0,0,0,1.751.163,93.483,93.483,0,0,1,87.255,60.615,10,10,0,1,0,18.743-6.972,112.32,112.32,0,0,0-24.356-38.684h87.9a10,10,0,0,0,7.071-2.929L462.081,145.5a33.993,33.993,0,1,0,15.906-64.032ZM423.992,20a14,14,0,1,1-14,14A14.014,14.014,0,0,1,423.992,20Zm0,444a14,14,0,1,1-14,14A14.014,14.014,0,0,1,423.992,464ZM245.983,143.314a113.162,113.162,0,0,0,0,225.438V492l-24.839-.014V463.154a10,10,0,0,0-7.9-9.776,200.071,200.071,0,0,1-66.8-27.681,10,10,0,0,0-12.5,1.328L113.62,447.353l-49.067-49.1,20.31-20.31a10,10,0,0,0,1.327-12.5,200.039,200.039,0,0,1-27.678-66.8,10,10,0,0,0-9.776-7.9H20.014V221.326H48.735a10,10,0,0,0,9.776-7.9,200.059,200.059,0,0,1,27.678-66.8,10,10,0,0,0-1.327-12.5l-20.31-20.31,49.067-49.1,20.327,20.328a10,10,0,0,0,12.5,1.328,200.074,200.074,0,0,1,66.8-27.681,10,10,0,0,0,7.9-9.776V20.041h24.839V143.314Zm232-13.851a14,14,0,1,1,14-14A14.014,14.014,0,0,1,477.987,129.463Z" fill="#170956"/>
      </g>
    </g>
    <g id="Group_14" data-name="Group 14">
      <g id="Group_13" data-name="Group 13">
        <path id="Path_11" data-name="Path 11" d="M477.987,222.16a34.056,34.056,0,0,0-32.495,24h-29.5a10,10,0,1,0,0,20h29.5a34,34,0,1,0,32.5-44Zm0,48a14,14,0,1,1,14-14A14.014,14.014,0,0,1,477.987,270.157Z" fill="#170956"/>
      </g>
    </g>
  </g>
</svg>
