<svg xmlns="http://www.w3.org/2000/svg" xmlns:xlink="http://www.w3.org/1999/xlink" width="221.773" height="50.219" viewBox="0 0 221.773 50.219">
  <defs>
    <linearGradient id="linear-gradient" x1="0.5" y1="0.225" x2="0.5" y2="1" gradientUnits="objectBoundingBox">
      <stop offset="0" stop-color="#11044c"/>
      <stop offset="1" stop-color="#03010f"/>
    </linearGradient>
    <linearGradient id="linear-gradient-5" x1="0.465" y1="0.317" xlink:href="#linear-gradient"/>
    <linearGradient id="linear-gradient-7" x1="0.5" y1="0.274" x2="0.5" y2="1" gradientUnits="objectBoundingBox">
      <stop offset="0" stop-color="#29abe2"/>
      <stop offset="1" stop-color="#155671"/>
    </linearGradient>
    <linearGradient id="linear-gradient-10" x1="0.5" y1="0.281" x2="0.5" y2="1" gradientUnits="objectBoundingBox">
      <stop offset="0" stop-color="#90218a"/>
      <stop offset="1" stop-color="#481145"/>
    </linearGradient>
    <linearGradient id="linear-gradient-12" x1="-674.439" y1="-474.336" x2="1081.859" y2="760.806" gradientUnits="objectBoundingBox">
      <stop offset="0" stop-color="#29abe2"/>
      <stop offset="1" stop-color="#ed1e79"/>
    </linearGradient>
  </defs>
  <g id="Group_5928" data-name="Group 5928" transform="translate(-229.651 -240.689)">
    <g id="Group_140" data-name="Group 140" transform="translate(363.131 280.89)">
      <g id="Group_135" data-name="Group 135" transform="translate(0 0)">
        <path id="Path_1295" data-name="Path 1295" d="M579.357,341.853l-2.449,6.71-2.411-6.71h-2.062l-2.392,6.71-2.411-6.71h-2.081l3.635,10.018h1.751l2.548-7.081,2.567,7.081h1.732l3.657-10.018Z" transform="translate(-565.551 -341.853)" fill="#90218a"/>
      </g>
      <g id="Group_136" data-name="Group 136" transform="translate(17.934 0)">
        <path id="Path_1296" data-name="Path 1296" d="M620.114,341.853H613.5a2.912,2.912,0,0,0-2.819,3.093v6.925h1.944v-6.925c0-.679.312-1.146.875-1.146h6.614c.545,0,.894.467.894,1.146v1.6h-6.925v1.944h6.925v3.387h1.947v-6.925A2.942,2.942,0,0,0,620.114,341.853Z" transform="translate(-610.681 -341.853)" fill="#90218a"/>
      </g>
      <g id="Group_137" data-name="Group 137" transform="translate(33.319 0)">
        <path id="Path_1297" data-name="Path 1297" d="M654.884,346.871l4.959-5.019h-2.7l-4.919,5.019,5.249,5h2.7Zm-5.486-5.019v10.018h1.947V341.853Z" transform="translate(-649.398 -341.853)" fill="#90218a"/>
      </g>
      <g id="Group_138" data-name="Group 138" transform="translate(46.527 0)">
        <path id="Path_1298" data-name="Path 1298" d="M686.041,345.881v1.944h6.728v-1.944Zm7.274-2.081v-1.947H682.636v10.018h10.679v-1.947h-8.732V343.8Z" transform="translate(-682.636 -341.853)" fill="#90218a"/>
      </g>
      <g id="Group_139" data-name="Group 139" transform="translate(60.321 0)">
        <path id="Path_1299" data-name="Path 1299" d="M728.647,346.794a2.6,2.6,0,0,0,1.031-2.178,2.678,2.678,0,0,0-2.8-2.763h-9.529v10.018h9.7a2.7,2.7,0,0,0,2.819-2.763A2.545,2.545,0,0,0,728.647,346.794Zm-1.6,3.131h-7.76V343.8h7.585c.5,0,.854.368.854,1.069s-.349,1.013-.854,1.013h-6.128v1.944h6.3c.526,0,.875.33.875,1.049C727.927,349.575,727.578,349.924,727.052,349.924Z" transform="translate(-717.348 -341.853)" fill="#90218a"/>
      </g>
    </g>
    <g id="Group_145" data-name="Group 145" transform="translate(334.852 240.835)">
      <g id="Group_141" data-name="Group 141" transform="translate(0 15.741)">
        <path id="Path_1300" data-name="Path 1300" d="M507.916,301.552v8.174h8.342v-8.174ZM531,292.01a2.292,2.292,0,0,1-1.3-4.184v-7.159h-8.346v10.2H502.729v-10.2h-8.342v18.8H532.1v-7.738A2.274,2.274,0,0,1,531,292.01Z" transform="translate(-494.387 -280.668)" fill="url(#linear-gradient)"/>
      </g>
      <g id="Group_142" data-name="Group 142" transform="translate(35.316 11.401)">
        <path id="Path_1301" data-name="Path 1301" d="M594.219,273.919v-4.171h-8.514v11.4a2.269,2.269,0,0,1,.872.894h33.834a2.294,2.294,0,1,1,.009,2.2H586.568a2.293,2.293,0,0,1-3.308.779v7.859H632.4V273.919Z" transform="translate(-583.26 -269.748)" fill="url(#linear-gradient)"/>
      </g>
      <g id="Group_143" data-name="Group 143" transform="translate(87.049 0)">
        <path id="Path_1302" data-name="Path 1302" d="M713.444,241.057v34.559h8.342V241.057Z" transform="translate(-713.444 -241.057)" fill="url(#linear-gradient)"/>
      </g>
      <g id="Group_144" data-name="Group 144" transform="translate(97.731 15.952)">
        <path id="Path_1303" data-name="Path 1303" d="M759.143,299.932V281.2H740.325l.022.168v18.46h8.171v-7.137a2.3,2.3,0,1,1,2.18,0v17.292h8.467v-4.7Z" transform="translate(-740.325 -281.201)" fill="url(#linear-gradient)"/>
      </g>
    </g>
    <g id="Group_147" data-name="Group 147" transform="translate(229.651 240.689)">
      <g id="Group_146" data-name="Group 146" transform="translate(0 0)">
        <path id="Path_1304" data-name="Path 1304" d="M271.814,280.912l-7.386-11.685-.178-.28L255.186,254.7l-4.021-6.321h-6.931a2.293,2.293,0,1,1,0-2.18h5.542l-3.508-5.514H229.651L238.57,254.7l2.822,4.433H248.6a2.295,2.295,0,0,1,4.314,1.09,2.257,2.257,0,0,1-.3,1.125l10.121,16.012a2.294,2.294,0,1,1-1.844,1.165l-10.121-16.015a1.358,1.358,0,0,1-.156.009,2.294,2.294,0,0,1-2.019-1.205h-5.825l18.435,28.968h5.772l4.8-7.174A2.3,2.3,0,0,1,271.814,280.912Z" transform="translate(-229.651 -240.689)" fill="url(#linear-gradient-5)"/>
        <path id="Path_1305" data-name="Path 1305" d="M345.278,318.6l-6.853,10.772H330.2l3.99-5.966a2.248,2.248,0,0,0,1.439-.343,2.295,2.295,0,0,0-1.38-4.23l-2.859-4.52,5.576-8.759Z" transform="translate(-290.246 -279.78)" fill="url(#linear-gradient-5)"/>
      </g>
    </g>
    <g id="Group_149" data-name="Group 149" transform="translate(266.017 240.689)">
      <g id="Group_148" data-name="Group 148" transform="translate(0 0)">
        <path id="Path_1306" data-name="Path 1306" d="M379.325,281.437l3.078,4.838-3.314,5.209-6.034-9.978-.04-.069Z" transform="translate(-352.41 -265.244)" fill="url(#linear-gradient-7)"/>
        <path id="Path_1307" data-name="Path 1307" d="M332.561,248.265l-3.536,4.772-7.859-12.348h34.7l-2.894,4.323a2.284,2.284,0,0,0-2.121,1.007,2.1,2.1,0,0,0-.112.184H336.658a2.3,2.3,0,0,0-4.315,1.09A2.255,2.255,0,0,0,332.561,248.265Z" transform="translate(-321.166 -240.689)" fill="url(#linear-gradient-7)"/>
        <path id="Path_1308" data-name="Path 1308" d="M351.353,255.791a2.3,2.3,0,0,0,2.3,2.3.708.708,0,0,0,.112-.006l6.592,10.9-3.682,5.785-8.308-13.046-4.268-6.71,4.037-5.445a2.193,2.193,0,0,0,.324.025,2.294,2.294,0,0,0,2.019-1.206h14.074a2.3,2.3,0,0,0,4.05-2.162l3.7-5.532h6.052L369.44,254.7H355.668a2.295,2.295,0,0,0-4.315,1.09Z" transform="translate(-334.983 -240.689)" fill="url(#linear-gradient-7)"/>
      </g>
    </g>
    <g id="Group_151" data-name="Group 151" transform="translate(284.147 240.689)">
      <g id="Group_150" data-name="Group 150" transform="translate(0 0)">
        <path id="Path_1309" data-name="Path 1309" d="M404.557,260.051a2.285,2.285,0,0,1-2.016,1.206c-.065,0-.131,0-.2-.009l-3.355,5.118a2.3,2.3,0,0,1-4.044,2.184h-6.9l-6.233,9.8L373.506,291.4l-6.717,10.548H374l14.872-23.37a2.3,2.3,0,1,1,1.838,1.171l-14.124,22.2h6.816l6.717-10.548,15.927-25.033,4.022-6.321Z" transform="translate(-366.789 -252.357)" fill="url(#linear-gradient-10)"/>
        <path id="Path_1310" data-name="Path 1310" d="M449.312,240.689,445.8,246.2h-6.9a2.294,2.294,0,1,0-4.034,2.184l-3.358,5.115a2.3,2.3,0,0,0-2.115,1.028,1.95,1.95,0,0,0-.1.171H423.78l8.916-14.012Z" transform="translate(-401.133 -240.689)" fill="url(#linear-gradient-10)"/>
      </g>
    </g>
    <g id="Group_154" data-name="Group 154" transform="translate(286.621 256.882)">
      <g id="Group_153" data-name="Group 153">
        <g id="Group_152" data-name="Group 152">
          <path id="Path_1311" data-name="Path 1311" d="M373.095,281.437a.416.416,0,0,1-.04.068l-.041-.068Z" transform="translate(-373.014 -281.437)" fill="url(#linear-gradient-12)"/>
        </g>
      </g>
    </g>
  </g>
</svg>
