<svg xmlns="http://www.w3.org/2000/svg" width="60.348" height="37.824" viewBox="0 0 60.348 37.824">
  <g id="Group_23125" data-name="Group 23125" transform="translate(-1339.928 -475.157)">
    <g id="Group_23123" data-name="Group 23123" transform="translate(1359.13 486.237)">
      <path id="Path_7826" data-name="Path 7826" d="M498.221,100.958a8.468,8.468,0,0,1-10.736,0,7.44,7.44,0,0,0-4.706,6.916V111.2a2.681,2.681,0,0,0,2.681,2.681h14.783a2.681,2.681,0,0,0,2.681-2.681v-3.322A7.44,7.44,0,0,0,498.221,100.958Z" transform="translate(-482.78 -87.134)" fill="#11044c"/>
      <path id="Path_7827" data-name="Path 7827" d="M500.787,80.947q-.172-.254-.363-.492a7.343,7.343,0,0,0-.842-.884q-.229-.2-.474-.386a7.269,7.269,0,0,0-1.6-.907q-.287-.117-.586-.21a7.273,7.273,0,0,0-7.274,12.125q.246.242.515.461a7.328,7.328,0,0,0,.7.5,7.246,7.246,0,0,0,3.893,1.134,7.377,7.377,0,0,0,.738-.037,7.216,7.216,0,0,0,3.153-1.1c.048-.03.1-.056.146-.088q.288-.192.556-.411c.178-.146.349-.3.513-.461a7.3,7.3,0,0,0,.9-1.081q.2-.292.371-.6a7.273,7.273,0,0,0,.017-6.962Q500.984,81.237,500.787,80.947Z" transform="translate(-484.68 -77.741)" fill="#11044c"/>
    </g>
    <g id="Group_23126" data-name="Group 23126" transform="translate(1380.13 486.237)">
      <path id="Path_7826-2" data-name="Path 7826" d="M498.221,100.958a8.468,8.468,0,0,1-10.736,0,7.44,7.44,0,0,0-4.706,6.916V111.2a2.681,2.681,0,0,0,2.681,2.681h14.783a2.681,2.681,0,0,0,2.681-2.681v-3.322A7.44,7.44,0,0,0,498.221,100.958Z" transform="translate(-482.78 -87.134)" fill="#11044c"/>
      <path id="Path_7827-2" data-name="Path 7827" d="M500.787,80.947q-.172-.254-.363-.492a7.343,7.343,0,0,0-.842-.884q-.229-.2-.474-.386a7.269,7.269,0,0,0-1.6-.907q-.287-.117-.586-.21a7.273,7.273,0,0,0-7.274,12.125q.246.242.515.461a7.328,7.328,0,0,0,.7.5,7.246,7.246,0,0,0,3.893,1.134,7.377,7.377,0,0,0,.738-.037,7.216,7.216,0,0,0,3.153-1.1c.048-.03.1-.056.146-.088q.288-.192.556-.411c.178-.146.349-.3.513-.461a7.3,7.3,0,0,0,.9-1.081q.2-.292.371-.6a7.273,7.273,0,0,0,.017-6.962Q500.984,81.237,500.787,80.947Z" transform="translate(-484.68 -77.741)" fill="#11044c"/>
    </g>
    <g id="Bg" transform="translate(1339.928 475.157)">
      <g id="Group_3830" data-name="Group 3830" transform="translate(0)">
        <path id="Path_7401" data-name="Path 7401" d="M312.37,379.717a11.01,11.01,0,1,0,11.01-11.01A11.01,11.01,0,0,0,312.37,379.717Zm19.513,0a8.5,8.5,0,1,1-8.5-8.5A8.5,8.5,0,0,1,331.883,379.717Z" transform="translate(-312.37 -368.707)" fill="#11044c"/>
        <path id="Path_7402" data-name="Path 7402" d="M348.615,383.3v6.452a.342.342,0,1,0,.684,0V383.3a.342.342,0,1,0-.684,0Z" transform="translate(-337.995 -378.785)" fill="#11044c"/>
        <path id="Path_7403" data-name="Path 7403" d="M328.608,408.481c-.174.073-.3.159-.291.192s.167,0,.341-.071l5.955-2.482c.174-.072.3-.158.29-.192s-.167,0-.341.071Z" transform="translate(-323.644 -395.014)" fill="#11044c"/>
        <path id="Path_7404" data-name="Path 7404" d="M349.134,404.6a.5.5,0,1,0,0,1h4.23a.5.5,0,0,0,0-1Z" transform="translate(-338.008 -394.083)" fill="#11044c"/>
        <path id="Path_7405" data-name="Path 7405" d="M347.215,404.035a.852.852,0,1,0,.852-.852A.852.852,0,0,0,347.215,404.035Z" transform="translate(-337.006 -393.082)" fill="#11044c"/>
      </g>
    </g>
  </g>
</svg>
