<svg xmlns="http://www.w3.org/2000/svg" width="44.306" height="59.019" viewBox="0 0 44.306 59.019">
  <g id="Group_23080" data-name="Group 23080" transform="translate(-57.844 -978.21)" style="mix-blend-mode: overlay;isolation: isolate">
    <path id="Path_7420" data-name="Path 7420" d="M79.266,1040.1c-.089.083-.182.162-.274.241s-.191.162-.288.24q-.3.241-.616.46l-4.353,8.943-.866-5.15,1.287-2.069q-.234.053-.473.094a10.734,10.734,0,0,1-1.24.147c-.23.015-.46.026-.692.026a11.107,11.107,0,0,1-2.6-.31l1.308,2.113-.816,5.242-4.822-9.473q-.333-.266-.646-.557l-.089.077c-4.682,4.051-5.92,10.3-6.245,13.585H85.2C84.3,1044.095,80.3,1040.8,79.266,1040.1Z" transform="translate(0 -16.476)" fill="#29abe2"/>
    <path id="Path_7421" data-name="Path 7421" d="M73.034,1014.8A10.369,10.369,0,1,0,83.4,1025.171,10.381,10.381,0,0,0,73.034,1014.8Z" transform="translate(-1.285 -9.75)" fill="#29abe2"/>
    <path id="Path_7422" data-name="Path 7422" d="M110.554,1042.168a.2.2,0,0,0-.022-.352,5.252,5.252,0,0,1-2.217-2.126,4.038,4.038,0,0,0,2.277,1.024.2.2,0,0,0,.2-.073.205.205,0,0,0,.032-.206,35.757,35.757,0,0,1-1.784-7.323c-.266-1.542-.523-3.043-.875-4.384a7.766,7.766,0,0,0-.53-1.667,8.02,8.02,0,0,0-.908-1.76,5.924,5.924,0,0,0-3.84-2.529,7.861,7.861,0,0,0-2.449-.391,7.161,7.161,0,0,0-4.446,1.515,6.918,6.918,0,0,0-2.685,3.462,11.808,11.808,0,0,0-.905,2.92,7.256,7.256,0,0,0-.095.83q-.086.505-.164,1.045a21.919,21.919,0,0,0,.261,6A24.457,24.457,0,0,1,95.619,1049h15.639a19.305,19.305,0,0,0-1.581-6.334A8.3,8.3,0,0,0,110.554,1042.168Zm-4.807-1.247c-.123.153-2.572,1.75-2.572,1.75l1.2,1.643-3.813,2.994.007.014-.012-.009-.012.009.007-.014-3.813-2.994,1.2-1.643s-2.449-1.6-2.572-1.75c-.219-.274,1.094-1.532,1.094-1.532l4.092,7.91,4.092-7.91S105.966,1040.647,105.748,1040.922Z" transform="translate(-9.108 -11.77)" fill="#29abe2"/>
    <path id="Path_7423" data-name="Path 7423" d="M89.651,978.21h-27.7a2.736,2.736,0,0,0-2.735,2.737v14.914a2.735,2.735,0,0,0,2.735,2.736H73.088l-.368,4.685,4.072-4.685H89.651a2.737,2.737,0,0,0,2.737-2.736V980.947A2.738,2.738,0,0,0,89.651,978.21ZM77.072,991.429H63.244a.479.479,0,1,1,0-.959H77.072a.479.479,0,1,1,0,.959Zm10.948-3.315H63.244a.48.48,0,1,1,0-.96H88.02a.48.48,0,1,1,0,.96Zm0-3.315H63.244a.48.48,0,1,1,0-.959H88.02a.48.48,0,1,1,0,.959Z" transform="translate(-0.366)" fill="#29abe2"/>
    <path id="Path_7424" data-name="Path 7424" d="M108.332,996.228h-6.3v5.383a2.951,2.951,0,0,1-2.947,2.948H90.773v3.589a1.713,1.713,0,0,0,1.712,1.714h8.449l2.549,2.931-.23-2.931h5.079a1.714,1.714,0,0,0,1.712-1.714V997.94A1.713,1.713,0,0,0,108.332,996.228Z" transform="translate(-8.774 -4.801)" fill="#29abe2"/>
  </g>
</svg>
