<svg xmlns="http://www.w3.org/2000/svg" width="44.492" height="53.004" viewBox="0 0 44.492 53.004">
  <g id="Group_23081" data-name="Group 23081" transform="translate(-1235.869 -528.496)" style="mix-blend-mode: overlay;isolation: isolate">
    <path id="Path_7237" data-name="Path 7237" d="M1243.632,563.956v0Z" transform="translate(-2.145 -2.143)" fill="#29abe2"/>
    <path id="Path_7238" data-name="Path 7238" d="M1235.869,528.5v52.916l44.492.088V528.584Zm38.881,30.093v10.554h-33.263V534.109h33.263v.069h0Z" transform="translate(0 0)" fill="#29abe2"/>
    <path id="Path_7239" data-name="Path 7239" d="M1249.281,543.134a3.282,3.282,0,1,0,3.275,3.286A3.282,3.282,0,0,0,1249.281,543.134Z" transform="translate(-2.797 -4.044)" fill="#29abe2"/>
    <path id="Path_7240" data-name="Path 7240" d="M1257.629,566.678l-6.287-5.993-5.349,7.418v6.751h29.618v-9.781l-9.711-10.566Z" transform="translate(-2.797 -7.187)" fill="#29abe2"/>
    <path id="Path_7241" data-name="Path 7241" d="M1276.895,536.251h-33.263l33.263.069Z" transform="translate(-2.145 -2.143)" fill="#29abe2"/>
  </g>
</svg>
