<svg xmlns="http://www.w3.org/2000/svg" width="37.051" height="62.05" viewBox="0 0 62.051 62.05">
  <g id="Group_29116" data-name="Group 29116" transform="translate(-3166.387 -5717.411)">
    <g id="Group_29104" data-name="Group 29104" transform="translate(-2995 4113.905)" style="isolation: isolate">
      <g id="Group_23077" data-name="Group 23077" transform="translate(6161.387 1603.506)" style="mix-blend-mode: overlay;isolation: isolate">
        <g id="Group_23072" data-name="Group 23072">
          <g id="Group_238" data-name="Group 238">
            <g id="Union_1" data-name="Union 1" transform="translate(51.617)" fill="#11044c">
              <path d="M 9.933235168457031 9.933235168457031 L 8.660675048828125 9.933235168457031 L 8.660675048828125 2.272545099258423 L 8.660675048828125 1.772545218467712 L 8.160675048828125 1.772545218467712 L 0.4999952018260956 1.772545218467712 L 0.4999952018260956 0.4999952018260956 L 9.830035209655762 0.4999952018260956 L 9.830035209655762 0.6033852100372314 L 9.933235168457031 0.6033852100372314 L 9.933235168457031 9.933235168457031 Z" stroke="none"/>
              <path d="M 9.433235168457031 9.433235168457031 L 9.433235168457031 1.103385210037231 L 9.330035209655762 1.103385210037231 L 9.330035209655762 0.9999951720237732 L 0.9999951720237732 0.9999951720237732 L 0.9999951720237732 1.272545218467712 L 8.160675048828125 1.272545218467712 L 9.160675048828125 1.272545218467712 L 9.160675048828125 2.272545099258423 L 9.160675048828125 9.433235168457031 L 9.433235168457031 9.433235168457031 M 10.43323516845703 10.43323516845703 L 8.160675048828125 10.43323516845703 L 8.160675048828125 2.272545099258423 L -4.799957423529122e-06 2.272545099258423 L -4.799957423529122e-06 -4.799957423529122e-06 L 10.33003520965576 -4.799957423529122e-06 L 10.33003520965576 0.1033852025866508 L 10.43323516845703 0.1033852025866508 L 10.43323516845703 10.43323516845703 Z" stroke="none" fill="#11044c"/>
            </g>
            <g id="Union_3" data-name="Union 3" transform="translate(51.617 51.617)" fill="#11044c">
              <path d="M 9.830038070678711 9.933235168457031 L 0.4999980628490448 9.933235168457031 L 0.4999980628490448 8.660675048828125 L 8.160688400268555 8.660675048828125 L 8.660688400268555 8.660675048828125 L 8.660688400268555 8.160675048828125 L 8.660688400268555 0.4999952018260956 L 9.93323802947998 0.4999952018260956 L 9.93323802947998 9.829845428466797 L 9.830038070678711 9.829845428466797 L 9.830038070678711 9.933235168457031 Z" stroke="none"/>
              <path d="M 9.160688400268555 0.999995231628418 L 9.160688400268555 8.160675048828125 L 9.160688400268555 9.160675048828125 L 8.160688400268555 9.160675048828125 L 0.9999980926513672 9.160675048828125 L 0.9999980926513672 9.433235168457031 L 9.330038070678711 9.433235168457031 L 9.330038070678711 9.329845428466797 L 9.43323802947998 9.329845428466797 L 9.43323802947998 0.999995231628418 L 9.160688400268555 0.999995231628418 M 8.160688400268555 -4.76837158203125e-06 L 10.43323802947998 -4.76837158203125e-06 L 10.43323802947998 10.3298454284668 L 10.33003807067871 10.3298454284668 L 10.33003807067871 10.43323516845703 L -1.9073486328125e-06 10.43323516845703 L -1.9073486328125e-06 8.160675048828125 L 8.160688400268555 8.160675048828125 L 8.160688400268555 -4.76837158203125e-06 Z" stroke="none" fill="#11044c"/>
            </g>
            <g id="Union_2" data-name="Union 2" transform="translate(10.433 10.433) rotate(180)" fill="#11044c">
              <path d="M 9.830072402954102 9.933235168457031 L 0.5000028610229492 9.933235168457031 L 0.5000028610229492 8.660685539245605 L 8.160713195800781 8.660685539245605 L 8.660713195800781 8.660685539245605 L 8.660713195800781 8.160685539245605 L 8.660713195800781 0.4999952018260956 L 9.933262825012207 0.4999952018260956 L 9.933262825012207 9.829845428466797 L 9.830072402954102 9.829845428466797 L 9.830072402954102 9.933235168457031 Z" stroke="none"/>
              <path d="M 9.160713195800781 0.999995231628418 L 9.160713195800781 8.160685539245605 L 9.160713195800781 9.160685539245605 L 8.160713195800781 9.160685539245605 L 1.000002861022949 9.160685539245605 L 1.000002861022949 9.433235168457031 L 9.330072402954102 9.433235168457031 L 9.330072402954102 9.329845428466797 L 9.433262825012207 9.329845428466797 L 9.433262825012207 0.999995231628418 L 9.160713195800781 0.999995231628418 M 8.160713195800781 -4.76837158203125e-06 L 10.43326282501221 -4.76837158203125e-06 L 10.43326282501221 10.3298454284668 L 10.3300724029541 10.3298454284668 L 10.3300724029541 10.43323516845703 L 2.86102294921875e-06 10.43323516845703 L 2.86102294921875e-06 8.160685539245605 L 8.160713195800781 8.160685539245605 L 8.160713195800781 -4.76837158203125e-06 Z" stroke="none" fill="#11044c"/>
            </g>
            <g id="Union_4" data-name="Union 4" transform="translate(10.433 62.05) rotate(180)" fill="#11044c">
              <path d="M 9.93327522277832 9.933235168457031 L 8.660715103149414 9.933235168457031 L 8.660715103149414 2.272545099258423 L 8.660715103149414 1.772545218467712 L 8.160715103149414 1.772545218467712 L 0.499995231628418 1.772545218467712 L 0.499995231628418 0.4999952018260956 L 9.830075263977051 0.4999952018260956 L 9.830075263977051 0.6033852100372314 L 9.93327522277832 0.6033852100372314 L 9.93327522277832 9.933235168457031 Z" stroke="none"/>
              <path d="M 9.43327522277832 9.433235168457031 L 9.43327522277832 1.103385210037231 L 9.330075263977051 1.103385210037231 L 9.330075263977051 0.9999951720237732 L 0.999995231628418 0.9999951720237732 L 0.999995231628418 1.272545218467712 L 8.160715103149414 1.272545218467712 L 9.160715103149414 1.272545218467712 L 9.160715103149414 2.272545099258423 L 9.160715103149414 9.433235168457031 L 9.43327522277832 9.433235168457031 M 10.43327522277832 10.43323516845703 L 8.160715103149414 10.43323516845703 L 8.160715103149414 2.272545099258423 L -4.772796728502726e-06 2.272545099258423 L -4.772796728502726e-06 -4.799957423529122e-06 L 10.33007526397705 -4.799957423529122e-06 L 10.33007526397705 0.1033852025866508 L 10.43327522277832 0.1033852025866508 L 10.43327522277832 10.43323516845703 Z" stroke="none" fill="#11044c"/>
            </g>
          </g>
        </g>
      </g>
    </g>
    <g id="Group_29096" data-name="Group 29096" transform="translate(2297 5643.613)">
      <g id="Group_29068" data-name="Group 29068" transform="translate(878.633 91.215)">
        <path id="Path_53889" data-name="Path 53889" d="M52.654,401.345c.441-.123-.808-1.066-.808-1.066a62.268,62.268,0,0,0-7.379-2.324c-.894.306.93,2.141,1.517,2.472A35.41,35.41,0,0,0,52.654,401.345Z" transform="translate(-41.51 -384.836)" fill="#11044c"/>
        <path id="Path_53890" data-name="Path 53890" d="M82.753,376.972a1.29,1.29,0,0,0-.93-.516c-.332-.034-.721-.05-1.154-.05-1.119,0-2.168.11-2.212.116a.33.33,0,0,0-.229.129.333.333,0,0,0-.066.255,4.251,4.251,0,0,1-.13,2.129c-.381-.621-1.2-1.947-2.1-3.281-2.585-3.849-3.235-4-3.548-4.076-1.085-.255-8.672-.594-10.931-.69l0-.046-.56.023-.56-.023v.046c-2.26.1-9.847.435-10.932.69-.313.073-.964.227-3.548,4.076-.9,1.335-1.72,2.66-2.1,3.281a4.263,4.263,0,0,1-.129-2.129.334.334,0,0,0-.295-.384c-.044-.005-1.093-.116-2.211-.116-.434,0-.823.017-1.155.05a1.293,1.293,0,0,0-.93.516,3.375,3.375,0,0,0-.324,2.3.333.333,0,0,0,.205.249l2.836,1.12a13.93,13.93,0,0,0-1.858,1.614c-.219.26-.626.741-.425,5.481.095,2.246.287,4.405.289,4.428l.052.581,1.049-.093c2.786.227,12.033.91,22.35.91a154.994,154.994,0,0,0,17.836-.9l.942.084.052-.581c0-.022.194-2.182.289-4.428.2-4.74-.206-5.221-.425-5.481a13.922,13.922,0,0,0-1.858-1.614l2.835-1.12a.332.332,0,0,0,.206-.249A3.376,3.376,0,0,0,82.753,376.972Zm-33.077-4.16c.874-.2,7.164-.512,11.214-.678,4.05.167,10.34.483,11.214.678.639.274,2.881,3.491,4.763,6.555-2.695-.1-10.535-.36-15.642-.373h-.668c-5.108.013-12.947.276-15.643.373C46.8,376.3,49.037,373.086,49.677,372.812Zm-10.344,6.155a2.528,2.528,0,0,1,.23-1.595.613.613,0,0,1,.462-.253c.31-.032.676-.048,1.088-.048.708,0,1.4.048,1.8.081a3.8,3.8,0,0,0,.355,2.365c-.238.17-.553.394-.9.649ZM80.484,382.5,72.1,385.726l-.014,0a.206.206,0,0,0-.065.04c-.169.151-.326.3-.48.464a6.27,6.27,0,0,0-.442.507,1.929,1.929,0,0,0-.35.643.62.62,0,0,0-.016.24.444.444,0,0,0,.131.257.5.5,0,0,0,.107.08.5.5,0,0,0,.061.03l.042.015a1.079,1.079,0,0,0,.2.042,4.664,4.664,0,0,0,.675.018c.22-.006.437-.019.654-.036.434-.035.864-.081,1.294-.136q1.287-.163,2.56-.41c.424-.083.847-.174,1.266-.279.21-.054.418-.109.624-.174a4.241,4.241,0,0,0,.605-.229,4.336,4.336,0,0,1-.614.2c-.209.053-.42.1-.63.141-.422.085-.847.153-1.273.216q-1.278.183-2.564.281c-.428.033-.857.059-1.285.07-.213,0-.427.008-.638,0a4.229,4.229,0,0,1-.616-.047l-.067-.015-.031-.008-.018-.006-.034-.014-.011-.006a.139.139,0,0,1-.021-.018c-.008-.011-.007-.013-.009-.029a.255.255,0,0,1,.013-.079,1.6,1.6,0,0,1,.3-.469,5.535,5.535,0,0,1,.43-.446c.139-.133.287-.261.433-.382l8.773-2.877a48.25,48.25,0,0,1-.187,8.318c-1.41.168-2.862.308-4.341.423h-29.1c-3.106-.175-5.441-.354-6.586-.448a47.986,47.986,0,0,1-.184-8.293l8.773,2.877c.146.12.293.249.433.382a5.621,5.621,0,0,1,.43.446,1.586,1.586,0,0,1,.3.469.245.245,0,0,1,.013.079c0,.016,0,.018-.009.029a.11.11,0,0,1-.021.018l-.012.006-.033.014-.018.006-.031.008-.067.015a4.228,4.228,0,0,1-.616.047c-.211,0-.425,0-.639,0-.427-.012-.856-.037-1.285-.07-.857-.066-1.713-.159-2.565-.281-.425-.063-.85-.132-1.273-.216-.211-.041-.421-.088-.63-.141a4.3,4.3,0,0,1-.614-.2,4.268,4.268,0,0,0,.605.229c.206.065.415.12.624.174.419.1.841.2,1.265.279q1.272.248,2.561.41c.429.055.859.1,1.294.136.217.017.434.03.654.036a4.66,4.66,0,0,0,.675-.018,1.044,1.044,0,0,0,.2-.042l.043-.015a.53.53,0,0,0,.06-.03.513.513,0,0,0,.108-.08.446.446,0,0,0,.13-.257.63.63,0,0,0-.015-.24,1.922,1.922,0,0,0-.351-.643,6.078,6.078,0,0,0-.441-.507c-.154-.161-.31-.312-.48-.464a.2.2,0,0,0-.065-.04l-.014,0L41.3,382.5c.888-.778,2.422-1.877,3.06-2.319a.564.564,0,0,0,.133-.132c2.184-.08,11-.388,16.4-.388s14.215.308,16.4.388a.571.571,0,0,0,.133.132C78.061,380.624,79.6,381.723,80.484,382.5Zm1.965-3.534-3.038,1.2c-.344-.254-.659-.479-.9-.649a3.8,3.8,0,0,0,.355-2.365c.4-.033,1.092-.081,1.8-.081.411,0,.777.017,1.087.048a.611.611,0,0,1,.462.251A2.543,2.543,0,0,1,82.448,378.967Z" transform="translate(-38.633 -370.94)" fill="#11044c"/>
        <path id="Path_53891" data-name="Path 53891" d="M115.447,397.954a62.283,62.283,0,0,0-7.38,2.324s-1.248.942-.807,1.066a35.4,35.4,0,0,0,6.669-.918C114.516,400.1,116.34,398.261,115.447,397.954Z" transform="translate(-73.89 -384.836)" fill="#11044c"/>
        <path id="Path_53892" data-name="Path 53892" d="M81.27,397.931c-.35.092-.727.2-1.121.336a4.582,4.582,0,0,0-.6.254,1.349,1.349,0,0,0-.3.2,2.174,2.174,0,0,0-.219.291,4.484,4.484,0,0,1-.955.913,3.123,3.123,0,0,1-.576.332,1.311,1.311,0,0,1-.291.091l-.012,0h-.009l-.045,0-.089,0-.181.005c-.243.015-.472,0-.706,0s-.46-.006-.7-.015l-1.382-.046-2.454-.1-1.909-.089v-.047l-.492.024-.492-.024v.047l-1.908.089-2.454.1-1.383.046c-.238.009-.465.01-.7.015s-.463.016-.706,0l-.18-.005-.09,0-.046,0H61.26l-.011,0a1.326,1.326,0,0,1-.292-.091,3.151,3.151,0,0,1-.576-.332,4.47,4.47,0,0,1-.955-.913,2.318,2.318,0,0,0-.219-.291,1.347,1.347,0,0,0-.3-.2,4.552,4.552,0,0,0-.6-.254c-.394-.14-.772-.244-1.121-.336-.7-.182-1.287-.3-1.7-.387s-.648-.124-.648-.124.234.056.639.166.983.271,1.663.5c.34.114.707.242,1.08.4a4.509,4.509,0,0,1,.55.276,1.084,1.084,0,0,1,.23.175,2.631,2.631,0,0,1,.163.256,4.809,4.809,0,0,0,.972,1.064,3.646,3.646,0,0,0,.631.419,1.774,1.774,0,0,0,.384.147l.026.007.006,0,.024,0h.011l.044,0,.09.01.179.017c.235.029.486.032.729.047s.493.026.726.033l1.39.045,2.459.061,1.883.034v.019l.5-.009h.017l.5.009v-.019l1.882-.034,2.461-.061,1.389-.045c.234-.007.483-.021.726-.033s.494-.018.73-.047l.179-.017.089-.01.045,0h.011l.024,0,.006,0,.026-.007a1.78,1.78,0,0,0,.384-.147,3.632,3.632,0,0,0,.632-.419,4.821,4.821,0,0,0,.972-1.064,2.454,2.454,0,0,1,.163-.256,1.115,1.115,0,0,1,.229-.175,4.51,4.51,0,0,1,.55-.276c.374-.161.74-.289,1.08-.4.681-.225,1.258-.385,1.663-.5s.639-.166.639-.166-.236.041-.649.124S81.969,397.749,81.27,397.931Z" transform="translate(-46.97 -384.562)" fill="#11044c"/>
        <path id="Path_53893" data-name="Path 53893" d="M43.261,417.2s-.573,2.6,0,3.328,6.16.691,6.943,0,.366-3.044.366-3.044C48.325,417.48,43.261,417.2,43.261,417.2Z" transform="translate(-40.883 -394.736)" fill="#11044c"/>
        <path id="Path_53894" data-name="Path 53894" d="M110.111,417.48s-.419,2.355.367,3.044,6.391.731,6.967,0,0-3.328,0-3.328S112.363,417.48,110.111,417.48Z" transform="translate(-75.347 -394.736)" fill="#11044c"/>
      </g>
      <rect id="Rectangle_8308" data-name="Rectangle 8308" width="11" height="3" transform="translate(896 108.387)" fill="#11044c"/>
      <path id="Union_1-2" data-name="Union 1" d="M1.957,2.5V.545H0V0H2.477V.025H2.5V2.5Z" transform="translate(905.903 102.618)" fill="#11044c"/>
      <path id="Union_3-2" data-name="Union 3" d="M1.957,0V1.957H0V2.5H2.477V2.477H2.5V0Z" transform="translate(905.903 114.994)" fill="#11044c"/>
      <path id="Union_2-2" data-name="Union 2" d="M1.957,0V1.957H0V2.5H2.477V2.477H2.5V0Z" transform="translate(896.028 105.12) rotate(180)" fill="#11044c"/>
      <path id="Union_4-2" data-name="Union 4" d="M1.957,2.5V.545H0V0H2.477V.025H2.5V2.5Z" transform="translate(896.028 117.496) rotate(180)" fill="#11044c"/>
    </g>
  </g>
</svg>
