<svg xmlns="http://www.w3.org/2000/svg" width="62.05" height="62.05" viewBox="0 0 62.05 62.05">
  <g id="Group_8" data-name="Group 8" transform="translate(-381 -39)">
    <g id="Group_5" data-name="Group 5" transform="translate(285.974 -5.183)">
      <path id="Path_1" data-name="Path 1" d="M17.264,31.434c2.617,5.458,10.557,5.652,13.061.031a14.738,14.738,0,0,1-1.7-2.172c-.081-.12-.166-.24-.248-.364A7.085,7.085,0,0,1,23.791,30.5,7,7,0,0,1,18.9,28.538c-.077-.07-.151-.139-.225-.213-.182.507-.414,1.115-.662,1.68a9.466,9.466,0,0,1-.747,1.428Zm13.8-.573c2.795,1.974,9.593,2.45,12.2,3.906a7.191,7.191,0,0,1,2.28,1.932c1.312,1.734,4,8.029-.356,8.362H2.391c-4.355-.333-1.672-6.627-.356-8.362a7.191,7.191,0,0,1,2.28-1.932c2.6-1.452,9.372-1.928,12.179-3.891a8.79,8.79,0,0,0,.643-1.25c.321-.736.616-1.541.805-2.09a26.042,26.042,0,0,1-2.106-3l-2.129-3.383A6.173,6.173,0,0,1,12.5,18.063a2.44,2.44,0,0,1,.209-1.107,2.089,2.089,0,0,1,.732-.852,2.573,2.573,0,0,1,.515-.263,53.714,53.714,0,0,1-.1-6.086,8.232,8.232,0,0,1,.263-1.378,8.16,8.16,0,0,1,3.6-4.583,11.4,11.4,0,0,1,3.016-1.343c.674-.19-.577-2.354.124-2.423,3.38-.348,8.85,2.737,11.207,5.292a8.254,8.254,0,0,1,2.083,5.218l-.132,5.524h0a1.539,1.539,0,0,1,1.123,1.161,4.808,4.808,0,0,1-.585,2.907h0l-.035.07-2.427,4a20.852,20.852,0,0,1-2.977,4.1c.1.151.213.31.317.465a14.1,14.1,0,0,0,1.587,2.04.259.259,0,0,1,.05.058Zm-4.742-12.9a.382.382,0,0,1,.426-.635,1.78,1.78,0,0,0,.956.209,1.981,1.981,0,0,0,.991-.252.384.384,0,1,1,.414.646,2.712,2.712,0,0,1-1.39.372,2.623,2.623,0,0,1-1.4-.341ZM18.1,21.868a17.072,17.072,0,0,1,5.683-1.227,12.607,12.607,0,0,1,5.695,1.181L31.835,16.6l.7-3.124c-6.093.96-10.65-3.565-17.091-.906l.457,4.22L18.1,21.868Zm14.409-4.707-2.3,5.1a.23.23,0,0,1-.015.031.4.4,0,0,1,.031.151h0a9.317,9.317,0,0,1-.484,3.205c.461-.666.894-1.374,1.324-2.079l2.4-3.949a3.831,3.831,0,0,0,.507-2.1c-.062-.24-.325-.356-.77-.379-.1,0-.194,0-.29,0s-.221.012-.337.019a.15.15,0,0,1-.058.008ZM17.814,25.383a10.972,10.972,0,0,1-.453-2.923.435.435,0,0,1,.015-.124L15,16.836a1.911,1.911,0,0,0-.9.271.846.846,0,0,0-.306.356,1.238,1.238,0,0,0-.1.569,5.072,5.072,0,0,0,1.014,2.47l.008.015h0L16.85,23.9c.31.5.631.995.964,1.483Zm5.981-3.9a16.381,16.381,0,0,0-5.582,1.239c.17,3.256,1.591,5.257,3.372,6.116a5.158,5.158,0,0,0,.569.232,5.916,5.916,0,0,0,1.638.225,6.673,6.673,0,0,0,.852-.05,5.29,5.29,0,0,0,1.5-.515c1.8-.941,3.194-2.985,3.229-6.027a11.88,11.88,0,0,0-5.575-1.219Zm-5.242-3.527a.382.382,0,1,1,.426-.635,1.869,1.869,0,0,0,.972.225,2.185,2.185,0,0,0,1.037-.248.382.382,0,0,1,.383.662,2.928,2.928,0,0,1-1.421.352,2.687,2.687,0,0,1-1.4-.356Z" transform="translate(101.772 52.658)" fill="#11044c" fill-rule="evenodd"/>
      <g id="Group_4" data-name="Group 4" transform="translate(119.398 73.829)">
        <g id="Group_3" data-name="Group 3" transform="translate(0 1.231)">
          <path id="Path_7" data-name="Path 7" d="M367.812,329.5s.828-.226.822-.226c-.831.786.434,3.944,2.42,5.91,2.272,2.264,6.486,2.736,8.6-5.662" transform="translate(-367.812 -329.27)" fill="#11044c" stroke="#11044c" stroke-width="1"/>
        </g>
        <path id="Path_8" data-name="Path 8" d="M367.961,330.977s6.716-3.511,11.808.208" transform="translate(-367.641 -329.476)" fill="#11044c" stroke="#11044c" stroke-width="1"/>
      </g>
    </g>
    <g id="Group_29114" data-name="Group 29114" transform="translate(-2626.387 -5462.411)">
      <g id="Group_29099" data-name="Group 29099" transform="translate(3007.387 5501.411)">
        <g id="Group_23072" data-name="Group 23072">
          <g id="Group_238" data-name="Group 238">
            <g id="Union_1" data-name="Union 1" transform="translate(51.617)">
              <path id="Path_9" data-name="Path 9" d="M9.933,9.933H8.661V1.773H.5V.5H9.83V.6h.1Z" fill="#11044c"/>
              <path id="Path_10" data-name="Path 10" d="M9.433,9.433V1.1h-.1V1H1v.273H9.161V9.433h.273m1,1H8.161V2.273H0V0H10.33V.1h.1Z" fill="#11044c"/>
            </g>
            <g id="Union_3" data-name="Union 3" transform="translate(51.617 51.617)">
              <path id="Path_11" data-name="Path 11" d="M9.83,9.933H.5V8.661H8.661V.5H9.933V9.83h-.1Z" fill="#11044c"/>
              <path id="Path_12" data-name="Path 12" d="M9.161,1V9.161H1v.273H9.33v-.1h.1V1H9.161m-1-1h2.273V10.33h-.1v.1H0V8.161H8.161Z" fill="#11044c"/>
            </g>
            <g id="Union_2" data-name="Union 2" transform="translate(10.433 10.433) rotate(180)">
              <path id="Path_13" data-name="Path 13" d="M9.83,9.933H.5V8.661H8.661V.5H9.933V9.83h-.1Z" fill="#11044c"/>
              <path id="Path_14" data-name="Path 14" d="M9.161,1V9.161H1v.273H9.33v-.1h.1V1H9.161m-1-1h2.273V10.33h-.1v.1H0V8.161H8.161Z" fill="#11044c"/>
            </g>
            <g id="Union_4" data-name="Union 4" transform="translate(10.433 62.05) rotate(180)">
              <path id="Path_15" data-name="Path 15" d="M9.933,9.933H8.661V1.773H.5V.5H9.83V.6h.1Z" fill="#11044c"/>
              <path id="Path_16" data-name="Path 16" d="M9.433,9.433V1.1h-.1V1H1v.273H9.161V9.433h.273m1,1H8.161V2.273H0V0H10.33V.1h.1Z" fill="#11044c"/>
            </g>
          </g>
        </g>
      </g>
    </g>
  </g>
</svg>
