<svg xmlns="http://www.w3.org/2000/svg" width="47.954" height="67" viewBox="0 0 47.954 67">
  <defs>
    <style>
      .cls-1 {
        fill: #fff;
      }

      .cls-2, .cls-3, .cls-4 {
        fill: none;
      }

      .cls-2 {
        stroke: #11044c;
      }

      .cls-3, .cls-4 {
        stroke: #4fc98f;
      }

      .cls-3 {
        stroke-miterlimit: 10;
      }

      .cls-4 {
        stroke-linecap: round;
        stroke-linejoin: round;
        stroke-width: 0.5px;
      }

      .cls-5 {
        fill: #11044c;
      }

      .cls-6 {
        fill: #bcbcbc;
      }

      .cls-7 {
        opacity: 0.06;
      }

      .cls-8 {
        fill: #f4f4f4;
      }

      .cls-9 {
        opacity: 0.1;
      }

      .cls-10 {
        fill: #2d3962;
      }
    </style>
  </defs>
  <g id="Group_29266" data-name="Group 29266" transform="translate(-1484.909 -200.089)">
    <rect id="Rectangle_11986" data-name="Rectangle 11986" class="cls-1" width="47" height="67" transform="translate(1485 200.089)"/>
    <g id="Group_6752" data-name="Group 6752" transform="translate(1485.209 200.891)">
      <path id="Path_31778" data-name="Path 31778" class="cls-2" d="M91.79,13.832,85.645,3.908H83.2l-1.38,6.448,3.828,9.571,6.486,7.887" transform="translate(-81.596 22.068)"/>
      <g id="Group_6748" data-name="Group 6748" transform="translate(0 0)">
        <g id="Group_6718" data-name="Group 6718" transform="translate(1.321 0)">
          <g id="Group_173" data-name="Group 173" transform="translate(0 0)">
            <g id="Group_169" data-name="Group 169" transform="translate(0)">
              <path id="Path_1315" data-name="Path 1315" class="cls-3" d="M172.376,66.06C171.032,50.068,154.9,49.787,154.9,49.787h-4.824s-16.133.281-17.477,16.273a26.4,26.4,0,0,0,.582,7.858,19.6,19.6,0,0,1,.391,2.512c.449,5.24,1.344,16.676,2.788,19.792,6.7,14.449,14.762,14.1,14.762,14.1h2.734s8.064.351,14.762-14.1c1.444-3.116,2.338-14.552,2.788-19.792a19.548,19.548,0,0,1,.391-2.512A26.4,26.4,0,0,0,172.376,66.06Z" transform="translate(-130.174 -49.787)"/>
              <g id="Group_167" data-name="Group 167" transform="translate(2.768 47.944)">
                <path id="Path_1316" data-name="Path 1316" class="cls-3" d="M139.162,332.226s0,8.031-.35,10.135-3.788,6.383-3.788,6.383" transform="translate(-135.024 -332.226)"/>
                <path id="Path_1317" data-name="Path 1317" class="cls-3" d="M340.934,332.226s0,8.031.35,10.135,3.788,6.383,3.788,6.383" transform="translate(-305.981 -332.226)"/>
              </g>
              <g id="Group_168" data-name="Group 168" transform="translate(0 26.308)">
                <path id="Path_1318" data-name="Path 1318" class="cls-3" d="M122.178,205.823a2.578,2.578,0,0,0-1.585-1.038c-1.3-.214-2.528,1.733-1.475,6.433,1.025,4.578.986,7.557,4.42,7.644C122.912,214.571,122.467,209.225,122.178,205.823Z" transform="translate(-118.72 -204.77)"/>
                <path id="Path_1319" data-name="Path 1319" class="cls-3" d="M356.18,204.785a2.577,2.577,0,0,0-1.585,1.038c-.289,3.4-.735,8.747-1.36,13.038,3.434-.086,3.4-3.066,4.42-7.644C358.707,206.519,357.478,204.571,356.18,204.785Z" transform="translate(-313.426 -204.77)"/>
              </g>
            </g>
            <g id="Group_172" data-name="Group 172" transform="translate(0.181 0)">
              <line id="Line_1" data-name="Line 1" class="cls-4" y2="14.821" transform="translate(22.132 49.641)"/>
              <line id="Line_2" data-name="Line 2" class="cls-4" y2="14.344" transform="translate(22.132 26.725)"/>
              <line id="Line_3" data-name="Line 3" class="cls-4" y2="7.411" transform="translate(22.132 0.068)"/>
              <line id="Line_4" data-name="Line 4" class="cls-4" x2="15.151" transform="translate(14.556 47.101)"/>
              <g id="Group_170" data-name="Group 170">
                <path id="Path_1320" data-name="Path 1320" class="cls-4" d="M185.371,210.938l-2.805,1.069h-2.841l-2.7-1.385,2.63-1.545H182.6l.086.057v0Z" transform="translate(-167.307 -182.039)"/>
                <path id="Path_1321" data-name="Path 1321" class="cls-4" d="M160.526,220.033l1.648,3.542L147.1,231.534l7.781-10.432" transform="translate(-142.462 -191.134)"/>
                <line id="Line_5" data-name="Line 5" class="cls-4" x2="1.964" y2="4.7" transform="translate(10.383 22.341)"/>
                <path id="Path_1322" data-name="Path 1322" class="cls-4" d="M145.529,187.64l-6.44-1.221L146.2,181.4l7.365.772L155.7,184.9l-.175,6.593-2.771,6.1v1.543l3.086,1.561v3.63" transform="translate(-135.812 -159.056)"/>
                <path id="Path_1323" data-name="Path 1323" class="cls-4" d="M229.334,280.822H227.44l.947-.666,2.911,1.964" transform="translate(-209.166 -241.051)"/>
                <path id="Path_1324" data-name="Path 1324" class="cls-4" d="M212.6,317.045l-2.1-.526-5.576,1.824,5.436,2.35s2.385.245,2.245.245" transform="translate(-190.468 -271.242)"/>
                <path id="Path_1325" data-name="Path 1325" class="cls-4" d="M185.977,276.85s-3.507,3.893-3.612,3.893-3.26,10.958-3.26,10.958l9.818-3.944" transform="translate(-169.036 -238.306)"/>
                <line id="Line_6" data-name="Line 6" class="cls-4" x2="2.104" y2="0.526" transform="translate(20.028 41.648)"/>
                <path id="Path_1326" data-name="Path 1326" class="cls-4" d="M175.726,91.845l-2.251-.877,2.245-4.822-3.858-7.839L163.3,68.255l8.031,19.977.526-9.925s3.858-5.629,3.864-5.629S163.3,68.255,163.3,68.255L160.5,78.636" transform="translate(-153.588 -65.12)"/>
                <path id="Path_1327" data-name="Path 1327" class="cls-4" d="M143.119,138.236l3.507-8.825H135.384Z" transform="translate(-132.736 -115.895)"/>
                <line id="Line_7" data-name="Line 7" class="cls-4" x1="6.205" y2="5.346" transform="translate(15.927)"/>
                <path id="Path_1328" data-name="Path 1328" class="cls-4" d="M195.5,209.838a1.618,1.618,0,0,1-3.236,0,1.6,1.6,0,0,1,.189-.76h2.8l.086.057v0A1.6,1.6,0,0,1,195.5,209.838Z" transform="translate(-179.957 -182.039)"/>
                <path id="Path_1329" data-name="Path 1329" class="cls-4" d="M164.479,364.66,156.86,358.6c-.232.085,3.768-5,3.768-5l3.851,11.067,8.218-3.928-6.6-9.336" transform="translate(-150.559 -300.198)"/>
                <line id="Line_8" data-name="Line 8" class="cls-4" x2="1.136" y2="6.065" transform="translate(6.301 58.397)"/>
                <line id="Line_9" data-name="Line 9" class="cls-4" x1="3.391" y1="1.066" transform="translate(6.679 52.328)"/>
                <path id="Path_1330" data-name="Path 1330" class="cls-4" d="M119.787,213.6l1.089-.175,2.609,4.386-1.537,2.067,1.993,2.391" transform="translate(-119.787 -185.644)"/>
                <line id="Line_10" data-name="Line 10" class="cls-4" x1="0.582" y2="6.359" transform="translate(0.507 27.777)"/>
                <path id="Path_1331" data-name="Path 1331" class="cls-4" d="M125.851,251.437l-1.363,1.359s4.015,4.819,3.838,4.811l8.693,2.036,1.122,4.665,2.49-7.014" transform="translate(-123.69 -217.207)"/>
              </g>
              <g id="Group_171" data-name="Group 171" transform="translate(22.138)">
                <path id="Path_1332" data-name="Path 1332" class="cls-4" d="M274.2,210.938l2.805,1.069h2.841l2.7-1.385-2.63-1.545h-2.946l-.086.057v0Z" transform="translate(-270.129 -182.039)"/>
                <path id="Path_1333" data-name="Path 1333" class="cls-4" d="M266.141,220.033l-1.648,3.542,15.076,7.959L271.788,221.1" transform="translate(-262.067 -191.134)"/>
                <line id="Line_11" data-name="Line 11" class="cls-4" x1="1.964" y2="4.7" transform="translate(9.791 22.341)"/>
                <path id="Path_1334" data-name="Path 1334" class="cls-4" d="M272.944,187.64l6.44-1.221-7.106-5.021-7.365.772-2.139,2.736.175,6.593,2.771,6.1v1.543l-3.086,1.561v3.63" transform="translate(-260.523 -159.056)"/>
                <path id="Path_1335" data-name="Path 1335" class="cls-4" d="M252.2,280.822h1.894l-.947-.666-2.911,1.964" transform="translate(-250.231 -241.051)"/>
                <path id="Path_1336" data-name="Path 1336" class="cls-4" d="M250.208,317.045l2.1-.526,5.576,1.824-5.436,2.35s-2.385.245-2.245.245" transform="translate(-250.202 -271.242)"/>
                <path id="Path_1337" data-name="Path 1337" class="cls-4" d="M266.406,276.85s3.507,3.893,3.612,3.893,3.26,10.958,3.26,10.958l-9.818-3.944" transform="translate(-261.209 -238.306)"/>
                <line id="Line_12" data-name="Line 12" class="cls-4" x1="2.104" y2="0.526" transform="translate(0.006 41.648)"/>
                <path id="Path_1338" data-name="Path 1338" class="cls-4" d="M250.2,91.845l2.251-.877-2.245-4.822,3.858-7.839,8.557-10.052-8.031,19.977-.526-9.925s-3.858-5.629-3.864-5.629,12.421-4.423,12.421-4.423l2.806,10.381" transform="translate(-250.202 -65.12)"/>
                <path id="Path_1339" data-name="Path 1339" class="cls-4" d="M302.3,138.236l-3.507-8.825h11.242Z" transform="translate(-290.542 -115.895)"/>
                <line id="Line_13" data-name="Line 13" class="cls-4" x2="6.205" y2="5.346" transform="translate(0.006)"/>
                <path id="Path_1340" data-name="Path 1340" class="cls-4" d="M289.079,209.838a1.618,1.618,0,0,0,3.236,0,1.6,1.6,0,0,0-.189-.76h-2.8l-.086.057v0A1.6,1.6,0,0,0,289.079,209.838Z" transform="translate(-282.48 -182.039)"/>
                <path id="Path_1341" data-name="Path 1341" class="cls-4" d="M258.42,364.66l7.619-6.065c.232.085-3.768-5-3.768-5L258.42,364.66l-8.218-3.928,6.6-9.336" transform="translate(-250.202 -300.198)"/>
                <line id="Line_14" data-name="Line 14" class="cls-4" x1="1.136" y2="6.065" transform="translate(14.701 58.397)"/>
                <line id="Line_15" data-name="Line 15" class="cls-4" y1="1.066" x2="3.391" transform="translate(12.069 52.328)"/>
                <path id="Path_1342" data-name="Path 1342" class="cls-4" d="M360.3,213.6l-1.089-.175-2.609,4.386,1.537,2.067-1.993,2.391" transform="translate(-338.163 -185.644)"/>
                <line id="Line_16" data-name="Line 16" class="cls-4" x2="0.582" y2="6.359" transform="translate(21.049 27.777)"/>
                <path id="Path_1343" data-name="Path 1343" class="cls-4" d="M295.6,251.437l1.363,1.359s-4.015,4.819-3.838,4.811l-8.693,2.036-1.122,4.665-2.49-7.014" transform="translate(-275.618 -217.207)"/>
              </g>
              <line id="Line_17" data-name="Line 17" class="cls-4" x2="4.852" transform="translate(19.706 32.441)"/>
            </g>
          </g>
        </g>
        <g id="Group_6747" data-name="Group 6747" transform="translate(0 24.816)">
          <g id="Group_6746" data-name="Group 6746" transform="translate(0 0)">
            <g id="Group_6745" data-name="Group 6745" transform="translate(9.452 6.68)">
              <g id="Group_6730" data-name="Group 6730" transform="translate(0 0)">
                <g id="Group_6729" data-name="Group 6729">
                  <path id="Path_31765" data-name="Path 31765" class="cls-5" d="M134.945,169.2c3.632-.973,8.072-1.953,11.7-2.926a10.38,10.38,0,0,1,2.42-.446,11.4,11.4,0,0,1,3.868.872,49.778,49.778,0,0,0,10.689,2.7s-.242,2.487-.435,3.684c-.522,3.225-.991,7.837-.111,11.063,0,0-7.492,4.526-12.972,4.579-6.947.067-14.66-4.513-14.752-4.722-.063-.144.587-4.707.49-8.857A27.762,27.762,0,0,0,134.945,169.2Z" transform="translate(-134.945 -165.828)"/>
                </g>
              </g>
              <g id="Group_6738" data-name="Group 6738" transform="translate(0.863 0.673)">
                <g id="Group_6737" data-name="Group 6737">
                  <g id="Group_6731" data-name="Group 6731" transform="translate(0 3.093)">
                    <path id="Path_31766" data-name="Path 31766" class="cls-6" d="M141.988,196.439a.062.062,0,0,1-.06-.047c-.039-.154-.063-.239-.063-.239a.062.062,0,0,1,.044-.077l.241-.064a.062.062,0,0,1,.032.121l-.18.048c.011.041.027.1.047.181a.062.062,0,0,1-.045.076Z" transform="translate(-141.863 -196.01)"/>
                  </g>
                  <g id="Group_6732" data-name="Group 6732" transform="translate(0.719)">
                    <path id="Path_31767" data-name="Path 31767" class="cls-6" d="M173.067,174.59h-.009q-.247-.036-.489-.073a.062.062,0,0,1,.019-.123q.241.038.488.073a.062.062,0,0,1-.009.124Zm-.975-.153h-.011q-.246-.042-.487-.086a.062.062,0,1,1,.023-.123q.24.044.485.086a.062.062,0,0,1-.01.124Zm-24.406-.125a.062.062,0,0,1-.016-.123l.478-.124a.062.062,0,1,1,.031.121l-.478.124Zm23.434-.053h-.012q-.244-.048-.484-.1a.062.062,0,0,1-.048-.074.063.063,0,0,1,.074-.048q.24.051.483.1a.062.062,0,0,1-.012.124Zm-22.477-.192a.062.062,0,0,1-.015-.123l.479-.121a.062.062,0,0,1,.03.121l-.479.121Zm21.511-.013-.014,0q-.242-.055-.481-.112a.062.062,0,0,1,.029-.121q.239.057.48.112a.062.062,0,0,1-.014.123Zm-20.553-.227a.062.062,0,0,1-.015-.123l.48-.119a.062.062,0,1,1,.03.121l-.48.119Zm19.593,0-.015,0q-.24-.061-.478-.125a.062.062,0,1,1,.032-.121l.477.124a.062.062,0,0,1-.015.123Zm-18.634-.233a.062.062,0,0,1-.015-.123l.48-.117a.062.062,0,0,1,.03.121l-.48.117Zm17.68-.021-.017,0-.476-.135a.062.062,0,1,1,.035-.12l.474.135a.062.062,0,0,1-.017.123Zm-16.721-.212a.062.062,0,0,1-.015-.123l.48-.116a.062.062,0,0,1,.029.121l-.48.116Zm15.771-.062-.018,0-.473-.144a.062.062,0,0,1,.037-.119l.472.144a.062.062,0,0,1-.018.122Zm-14.811-.17a.062.062,0,0,1-.015-.123l.48-.116a.062.062,0,0,1,.029.121l-.48.116ZM166.348,173a.062.062,0,0,1-.019,0l-.471-.15a.062.062,0,0,1,.038-.119l.47.15a.062.062,0,0,1-.019.122Zm-12.907-.112a.062.062,0,0,1-.015-.123l.48-.117a.062.062,0,1,1,.029.121l-.48.117Zm11.967-.192a.063.063,0,0,1-.02,0l-.469-.155a.062.062,0,1,1,.039-.118l.469.155a.062.062,0,0,1-.019.122Zm-11.007-.042a.062.062,0,0,1-.015-.123l.48-.118a.062.062,0,0,1,.03.121l-.48.118Zm.96-.237a.062.062,0,0,1-.015-.123l.479-.12a.062.062,0,0,1,.03.121l-.479.12Zm9.109-.033a.061.061,0,0,1-.02,0l-.468-.158a.062.062,0,1,1,.04-.118l.468.158a.062.062,0,0,1-.02.121Zm-8.151-.208a.062.062,0,0,1-.015-.123l.478-.122a.062.062,0,1,1,.031.121l-.479.122Zm7.214-.11a.059.059,0,0,1-.019,0l-.467-.159a.062.062,0,1,1,.039-.118l.462.157a.065.065,0,0,1,.042.08A.061.061,0,0,1,163.534,172.071Zm-6.258-.137a.062.062,0,0,1-.016-.123l.477-.126a.062.062,0,1,1,.032.121l-.478.126Zm5.321-.174-.018,0c-.169-.053-.324-.1-.472-.138a.062.062,0,1,1,.033-.12c.15.041.305.086.476.139a.062.062,0,0,1-.019.122Zm-4.366-.079a.062.062,0,0,1-.016-.123c.16-.042.32-.083.48-.121a.062.062,0,0,1,.029.122c-.16.038-.319.078-.477.12Zm3.412-.178h-.014c-.165-.036-.327-.066-.481-.09a.062.062,0,0,1-.052-.071.063.063,0,0,1,.071-.052c.157.024.321.054.489.091a.062.062,0,0,1-.013.123Zm-2.45-.046a.062.062,0,0,1-.011-.124c.174-.033.335-.057.492-.076a.061.061,0,0,1,.069.055.062.062,0,0,1-.055.069c-.154.018-.313.042-.484.074Zm1.474-.1h0c-.162-.011-.321-.015-.478-.011l-.011-.062.006-.062c.169,0,.326,0,.492.011a.062.062,0,0,1,0,.125Z" transform="translate(-147.624 -171.221)"/>
                  </g>
                  <g id="Group_6733" data-name="Group 6733" transform="translate(26.591 3.313)">
                    <path id="Path_31768" data-name="Path 31768" class="cls-6" d="M355.277,198.175h-.006a.062.062,0,0,1-.056-.068l.019-.187-.188-.024a.062.062,0,0,1-.054-.07.063.063,0,0,1,.07-.054l.247.032a.062.062,0,0,1,.054.068l-.025.248A.062.062,0,0,1,355.277,198.175Z" transform="translate(-354.992 -197.771)"/>
                  </g>
                  <g id="Group_6734" data-name="Group 6734" transform="translate(25.868 4.085)">
                    <path id="Path_31769" data-name="Path 31769" class="cls-6" d="M349.548,216.42a.062.062,0,0,1-.061-.05c-.031-.158-.061-.323-.087-.491a.062.062,0,0,1,.052-.072.063.063,0,0,1,.071.052c.026.166.055.33.086.486a.062.062,0,0,1-.049.073Zm-.155-.98a.062.062,0,0,1-.062-.055q-.03-.245-.053-.5a.062.062,0,0,1,.056-.068.063.063,0,0,1,.068.056q.023.248.052.492a.062.062,0,0,1-.054.069Zm-.091-.988a.063.063,0,0,1-.062-.058q-.016-.247-.026-.5a.063.063,0,0,1,.06-.065.065.065,0,0,1,.065.06q.01.249.026.494a.062.062,0,0,1-.058.066Zm-.04-.991a.062.062,0,0,1-.062-.061q0-.225,0-.45V212.9a.062.062,0,1,1,.125,0v.048c0,.149,0,.3,0,.448a.062.062,0,0,1-.061.064Zm0-.992h0a.062.062,0,0,1-.061-.064q0-.248.014-.5a.059.059,0,0,1,.065-.06.063.063,0,0,1,.06.065q-.009.248-.014.495A.063.063,0,0,1,349.264,212.469Zm.036-.992h0a.062.062,0,0,1-.059-.066q.013-.249.03-.5a.062.062,0,1,1,.124.008q-.016.247-.03.494A.062.062,0,0,1,349.3,211.477Zm.066-.99h-.005a.062.062,0,0,1-.057-.067q.02-.249.043-.495a.063.063,0,0,1,.068-.056.062.062,0,0,1,.056.068q-.023.245-.043.493A.062.062,0,0,1,349.366,210.487Zm.092-.987h-.006a.062.062,0,0,1-.056-.068q.026-.249.055-.494a.062.062,0,0,1,.124.014q-.028.244-.055.492A.063.063,0,0,1,349.458,209.5Zm.114-.986h-.008a.063.063,0,0,1-.054-.07q.032-.249.065-.492a.062.062,0,1,1,.124.017q-.034.242-.065.491A.062.062,0,0,1,349.572,208.514Zm.135-.983H349.7a.062.062,0,0,1-.053-.071q.037-.25.075-.491a.062.062,0,1,1,.123.019q-.038.24-.075.49A.063.063,0,0,1,349.708,207.531Zm.152-.981h-.009a.062.062,0,0,1-.053-.071c.022-.152.045-.317.068-.491a.062.062,0,0,1,.124.016c-.023.174-.045.34-.068.493A.062.062,0,0,1,349.859,206.55Zm.129-.984h-.007a.062.062,0,0,1-.055-.069c.02-.164.039-.33.058-.493a.062.062,0,0,1,.124.014c-.019.163-.038.329-.058.494A.062.062,0,0,1,349.988,205.566Zm.113-.987h-.007a.062.062,0,0,1-.055-.069c.019-.176.037-.343.053-.493a.061.061,0,0,1,.068-.056.062.062,0,0,1,.056.069c-.016.151-.034.317-.053.494A.062.062,0,0,1,350.1,204.579Z" transform="translate(-349.196 -203.961)"/>
                  </g>
                  <g id="Group_6735" data-name="Group 6735" transform="translate(26.113 16.903)">
                    <path id="Path_31770" data-name="Path 31770" class="cls-6" d="M351.222,307.191a.062.062,0,0,1-.031-.116l.173-.1c-.017-.065-.034-.131-.051-.2a.062.062,0,0,1,.121-.03q.03.121.062.24a.062.062,0,0,1-.028.07s-.075.045-.216.127A.063.063,0,0,1,351.222,307.191Z" transform="translate(-351.159 -306.698)"/>
                  </g>
                  <g id="Group_6736" data-name="Group 6736" transform="translate(0.174 3.852)">
                    <path id="Path_31771" data-name="Path 31771" class="cls-6" d="M157.2,219.8a.062.062,0,0,1,0-.125h.142q.174,0,.35-.01a.058.058,0,0,1,.065.059.062.062,0,0,1-.06.065q-.179.008-.354.01Zm-.5-.008h0q-.247-.008-.5-.024a.062.062,0,0,1-.058-.066.062.062,0,0,1,.066-.058q.246.015.492.023a.062.062,0,0,1,0,.125Zm1.485-.036a.062.062,0,0,1-.006-.125c.16-.014.324-.032.49-.054a.062.062,0,1,1,.016.124c-.167.022-.334.04-.495.054Zm-2.471-.026h-.006q-.247-.023-.494-.052a.062.062,0,1,1,.015-.124q.245.029.49.051a.062.062,0,0,1-.006.125Zm3.454-.1a.062.062,0,0,1-.01-.124q.242-.04.486-.088a.062.062,0,0,1,.024.122q-.246.049-.49.089Zm-4.437-.015h-.009q-.246-.036-.491-.077a.062.062,0,1,1,.021-.123q.244.041.488.076a.062.062,0,0,1-.009.124Zm-.978-.164h-.012q-.245-.047-.488-.1a.062.062,0,0,1,.026-.122q.242.052.486.1a.062.062,0,0,1-.012.124Zm6.388-.013a.062.062,0,0,1-.014-.123q.24-.054.48-.116a.062.062,0,0,1,.031.121q-.242.061-.483.116Zm-7.358-.194-.014,0q-.242-.057-.483-.118a.062.062,0,0,1,.031-.121q.239.061.48.118a.062.062,0,0,1-.014.123Zm8.319-.049a.062.062,0,0,1-.017-.122q.238-.066.475-.138a.062.062,0,0,1,.036.12q-.239.072-.478.139Zm-9.279-.2-.017,0q-.241-.066-.478-.136a.062.062,0,1,1,.035-.12q.236.069.476.135a.062.062,0,0,1-.016.123Zm10.229-.091a.062.062,0,0,1-.019-.122q.235-.076.469-.156a.062.062,0,0,1,.04.118q-.234.08-.471.157A.059.059,0,0,1,162.05,218.907Zm-11.181-.188a.061.061,0,0,1-.019,0q-.238-.074-.473-.152a.062.062,0,1,1,.039-.118q.233.077.471.151a.062.062,0,0,1-.019.122Zm12.117-.133a.062.062,0,0,1-.021-.121q.233-.085.464-.172a.062.062,0,1,1,.044.117q-.231.088-.466.173A.063.063,0,0,1,162.987,218.586Zm-13.059-.177a.061.061,0,0,1-.02,0q-.237-.082-.468-.166a.062.062,0,0,1,.043-.117q.231.084.466.166a.062.062,0,0,1-.02.121Zm13.986-.174a.062.062,0,0,1-.023-.12q.232-.092.459-.186a.062.062,0,0,1,.048.115q-.228.094-.46.186A.062.062,0,0,1,163.913,218.234ZM149,218.07a.063.063,0,0,1-.022,0q-.235-.089-.463-.18a.062.062,0,0,1,.046-.116q.227.09.461.179a.062.062,0,0,1-.022.121Zm15.834-.214a.062.062,0,0,1-.024-.12q.23-.1.454-.2a.062.062,0,1,1,.051.114q-.224.1-.455.2A.063.063,0,0,1,164.83,217.856Zm-16.756-.151a.061.061,0,0,1-.024,0q-.233-.1-.458-.192a.062.062,0,1,1,.049-.115q.224.1.456.192a.062.062,0,0,1-.024.12Zm17.662-.251a.062.062,0,0,1-.026-.119l.449-.209a.062.062,0,1,1,.053.113q-.22.1-.45.209A.062.062,0,0,1,165.736,217.454Zm-18.574-.14a.063.063,0,0,1-.025-.005q-.232-.1-.452-.2a.062.062,0,0,1,.052-.113q.22.1.451.2a.062.062,0,0,1-.025.119Zm19.471-.283a.062.062,0,0,1-.027-.118q.229-.112.444-.219a.062.062,0,0,1,.056.112q-.216.108-.445.22A.061.061,0,0,1,166.633,217.031Zm-20.371-.132a.062.062,0,0,1-.027-.006q-.231-.111-.447-.217a.062.062,0,0,1,.055-.112q.214.106.445.217a.062.062,0,0,1-.027.119Zm21.259-.311a.062.062,0,0,1-.029-.118q.231-.119.439-.229a.062.062,0,0,1,.058.11q-.209.11-.441.229A.061.061,0,0,1,167.52,216.587Zm-22.147-.129a.061.061,0,0,1-.028-.007q-.233-.12-.44-.231a.062.062,0,1,1,.059-.11q.206.11.439.23a.062.062,0,0,1-.029.118Zm23.025-.334a.062.062,0,0,1-.03-.117c.161-.087.306-.167.434-.239a.062.062,0,0,1,.061.109c-.128.072-.274.152-.435.24A.062.062,0,0,1,168.4,216.124Zm-23.9-.135a.063.063,0,0,1-.03-.008c-.163-.091-.307-.175-.431-.249a.062.062,0,0,1,.064-.107c.124.074.267.157.429.247a.062.062,0,0,1-.031.117Zm-.85-.514a.063.063,0,0,1-.036-.011c-.111-.078-.128-.1-.137-.121a.172.172,0,0,1-.009-.07c0-.054.006-.151.02-.305a.062.062,0,0,1,.124.011c-.013.151-.019.244-.019.294,0,.007,0,.013,0,.018a.889.889,0,0,0,.093.07.062.062,0,0,1-.036.114Zm-.053-.934h-.006a.062.062,0,0,1-.056-.068l.049-.493a.063.063,0,0,1,.068-.056.063.063,0,0,1,.056.068l-.049.493A.062.062,0,0,1,143.6,214.541Zm.1-.987h-.006a.062.062,0,0,1-.056-.068c.015-.157.03-.322.046-.493a.062.062,0,1,1,.124.011q-.023.258-.046.494A.062.062,0,0,1,143.692,213.554Zm.088-.987h-.005a.062.062,0,0,1-.057-.067q.02-.24.04-.494a.063.063,0,0,1,.067-.057.062.062,0,0,1,.057.067q-.02.254-.04.494A.062.062,0,0,1,143.78,212.567Zm.077-.988h0a.062.062,0,0,1-.058-.067q.017-.243.033-.494a.061.061,0,0,1,.066-.058.063.063,0,0,1,.058.066q-.016.251-.033.495A.062.062,0,0,1,143.857,211.578Zm.063-.989h0a.062.062,0,0,1-.059-.066q.014-.245.026-.494a.062.062,0,0,1,.125.006q-.012.25-.026.5A.062.062,0,0,1,143.92,210.589Zm.047-.99h0a.063.063,0,0,1-.06-.065q.01-.246.016-.494a.065.065,0,0,1,.064-.061.062.062,0,0,1,.061.064q-.007.249-.016.5A.062.062,0,0,1,143.967,209.6Zm.028-.991h0a.062.062,0,0,1-.061-.063q0-.247.006-.495a.062.062,0,0,1,.125,0q0,.249-.006.5A.062.062,0,0,1,143.995,208.609Zm.005-.991a.062.062,0,0,1-.062-.062q0-.248-.007-.494a.062.062,0,0,1,.061-.064.059.059,0,0,1,.064.061q.005.247.007.5a.062.062,0,0,1-.062.063Zm-.025-.991a.062.062,0,0,1-.062-.059q-.013-.248-.031-.493a.062.062,0,1,1,.124-.009q.019.246.032.5a.063.063,0,0,1-.059.066Zm-.075-.988a.063.063,0,0,1-.062-.056q-.025-.249-.054-.491a.062.062,0,1,1,.124-.015q.029.243.055.494a.062.062,0,0,1-.056.068Zm-.119-.984a.062.062,0,0,1-.062-.054q-.036-.25-.074-.489a.062.062,0,1,1,.123-.02q.039.239.074.491a.062.062,0,0,1-.053.071Zm-.157-.978a.062.062,0,0,1-.061-.051c-.03-.169-.061-.332-.091-.486a.062.062,0,0,1,.122-.024q.046.233.092.488a.062.062,0,0,1-.05.072Zm-.191-.972a.062.062,0,0,1-.061-.049c-.038-.178-.075-.34-.108-.483a.062.062,0,1,1,.121-.028c.033.143.07.306.109.485a.062.062,0,0,1-.048.074Z" transform="translate(-143.261 -202.097)"/>
                  </g>
                </g>
              </g>
              <g id="Group_6740" data-name="Group 6740" class="cls-7" transform="translate(0.406 11.156)">
                <g id="Group_6739" data-name="Group 6739">
                  <path id="Path_31772" data-name="Path 31772" class="cls-8" d="M165.546,256.125a17.6,17.6,0,0,0,.382,6.28s-7.492,4.526-12.972,4.579c-6.947.067-14.66-4.513-14.752-4.722-.057-.131.48-3.223.506-7.022,0,0,9.458.715,14.024.67S165.546,256.125,165.546,256.125Z" transform="translate(-138.2 -255.24)"/>
                </g>
              </g>
              <g id="Group_6741" data-name="Group 6741" transform="translate(11.779 1.577)">
                <path id="Path_31773" data-name="Path 31773" class="cls-6" d="M234.542,179.279a5.227,5.227,0,0,0-2.553-.807,5.032,5.032,0,0,0-2.631.734,11.956,11.956,0,0,1,2.671-.334A15.278,15.278,0,0,1,234.542,179.279Z" transform="translate(-229.357 -178.469)"/>
              </g>
              <g id="Group_6742" data-name="Group 6742" transform="translate(5.483 16.98)">
                <path id="Path_31774" data-name="Path 31774" class="cls-6" d="M178.889,301.921a18.69,18.69,0,0,0,9.17,2.53,15.382,15.382,0,0,0,8.732-2.224,54.111,54.111,0,0,1-8.651.87A60.717,60.717,0,0,1,178.889,301.921Z" transform="translate(-178.889 -301.921)"/>
              </g>
              <g id="Group_6743" data-name="Group 6743" transform="translate(5.73 11.487)">
                <path id="Path_31775" data-name="Path 31775" class="cls-6" d="M180.874,257.9l17.876.463a39.864,39.864,0,0,1-9.1,1.18A35.839,35.839,0,0,1,180.874,257.9Z" transform="translate(-180.874 -257.898)"/>
              </g>
              <g id="Group_6744" data-name="Group 6744" transform="translate(5.451 5.852)">
                <path id="Path_31776" data-name="Path 31776" class="cls-6" d="M178.637,214.565a25.989,25.989,0,0,1,9.161-1.832,24.177,24.177,0,0,1,8.743,1.882s-4.726-.47-8.692-.525C184.257,214.04,178.637,214.565,178.637,214.565Z" transform="translate(-178.637 -212.733)"/>
              </g>
            </g>
            <g id="Group_6749" data-name="Group 6749" transform="translate(0 0)">
              <path id="Path_31777" data-name="Path 31777" class="cls-2" d="M82.622,13.493l5.34-9.584,2.118.285,1.71,6.163-3.828,9.571-6.146,7.858" transform="translate(-44.663 -2.748)"/>
              <g id="Group_6727" data-name="Group 6727" class="cls-9" transform="translate(0 0)">
                <g id="Group_6726" data-name="Group 6726">
                  <path id="Path_31764" data-name="Path 31764" class="cls-10" d="M362.355,159.679a.649.649,0,0,0,.049-.917,27.337,27.337,0,0,1-4.494-7.831c-1.051-2.972-2.243-6.34-2.078-9.657.051-1.021.395-2.187,1.207-2.4.891-.23,1.781.807,2.033,1.131a14.107,14.107,0,0,1,2.48,5.916.718.718,0,0,0,.759.608,20.985,20.985,0,0,0-.926-3.547c-.827-2.294-2.25-4.846-4.158-4.8-3.871.1-1.469,9.282.053,13.139A25.72,25.72,0,0,0,362.355,159.679Z" transform="translate(-355.136 -138.189)"/>
                </g>
              </g>
            </g>
          </g>
        </g>
      </g>
    </g>
  </g>
</svg>
