<svg xmlns="http://www.w3.org/2000/svg" width="69.747" height="45.243" viewBox="0 0 69.747 45.243">
  <g id="Group_4027" data-name="Group 4027" transform="translate(0.5 0.5)">
    <g id="Group_4025" data-name="Group 4025" transform="translate(42.728 0.224)">
      <path id="Path_7826" data-name="Path 7826" d="M493.475,100.957a5.865,5.865,0,0,1-7.436,0,5.153,5.153,0,0,0-3.259,4.791v2.3a1.857,1.857,0,0,0,1.857,1.857h10.24a1.857,1.857,0,0,0,1.857-1.857v-2.3A5.153,5.153,0,0,0,493.475,100.957Z" transform="translate(-482.78 -91.382)" fill="none" stroke="#11044c" stroke-width="1"/>
      <path id="Path_7827" data-name="Path 7827" d="M496.7,79.962q-.119-.176-.252-.341a5.087,5.087,0,0,0-.583-.612q-.158-.14-.328-.267a5.034,5.034,0,0,0-1.11-.629q-.2-.081-.406-.146a5.038,5.038,0,0,0-5.039,8.4q.171.168.357.32a5.074,5.074,0,0,0,.487.346,5.019,5.019,0,0,0,2.7.785,5.107,5.107,0,0,0,.511-.026,5,5,0,0,0,2.184-.76c.033-.021.068-.039.1-.061q.2-.133.385-.285c.123-.1.242-.208.355-.32a5.053,5.053,0,0,0,.625-.749q.139-.2.257-.418a5.037,5.037,0,0,0,.012-4.823Q496.833,80.163,496.7,79.962Z" transform="translate(-485.54 -77.741)" fill="none" stroke="#11044c" stroke-width="1"/>
    </g>
    <g id="Group_4026" data-name="Group 4026" transform="translate(13.017)">
      <path id="Path_7826-2" data-name="Path 7826" d="M493.475,100.957a5.865,5.865,0,0,1-7.436,0,5.153,5.153,0,0,0-3.259,4.791v2.3a1.857,1.857,0,0,0,1.857,1.857h10.24a1.857,1.857,0,0,0,1.857-1.857v-2.3A5.153,5.153,0,0,0,493.475,100.957Z" transform="translate(-482.78 -91.382)" fill="none" stroke="#11044c" stroke-width="1"/>
      <path id="Path_7827-2" data-name="Path 7827" d="M496.7,79.962q-.119-.176-.252-.341a5.087,5.087,0,0,0-.583-.612q-.158-.14-.328-.267a5.034,5.034,0,0,0-1.11-.629q-.2-.081-.406-.146a5.038,5.038,0,0,0-5.039,8.4q.171.168.357.32a5.074,5.074,0,0,0,.487.346,5.019,5.019,0,0,0,2.7.785,5.107,5.107,0,0,0,.511-.026,5,5,0,0,0,2.184-.76c.033-.021.068-.039.1-.061q.2-.133.385-.285c.123-.1.242-.208.355-.32a5.053,5.053,0,0,0,.625-.749q.139-.2.257-.418a5.037,5.037,0,0,0,.012-4.823Q496.833,80.163,496.7,79.962Z" transform="translate(-485.54 -77.741)" fill="none" stroke="#11044c" stroke-width="1"/>
    </g>
    <g id="Group_4024" data-name="Group 4024" transform="translate(0 18.634)">
      <rect id="Rectangle_658" data-name="Rectangle 658" width="68.747" height="1.235" transform="translate(0 0)" fill="none" stroke="#11044c" stroke-width="1"/>
      <path id="Path_7828" data-name="Path 7828" d="M0,0H61.748V24.373H0Z" transform="translate(3.335 1.235)" fill="none" stroke="#11044c" stroke-width="1"/>
      <rect id="Rectangle_666" data-name="Rectangle 666" width="61.748" height="8.399" transform="translate(3.335 12.31)" fill="none" stroke="#11044c" stroke-width="1"/>
    </g>
  </g>
</svg>
