<svg xmlns="http://www.w3.org/2000/svg" width="24.522" height="25.961" viewBox="0 0 24.522 25.961">
  <g id="Group_7325" data-name="Group 7325" transform="translate(635.913 -1193.472)">
    <g id="Group_546" data-name="Group 546" transform="translate(-635.913 1193.472)">
      <path id="Path_2044" data-name="Path 2044" d="M39.54,272.7a1.967,1.967,0,1,0-1.966-1.969A1.97,1.97,0,0,0,39.54,272.7Zm4.5,2.526a1.794,1.794,0,0,0-1.794-1.8H36.713a1.793,1.793,0,0,0-1.792,1.8l0,7.242a.783.783,0,1,0,1.565,0v-6.619h.332v17.7a1.173,1.173,0,1,0,2.346,0v-9.7h.642v9.692a1.174,1.174,0,1,0,2.347,0v-17.7h.315v6.593a.784.784,0,1,0,1.568,0Z" transform="translate(-34.921 -268.765)" fill="#29abe2"/>
    </g>
    <g id="Group_547" data-name="Group 547" transform="translate(-620.51 1193.472)">
      <path id="Path_2045" data-name="Path 2045" d="M54.943,272.7a1.967,1.967,0,1,0-1.966-1.969A1.97,1.97,0,0,0,54.943,272.7Zm4.5,2.526a1.794,1.794,0,0,0-1.795-1.8H52.116a1.793,1.793,0,0,0-1.792,1.8l0,7.242a.783.783,0,1,0,1.565,0v-6.619h.332v17.7a1.174,1.174,0,0,0,2.347,0v-9.7h.641v9.692a1.174,1.174,0,1,0,2.347,0v-17.7h.316v6.593a.783.783,0,1,0,1.566,0Z" transform="translate(-50.324 -268.765)" fill="#29abe2"/>
    </g>
  </g>
</svg>
