<?xml version="1.0" standalone="no"?>
<!DOCTYPE svg PUBLIC "-//W3C//DTD SVG 20010904//EN"
 "http://www.w3.org/TR/2001/REC-SVG-20010904/DTD/svg10.dtd">
<svg version="1" xmlns="http://www.w3.org/2000/svg"
 width="900pt" height="660pt" viewBox="0 0 900 660"
 preserveAspectRatio="xMidYMid meet">
<metadata>
Created by potrace 1.16, written by Peter Selinger 2001-2019
</metadata>
<g transform="matrix(0.1,0,0,-0.1,0,660)"
fill="#fff" stroke="none">
<path d="M 4325 6594 c -242 -18 -431 -47 -620 -94 c -1580 -395 -2621 -1889 -2430 -3486 c 83 -692 383 -1323 873 -1835 c 885 -926 2268 -1243 3479 -799 c 310 114 668 317 926 525 c 567 457 975 1116 1121 1813 c 153 729 56 1469 -277 2117 c -499 968 -1423 1607 -2517 1740 c -123 15 -458 27 -555 19 z m -324 -642 c 49 -32 95 -82 111 -121 c 7 -17 10 -172 9 -428 l -2 -403 l 361 0 l 361 0 l 25 25 l 26 26 l -3 377 c -3 368 -3 378 18 417 c 24 45 62 83 113 114 c 29 18 51 21 135 21 c 84 0 106 -3 135 -21 c 52 -31 89 -69 113 -114 c 20 -38 21 -53 18 -300 c -1 -143 1 -324 5 -402 l 7 -143 l 218 0 l 218 0 l 6 -32 c 3 -18 5 -343 3 -723 c -4 -771 -1 -734 -77 -890 c -67 -136 -174 -247 -336 -351 c -107 -68 -98 -69 -575 114 c -228 88 -566 217 -750 287 c -845 320 -947 362 -989 404 c -21 21 -21 23 -21 606 l 0 585 l 225 0 l 225 0 l 0 388 c 0 445 1 453 76 522 c 64 59 94 69 205 70 c 88 0 99 -2 140 -28 z m -1281 -2395 c 500 -184 844 -315 2065 -785 c 1358 -523 1486 -574 1549 -617 l 31 -21 l 3 -268 l 2 -267 l -22 7 c -41 12 -439 161 -628 234 c -307 119 -658 255 -975 377 c -165 63 -487 187 -715 275 c -228 88 -462 178 -520 200 c -58 22 -253 97 -435 168 c -181 70 -413 160 -515 199 c -101 40 -195 81 -207 93 c -23 21 -23 24 -23 284 l 0 263 l 53 -18 c 28 -10 180 -66 337 -124 z m 1713 -1608 c 347 -130 383 -146 403 -177 c 16 -25 18 -58 17 -392 c -1 -357 -2 -367 -23 -413 c -72 -153 -320 -218 -507 -132 c -67 30 -135 98 -151 151 c -9 30 -12 175 -12 541 c 0 275 3 503 7 506 c 11 11 16 10 266 -84 z"/>
</g>
</svg>
