<svg xmlns="http://www.w3.org/2000/svg" width="511.975" height="512.082" viewBox="0 0 511.975 512.082">
  <g id="config" transform="translate(-0.015 0.106)">
    <g id="Group_7464" data-name="Group 7464">
      <g id="Group_7463" data-name="Group 7463">
        <path id="Path_31534" data-name="Path 31534" d="M211.286,115.43a10,10,0,0,0-12.972-5.631A157.206,157.206,0,0,0,98.827,256.033a10,10,0,0,0,20,0,136.454,136.454,0,0,1,86.83-127.63,10,10,0,0,0,5.629-12.973Z" fill="#8dddff"/>
      </g>
    </g>
    <g id="Group_7466" data-name="Group 7466">
      <g id="Group_7465" data-name="Group 7465">
        <path id="Path_31535" data-name="Path 31535" d="M321.869,246.128a10,10,0,0,0-10,10,56,56,0,1,1-56-56,10,10,0,1,0,0-20,76,76,0,1,0,75.995,76,10,10,0,0,0-9.995-10Z" fill="#8dddff"/>
      </g>
    </g>
    <g id="Group_7468" data-name="Group 7468">
      <g id="Group_7467" data-name="Group 7467">
        <path id="Path_31536" data-name="Path 31536" d="M358.937,245.75a10,10,0,0,0-10,10v.377a10,10,0,0,0,20,0v-.377a10,10,0,0,0-10-10Z" fill="#8dddff"/>
      </g>
    </g>
    <g id="Group_7470" data-name="Group 7470">
      <g id="Group_7469" data-name="Group 7469">
        <path id="Path_31537" data-name="Path 31537" d="M318.474,336.945a9.992,9.992,0,1,0,2.931,7.07,9.992,9.992,0,0,0-2.931-7.07Z" fill="#8dddff"/>
      </g>
    </g>
    <g id="Group_7472" data-name="Group 7472">
      <g id="Group_7471" data-name="Group 7471">
        <path id="Path_31538" data-name="Path 31538" d="M477.987,362.569a33.777,33.777,0,0,0-15.906,3.963L432.489,336.94a10,10,0,0,0-7.071-2.929H352.5a10,10,0,0,0,0,20h68.771l26.667,26.667a33.991,33.991,0,1,0,30.045-18.107Zm0,48a14,14,0,1,1,14-14,14,14,0,0,1-14,14Z" fill="#fff"/>
      </g>
    </g>
    <g id="Group_7474" data-name="Group 7474">
      <g id="Group_7473" data-name="Group 7473">
        <path id="Path_31539" data-name="Path 31539" d="M477.987,81.467a33.978,33.978,0,0,0-30.043,49.888l-26.667,26.667H311.86a113.019,113.019,0,0,0-45.878-14.483V125.464H371.423a10,10,0,0,0,8.755-5.168l30.387-55.069a34.059,34.059,0,1,0-15.474-13.352l-29.571,53.59H265.982V10.041a10,10,0,0,0-10-10H211.145a10,10,0,0,0-10,10V40.984a219.7,219.7,0,0,0-58.662,24.311L120.688,43.5a10,10,0,0,0-14.144,0l-63.2,63.25a10,10,0,0,0,0,14.138L65.115,142.66a219.739,219.739,0,0,0-24.309,58.662H10.015a10,10,0,0,0-10,10v89.417a10,10,0,0,0,10,10H40.807A219.653,219.653,0,0,0,65.116,369.4L43.345,391.173a10,10,0,0,0,0,14.138l63.2,63.25a10,10,0,0,0,7.071,2.932h0a10,10,0,0,0,7.071-2.929l21.8-21.794a219.785,219.785,0,0,0,58.661,24.311v30.894a10,10,0,0,0,9.993,10h44.843a9.958,9.958,0,0,0,10-9.975V406.11H365.5L395.1,460.1a33.981,33.981,0,1,0,15.49-13.346L380.19,391.3a10,10,0,0,0-8.768-5.193H265.98V359.189a10,10,0,0,0-10-10,93.152,93.152,0,1,1-1.858-186.295,9.994,9.994,0,0,0,1.751.169,93.483,93.483,0,0,1,87.255,60.615,10,10,0,1,0,18.744-6.972,112.32,112.32,0,0,0-24.357-38.684h87.9a10,10,0,0,0,7.071-2.929l29.6-29.593a33.993,33.993,0,1,0,15.906-64.032ZM423.992,20a14,14,0,1,1-14,14A14,14,0,0,1,423.992,20Zm0,444a14,14,0,1,1-14,14,14,14,0,0,1,14-14ZM245.983,143.314a113.162,113.162,0,0,0,0,225.438V492l-24.839-.014V463.154a10,10,0,0,0-7.9-9.776,200.072,200.072,0,0,1-66.8-27.681,10,10,0,0,0-12.5,1.328L113.62,447.353l-49.067-49.1,20.31-20.31a10,10,0,0,0,1.327-12.5,200.039,200.039,0,0,1-27.678-66.8,10,10,0,0,0-9.776-7.9H20.014V221.326H48.735a10,10,0,0,0,9.776-7.9,200.059,200.059,0,0,1,27.678-66.8,10,10,0,0,0-1.327-12.5l-20.31-20.31,49.067-49.1,20.327,20.328a10,10,0,0,0,12.5,1.328,200.074,200.074,0,0,1,66.8-27.681,10,10,0,0,0,7.9-9.776V20.041h24.839V143.314Zm232-13.851a14,14,0,1,1,14-14,14,14,0,0,1-14,14Z" fill="#fff"/>
      </g>
    </g>
    <g id="Group_7476" data-name="Group 7476">
      <g id="Group_7475" data-name="Group 7475">
        <path id="Path_31540" data-name="Path 31540" d="M477.987,222.16a34.056,34.056,0,0,0-32.495,24h-29.5a10,10,0,0,0,0,20h29.5a34,34,0,1,0,32.5-44Zm0,48a14,14,0,1,1,14-14,14,14,0,0,1-14,14Z" fill="#fff"/>
      </g>
    </g>
  </g>
</svg>
