<?xml version="1.0" encoding="utf-8"?>
<!-- Generator: Adobe Illustrator 24.1.0, SVG Export Plug-In . SVG Version: 6.00 Build 0)  -->
<svg version="1.1" id="Layer_1" xmlns="http://www.w3.org/2000/svg" xmlns:xlink="http://www.w3.org/1999/xlink" x="0px" y="0px"
	 viewBox="0 0 40 40" style="enable-background: new 0 0 40 40" xml:space="preserve">
<style type="text/css">
	.st0{fill:#fff;}
	.st1{fill:none;stroke:#fff;stroke-width:0.9678;stroke-miterlimit:10;}
	.st2{fill:none;stroke:#fff;stroke-width:0.2494;stroke-miterlimit:10;}
	.st3{fill:#FFFFFF;}
	.st4{fill:none;stroke:#fff;stroke-width:0.3776;stroke-miterlimit:10;}
	.st5{fill:none;stroke:#fff;stroke-width:1.0076;stroke-miterlimit:10;}
	.st6{fill:#151A6A;}
	.st7{fill:none;stroke:#fff;stroke-width:1.0467;stroke-miterlimit:10;}
	.st8{fill:none;stroke:#fff;stroke-width:0.7887;stroke-miterlimit:10;}
	.st9{fill:none;stroke:#fff;stroke-miterlimit:10;}
	.st10{fill:none;stroke:#fff;stroke-width:0.5;stroke-miterlimit:10;}
	.st11{opacity:0.22;}
	.st12{fill:none;stroke:#fff;stroke-width:0.8978;stroke-miterlimit:10;}
	.st13{fill:none;stroke:#fff;stroke-width:0.4592;stroke-miterlimit:10;}
	.st14{fill:none;stroke:#fff;stroke-width:0.4489;stroke-miterlimit:10;}
	.st15{opacity:0.11;}
	.st16{fill:none;stroke:#1C75BC;stroke-width:0.9179;stroke-miterlimit:10;}
	.st17{fill:none;stroke:#1C75BC;stroke-width:0.5809;stroke-miterlimit:10;}
	.st18{fill:#1C75BC;}
	.st19{fill:none;stroke:#fff;stroke-width:1.0446;stroke-miterlimit:10;}
	.st20{clip-path:url(#SVGID_2_);fill:#fff;}
	.st21{fill:none;stroke:#fff;stroke-width:0.5341;stroke-miterlimit:10;}
	.st22{fill:url(#SVGID_3_);stroke:#fff;stroke-width:0.5341;stroke-miterlimit:10;}
	.st23{fill:url(#SVGID_4_);stroke:#fff;stroke-width:0.5341;stroke-miterlimit:10;}
	.st24{fill:url(#SVGID_5_);stroke:#fff;stroke-width:0.5341;stroke-miterlimit:10;}
	.st25{fill:url(#SVGID_6_);stroke:#fff;stroke-width:0.5;stroke-miterlimit:10;}
	.st26{fill:#D4E1F4;}
	.st27{clip-path:url(#SVGID_8_);fill:#D4E1F4;}
	.st28{clip-path:url(#SVGID_8_);fill:#fff;}
	.st29{clip-path:url(#SVGID_10_);fill:#fff;}
	.st30{clip-path:url(#SVGID_12_);fill:#fff;}
	.st31{fill:url(#SVGID_13_);stroke:#fff;stroke-width:0.5341;stroke-miterlimit:10;}
	.st32{clip-path:url(#SVGID_15_);fill:#fff;}
	.st33{clip-path:url(#SVGID_17_);fill:#fff;}
	.st34{clip-path:url(#SVGID_19_);fill:#fff;}
	.st35{clip-path:url(#SVGID_21_);fill:#fff;}
	.st36{fill:#24A2CE;}
	.st37{fill:#EF5B5B;}
	.st38{fill:#FFBA49;}
	.st39{clip-path:url(#SVGID_23_);fill:#fff;}
	.st40{clip-path:url(#SVGID_25_);fill:#fff;}
</style>
<g>
	<path class="st0" d="M 15 8.4 l -0.7 -0.7 l -0.8 0.8 l 1.5 1.5 l 4.8 -4.8 l -0.8 -0.8 L 15 8.4 z M 15 8.4"/>
	<path class="st0" d="M 37.1 17.4 c 0 -2.8 -1.2 -5.5 -3.3 -7.4 c -2.1 -1.9 -4.9 -2.8 -7.8 -2.5 c -0.8 0.1 -1.5 0.3 -2.2 0.5 V 4.2 c 0 -0.9 -0.7 -1.7 -1.7 -1.7 H 11.2 c -0.9 0 -1.7 0.7 -1.7 1.7 v 6.6 c 0 0.9 0.7 1.7 1.7 1.7 h 0.9 l 1.8 1.8 c 0.3 0.3 0.6 0.4 0.9 0.4 c 0.7 0 1.3 -0.6 1.3 -1.3 v -0.9 h 2.4 c -0.7 1.1 -1.1 2.4 -1.3 3.7 c -0.5 3.9 1.3 7.7 4.7 9.7 c -0.4 0.2 -0.6 0.5 -0.8 0.9 h -8.9 v 3.9 H 2.9 v 6.1 h 24.3 c 1.5 0 2.8 -1.2 2.8 -2.8 v -0.7 c 0.6 -0.2 1.1 -0.8 1.1 -1.6 c 0 -0.2 0 -0.4 -0.1 -0.6 c 0.7 -0.2 1.2 -0.8 1.2 -1.6 c 0 -0.2 0 -0.4 -0.1 -0.6 c 0.7 -0.2 1.2 -0.8 1.2 -1.6 c 0 -0.6 -0.4 -1.2 -0.9 -1.5 C 35.3 24.1 37.1 20.9 37.1 17.4 L 37.1 17.4 z M 15 11.4 v 2 c 0 0.2 -0.3 0.3 -0.4 0.2 l -2.1 -2.1 h -1.3 c -0.3 0 -0.6 -0.3 -0.6 -0.6 V 4.2 c 0 -0.3 0.3 -0.6 0.6 -0.6 h 11 c 0.3 0 0.6 0.3 0.6 0.6 v 4.3 c -1.3 0.7 -2.5 1.6 -3.4 2.8 H 15 z M 4 31.8 h 9.4 v -3.9 h 7.8 c 0.2 0.5 0.6 0.9 1.1 1 c -0.1 0.2 -0.1 0.4 -0.1 0.6 c 0 0.8 0.5 1.4 1.2 1.6 c -0.1 0.2 -0.1 0.4 -0.1 0.6 c 0 0.7 0.5 1.3 1.1 1.6 v 0.7 c 0 0.6 0.2 1.2 0.6 1.7 H 4 V 31.8 z M 27.2 35.6 c -0.9 0 -1.7 -0.7 -1.7 -1.7 v -0.6 h 3.3 v 0.6 C 28.8 34.9 28.1 35.6 27.2 35.6 L 27.2 35.6 z M 29.4 32.3 h -4.4 c -0.3 0 -0.6 -0.3 -0.6 -0.6 c 0 -0.3 0.3 -0.6 0.6 -0.6 h 4.4 c 0.3 0 0.6 0.3 0.6 0.6 C 29.9 32.1 29.7 32.3 29.4 32.3 L 29.4 32.3 z M 30.5 30.1 h -6.6 c -0.3 0 -0.6 -0.3 -0.6 -0.6 s 0.3 -0.6 0.6 -0.6 h 6.6 c 0.3 0 0.6 0.3 0.6 0.6 S 30.8 30.1 30.5 30.1 L 30.5 30.1 z M 31.8 20.5 c -0.5 -1.2 -1.5 -2.2 -2.7 -2.7 c 0.6 -0.5 0.9 -1.2 0.9 -2 c 0 -1.5 -1.2 -2.8 -2.8 -2.8 c -1.5 0 -2.8 1.2 -2.8 2.8 c 0 0.8 0.3 1.5 0.9 2 c -1.2 0.5 -2.2 1.5 -2.7 2.7 c -0.6 -0.9 -0.9 -1.9 -0.9 -3.1 c 0 -3 2.5 -5.5 5.5 -5.5 s 5.5 2.5 5.5 5.5 C 32.7 18.6 32.4 19.6 31.8 20.5 L 31.8 20.5 z M 25.5 15.8 c 0 -0.9 0.7 -1.7 1.7 -1.7 c 0.9 0 1.7 0.7 1.7 1.7 c 0 0.9 -0.7 1.7 -1.7 1.7 C 26.3 17.4 25.5 16.7 25.5 15.8 L 25.5 15.8 z M 27.2 18.5 c 1.8 0 3.3 1.2 3.7 2.9 c -1 0.9 -2.3 1.5 -3.7 1.5 c -1.4 0 -2.8 -0.6 -3.7 -1.5 C 23.9 19.8 25.4 18.5 27.2 18.5 L 27.2 18.5 z M 27.2 24.1 c 0.2 0 0.4 0 0.6 0 v 3.9 h -1.1 v -3.9 C 26.8 24 27 24.1 27.2 24.1 L 27.2 24.1 z M 31.3 25.2 l -0.3 0.2 v 1.4 h 0.6 c 0.3 0 0.6 0.3 0.6 0.6 s -0.3 0.6 -0.6 0.6 h -2.8 v -4.1 c 2.9 -0.7 5 -3.3 5 -6.4 c 0 -3.6 -3 -6.6 -6.6 -6.6 c -3.6 0 -6.6 3 -6.6 6.6 c 0 3.1 2.1 5.7 5 6.4 v 4.1 h -2.8 c -0.3 0 -0.6 -0.3 -0.6 -0.6 s 0.3 -0.6 0.6 -0.6 h 0.6 v -1.4 l -0.3 -0.2 c -3.3 -1.7 -5.1 -5.2 -4.6 -8.9 c 0.5 -4 3.7 -7.2 7.7 -7.7 c 2.6 -0.3 5 0.5 6.9 2.2 c 1.9 1.7 3 4.1 3 6.6 C 36 20.7 34.2 23.7 31.3 25.2 L 31.3 25.2 z M 31.3 25.2"/>
	<path class="st0" d="M 11.2 27.9 v -7.2 c 0 -0.3 0.3 -0.6 0.6 -0.6 h 2.5 l -1.3 1.3 l 0.8 0.8 l 2.6 -2.6 l -2.6 -2.6 l -0.8 0.8 l 1.3 1.3 h -2.5 c -0.9 0 -1.7 0.7 -1.7 1.7 v 7.2 c 0 0.3 -0.3 0.6 -0.6 0.6 H 2.9 v 1.1 h 6.6 C 10.4 29.6 11.2 28.8 11.2 27.9 L 11.2 27.9 z M 11.2 27.9"/>
</g>
</svg>
