<svg id="dashboard_dark" xmlns="http://www.w3.org/2000/svg" width="310.804" height="310.804" viewBox="0 0 310.804 310.804">
  <g id="Group_148360" data-name="Group 148360">
    <path id="Path_259860" data-name="Path 259860" d="M291.379,77.7H19.425A19.449,19.449,0,0,1,0,58.276V19.425A19.449,19.449,0,0,1,19.425,0H291.379A19.449,19.449,0,0,1,310.8,19.425v38.85A19.449,19.449,0,0,1,291.379,77.7ZM19.425,12.95a6.477,6.477,0,0,0-6.475,6.475v38.85a6.477,6.477,0,0,0,6.475,6.475H291.379a6.477,6.477,0,0,0,6.475-6.475V19.425a6.477,6.477,0,0,0-6.475-6.475Z" fill="#fff"/>
  </g>
  <g id="Group_148361" data-name="Group 148361" transform="translate(0 103.601)">
    <path id="Path_259861" data-name="Path 259861" d="M123.027,215.2H19.425A19.449,19.449,0,0,1,0,195.777V27.425A19.449,19.449,0,0,1,19.425,8h103.6a19.449,19.449,0,0,1,19.425,19.425V195.777A19.449,19.449,0,0,1,123.027,215.2ZM19.425,20.95a6.477,6.477,0,0,0-6.475,6.475V195.777a6.477,6.477,0,0,0,6.475,6.475h103.6a6.477,6.477,0,0,0,6.475-6.475V27.425a6.477,6.477,0,0,0-6.475-6.475Z" transform="translate(0 -8)" fill="#fff"/>
  </g>
  <g id="Group_148362" data-name="Group 148362" transform="translate(168.352 103.601)">
    <path id="Path_259862" data-name="Path 259862" d="M136.027,98.651H32.425A19.449,19.449,0,0,1,13,79.226v-51.8A19.449,19.449,0,0,1,32.425,8h103.6a19.449,19.449,0,0,1,19.425,19.425v51.8A19.449,19.449,0,0,1,136.027,98.651Zm-103.6-77.7a6.477,6.477,0,0,0-6.475,6.475v51.8A6.477,6.477,0,0,0,32.425,85.7h103.6a6.477,6.477,0,0,0,6.475-6.475v-51.8a6.477,6.477,0,0,0-6.475-6.475Z" transform="translate(-13 -8)" fill="#fff"/>
  </g>
  <g id="Group_148363" data-name="Group 148363" transform="translate(168.352 220.153)">
    <path id="Path_259863" data-name="Path 259863" d="M136.027,107.651H32.425A19.449,19.449,0,0,1,13,88.226v-51.8A19.449,19.449,0,0,1,32.425,17h103.6a19.449,19.449,0,0,1,19.425,19.425v51.8A19.449,19.449,0,0,1,136.027,107.651Zm-103.6-77.7a6.477,6.477,0,0,0-6.475,6.475v51.8A6.477,6.477,0,0,0,32.425,94.7h103.6a6.477,6.477,0,0,0,6.475-6.475v-51.8a6.477,6.477,0,0,0-6.475-6.475Z" transform="translate(-13 -17)" fill="#fff"/>
  </g>
  <g id="Group_148364" data-name="Group 148364" transform="translate(203.448 242.486)">
    <path id="Path_259863-2" data-name="Path 259863" d="M75.406,62.984H22.854A9.866,9.866,0,0,1,13,53.13V26.854A9.866,9.866,0,0,1,22.854,17H75.406a9.866,9.866,0,0,1,9.854,9.854V53.13A9.866,9.866,0,0,1,75.406,62.984ZM22.854,23.569a3.286,3.286,0,0,0-3.285,3.285V53.13a3.286,3.286,0,0,0,3.285,3.285H75.406a3.286,3.286,0,0,0,3.285-3.285V26.854a3.286,3.286,0,0,0-3.285-3.285Z" transform="translate(-13 -17)" fill="#8dddff"/>
  </g>
  <g id="Group_148365" data-name="Group 148365" transform="translate(203.448 125.935)">
    <path id="Path_259863-3" data-name="Path 259863" d="M75.406,62.984H22.854A9.866,9.866,0,0,1,13,53.13V26.854A9.866,9.866,0,0,1,22.854,17H75.406a9.866,9.866,0,0,1,9.854,9.854V53.13A9.866,9.866,0,0,1,75.406,62.984ZM22.854,23.569a3.286,3.286,0,0,0-3.285,3.285V53.13a3.286,3.286,0,0,0,3.285,3.285H75.406a3.286,3.286,0,0,0,3.285-3.285V26.854a3.286,3.286,0,0,0-3.285-3.285Z" transform="translate(-13 -17)" fill="#8dddff"/>
  </g>
  <g id="Group_148366" data-name="Group 148366" transform="translate(26.514 142.167)">
    <path id="Path_259861-2" data-name="Path 259861" d="M77.23,138.072H12.194A12.209,12.209,0,0,1,0,125.877V20.194A12.209,12.209,0,0,1,12.194,8H77.23A12.209,12.209,0,0,1,89.424,20.194V125.877A12.209,12.209,0,0,1,77.23,138.072ZM12.194,16.129a4.066,4.066,0,0,0-4.065,4.065V125.877a4.066,4.066,0,0,0,4.065,4.065H77.23a4.066,4.066,0,0,0,4.065-4.065V20.194a4.066,4.066,0,0,0-4.065-4.065Z" transform="translate(0 -8)" fill="#8dddff"/>
  </g>
  <g id="Group_148367" data-name="Group 148367">
    <path id="Path_259860-2" data-name="Path 259860" d="M291.379,77.7H19.425A19.449,19.449,0,0,1,0,58.276V19.425A19.449,19.449,0,0,1,19.425,0H291.379A19.449,19.449,0,0,1,310.8,19.425v38.85A19.449,19.449,0,0,1,291.379,77.7ZM19.425,12.95a6.477,6.477,0,0,0-6.475,6.475v38.85a6.477,6.477,0,0,0,6.475,6.475H291.379a6.477,6.477,0,0,0,6.475-6.475V19.425a6.477,6.477,0,0,0-6.475-6.475Z" fill="#fff"/>
  </g>
</svg>
