<svg xmlns="http://www.w3.org/2000/svg" width="512.009" height="512.028" viewBox="0 0 512.009 512.028">
  <g id="map" transform="translate(-0.016)">
    <g id="Group_148369" data-name="Group 148369">
      <g id="Group_148368" data-name="Group 148368">
        <path id="Path_259873" data-name="Path 259873" d="M496.016,224a16.006,16.006,0,0,0-16,16V421.184l-128,51.2V304a16,16,0,0,0-32,0V472.352l-128-51.2v-253.5l74.144,29.664a16.005,16.005,0,1,0,11.872-29.728l-95.776-38.336h-.032l-.256-.1a15.869,15.869,0,0,0-11.872,0l-.288.1h-.032l-159.712,63.9A16,16,0,0,0,.016,208V496a15.992,15.992,0,0,0,21.952,14.848l154.048-61.6,153.76,61.5h.032l.288.128a15.87,15.87,0,0,0,11.872,0l.288-.128h.032L502,446.88A16.1,16.1,0,0,0,512.016,432V240a16.006,16.006,0,0,0-16-16Zm-336,197.152-128,51.2V218.816l128-51.2Z" fill="#fff"/>
      </g>
    </g>
    <g id="Group_148371" data-name="Group 148371">
      <g id="Group_148370" data-name="Group 148370">
        <path id="Path_259874" data-name="Path 259874" d="M400.016,64a48,48,0,1,0,48,48,48,48,0,0,0-48-48Zm0,64a16,16,0,1,1,16-16,16,16,0,0,1-16,16Z" fill="#fff"/>
      </g>
    </g>
    <g id="Group_148373" data-name="Group 148373">
      <g id="Group_148372" data-name="Group 148372">
        <path id="Path_259875" data-name="Path 259875" d="M400.016,0a112.123,112.123,0,0,0-112,112c0,57.472,89.856,159.264,100.1,170.688a15.994,15.994,0,0,0,23.808,0c10.24-11.424,100.1-113.216,100.1-170.688A112.123,112.123,0,0,0,400.016,0Zm0,247.584c-34.944-41.44-80-105.056-80-135.584a80,80,0,0,1,160,0C480.016,142.5,434.96,206.144,400.016,247.584Z" fill="#8dddff"/>
      </g>
    </g>
  </g>
</svg>
