<svg xmlns="http://www.w3.org/2000/svg" width="278.561" height="278.52" viewBox="0 0 278.561 278.52">
  <g id="Group_29282" data-name="Group 29282" transform="translate(0.75 0.751)">
    <g id="Group_26803" data-name="Group 26803" transform="translate(0 -0.001)">
      <g id="Group_26799" data-name="Group 26799" transform="translate(18.822 76.533)">
        <path id="Path_55007" data-name="Path 55007" d="M614.113,416.644a96.464,96.464,0,0,1-55.431-16.006l-9.189-6.537a2.62,2.62,0,1,1,3.038-4.27l9.189,6.528A91.216,91.216,0,0,0,614.127,411.4a113.336,113.336,0,0,0,15.182-1.026,2.62,2.62,0,1,1,.7,5.19,118.563,118.563,0,0,1-15.9,1.077Zm29.231-3.784a2.62,2.62,0,0,1-.673-5.154,92.339,92.339,0,0,0,29.854-13.67l40.67-28.9a2.622,2.622,0,0,1,3.037,4.274l-40.675,28.9a97.471,97.471,0,0,1-31.541,14.458,2.482,2.482,0,0,1-.692.091ZM539.607,386.5a2.6,2.6,0,0,1-1.512-.486l-41.229-29.318a2.625,2.625,0,0,1,0-4.274l27.1-19.24a2.622,2.622,0,0,1,3.038,4.274l-24.092,17.1,38.242,27.179a2.62,2.62,0,0,1-1.521,4.76Zm186.5-24.692a2.62,2.62,0,0,1-1.521-4.755l3.5-2.492-58.871-41.742a86.812,86.812,0,0,0-42.92-14.659,2.62,2.62,0,1,1,.458-5.218,92.038,92.038,0,0,1,45.5,15.576L734.1,352.423a2.625,2.625,0,0,1,0,4.274l-6.51,4.627a2.621,2.621,0,0,1-1.507.485ZM536.859,329.848a2.62,2.62,0,0,1-1.521-4.755l20.074-14.252a106.2,106.2,0,0,1,57.066-18.251,2.529,2.529,0,0,1,2.712,2.519,2.616,2.616,0,0,1-2.52,2.717,100.915,100.915,0,0,0-54.226,17.293L538.37,329.366a2.609,2.609,0,0,1-1.53.486Z" transform="translate(-495.766 -292.584)" fill="#fff" stroke="#fff" stroke-width="1.5"/>
      </g>
      <g id="Group_26800" data-name="Group 26800" transform="translate(53.284 76.437)">
        <path id="Path_55008" data-name="Path 55008" d="M589.518,416.71c-3.33,0-6.688-.142-9.969-.431a2.62,2.62,0,0,1-2.386-2.836A2.653,2.653,0,0,1,580,411.061c3.138.27,6.34.408,9.519.408a102.906,102.906,0,0,0,58.394-17.358l8.64-6.148a2.622,2.622,0,0,1,3.037,4.274l-8.645,6.148A106.74,106.74,0,0,1,589.518,416.71Zm-23.547-2.529a2.988,2.988,0,0,1-.573-.06,86.008,86.008,0,0,1-31.339-13.445l-22.731-16.162a2.614,2.614,0,0,1-.948-1.26,84.861,84.861,0,0,1-4.741-22.823,2.611,2.611,0,0,1,2.433-2.79,2.638,2.638,0,0,1,2.79,2.432,79.967,79.967,0,0,0,4.178,20.642l22.053,15.676A80.759,80.759,0,0,0,566.535,409a2.62,2.62,0,0,1-.568,5.176Zm103.165-29.8a2.62,2.62,0,0,1-2.478-3.477,80.445,80.445,0,0,0,.06-52.356l-22.09-15.676a94.684,94.684,0,0,0-61.679-14.659,2.62,2.62,0,1,1-.43-5.218c3.243-.27,6.523-.408,9.744-.408a96.234,96.234,0,0,1,55.4,16.033l22.768,16.162a2.605,2.605,0,0,1,.948,1.255,85.693,85.693,0,0,1,.229,56.6,2.62,2.62,0,0,1-2.469,1.741ZM508.484,348.92a1.693,1.693,0,0,1-.266,0,2.616,2.616,0,0,1-2.346-2.868,85.118,85.118,0,0,1,4.5-20.028,2.59,2.59,0,0,1,.948-1.255L530.8,310.929a100.639,100.639,0,0,1,37.564-15.887,2.62,2.62,0,1,1,1.063,5.126,95.409,95.409,0,0,0-35.6,15.03l-18.782,13.354a79.828,79.828,0,0,0-3.954,18.022,2.62,2.62,0,0,1-2.6,2.341Z" transform="translate(-505.633 -292.558)" fill="#fff" stroke="#fff" stroke-width="1.5"/>
      </g>
      <g id="Group_26801" data-name="Group 26801" transform="translate(104.866 104.832)">
        <path id="Path_55009" data-name="Path 55009" d="M553.844,368.044h0a33.693,33.693,0,0,1-14.013-64.217,2.62,2.62,0,0,1,2.217,4.746,28.453,28.453,0,0,0,11.823,54.23,2.62,2.62,0,1,1,0,5.241Zm13.523-3a2.62,2.62,0,0,1-1.132-4.979,28.448,28.448,0,0,0-12.2-54.139,2.62,2.62,0,1,1,0-5.241,33.684,33.684,0,0,1,14.458,64.107,2.582,2.582,0,0,1-1.113.252Z" transform="translate(-520.399 -300.685)" fill="#8dddff"/>
      </g>
      <g id="Group_26802" data-name="Group 26802">
        <path id="Path_55010" data-name="Path 55010" d="M764.811,547.7h-6.189a2.62,2.62,0,0,1,0-5.241h3.569V467.426a2.62,2.62,0,0,1,5.241,0v77.648a2.62,2.62,0,0,1-2.62,2.62Zm-20.157,0H687.162a2.62,2.62,0,1,1,0-5.241h57.482a2.62,2.62,0,1,1,0,5.241Zm-173.992,0H493a2.62,2.62,0,0,1-2.62-2.62V538.89a2.62,2.62,0,0,1,5.241,0v3.55h75.019a2.62,2.62,0,0,1,0,5.241ZM493.01,527.539a2.62,2.62,0,0,1-2.62-2.62V467.426a2.62,2.62,0,0,1,5.241,0v57.487a2.62,2.62,0,0,1-2.629,2.62ZM764.82,353.57a2.62,2.62,0,0,1-2.62-2.62V293.462a2.62,2.62,0,1,1,5.241,0v57.492a2.621,2.621,0,0,1-2.629,2.611Zm-271.81,0a2.62,2.62,0,0,1-2.62-2.62V273.3a2.62,2.62,0,0,1,2.62-2.62h6.166a2.62,2.62,0,1,1,0,5.241h-3.569v75.032A2.62,2.62,0,0,1,493,353.565Zm271.81-71.464a2.62,2.62,0,0,1-2.62-2.62v-3.569H687.162a2.62,2.62,0,1,1,0-5.241h77.644a2.62,2.62,0,0,1,2.62,2.62v6.194a2.62,2.62,0,0,1-2.615,2.62Zm-194.18-6.184H513.161a2.62,2.62,0,1,1,0-5.241h57.478a2.62,2.62,0,1,1,0,5.241Z" transform="translate(-490.38 -270.676)" fill="#fff" stroke="#fff" stroke-width="1.5"/>
      </g>
    </g>
  </g>
</svg>
