<?xml version="1.0" encoding="iso-8859-1"?>
<!-- Generator: Adobe Illustrator 19.0.0, SVG Export Plug-In . SVG Version: 6.00 Build 0)  -->
<svg version="1.1" id="Layer_1" xmlns="http://www.w3.org/2000/svg" xmlns:xlink="http://www.w3.org/1999/xlink" x="0px" y="0px"
	 viewBox="0 0 490 490" style="enable-background: new 0 0 490 490" xml:space="preserve">
<g>
	<g>
		<path style="fill: #3C92CA" d="M 245.8 335.8 c 8.1 0 15.5 -3.1 21.1 -8.1 l 36.5 21.1 c 1.6 0.9 3.3 1.3 4.9 1.3 c 3.4 0 6.8 -1.8 8.6 -5 c 2.7 -4.7 1.1 -10.8 -3.6 -13.5 l -36.4 -21 c 0.4 -2.1 0.7 -4.3 0.7 -6.5 c 0 -14 -9.2 -26 -21.8 -30.1 v -42.1 c 0 -5.5 -4.4 -9.9 -9.9 -9.9 s -9.9 4.4 -9.9 9.9 v 42.1 c -12.8 4.1 -22 16 -22 30 c 0 2.2 0.2 4.4 0.7 6.5 l -36.4 21 c -4.7 2.7 -6.4 8.8 -3.6 13.5 c 1.8 3.2 5.2 5 8.6 5 c 1.7 0 3.4 -0.4 4.9 -1.3 l 36.5 -21.1 C 230.3 332.6 237.7 335.8 245.8 335.8 z M 245.8 292.1 c 6.6 0 11.9 5.3 11.9 11.9 s -5.3 11.9 -11.9 11.9 s -11.9 -5.3 -11.9 -11.9 C 233.8 297.4 239.2 292.1 245.8 292.1 z"/>
		<path style="fill: #ffffff" d="M 331.9 235.9 c 5.5 0 9.9 -4.4 9.9 -9.9 v -24.5 c 0 -8.2 -3.6 -15.9 -9.9 -21 c -18.7 -15.4 -38.8 -26.6 -48.2 -31.5 v -24.8 c 4.6 -4.8 7.2 -11.2 7.2 -18 v -35.8 c 0 -23.2 -18.9 -42.1 -42.1 -42.1 h -7.7 c -23.2 0 -42.1 18.9 -42.1 42.1 v 35.8 c 0 6.8 2.6 13.2 7.2 18 v 24.7 c -9.4 4.9 -29.4 16.1 -48.2 31.5 c -6.3 5.2 -9.9 12.8 -9.9 21 v 24.5 c 0 5.5 4.4 9.9 9.9 9.9 s 9.9 -4.4 9.9 -9.9 v -24.5 c 0 -2.2 1 -4.3 2.7 -5.7 c 21.4 -17.6 44.5 -29.2 48.9 -31.4 c 4 -1.9 6.4 -5.9 6.4 -10.3 v -34.5 c 0 -3.3 -1.7 -6.4 -4.4 -8.2 c -1.7 -1.2 -2.8 -3.1 -2.8 -5.2 v -35.7 c 0 -12.3 10 -22.3 22.3 -22.3 h 7.7 c 12.3 0 22.3 10 22.3 22.3 v 35.7 c 0 2.1 -1 4 -2.8 5.2 c -2.8 1.8 -4.4 4.9 -4.4 8.2 v 34.5 c 0 4.4 2.5 8.4 6.4 10.3 c 4.4 2.2 27.6 13.9 48.9 31.4 c 1.7 1.4 2.7 3.5 2.7 5.7 v 24.5 C 322 231.6 326.5 235.9 331.9 235.9 z"/>
		<path style="fill: #ffffff" d="M 490 451.6 v -24.5 c 0 -8.2 -3.6 -15.9 -9.9 -21 c -18.7 -15.4 -38.7 -26.6 -48.2 -31.5 v -24.8 c 4.6 -4.8 7.2 -11.2 7.2 -18 v -35.7 c 0 -23.2 -18.9 -42.1 -42.1 -42.1 h -7.7 c -23.2 0 -42.1 18.9 -42.1 42.1 v 35.8 c 0 6.8 2.6 13.2 7.2 18 v 24.8 c -9.4 4.9 -29.4 16.1 -48.2 31.5 c -6.3 5.2 -9.9 12.8 -9.9 21 v 24.5 c 0 5.5 4.4 9.9 9.9 9.9 s 9.9 -4.4 9.9 -9.9 v -24.5 c 0 -2.2 1 -4.3 2.7 -5.7 c 21.4 -17.6 44.5 -29.2 48.9 -31.4 c 3.9 -1.9 6.5 -6 6.5 -10.3 v -34.5 c 0 -3.3 -1.7 -6.4 -4.4 -8.2 c -1.7 -1.2 -2.8 -3.1 -2.8 -5.2 v -35.8 c 0 -12.3 10 -22.3 22.3 -22.3 h 7.7 c 12.3 0 22.3 10 22.3 22.3 v 35.7 c 0 2.1 -1 4 -2.8 5.2 c -2.8 1.8 -4.4 4.9 -4.4 8.2 v 34.5 c 0 4.4 2.5 8.4 6.4 10.3 c 4.4 2.2 27.6 13.9 48.9 31.4 c 1.7 1.4 2.7 3.5 2.7 5.7 v 24.5 c 0 5.5 4.4 9.9 9.9 9.9 C 485.6 461.6 490 457.1 490 451.6 z"/>
		<path style="fill: #ffffff" d="M 183.7 461.6 c 5.5 0 9.9 -4.4 9.9 -9.9 v -24.5 c 0 -8.2 -3.6 -15.9 -9.9 -21 c -18.7 -15.4 -38.7 -26.6 -48.2 -31.5 v -24.8 c 4.6 -4.8 7.2 -11.2 7.2 -18 v -35.7 c 0 -23.2 -18.9 -42.1 -42.1 -42.1 H 93 c -23.2 0 -42.1 18.9 -42.1 42.1 v 35.8 c 0 6.8 2.6 13.2 7.2 18 v 24.8 c -9.4 4.9 -29.4 16.1 -48.2 31.5 c -6.3 5.2 -9.9 12.8 -9.9 21 v 24.5 c 0 5.5 4.4 9.9 9.9 9.9 s 9.9 -4.4 9.9 -9.9 v -24.5 c 0 -2.2 1 -4.3 2.7 -5.7 c 21.3 -17.5 44.5 -29.2 48.9 -31.4 c 3.9 -1.9 6.5 -6 6.5 -10.3 v -34.5 c 0 -3.3 -1.7 -6.4 -4.4 -8.2 c -1.7 -1.2 -2.8 -3.1 -2.8 -5.2 v -35.8 c 0 -12.3 10 -22.3 22.3 -22.3 h 7.7 c 12.3 0 22.3 10 22.3 22.3 v 35.7 c 0 2.1 -1 4 -2.8 5.2 c -2.8 1.8 -4.4 4.9 -4.4 8.2 v 34.5 c 0 4.4 2.5 8.4 6.4 10.3 c 4.4 2.2 27.6 13.9 48.9 31.4 c 1.7 1.4 2.7 3.5 2.7 5.7 v 24.5 C 173.8 457.1 178.3 461.6 183.7 461.6 z"/>
	</g>
</g>
<g>
</g>
<g>
</g>
<g>
</g>
<g>
</g>
<g>
</g>
<g>
</g>
<g>
</g>
<g>
</g>
<g>
</g>
<g>
</g>
<g>
</g>
<g>
</g>
<g>
</g>
<g>
</g>
<g>
</g>
</svg>
