<svg xmlns="http://www.w3.org/2000/svg" width="496.004" height="496.003" viewBox="0 0 496.004 496.003">
  <g id="Activities_dark" transform="translate(-7.996 -7.999)">
    <path id="Path_259849" data-name="Path 259849" d="M504,256A248.006,248.006,0,1,1,51.64,115.46a8,8,0,1,1,13.171,9.081A231.982,231.982,0,1,0,126.93,63.19l12.66,15.06L84.61,88l19.04-52.49,12.93,15.38A248.01,248.01,0,0,1,504,256Z" fill="#fff"/>
    <path id="Path_259850" data-name="Path 259850" d="M256,456c110.28,0,200-89.72,200-200S366.28,56,256,56,56,145.72,56,256,145.72,456,256,456Zm0-384c101.458,0,184,82.542,184,184S357.458,440,256,440,72,357.458,72,256,154.542,72,256,72Z" fill="#fff"/>
    <path id="Path_259851" data-name="Path 259851" d="M256,104a8,8,0,0,0,8-8V88a8,8,0,0,0-16,0v8A8,8,0,0,0,256,104Z" fill="#8dddff"/>
    <path id="Path_259852" data-name="Path 259852" d="M256,408a8,8,0,0,0-8,8v8a8,8,0,0,0,16,0v-8A8,8,0,0,0,256,408Z" fill="#8dddff"/>
    <path id="Path_259853" data-name="Path 259853" d="M416,264h8a8,8,0,0,0,0-16h-8a8,8,0,0,0,0,16Z" fill="#8dddff"/>
    <path id="Path_259854" data-name="Path 259854" d="M88,264h8a8,8,0,0,0,0-16H88a8,8,0,0,0,0,16Z" fill="#8dddff"/>
    <path id="Path_259855" data-name="Path 259855" d="M369.137,150.863a7.974,7.974,0,0,0,5.656-2.343l5.657-5.657a8,8,0,1,0-11.312-11.314l-5.658,5.657a8,8,0,0,0,5.657,13.657Z" fill="#8dddff"/>
    <path id="Path_259856" data-name="Path 259856" d="M137.206,382.794a7.974,7.974,0,0,0,5.657-2.343l5.658-5.657a8,8,0,0,0-11.315-11.315l-5.657,5.658a8,8,0,0,0,5.657,13.657Z" fill="#8dddff"/>
    <path id="Path_259857" data-name="Path 259857" d="M374.794,363.479a8,8,0,0,0-11.315,11.315l5.658,5.657a8,8,0,1,0,11.314-11.314Z" fill="#8dddff"/>
    <path id="Path_259858" data-name="Path 259858" d="M137.207,148.52a8,8,0,1,0,11.313-11.314l-5.658-5.657a8,8,0,1,0-11.312,11.314Z" fill="#8dddff"/>
    <path id="Path_259859" data-name="Path 259859" d="M137.857,282.143l68.486,68.485a8,8,0,0,0,11.314,0L374.143,194.143a8,8,0,0,0,0-11.315l-16.971-16.971a8,8,0,0,0-11.315,0L212,299.716l-45.857-45.859a8,8,0,0,0-11.315,0l-16.971,16.971a8,8,0,0,0,0,11.315Zm22.628-11.315,45.858,45.859a8,8,0,0,0,11.314,0L351.515,182.828l5.657,5.657L212,333.657l-57.172-57.172Z" fill="#8dddff"/>
  </g>
</svg>
