<svg xmlns="http://www.w3.org/2000/svg" width="177.704" height="40.24" viewBox="0 0 177.704 40.24">
  <g id="Group_29097" data-name="Group 29097" transform="translate(-229.651 -240.689)">
    <g id="Group_140" data-name="Group 140" transform="translate(336.608 272.901)">
      <g id="Group_135" data-name="Group 135" transform="translate(0 0)">
        <path id="Path_1295" data-name="Path 1295" d="M576.614,341.853l-1.962,5.376-1.932-5.376h-1.653l-1.917,5.376-1.932-5.376h-1.667l2.913,8.028h1.4l2.042-5.674,2.057,5.674h1.388l2.93-8.028Z" transform="translate(-565.551 -341.853)" fill="#8c91b6"/>
      </g>
      <g id="Group_136" data-name="Group 136" transform="translate(14.37 0)">
        <path id="Path_1296" data-name="Path 1296" d="M618.239,341.853h-5.3a2.334,2.334,0,0,0-2.259,2.479v5.549h1.557v-5.549c0-.544.25-.919.7-.919h5.3c.437,0,.716.374.716.919v1.278h-5.549v1.557h5.549v2.714h1.56v-5.549A2.357,2.357,0,0,0,618.239,341.853Z" transform="translate(-610.681 -341.853)" fill="#8c91b6"/>
      </g>
      <g id="Group_137" data-name="Group 137" transform="translate(26.698 0)">
        <path id="Path_1297" data-name="Path 1297" d="M653.794,345.874l3.974-4.021H655.6l-3.941,4.021,4.206,4.006h2.167Zm-4.4-4.021v8.028h1.56v-8.028Z" transform="translate(-649.398 -341.853)" fill="#8c91b6"/>
      </g>
      <g id="Group_138" data-name="Group 138" transform="translate(37.282 0)">
        <path id="Path_1298" data-name="Path 1298" d="M685.365,345.08v1.558h5.391V345.08Zm5.828-1.668v-1.56h-8.557v8.028h8.557v-1.56h-7v-4.907Z" transform="translate(-682.636 -341.853)" fill="#8c91b6"/>
      </g>
      <g id="Group_139" data-name="Group 139" transform="translate(48.335 0)">
        <path id="Path_1299" data-name="Path 1299" d="M726.4,345.812a2.081,2.081,0,0,0,.826-1.745,2.146,2.146,0,0,0-2.244-2.214h-7.636v8.028h7.775a2.165,2.165,0,0,0,2.259-2.214A2.039,2.039,0,0,0,726.4,345.812Zm-1.278,2.508h-6.218v-4.907h6.078c.4,0,.684.294.684.856s-.279.811-.684.811h-4.91v1.558h5.05c.422,0,.7.264.7.841S725.545,348.32,725.123,348.32Z" transform="translate(-717.348 -341.853)" fill="#8c91b6"/>
      </g>
    </g>
    <g id="Group_145" data-name="Group 145" transform="translate(313.948 240.806)">
      <g id="Group_141" data-name="Group 141" transform="translate(0 12.613)">
        <path id="Path_1300" data-name="Path 1300" d="M505.228,297.4v6.55h6.685V297.4Zm18.5-7.646a1.837,1.837,0,0,1-1.04-3.352v-5.736H516v8.172H501.072v-8.172h-6.685V295.73H524.61v-6.2A1.822,1.822,0,0,1,523.726,289.757Z" transform="translate(-494.387 -280.668)" fill="#8c91b6"/>
      </g>
      <g id="Group_142" data-name="Group 142" transform="translate(28.299 9.136)">
        <path id="Path_1301" data-name="Path 1301" d="M592.041,273.09v-3.342h-6.822v9.136a1.819,1.819,0,0,1,.7.716h27.11a1.838,1.838,0,1,1,.008,1.765H585.911a1.837,1.837,0,0,1-2.651.624v6.3h39.376v-15.2Z" transform="translate(-583.26 -269.748)" fill="#8c91b6"/>
      </g>
      <g id="Group_143" data-name="Group 143" transform="translate(69.752 0)">
        <path id="Path_1302" data-name="Path 1302" d="M713.444,241.057v27.692h6.685V241.057Z" transform="translate(-713.444 -241.057)" fill="#8c91b6"/>
      </g>
      <g id="Group_144" data-name="Group 144" transform="translate(78.311 12.783)">
        <path id="Path_1303" data-name="Path 1303" d="M755.4,296.21V281.2H740.325l.017.135v14.792h6.548v-5.719a1.84,1.84,0,1,1,1.747,0v13.856h6.785V300.5Z" transform="translate(-740.325 -281.201)" fill="#8c91b6"/>
      </g>
    </g>
    <g id="Group_147" data-name="Group 147" transform="translate(229.651 240.689)">
      <g id="Group_146" data-name="Group 146" transform="translate(0 0)">
        <path id="Path_1304" data-name="Path 1304" d="M263.436,272.919l-5.918-9.363-.142-.224-7.264-11.412-3.222-5.065h-5.554a1.837,1.837,0,1,1,0-1.747h4.441l-2.811-4.418H229.651l7.147,11.23,2.261,3.552h5.779a1.839,1.839,0,0,1,3.457.874,1.809,1.809,0,0,1-.237.9l8.11,12.83a1.838,1.838,0,1,1-1.478.934l-8.11-12.833a1.094,1.094,0,0,1-.125.007,1.838,1.838,0,0,1-1.618-.966H240.17l14.772,23.211h4.625l3.844-5.749A1.839,1.839,0,0,1,263.436,272.919Z" transform="translate(-229.651 -240.689)" fill="#8c91b6"/>
        <path id="Path_1305" data-name="Path 1305" d="M342.283,316.012l-5.491,8.632H330.2l3.2-4.78a1.8,1.8,0,0,0,1.153-.275,1.839,1.839,0,0,0-1.106-3.39l-2.291-3.622,4.468-7.019Z" transform="translate(-298.186 -284.903)" fill="#8c91b6"/>
      </g>
    </g>
    <g id="Group_149" data-name="Group 149" transform="translate(258.791 240.689)">
      <g id="Group_148" data-name="Group 148" transform="translate(0 0)">
        <path id="Path_1306" data-name="Path 1306" d="M378.071,281.437l2.466,3.876-2.656,4.174-4.835-8-.032-.055Z" transform="translate(-356.504 -268.462)" fill="#8c91b6"/>
        <path id="Path_1307" data-name="Path 1307" d="M330.3,246.76l-2.833,3.824-6.3-9.895h27.8l-2.319,3.464a1.83,1.83,0,0,0-1.7.807,1.68,1.68,0,0,0-.09.147h-11.28a1.84,1.84,0,0,0-3.457.874A1.807,1.807,0,0,0,330.3,246.76Z" transform="translate(-321.166 -240.689)" fill="#8c91b6"/>
        <path id="Path_1308" data-name="Path 1308" d="M349.911,252.79a1.84,1.84,0,0,0,1.84,1.839.564.564,0,0,0,.09,0l5.282,8.734-2.95,4.635-6.657-10.454-3.42-5.377,3.235-4.363a1.755,1.755,0,0,0,.26.02,1.838,1.838,0,0,0,1.618-.966h11.277a1.839,1.839,0,0,0,3.245-1.732l2.968-4.433h4.85L364.4,251.916H353.368a1.839,1.839,0,0,0-3.457.874Z" transform="translate(-336.794 -240.689)" fill="#8c91b6"/>
      </g>
    </g>
    <g id="Group_151" data-name="Group 151" transform="translate(273.318 240.689)">
      <g id="Group_150" data-name="Group 150" transform="translate(0 0)">
        <path id="Path_1309" data-name="Path 1309" d="M397.052,260.051a1.831,1.831,0,0,1-1.615.966c-.052,0-.1,0-.157-.007l-2.688,4.1a1.841,1.841,0,0,1-3.24,1.75h-5.529l-4.995,7.853-6.657,10.461-5.382,8.452h5.781L384.487,274.9a1.839,1.839,0,1,1,1.473.938l-11.317,17.788H380.1l5.382-8.452,12.763-20.059,3.222-5.065Z" transform="translate(-366.789 -253.886)" fill="#8c91b6"/>
        <path id="Path_1310" data-name="Path 1310" d="M444.238,240.689l-2.811,4.418H435.9a1.838,1.838,0,1,0-3.233,1.75l-2.691,4.1a1.842,1.842,0,0,0-1.695.824,1.57,1.57,0,0,0-.082.137H423.78l7.144-11.227Z" transform="translate(-405.633 -240.689)" fill="#8c91b6"/>
      </g>
    </g>
    <g id="Group_154" data-name="Group 154" transform="translate(275.3 253.664)">
      <g id="Group_153" data-name="Group 153">
        <g id="Group_152" data-name="Group 152">
          <path id="Path_1311" data-name="Path 1311" d="M373.079,281.437a.337.337,0,0,1-.032.055l-.032-.055Z" transform="translate(-373.014 -281.437)" fill="#8c91b6"/>
        </g>
      </g>
    </g>
  </g>
</svg>
