<svg xmlns="http://www.w3.org/2000/svg" xmlns:xlink="http://www.w3.org/1999/xlink" width="102.675" height="49.596" viewBox="0 0 102.675 49.596">
  <defs>
    <linearGradient id="linear-gradient" x1="0.465" y1="0.317" x2="0.5" y2="1" gradientUnits="objectBoundingBox">
      <stop offset="0" stop-color="#11044c"/>
      <stop offset="1" stop-color="#03010f"/>
    </linearGradient>
    <linearGradient id="linear-gradient-3" x1="0.5" y1="0.274" x2="0.5" y2="1" gradientUnits="objectBoundingBox">
      <stop offset="0" stop-color="#29abe2"/>
      <stop offset="1" stop-color="#155671"/>
    </linearGradient>
    <linearGradient id="linear-gradient-6" x1="0.5" y1="0.281" x2="0.5" y2="1" gradientUnits="objectBoundingBox">
      <stop offset="0" stop-color="#90218a"/>
      <stop offset="1" stop-color="#481145"/>
    </linearGradient>
    <linearGradient id="linear-gradient-8" x1="-674.439" y1="-474.336" x2="1081.859" y2="760.806" gradientUnits="objectBoundingBox">
      <stop offset="0" stop-color="#29abe2"/>
      <stop offset="1" stop-color="#ed1e79"/>
    </linearGradient>
  </defs>
  <g id="Group_23137" data-name="Group 23137" transform="translate(-229.651 -240.689)">
    <g id="Group_147" data-name="Group 147" transform="translate(229.651 240.689)">
      <g id="Group_146" data-name="Group 146" transform="translate(0 0)">
        <path id="Path_1304" data-name="Path 1304" d="M271.814,280.912l-7.386-11.685-.178-.28L255.186,254.7l-4.021-6.321h-6.931a2.293,2.293,0,1,1,0-2.18h5.542l-3.508-5.514H229.651L238.57,254.7l2.822,4.433H248.6a2.295,2.295,0,0,1,4.314,1.09,2.257,2.257,0,0,1-.3,1.125l10.121,16.012a2.294,2.294,0,1,1-1.844,1.165l-10.121-16.015a1.358,1.358,0,0,1-.156.009,2.294,2.294,0,0,1-2.019-1.205h-5.825l18.435,28.968h5.772l4.8-7.174A2.3,2.3,0,0,1,271.814,280.912Z" transform="translate(-229.651 -240.689)" fill="url(#linear-gradient)"/>
        <path id="Path_1305" data-name="Path 1305" d="M345.278,318.6l-6.853,10.772H330.2l3.99-5.966a2.248,2.248,0,0,0,1.439-.343,2.295,2.295,0,0,0-1.38-4.23l-2.859-4.52,5.576-8.759Z" transform="translate(-290.246 -279.78)" fill="url(#linear-gradient)"/>
      </g>
    </g>
    <g id="Group_149" data-name="Group 149" transform="translate(266.017 240.689)">
      <g id="Group_148" data-name="Group 148" transform="translate(0 0)">
        <path id="Path_1306" data-name="Path 1306" d="M379.325,281.437l3.078,4.838-3.314,5.209-6.034-9.978-.04-.069Z" transform="translate(-352.41 -265.244)" fill="url(#linear-gradient-3)"/>
        <path id="Path_1307" data-name="Path 1307" d="M332.561,248.265l-3.536,4.772-7.859-12.348h34.7l-2.894,4.323a2.284,2.284,0,0,0-2.121,1.007,2.1,2.1,0,0,0-.112.184H336.658a2.3,2.3,0,0,0-4.315,1.09A2.255,2.255,0,0,0,332.561,248.265Z" transform="translate(-321.166 -240.689)" fill="url(#linear-gradient-3)"/>
        <path id="Path_1308" data-name="Path 1308" d="M351.353,255.791a2.3,2.3,0,0,0,2.3,2.3.708.708,0,0,0,.112-.006l6.592,10.9-3.682,5.785-8.308-13.046-4.268-6.71,4.037-5.445a2.193,2.193,0,0,0,.324.025,2.294,2.294,0,0,0,2.019-1.206h14.074a2.3,2.3,0,0,0,4.05-2.162l3.7-5.532h6.052L369.44,254.7H355.668a2.295,2.295,0,0,0-4.315,1.09Z" transform="translate(-334.983 -240.689)" fill="url(#linear-gradient-3)"/>
      </g>
    </g>
    <g id="Group_151" data-name="Group 151" transform="translate(284.147 240.689)">
      <g id="Group_150" data-name="Group 150" transform="translate(0 0)">
        <path id="Path_1309" data-name="Path 1309" d="M404.557,260.051a2.285,2.285,0,0,1-2.016,1.206c-.065,0-.131,0-.2-.009l-3.355,5.118a2.3,2.3,0,0,1-4.044,2.184h-6.9l-6.233,9.8L373.506,291.4l-6.717,10.548H374l14.872-23.37a2.3,2.3,0,1,1,1.838,1.171l-14.124,22.2h6.816l6.717-10.548,15.927-25.033,4.022-6.321Z" transform="translate(-366.789 -252.357)" fill="url(#linear-gradient-6)"/>
        <path id="Path_1310" data-name="Path 1310" d="M449.312,240.689,445.8,246.2h-6.9a2.294,2.294,0,1,0-4.034,2.184l-3.358,5.115a2.3,2.3,0,0,0-2.115,1.028,1.95,1.95,0,0,0-.1.171H423.78l8.916-14.012Z" transform="translate(-401.133 -240.689)" fill="url(#linear-gradient-6)"/>
      </g>
    </g>
    <g id="Group_154" data-name="Group 154" transform="translate(286.621 256.882)">
      <g id="Group_153" data-name="Group 153">
        <g id="Group_152" data-name="Group 152">
          <path id="Path_1311" data-name="Path 1311" d="M373.095,281.437a.416.416,0,0,1-.04.068l-.041-.068Z" transform="translate(-373.014 -281.437)" fill="url(#linear-gradient-8)"/>
        </g>
      </g>
    </g>
  </g>
</svg>
